M48
; DRILL file {KiCad 8.0.3} date 2025-06-04T21:14:47+0900
; FORMAT={-:-/ absolute / inch / decimal}
; #@! TF.CreationDate,2025-06-04T21:14:47+09:00
; #@! TF.GenerationSoftware,Kicad,Pcbnew,8.0.3
; #@! TF.FileFunction,Plated,1,2,PTH
FMAT,2
INCH
; #@! TA.AperFunction,Plated,PTH,ViaDrill
T1C0.0118
; #@! TA.AperFunction,Plated,PTH,ComponentDrill
T2C0.0276
; #@! TA.AperFunction,Plated,PTH,ComponentDrill
T3C0.0295
; #@! TA.AperFunction,Plated,PTH,ComponentDrill
T4C0.0300
; #@! TA.AperFunction,Plated,PTH,ComponentDrill
T5C0.0315
; #@! TA.AperFunction,Plated,PTH,ComponentDrill
T6C0.0354
; #@! TA.AperFunction,Plated,PTH,ComponentDrill
T7C0.0374
; #@! TA.AperFunction,Plated,PTH,ComponentDrill
T8C0.0394
; #@! TA.AperFunction,Plated,PTH,ComponentDrill
T9C0.0433
; #@! TA.AperFunction,Plated,PTH,ComponentDrill
T10C0.0591
; #@! TA.AperFunction,Plated,PTH,ComponentDrill
T11C0.1063
%
G90
G05
T1
X3.0512Y-3.7008
X3.0512Y-3.7795
X3.0512Y-3.8583
X3.1102Y-3.7008
X3.1102Y-3.7795
X3.1102Y-3.8583
X3.1693Y-3.7008
X3.1693Y-3.7795
X3.1693Y-3.8583
X3.2283Y-3.7008
X3.2283Y-3.7795
X3.2283Y-3.8583
X4.3701Y-3.9764
X4.3701Y-4.0551
X4.3701Y-4.1339
X4.3701Y-4.2126
X4.3701Y-4.2913
X4.3701Y-4.3701
X4.4291Y-3.9764
X4.4291Y-4.0551
X4.4291Y-4.1339
X4.4291Y-4.2126
X4.4291Y-4.2913
X4.4291Y-4.3701
X4.4882Y-3.9764
X4.4882Y-4.0551
X4.4882Y-4.1339
X4.4882Y-4.2126
X4.4882Y-4.2913
X4.4882Y-4.3701
X4.5472Y-3.9764
X4.5472Y-4.0551
X4.5472Y-4.1339
X4.5472Y-4.2126
X4.5472Y-4.2913
X4.5472Y-4.3701
X4.6063Y-3.9764
X4.6063Y-4.0551
X4.6063Y-4.1339
X4.6063Y-4.2126
X4.6063Y-4.2913
X4.6063Y-4.3701
X4.6654Y-3.9764
X4.6654Y-4.0551
X4.6654Y-4.1339
X4.6654Y-4.2126
X4.6654Y-4.2913
X4.6654Y-4.3701
X4.7244Y-3.9764
X4.7244Y-4.0551
X4.7244Y-4.1339
X4.7244Y-4.2126
X4.7244Y-4.2913
X4.7244Y-4.3701
X4.7835Y-3.9764
X4.7835Y-4.0551
X4.7835Y-4.1339
X4.7835Y-4.2126
X4.7835Y-4.2913
X4.7835Y-4.3701
X6.5354Y-4.1142
X6.5354Y-4.1929
X6.5354Y-4.2717
X6.5551Y-2.7165
X6.5945Y-4.1142
X6.5945Y-4.1929
X6.5945Y-4.2717
X6.6142Y-2.3091
X6.6142Y-3.7598
X6.6358Y-2.7264
X6.6535Y-2.311
X6.6535Y-4.1142
X6.6535Y-4.1929
X6.6535Y-4.2717
X6.6673Y-2.687
X6.7126Y-4.1142
X6.7126Y-4.1929
X6.7126Y-4.2717
X6.7264Y-2.1673
X6.7323Y-2.4606
X6.7431Y-2.6289
X6.7726Y-2.5994
X6.8071Y-2.5591
X6.9291Y-2.185
X6.9622Y-2.1386
X6.9685Y-2.2244
X6.9685Y-2.3228
X6.9685Y-2.9528
X6.9685Y-3.0315
X6.9685Y-3.1102
X7.0276Y-2.9528
X7.0276Y-3.0315
X7.0276Y-3.1102
X7.0866Y-2.9528
X7.0866Y-3.0315
X7.0866Y-3.1102
X7.1457Y-2.9528
X7.1457Y-3.0315
X7.1457Y-3.1102
X7.1866Y-2.3028
X7.2244Y-4.0945
X7.2244Y-4.2913
X7.2638Y-2.3819
X7.2732Y-2.45
X7.2862Y-2.5354
X7.3425Y-2.6575
X7.4165Y-2.5354
X7.5394Y-2.6378
X7.5591Y-2.2047
X7.6575Y-2.6378
X7.815Y-3.8583
X7.815Y-3.937
X7.815Y-4.0157
X7.874Y-2.9724
X7.874Y-3.0512
X7.874Y-3.1299
X7.874Y-3.8583
X7.874Y-3.937
X7.874Y-4.0157
X7.9331Y-2.9724
X7.9331Y-3.0512
X7.9331Y-3.1299
X7.9331Y-3.8583
X7.9331Y-3.937
X7.9331Y-4.0157
X7.9921Y-2.9724
X7.9921Y-3.0512
X7.9921Y-3.1299
X7.9921Y-3.8583
X7.9921Y-3.937
X7.9921Y-4.0157
X8.0512Y-2.9724
X8.0512Y-3.0512
X8.0512Y-3.1299
X8.0709Y-3.4646
X8.0906Y-4.2323
X8.0906Y-4.311
X8.0906Y-4.3898
X8.1496Y-4.2323
X8.1496Y-4.311
X8.1496Y-4.3898
X8.1673Y-3.6693
X8.1949Y-3.6988
X8.2087Y-4.2323
X8.2087Y-4.311
X8.2087Y-4.3898
X8.2244Y-3.7283
X8.2283Y-2.6969
X8.2283Y-2.7756
X8.2283Y-2.8543
X8.2559Y-3.7618
X8.2677Y-4.2323
X8.2677Y-4.311
X8.2677Y-4.3898
X8.2874Y-2.6969
X8.2874Y-2.7756
X8.2874Y-2.8543
X8.2894Y-3.7933
X8.3465Y-2.6969
X8.3465Y-2.7756
X8.3465Y-2.8543
X8.4055Y-2.6969
X8.4055Y-2.7756
X8.4055Y-2.8543
X8.4587Y-4.7319
X8.5236Y-4.2126
X8.6417Y-3.7402
X8.8976Y-3.6811
X8.8976Y-3.7598
X8.8976Y-3.8386
X8.9567Y-3.6811
X8.9567Y-3.7598
X8.9567Y-3.8386
X9.0157Y-3.6811
X9.0157Y-3.7598
X9.0157Y-3.8386
X9.0748Y-3.6811
X9.0748Y-3.7598
X9.0748Y-3.8386
T2
X7.8201Y-2.485
X7.8201Y-3.2528
X7.8701Y-2.485
X7.8701Y-3.2528
X7.9201Y-2.485
X7.9201Y-3.2528
X7.9701Y-2.485
X7.9701Y-3.2528
X8.0201Y-2.485
X8.0201Y-3.2528
X8.0701Y-2.485
X8.0701Y-3.2528
X8.1201Y-2.485
X8.1201Y-3.2528
X8.1701Y-2.485
X8.1701Y-3.2528
X8.2201Y-2.485
X8.2201Y-3.2528
X8.2701Y-2.485
X8.2701Y-3.2528
X8.3201Y-2.485
X8.3201Y-3.2528
X8.3701Y-2.485
X8.3701Y-3.2528
X8.4201Y-2.485
X8.4201Y-3.2528
T3
X7.3415Y-2.2156
X7.3415Y-2.2943
T4
X7.9262Y-5.2561
X7.9864Y-2.2156
X8.0262Y-4.5687
X8.0262Y-5.2561
X8.0864Y-2.2156
X8.1262Y-4.5687
X8.1262Y-5.2561
X8.1864Y-2.2156
X8.2262Y-4.5687
X8.2262Y-5.2561
X8.2864Y-2.2156
X8.3262Y-4.5687
X8.3262Y-5.2561
X8.3864Y-2.2156
X8.4262Y-5.2561
T5
X6.063Y-4.2126
X6.063Y-4.311
X8.303Y-4.8337
X8.403Y-4.8337
X8.503Y-4.8337
T6
X6.6289Y-3.465
X6.6289Y-3.565
X6.8504Y-3.465
X6.8504Y-3.565
X7.0669Y-3.465
X7.0669Y-3.565
T7
X5.5906Y-5.1772
X5.689Y-5.1772
X5.7874Y-5.1772
X5.8002Y-4.4793
X5.8002Y-4.5778
X5.8002Y-4.6762
X5.8858Y-5.1772
X5.9843Y-5.1772
X6.0827Y-5.1772
X6.3386Y-5.1772
X6.437Y-5.1772
X6.5354Y-5.1772
X6.6339Y-5.1772
X6.7323Y-5.1772
X6.8307Y-5.1772
T8
X3.451Y-5.0354
X3.551Y-5.0354
X3.651Y-5.0354
X3.751Y-5.0354
X6.2013Y-3.4778
X6.2013Y-3.5778
X6.3013Y-3.4778
X6.3013Y-3.5778
X6.3567Y-3.7488
X6.3567Y-3.8488
X6.3567Y-3.9488
X6.3567Y-4.0488
X6.3567Y-4.1488
X6.3567Y-4.2488
X6.3567Y-4.3488
X6.3567Y-4.4488
X6.3567Y-4.5488
X6.3567Y-4.6488
X6.5344Y-2.1927
X6.5344Y-2.2927
X6.5344Y-2.3927
X6.5344Y-2.4927
X7.0758Y-4.9537
X7.1742Y-4.9537
X7.4567Y-3.7488
X7.4567Y-3.8488
X7.4567Y-3.9488
X7.4567Y-4.0488
X7.4567Y-4.1488
X7.4567Y-4.2488
X7.4567Y-4.3488
X7.4567Y-4.4488
X7.4567Y-4.5488
X7.4567Y-4.6488
X8.5917Y-2.5
X8.5917Y-2.6
X8.5917Y-2.7
X8.5917Y-2.8
X8.5917Y-2.9
X8.5917Y-3.0
X8.5917Y-3.1
X8.5917Y-3.2
X8.5917Y-3.3
X8.5917Y-3.4
X8.5917Y-3.5
X8.5917Y-3.6
X8.5917Y-3.7
X8.5917Y-3.8
X8.5917Y-3.9
X8.5917Y-4.0
X8.5917Y-4.1
X8.5917Y-4.2
X8.5917Y-4.3
X8.5917Y-4.4
X8.6917Y-2.5
X8.6917Y-2.6
X8.6917Y-2.7
X8.6917Y-2.8
X8.6917Y-2.9
X8.6917Y-3.0
X8.6917Y-3.1
X8.6917Y-3.2
X8.6917Y-3.3
X8.6917Y-3.4
X8.6917Y-3.5
X8.6917Y-3.6
X8.6917Y-3.7
X8.6917Y-3.8
X8.6917Y-3.9
X8.6917Y-4.0
X8.6917Y-4.1
X8.6917Y-4.2
X8.6917Y-4.3
X8.6917Y-4.4
X8.6998Y-5.0398
X8.6998Y-5.1398
T9
X7.8445Y-4.9311
X7.8445Y-5.1083
X8.1004Y-4.9311
X8.1004Y-5.1083
T10
X6.9281Y-2.8455
X7.1053Y-2.8455
X7.253Y-2.8947
T11
X6.6535Y-3.0315
X6.6535Y-3.2283
M30
