%TF.GenerationSoftware,KiCad,Pcbnew,8.0.3*%
%TF.CreationDate,2025-06-04T21:14:47+09:00*%
%TF.ProjectId,mainboard,6d61696e-626f-4617-9264-2e6b69636164,rev?*%
%TF.SameCoordinates,Original*%
%TF.FileFunction,Legend,Top*%
%TF.FilePolarity,Positive*%
%FSLAX46Y46*%
G04 Gerber Fmt 4.6, Leading zero omitted, Abs format (unit mm)*
G04 Created by KiCad (PCBNEW 8.0.3) date 2025-06-04 21:14:47*
%MOMM*%
%LPD*%
G01*
G04 APERTURE LIST*
G04 Aperture macros list*
%AMRoundRect*
0 Rectangle with rounded corners*
0 $1 Rounding radius*
0 $2 $3 $4 $5 $6 $7 $8 $9 X,Y pos of 4 corners*
0 Add a 4 corners polygon primitive as box body*
4,1,4,$2,$3,$4,$5,$6,$7,$8,$9,$2,$3,0*
0 Add four circle primitives for the rounded corners*
1,1,$1+$1,$2,$3*
1,1,$1+$1,$4,$5*
1,1,$1+$1,$6,$7*
1,1,$1+$1,$8,$9*
0 Add four rect primitives between the rounded corners*
20,1,$1+$1,$2,$3,$4,$5,0*
20,1,$1+$1,$4,$5,$6,$7,0*
20,1,$1+$1,$6,$7,$8,$9,0*
20,1,$1+$1,$8,$9,$2,$3,0*%
G04 Aperture macros list end*
%ADD10C,0.100000*%
%ADD11C,0.125000*%
%ADD12C,0.300000*%
%ADD13C,0.150000*%
%ADD14C,0.120000*%
%ADD15C,0.000000*%
%ADD16C,0.250000*%
%ADD17C,1.524000*%
%ADD18RoundRect,0.237500X-0.250000X-0.237500X0.250000X-0.237500X0.250000X0.237500X-0.250000X0.237500X0*%
%ADD19R,1.500000X1.500000*%
%ADD20C,1.600000*%
%ADD21RoundRect,0.237500X0.250000X0.237500X-0.250000X0.237500X-0.250000X-0.237500X0.250000X-0.237500X0*%
%ADD22R,1.700000X1.700000*%
%ADD23O,1.700000X1.700000*%
%ADD24R,1.800000X1.800000*%
%ADD25C,1.800000*%
%ADD26RoundRect,0.237500X-0.300000X-0.237500X0.300000X-0.237500X0.300000X0.237500X-0.300000X0.237500X0*%
%ADD27RoundRect,0.250000X-0.600000X-0.750000X0.600000X-0.750000X0.600000X0.750000X-0.600000X0.750000X0*%
%ADD28O,1.700000X2.000000*%
%ADD29C,2.000000*%
%ADD30RoundRect,0.250000X0.625000X-0.350000X0.625000X0.350000X-0.625000X0.350000X-0.625000X-0.350000X0*%
%ADD31O,1.750000X1.200000*%
%ADD32RoundRect,0.237500X-0.237500X0.250000X-0.237500X-0.250000X0.237500X-0.250000X0.237500X0.250000X0*%
%ADD33RoundRect,0.237500X0.300000X0.237500X-0.300000X0.237500X-0.300000X-0.237500X0.300000X-0.237500X0*%
%ADD34C,6.000000*%
%ADD35RoundRect,0.162500X-0.750000X-0.162500X0.750000X-0.162500X0.750000X0.162500X-0.750000X0.162500X0*%
%ADD36RoundRect,0.250000X-0.350000X0.850000X-0.350000X-0.850000X0.350000X-0.850000X0.350000X0.850000X0*%
%ADD37RoundRect,0.249997X-2.650003X2.950003X-2.650003X-2.950003X2.650003X-2.950003X2.650003X2.950003X0*%
%ADD38RoundRect,0.250000X-0.337500X-0.475000X0.337500X-0.475000X0.337500X0.475000X-0.337500X0.475000X0*%
%ADD39RoundRect,0.102000X-1.749750X-0.571500X1.749750X-0.571500X1.749750X0.571500X-1.749750X0.571500X0*%
%ADD40C,2.500000*%
%ADD41RoundRect,0.102000X-2.095500X-0.952500X2.095500X-0.952500X2.095500X0.952500X-2.095500X0.952500X0*%
%ADD42RoundRect,0.102000X-0.892875X-1.749750X0.892875X-1.749750X0.892875X1.749750X-0.892875X1.749750X0*%
%ADD43RoundRect,0.102000X-1.000000X-1.749750X1.000000X-1.749750X1.000000X1.749750X-1.000000X1.749750X0*%
%ADD44RoundRect,0.102000X-0.785750X-1.749750X0.785750X-1.749750X0.785750X1.749750X-0.785750X1.749750X0*%
%ADD45RoundRect,0.102000X-0.952500X-2.095500X0.952500X-2.095500X0.952500X2.095500X-0.952500X2.095500X0*%
%ADD46RoundRect,0.102000X-1.874875X-0.571500X1.874875X-0.571500X1.874875X0.571500X-1.874875X0.571500X0*%
%ADD47RoundRect,0.102000X-0.571500X-1.749750X0.571500X-1.749750X0.571500X1.749750X-0.571500X1.749750X0*%
%ADD48RoundRect,0.237500X-0.237500X0.300000X-0.237500X-0.300000X0.237500X-0.300000X0.237500X0.300000X0*%
%ADD49RoundRect,0.150000X-0.675000X-0.150000X0.675000X-0.150000X0.675000X0.150000X-0.675000X0.150000X0*%
%ADD50R,1.600000X1.600000*%
%ADD51RoundRect,0.250000X-0.725000X0.600000X-0.725000X-0.600000X0.725000X-0.600000X0.725000X0.600000X0*%
%ADD52O,1.950000X1.700000*%
%ADD53RoundRect,0.250000X-0.600000X-0.725000X0.600000X-0.725000X0.600000X0.725000X-0.600000X0.725000X0*%
%ADD54O,1.700000X1.950000*%
%ADD55C,1.100000*%
%ADD56R,3.800000X3.800000*%
%ADD57C,3.800000*%
G04 APERTURE END LIST*
D10*
X184500000Y-63000000D02*
X186500000Y-65000000D01*
X186500000Y-61000000D02*
X189500000Y-61000000D01*
X189500000Y-69000000D01*
X186500000Y-69000000D01*
X186500000Y-61000000D01*
X180500000Y-54000000D02*
X184500000Y-54000000D01*
X184500000Y-65500000D01*
X180500000Y-65500000D01*
X180500000Y-54000000D01*
D11*
G36*
X145122086Y-124488743D02*
G01*
X145989637Y-124488743D01*
X145953000Y-126165226D01*
X146756803Y-124488743D01*
X147622156Y-124488743D01*
X147730600Y-126165226D01*
X148391521Y-124488743D01*
X149254675Y-124488743D01*
X147978995Y-127490000D01*
X147084333Y-127490000D01*
X146959036Y-125600293D01*
X146050453Y-127490000D01*
X145155059Y-127490000D01*
X145122086Y-124488743D01*
G37*
G36*
X150585367Y-125245045D02*
G01*
X150761340Y-125269370D01*
X150918029Y-125312408D01*
X151055433Y-125374156D01*
X151194864Y-125472955D01*
X151306525Y-125598698D01*
X151322435Y-125622274D01*
X151395605Y-125764071D01*
X151440725Y-125919542D01*
X151457795Y-126088687D01*
X151450101Y-126244552D01*
X151427948Y-126382114D01*
X151387909Y-126536094D01*
X151333738Y-126681130D01*
X151265435Y-126817222D01*
X151182999Y-126944369D01*
X151086431Y-127062571D01*
X150975731Y-127171829D01*
X150927494Y-127213028D01*
X150799796Y-127306329D01*
X150663082Y-127383817D01*
X150517352Y-127445491D01*
X150362606Y-127491350D01*
X150198844Y-127521397D01*
X150026066Y-127535629D01*
X149954431Y-127536894D01*
X149799420Y-127530329D01*
X149629748Y-127505118D01*
X149477901Y-127461000D01*
X149343880Y-127397974D01*
X149210053Y-127300546D01*
X149176273Y-127267983D01*
X149070898Y-127135671D01*
X148996022Y-126988779D01*
X148951646Y-126827307D01*
X148937770Y-126651254D01*
X148945783Y-126543471D01*
X149766974Y-126543471D01*
X149770264Y-126700885D01*
X149813747Y-126830544D01*
X149922008Y-126938255D01*
X150064428Y-126974018D01*
X150075331Y-126974159D01*
X150224035Y-126947091D01*
X150359836Y-126865887D01*
X150396266Y-126832742D01*
X150485650Y-126715258D01*
X150550680Y-126573292D01*
X150595992Y-126416890D01*
X150604361Y-126378450D01*
X150626978Y-126226235D01*
X150623137Y-126072307D01*
X150579448Y-125944675D01*
X150473386Y-125837513D01*
X150325191Y-125801793D01*
X150174284Y-125829562D01*
X150045206Y-125905078D01*
X149998394Y-125946873D01*
X149907688Y-126064035D01*
X149842658Y-126201650D01*
X149798325Y-126350833D01*
X149790300Y-126387243D01*
X149766974Y-126543471D01*
X148945783Y-126543471D01*
X148949505Y-126493406D01*
X148966713Y-126393838D01*
X149006612Y-126241070D01*
X149060823Y-126096925D01*
X149129344Y-125961403D01*
X149212177Y-125834502D01*
X149309321Y-125716225D01*
X149420775Y-125606569D01*
X149469364Y-125565122D01*
X149597935Y-125471187D01*
X149734521Y-125393174D01*
X149879120Y-125331081D01*
X150031734Y-125284910D01*
X150192361Y-125254660D01*
X150361004Y-125240331D01*
X150430704Y-125239057D01*
X150585367Y-125245045D01*
G37*
G36*
X152291102Y-124488743D02*
G01*
X153113224Y-124488743D01*
X152488939Y-127490000D01*
X151666817Y-127490000D01*
X152291102Y-124488743D01*
G37*
G36*
X153250976Y-125285952D02*
G01*
X154105338Y-125285952D01*
X154230635Y-126682533D01*
X154950174Y-125285952D01*
X155778890Y-125285952D01*
X154410886Y-127490000D01*
X153684019Y-127490000D01*
X153250976Y-125285952D01*
G37*
G36*
X157232211Y-125243926D02*
G01*
X157381001Y-125258532D01*
X157534794Y-125287879D01*
X157684454Y-125337647D01*
X157763852Y-125377543D01*
X157885278Y-125464882D01*
X157991781Y-125585038D01*
X158062061Y-125713980D01*
X158085519Y-125777613D01*
X158119709Y-125937628D01*
X158127231Y-126100786D01*
X158116157Y-126259702D01*
X158093548Y-126407917D01*
X158083321Y-126459783D01*
X158064270Y-126552107D01*
X156419295Y-126552107D01*
X156419395Y-126701793D01*
X156466922Y-126838604D01*
X156582327Y-126940270D01*
X156736436Y-126974026D01*
X156748290Y-126974159D01*
X156899759Y-126951547D01*
X156990090Y-126916273D01*
X157113876Y-126829582D01*
X157160816Y-126786580D01*
X157949232Y-126880369D01*
X157851000Y-127005031D01*
X157750296Y-127115781D01*
X157629682Y-127227409D01*
X157505702Y-127320104D01*
X157396755Y-127384487D01*
X157259130Y-127443872D01*
X157102713Y-127488671D01*
X156953683Y-127515462D01*
X156790845Y-127531536D01*
X156614200Y-127536894D01*
X156462096Y-127532566D01*
X156303004Y-127516578D01*
X156145399Y-127483880D01*
X155998966Y-127428702D01*
X155970865Y-127413796D01*
X155845485Y-127322691D01*
X155742288Y-127203251D01*
X155668376Y-127071527D01*
X155647732Y-127022519D01*
X155603347Y-126864249D01*
X155587639Y-126711109D01*
X155594280Y-126546245D01*
X155618422Y-126392372D01*
X155658916Y-126235984D01*
X155698007Y-126130055D01*
X156509420Y-126130055D01*
X157317620Y-126130055D01*
X157304980Y-125979113D01*
X157242149Y-125877997D01*
X157109062Y-125814370D01*
X156984961Y-125801793D01*
X156834954Y-125820779D01*
X156693422Y-125883690D01*
X156647906Y-125916831D01*
X156551907Y-126033782D01*
X156509420Y-126130055D01*
X155698007Y-126130055D01*
X155713076Y-126089220D01*
X155780904Y-125952080D01*
X155862398Y-125824565D01*
X155957560Y-125706673D01*
X156066389Y-125598406D01*
X156113747Y-125557794D01*
X156239241Y-125465971D01*
X156373465Y-125389710D01*
X156516418Y-125329013D01*
X156668102Y-125283880D01*
X156828515Y-125254309D01*
X156997658Y-125240302D01*
X157067759Y-125239057D01*
X157232211Y-125243926D01*
G37*
G36*
X158839497Y-124488743D02*
G01*
X159657955Y-124488743D01*
X159552442Y-124994326D01*
X159294521Y-125614214D01*
X158738381Y-125614214D01*
X158733984Y-124994326D01*
X158839497Y-124488743D01*
G37*
G36*
X160062421Y-124488743D02*
G01*
X162646022Y-124488743D01*
X162509002Y-125147466D01*
X160512316Y-126786580D01*
X162229099Y-126786580D01*
X162082554Y-127490000D01*
X159279134Y-127490000D01*
X159420551Y-126811493D01*
X161395254Y-125192163D01*
X159915875Y-125192163D01*
X160062421Y-124488743D01*
G37*
G36*
X166214410Y-127490000D02*
G01*
X163750976Y-127490000D01*
X163801784Y-127350063D01*
X163864080Y-127213269D01*
X163937865Y-127079617D01*
X164023139Y-126949108D01*
X164119902Y-126821742D01*
X164154710Y-126779986D01*
X164275310Y-126651229D01*
X164397179Y-126538224D01*
X164538476Y-126420033D01*
X164665502Y-126321744D01*
X164804961Y-126220135D01*
X164956853Y-126115206D01*
X165121179Y-126006957D01*
X165244455Y-125925877D01*
X165373873Y-125836988D01*
X165499335Y-125744875D01*
X165620253Y-125644784D01*
X165667794Y-125598094D01*
X165761861Y-125478442D01*
X165822160Y-125340692D01*
X165823866Y-125332847D01*
X165819569Y-125185213D01*
X165772575Y-125100572D01*
X165644977Y-125018083D01*
X165541765Y-125004584D01*
X165393204Y-125030596D01*
X165262595Y-125108632D01*
X165162979Y-125229326D01*
X165093367Y-125366661D01*
X165053035Y-125473531D01*
X164244836Y-125403921D01*
X164300364Y-125256555D01*
X164369492Y-125106426D01*
X164444666Y-124975805D01*
X164536461Y-124852177D01*
X164651537Y-124737158D01*
X164769421Y-124649182D01*
X164900868Y-124575927D01*
X164963642Y-124548094D01*
X165120830Y-124496735D01*
X165281572Y-124465194D01*
X165438450Y-124448489D01*
X165584973Y-124442264D01*
X165636287Y-124441849D01*
X165791208Y-124445352D01*
X165953065Y-124458295D01*
X166113143Y-124484765D01*
X166261482Y-124529433D01*
X166289881Y-124541500D01*
X166427035Y-124622061D01*
X166534232Y-124727730D01*
X166605687Y-124845582D01*
X166653685Y-124992520D01*
X166666704Y-125151233D01*
X166648185Y-125305736D01*
X166604335Y-125455968D01*
X166536258Y-125602491D01*
X166455406Y-125729619D01*
X166382205Y-125823042D01*
X166277654Y-125933388D01*
X166167556Y-126031654D01*
X166038550Y-126133320D01*
X165916601Y-126220639D01*
X165781523Y-126310319D01*
X165694173Y-126365261D01*
X165563655Y-126444900D01*
X165433224Y-126526287D01*
X165311688Y-126606329D01*
X165189998Y-126697262D01*
X165078681Y-126786580D01*
X166360956Y-126786580D01*
X166214410Y-127490000D01*
G37*
G36*
X168629341Y-124447761D02*
G01*
X168782470Y-124468197D01*
X168934866Y-124511989D01*
X168946022Y-124516587D01*
X169076076Y-124584214D01*
X169192780Y-124680879D01*
X169217864Y-124710027D01*
X169300479Y-124832576D01*
X169356350Y-124961353D01*
X169391164Y-125113689D01*
X169404710Y-125268367D01*
X169405952Y-125416234D01*
X169398779Y-125566836D01*
X169383192Y-125720173D01*
X169359189Y-125876245D01*
X169341695Y-125966657D01*
X169308362Y-126115593D01*
X169258948Y-126302232D01*
X169203856Y-126475225D01*
X169143086Y-126634570D01*
X169076636Y-126780269D01*
X169004508Y-126912320D01*
X168906363Y-127058193D01*
X168821458Y-127159539D01*
X168704314Y-127268250D01*
X168571786Y-127358535D01*
X168423874Y-127430394D01*
X168260577Y-127483829D01*
X168081896Y-127518837D01*
X167927874Y-127533578D01*
X167805896Y-127536894D01*
X167650756Y-127531144D01*
X167493116Y-127510490D01*
X167340843Y-127469300D01*
X167227773Y-127416727D01*
X167099364Y-127320447D01*
X166996237Y-127197847D01*
X166924424Y-127063551D01*
X166880220Y-126922352D01*
X166857622Y-126763049D01*
X166852180Y-126619291D01*
X167657208Y-126619291D01*
X167674738Y-126765331D01*
X167742588Y-126900539D01*
X167875574Y-126970896D01*
X167920935Y-126974159D01*
X168071201Y-126939526D01*
X168156140Y-126885498D01*
X168259822Y-126771193D01*
X168333811Y-126640552D01*
X168349581Y-126605596D01*
X168401473Y-126465104D01*
X168443193Y-126322520D01*
X168479848Y-126175744D01*
X168516643Y-126008422D01*
X168550922Y-125832238D01*
X168576363Y-125675088D01*
X168595228Y-125511632D01*
X168601154Y-125355576D01*
X168583321Y-125209748D01*
X168513303Y-125076913D01*
X168373910Y-125007790D01*
X168326133Y-125004584D01*
X168172117Y-125039049D01*
X168050341Y-125132043D01*
X167988346Y-125213412D01*
X167914608Y-125358988D01*
X167859019Y-125511083D01*
X167812600Y-125668519D01*
X167774782Y-125818804D01*
X167737752Y-125986441D01*
X167704916Y-126155766D01*
X167680594Y-126307453D01*
X167662648Y-126466195D01*
X167657208Y-126619291D01*
X166852180Y-126619291D01*
X166851884Y-126611458D01*
X166856692Y-126464088D01*
X166870385Y-126309207D01*
X166892962Y-126146816D01*
X166920005Y-125998563D01*
X166924424Y-125976915D01*
X166959404Y-125821499D01*
X166997848Y-125675085D01*
X167054497Y-125493872D01*
X167117306Y-125328665D01*
X167186274Y-125179463D01*
X167261402Y-125046267D01*
X167363973Y-124902279D01*
X167476168Y-124783300D01*
X167599187Y-124684933D01*
X167734226Y-124603238D01*
X167881287Y-124538215D01*
X168040369Y-124489865D01*
X168211473Y-124458188D01*
X168394598Y-124443183D01*
X168471214Y-124441849D01*
X168629341Y-124447761D01*
G37*
G36*
X171812456Y-127490000D02*
G01*
X169349023Y-127490000D01*
X169399830Y-127350063D01*
X169462126Y-127213269D01*
X169535911Y-127079617D01*
X169621185Y-126949108D01*
X169717948Y-126821742D01*
X169752756Y-126779986D01*
X169873356Y-126651229D01*
X169995225Y-126538224D01*
X170136523Y-126420033D01*
X170263548Y-126321744D01*
X170403007Y-126220135D01*
X170554899Y-126115206D01*
X170719225Y-126006957D01*
X170842501Y-125925877D01*
X170971919Y-125836988D01*
X171097382Y-125744875D01*
X171218299Y-125644784D01*
X171265840Y-125598094D01*
X171359907Y-125478442D01*
X171420206Y-125340692D01*
X171421912Y-125332847D01*
X171417615Y-125185213D01*
X171370621Y-125100572D01*
X171243023Y-125018083D01*
X171139811Y-125004584D01*
X170991250Y-125030596D01*
X170860642Y-125108632D01*
X170761025Y-125229326D01*
X170691413Y-125366661D01*
X170651081Y-125473531D01*
X169842882Y-125403921D01*
X169898410Y-125256555D01*
X169967538Y-125106426D01*
X170042712Y-124975805D01*
X170134508Y-124852177D01*
X170249583Y-124737158D01*
X170367467Y-124649182D01*
X170498914Y-124575927D01*
X170561688Y-124548094D01*
X170718876Y-124496735D01*
X170879618Y-124465194D01*
X171036496Y-124448489D01*
X171183019Y-124442264D01*
X171234333Y-124441849D01*
X171389254Y-124445352D01*
X171551111Y-124458295D01*
X171711189Y-124484765D01*
X171859528Y-124529433D01*
X171887927Y-124541500D01*
X172025081Y-124622061D01*
X172132278Y-124727730D01*
X172203733Y-124845582D01*
X172251731Y-124992520D01*
X172264750Y-125151233D01*
X172246231Y-125305736D01*
X172202381Y-125455968D01*
X172134304Y-125602491D01*
X172053452Y-125729619D01*
X171980251Y-125823042D01*
X171875700Y-125933388D01*
X171765602Y-126031654D01*
X171636596Y-126133320D01*
X171514648Y-126220639D01*
X171379569Y-126310319D01*
X171292219Y-126365261D01*
X171161701Y-126444900D01*
X171031270Y-126526287D01*
X170909734Y-126606329D01*
X170788044Y-126697262D01*
X170676727Y-126786580D01*
X171959002Y-126786580D01*
X171812456Y-127490000D01*
G37*
G36*
X173165073Y-124488743D02*
G01*
X175114131Y-124488743D01*
X174967585Y-125192163D01*
X173647208Y-125192163D01*
X173488939Y-125616413D01*
X173628354Y-125557143D01*
X173772450Y-125511668D01*
X173781297Y-125509434D01*
X173928657Y-125481420D01*
X174053872Y-125473531D01*
X174212502Y-125483088D01*
X174377645Y-125518395D01*
X174521330Y-125579719D01*
X174643557Y-125667059D01*
X174717725Y-125745373D01*
X174799274Y-125871036D01*
X174851582Y-126010163D01*
X174874648Y-126162753D01*
X174868472Y-126328808D01*
X174851814Y-126429741D01*
X174813162Y-126573402D01*
X174757292Y-126714223D01*
X174684202Y-126852205D01*
X174593893Y-126987348D01*
X174489205Y-127113194D01*
X174372976Y-127223286D01*
X174245206Y-127317625D01*
X174105896Y-127396210D01*
X173953489Y-127457759D01*
X173808111Y-127497189D01*
X173651513Y-127523155D01*
X173483695Y-127535658D01*
X173408339Y-127536894D01*
X173251422Y-127532315D01*
X173094744Y-127516487D01*
X172943886Y-127486018D01*
X172918876Y-127479009D01*
X172771538Y-127422544D01*
X172640185Y-127340639D01*
X172600139Y-127306085D01*
X172498945Y-127191635D01*
X172424799Y-127063984D01*
X172416957Y-127045966D01*
X172372578Y-126904635D01*
X172347192Y-126748786D01*
X172341486Y-126682533D01*
X173189986Y-126599002D01*
X173204164Y-126752102D01*
X173272784Y-126878904D01*
X173402635Y-126958438D01*
X173516782Y-126974159D01*
X173669797Y-126948077D01*
X173798665Y-126876670D01*
X173824528Y-126855457D01*
X173921225Y-126739784D01*
X173984509Y-126598876D01*
X174009909Y-126501549D01*
X174028044Y-126351053D01*
X174003039Y-126203592D01*
X173970341Y-126148374D01*
X173847651Y-126060899D01*
X173693370Y-126036266D01*
X173543218Y-126057160D01*
X173452302Y-126089755D01*
X173320744Y-126167548D01*
X173242009Y-126229706D01*
X172562770Y-126137383D01*
X173165073Y-124488743D01*
G37*
D12*
X98340225Y-127372257D02*
X98197368Y-127300828D01*
X98197368Y-127300828D02*
X97983082Y-127300828D01*
X97983082Y-127300828D02*
X97768796Y-127372257D01*
X97768796Y-127372257D02*
X97625939Y-127515114D01*
X97625939Y-127515114D02*
X97554510Y-127657971D01*
X97554510Y-127657971D02*
X97483082Y-127943685D01*
X97483082Y-127943685D02*
X97483082Y-128157971D01*
X97483082Y-128157971D02*
X97554510Y-128443685D01*
X97554510Y-128443685D02*
X97625939Y-128586542D01*
X97625939Y-128586542D02*
X97768796Y-128729400D01*
X97768796Y-128729400D02*
X97983082Y-128800828D01*
X97983082Y-128800828D02*
X98125939Y-128800828D01*
X98125939Y-128800828D02*
X98340225Y-128729400D01*
X98340225Y-128729400D02*
X98411653Y-128657971D01*
X98411653Y-128657971D02*
X98411653Y-128157971D01*
X98411653Y-128157971D02*
X98125939Y-128157971D01*
X100197367Y-128800828D02*
X100197367Y-127300828D01*
X100197367Y-127300828D02*
X100554510Y-127300828D01*
X100554510Y-127300828D02*
X100768796Y-127372257D01*
X100768796Y-127372257D02*
X100911653Y-127515114D01*
X100911653Y-127515114D02*
X100983082Y-127657971D01*
X100983082Y-127657971D02*
X101054510Y-127943685D01*
X101054510Y-127943685D02*
X101054510Y-128157971D01*
X101054510Y-128157971D02*
X100983082Y-128443685D01*
X100983082Y-128443685D02*
X100911653Y-128586542D01*
X100911653Y-128586542D02*
X100768796Y-128729400D01*
X100768796Y-128729400D02*
X100554510Y-128800828D01*
X100554510Y-128800828D02*
X100197367Y-128800828D01*
X101697367Y-128229400D02*
X102840225Y-128229400D01*
X102268796Y-128800828D02*
X102268796Y-127657971D01*
X104697367Y-128800828D02*
X104697367Y-127300828D01*
X104697367Y-127300828D02*
X105054510Y-127300828D01*
X105054510Y-127300828D02*
X105268796Y-127372257D01*
X105268796Y-127372257D02*
X105411653Y-127515114D01*
X105411653Y-127515114D02*
X105483082Y-127657971D01*
X105483082Y-127657971D02*
X105554510Y-127943685D01*
X105554510Y-127943685D02*
X105554510Y-128157971D01*
X105554510Y-128157971D02*
X105483082Y-128443685D01*
X105483082Y-128443685D02*
X105411653Y-128586542D01*
X105411653Y-128586542D02*
X105268796Y-128729400D01*
X105268796Y-128729400D02*
X105054510Y-128800828D01*
X105054510Y-128800828D02*
X104697367Y-128800828D01*
X106197367Y-128229400D02*
X107340225Y-128229400D01*
X109911653Y-127300828D02*
X109197367Y-127300828D01*
X109197367Y-127300828D02*
X109125939Y-128015114D01*
X109125939Y-128015114D02*
X109197367Y-127943685D01*
X109197367Y-127943685D02*
X109340225Y-127872257D01*
X109340225Y-127872257D02*
X109697367Y-127872257D01*
X109697367Y-127872257D02*
X109840225Y-127943685D01*
X109840225Y-127943685D02*
X109911653Y-128015114D01*
X109911653Y-128015114D02*
X109983082Y-128157971D01*
X109983082Y-128157971D02*
X109983082Y-128515114D01*
X109983082Y-128515114D02*
X109911653Y-128657971D01*
X109911653Y-128657971D02*
X109840225Y-128729400D01*
X109840225Y-128729400D02*
X109697367Y-128800828D01*
X109697367Y-128800828D02*
X109340225Y-128800828D01*
X109340225Y-128800828D02*
X109197367Y-128729400D01*
X109197367Y-128729400D02*
X109125939Y-128657971D01*
X110411653Y-127300828D02*
X110911653Y-128800828D01*
X110911653Y-128800828D02*
X111411653Y-127300828D01*
D13*
X179857142Y-100454819D02*
X179523809Y-99978628D01*
X179285714Y-100454819D02*
X179285714Y-99454819D01*
X179285714Y-99454819D02*
X179666666Y-99454819D01*
X179666666Y-99454819D02*
X179761904Y-99502438D01*
X179761904Y-99502438D02*
X179809523Y-99550057D01*
X179809523Y-99550057D02*
X179857142Y-99645295D01*
X179857142Y-99645295D02*
X179857142Y-99788152D01*
X179857142Y-99788152D02*
X179809523Y-99883390D01*
X179809523Y-99883390D02*
X179761904Y-99931009D01*
X179761904Y-99931009D02*
X179666666Y-99978628D01*
X179666666Y-99978628D02*
X179285714Y-99978628D01*
X180809523Y-100454819D02*
X180238095Y-100454819D01*
X180523809Y-100454819D02*
X180523809Y-99454819D01*
X180523809Y-99454819D02*
X180428571Y-99597676D01*
X180428571Y-99597676D02*
X180333333Y-99692914D01*
X180333333Y-99692914D02*
X180238095Y-99740533D01*
X181666666Y-99788152D02*
X181666666Y-100454819D01*
X181428571Y-99407200D02*
X181190476Y-100121485D01*
X181190476Y-100121485D02*
X181809523Y-100121485D01*
X219166667Y-123407200D02*
X219309524Y-123454819D01*
X219309524Y-123454819D02*
X219547619Y-123454819D01*
X219547619Y-123454819D02*
X219642857Y-123407200D01*
X219642857Y-123407200D02*
X219690476Y-123359580D01*
X219690476Y-123359580D02*
X219738095Y-123264342D01*
X219738095Y-123264342D02*
X219738095Y-123169104D01*
X219738095Y-123169104D02*
X219690476Y-123073866D01*
X219690476Y-123073866D02*
X219642857Y-123026247D01*
X219642857Y-123026247D02*
X219547619Y-122978628D01*
X219547619Y-122978628D02*
X219357143Y-122931009D01*
X219357143Y-122931009D02*
X219261905Y-122883390D01*
X219261905Y-122883390D02*
X219214286Y-122835771D01*
X219214286Y-122835771D02*
X219166667Y-122740533D01*
X219166667Y-122740533D02*
X219166667Y-122645295D01*
X219166667Y-122645295D02*
X219214286Y-122550057D01*
X219214286Y-122550057D02*
X219261905Y-122502438D01*
X219261905Y-122502438D02*
X219357143Y-122454819D01*
X219357143Y-122454819D02*
X219595238Y-122454819D01*
X219595238Y-122454819D02*
X219738095Y-122502438D01*
X220071429Y-122454819D02*
X220309524Y-123454819D01*
X220309524Y-123454819D02*
X220500000Y-122740533D01*
X220500000Y-122740533D02*
X220690476Y-123454819D01*
X220690476Y-123454819D02*
X220928572Y-122454819D01*
X221833333Y-123454819D02*
X221261905Y-123454819D01*
X221547619Y-123454819D02*
X221547619Y-122454819D01*
X221547619Y-122454819D02*
X221452381Y-122597676D01*
X221452381Y-122597676D02*
X221357143Y-122692914D01*
X221357143Y-122692914D02*
X221261905Y-122740533D01*
X154357142Y-85454819D02*
X154023809Y-84978628D01*
X153785714Y-85454819D02*
X153785714Y-84454819D01*
X153785714Y-84454819D02*
X154166666Y-84454819D01*
X154166666Y-84454819D02*
X154261904Y-84502438D01*
X154261904Y-84502438D02*
X154309523Y-84550057D01*
X154309523Y-84550057D02*
X154357142Y-84645295D01*
X154357142Y-84645295D02*
X154357142Y-84788152D01*
X154357142Y-84788152D02*
X154309523Y-84883390D01*
X154309523Y-84883390D02*
X154261904Y-84931009D01*
X154261904Y-84931009D02*
X154166666Y-84978628D01*
X154166666Y-84978628D02*
X153785714Y-84978628D01*
X155309523Y-85454819D02*
X154738095Y-85454819D01*
X155023809Y-85454819D02*
X155023809Y-84454819D01*
X155023809Y-84454819D02*
X154928571Y-84597676D01*
X154928571Y-84597676D02*
X154833333Y-84692914D01*
X154833333Y-84692914D02*
X154738095Y-84740533D01*
X155690476Y-84550057D02*
X155738095Y-84502438D01*
X155738095Y-84502438D02*
X155833333Y-84454819D01*
X155833333Y-84454819D02*
X156071428Y-84454819D01*
X156071428Y-84454819D02*
X156166666Y-84502438D01*
X156166666Y-84502438D02*
X156214285Y-84550057D01*
X156214285Y-84550057D02*
X156261904Y-84645295D01*
X156261904Y-84645295D02*
X156261904Y-84740533D01*
X156261904Y-84740533D02*
X156214285Y-84883390D01*
X156214285Y-84883390D02*
X155642857Y-85454819D01*
X155642857Y-85454819D02*
X156261904Y-85454819D01*
X171494819Y-90018094D02*
X170494819Y-90018094D01*
X170494819Y-90018094D02*
X170494819Y-89779999D01*
X170494819Y-89779999D02*
X170542438Y-89637142D01*
X170542438Y-89637142D02*
X170637676Y-89541904D01*
X170637676Y-89541904D02*
X170732914Y-89494285D01*
X170732914Y-89494285D02*
X170923390Y-89446666D01*
X170923390Y-89446666D02*
X171066247Y-89446666D01*
X171066247Y-89446666D02*
X171256723Y-89494285D01*
X171256723Y-89494285D02*
X171351961Y-89541904D01*
X171351961Y-89541904D02*
X171447200Y-89637142D01*
X171447200Y-89637142D02*
X171494819Y-89779999D01*
X171494819Y-89779999D02*
X171494819Y-90018094D01*
X170494819Y-89113332D02*
X170494819Y-88494285D01*
X170494819Y-88494285D02*
X170875771Y-88827618D01*
X170875771Y-88827618D02*
X170875771Y-88684761D01*
X170875771Y-88684761D02*
X170923390Y-88589523D01*
X170923390Y-88589523D02*
X170971009Y-88541904D01*
X170971009Y-88541904D02*
X171066247Y-88494285D01*
X171066247Y-88494285D02*
X171304342Y-88494285D01*
X171304342Y-88494285D02*
X171399580Y-88541904D01*
X171399580Y-88541904D02*
X171447200Y-88589523D01*
X171447200Y-88589523D02*
X171494819Y-88684761D01*
X171494819Y-88684761D02*
X171494819Y-88970475D01*
X171494819Y-88970475D02*
X171447200Y-89065713D01*
X171447200Y-89065713D02*
X171399580Y-89113332D01*
X198333333Y-76359580D02*
X198285714Y-76407200D01*
X198285714Y-76407200D02*
X198142857Y-76454819D01*
X198142857Y-76454819D02*
X198047619Y-76454819D01*
X198047619Y-76454819D02*
X197904762Y-76407200D01*
X197904762Y-76407200D02*
X197809524Y-76311961D01*
X197809524Y-76311961D02*
X197761905Y-76216723D01*
X197761905Y-76216723D02*
X197714286Y-76026247D01*
X197714286Y-76026247D02*
X197714286Y-75883390D01*
X197714286Y-75883390D02*
X197761905Y-75692914D01*
X197761905Y-75692914D02*
X197809524Y-75597676D01*
X197809524Y-75597676D02*
X197904762Y-75502438D01*
X197904762Y-75502438D02*
X198047619Y-75454819D01*
X198047619Y-75454819D02*
X198142857Y-75454819D01*
X198142857Y-75454819D02*
X198285714Y-75502438D01*
X198285714Y-75502438D02*
X198333333Y-75550057D01*
X199238095Y-75454819D02*
X198761905Y-75454819D01*
X198761905Y-75454819D02*
X198714286Y-75931009D01*
X198714286Y-75931009D02*
X198761905Y-75883390D01*
X198761905Y-75883390D02*
X198857143Y-75835771D01*
X198857143Y-75835771D02*
X199095238Y-75835771D01*
X199095238Y-75835771D02*
X199190476Y-75883390D01*
X199190476Y-75883390D02*
X199238095Y-75931009D01*
X199238095Y-75931009D02*
X199285714Y-76026247D01*
X199285714Y-76026247D02*
X199285714Y-76264342D01*
X199285714Y-76264342D02*
X199238095Y-76359580D01*
X199238095Y-76359580D02*
X199190476Y-76407200D01*
X199190476Y-76407200D02*
X199095238Y-76454819D01*
X199095238Y-76454819D02*
X198857143Y-76454819D01*
X198857143Y-76454819D02*
X198761905Y-76407200D01*
X198761905Y-76407200D02*
X198714286Y-76359580D01*
X191308333Y-121454819D02*
X190975000Y-120978628D01*
X190736905Y-121454819D02*
X190736905Y-120454819D01*
X190736905Y-120454819D02*
X191117857Y-120454819D01*
X191117857Y-120454819D02*
X191213095Y-120502438D01*
X191213095Y-120502438D02*
X191260714Y-120550057D01*
X191260714Y-120550057D02*
X191308333Y-120645295D01*
X191308333Y-120645295D02*
X191308333Y-120788152D01*
X191308333Y-120788152D02*
X191260714Y-120883390D01*
X191260714Y-120883390D02*
X191213095Y-120931009D01*
X191213095Y-120931009D02*
X191117857Y-120978628D01*
X191117857Y-120978628D02*
X190736905Y-120978628D01*
X191641667Y-120454819D02*
X192260714Y-120454819D01*
X192260714Y-120454819D02*
X191927381Y-120835771D01*
X191927381Y-120835771D02*
X192070238Y-120835771D01*
X192070238Y-120835771D02*
X192165476Y-120883390D01*
X192165476Y-120883390D02*
X192213095Y-120931009D01*
X192213095Y-120931009D02*
X192260714Y-121026247D01*
X192260714Y-121026247D02*
X192260714Y-121264342D01*
X192260714Y-121264342D02*
X192213095Y-121359580D01*
X192213095Y-121359580D02*
X192165476Y-121407200D01*
X192165476Y-121407200D02*
X192070238Y-121454819D01*
X192070238Y-121454819D02*
X191784524Y-121454819D01*
X191784524Y-121454819D02*
X191689286Y-121407200D01*
X191689286Y-121407200D02*
X191641667Y-121359580D01*
X176994819Y-90018094D02*
X175994819Y-90018094D01*
X175994819Y-90018094D02*
X175994819Y-89779999D01*
X175994819Y-89779999D02*
X176042438Y-89637142D01*
X176042438Y-89637142D02*
X176137676Y-89541904D01*
X176137676Y-89541904D02*
X176232914Y-89494285D01*
X176232914Y-89494285D02*
X176423390Y-89446666D01*
X176423390Y-89446666D02*
X176566247Y-89446666D01*
X176566247Y-89446666D02*
X176756723Y-89494285D01*
X176756723Y-89494285D02*
X176851961Y-89541904D01*
X176851961Y-89541904D02*
X176947200Y-89637142D01*
X176947200Y-89637142D02*
X176994819Y-89779999D01*
X176994819Y-89779999D02*
X176994819Y-90018094D01*
X176090057Y-89065713D02*
X176042438Y-89018094D01*
X176042438Y-89018094D02*
X175994819Y-88922856D01*
X175994819Y-88922856D02*
X175994819Y-88684761D01*
X175994819Y-88684761D02*
X176042438Y-88589523D01*
X176042438Y-88589523D02*
X176090057Y-88541904D01*
X176090057Y-88541904D02*
X176185295Y-88494285D01*
X176185295Y-88494285D02*
X176280533Y-88494285D01*
X176280533Y-88494285D02*
X176423390Y-88541904D01*
X176423390Y-88541904D02*
X176994819Y-89113332D01*
X176994819Y-89113332D02*
X176994819Y-88494285D01*
X179736905Y-121779819D02*
X179736905Y-122589342D01*
X179736905Y-122589342D02*
X179784524Y-122684580D01*
X179784524Y-122684580D02*
X179832143Y-122732200D01*
X179832143Y-122732200D02*
X179927381Y-122779819D01*
X179927381Y-122779819D02*
X180117857Y-122779819D01*
X180117857Y-122779819D02*
X180213095Y-122732200D01*
X180213095Y-122732200D02*
X180260714Y-122684580D01*
X180260714Y-122684580D02*
X180308333Y-122589342D01*
X180308333Y-122589342D02*
X180308333Y-121779819D01*
X181308333Y-122779819D02*
X180736905Y-122779819D01*
X181022619Y-122779819D02*
X181022619Y-121779819D01*
X181022619Y-121779819D02*
X180927381Y-121922676D01*
X180927381Y-121922676D02*
X180832143Y-122017914D01*
X180832143Y-122017914D02*
X180736905Y-122065533D01*
X181927381Y-121779819D02*
X182022619Y-121779819D01*
X182022619Y-121779819D02*
X182117857Y-121827438D01*
X182117857Y-121827438D02*
X182165476Y-121875057D01*
X182165476Y-121875057D02*
X182213095Y-121970295D01*
X182213095Y-121970295D02*
X182260714Y-122160771D01*
X182260714Y-122160771D02*
X182260714Y-122398866D01*
X182260714Y-122398866D02*
X182213095Y-122589342D01*
X182213095Y-122589342D02*
X182165476Y-122684580D01*
X182165476Y-122684580D02*
X182117857Y-122732200D01*
X182117857Y-122732200D02*
X182022619Y-122779819D01*
X182022619Y-122779819D02*
X181927381Y-122779819D01*
X181927381Y-122779819D02*
X181832143Y-122732200D01*
X181832143Y-122732200D02*
X181784524Y-122684580D01*
X181784524Y-122684580D02*
X181736905Y-122589342D01*
X181736905Y-122589342D02*
X181689286Y-122398866D01*
X181689286Y-122398866D02*
X181689286Y-122160771D01*
X181689286Y-122160771D02*
X181736905Y-121970295D01*
X181736905Y-121970295D02*
X181784524Y-121875057D01*
X181784524Y-121875057D02*
X181832143Y-121827438D01*
X181832143Y-121827438D02*
X181927381Y-121779819D01*
X201166667Y-127907200D02*
X201309524Y-127954819D01*
X201309524Y-127954819D02*
X201547619Y-127954819D01*
X201547619Y-127954819D02*
X201642857Y-127907200D01*
X201642857Y-127907200D02*
X201690476Y-127859580D01*
X201690476Y-127859580D02*
X201738095Y-127764342D01*
X201738095Y-127764342D02*
X201738095Y-127669104D01*
X201738095Y-127669104D02*
X201690476Y-127573866D01*
X201690476Y-127573866D02*
X201642857Y-127526247D01*
X201642857Y-127526247D02*
X201547619Y-127478628D01*
X201547619Y-127478628D02*
X201357143Y-127431009D01*
X201357143Y-127431009D02*
X201261905Y-127383390D01*
X201261905Y-127383390D02*
X201214286Y-127335771D01*
X201214286Y-127335771D02*
X201166667Y-127240533D01*
X201166667Y-127240533D02*
X201166667Y-127145295D01*
X201166667Y-127145295D02*
X201214286Y-127050057D01*
X201214286Y-127050057D02*
X201261905Y-127002438D01*
X201261905Y-127002438D02*
X201357143Y-126954819D01*
X201357143Y-126954819D02*
X201595238Y-126954819D01*
X201595238Y-126954819D02*
X201738095Y-127002438D01*
X202071429Y-126954819D02*
X202309524Y-127954819D01*
X202309524Y-127954819D02*
X202500000Y-127240533D01*
X202500000Y-127240533D02*
X202690476Y-127954819D01*
X202690476Y-127954819D02*
X202928572Y-126954819D01*
X203261905Y-127050057D02*
X203309524Y-127002438D01*
X203309524Y-127002438D02*
X203404762Y-126954819D01*
X203404762Y-126954819D02*
X203642857Y-126954819D01*
X203642857Y-126954819D02*
X203738095Y-127002438D01*
X203738095Y-127002438D02*
X203785714Y-127050057D01*
X203785714Y-127050057D02*
X203833333Y-127145295D01*
X203833333Y-127145295D02*
X203833333Y-127240533D01*
X203833333Y-127240533D02*
X203785714Y-127383390D01*
X203785714Y-127383390D02*
X203214286Y-127954819D01*
X203214286Y-127954819D02*
X203833333Y-127954819D01*
X187333333Y-65454819D02*
X187000000Y-64978628D01*
X186761905Y-65454819D02*
X186761905Y-64454819D01*
X186761905Y-64454819D02*
X187142857Y-64454819D01*
X187142857Y-64454819D02*
X187238095Y-64502438D01*
X187238095Y-64502438D02*
X187285714Y-64550057D01*
X187285714Y-64550057D02*
X187333333Y-64645295D01*
X187333333Y-64645295D02*
X187333333Y-64788152D01*
X187333333Y-64788152D02*
X187285714Y-64883390D01*
X187285714Y-64883390D02*
X187238095Y-64931009D01*
X187238095Y-64931009D02*
X187142857Y-64978628D01*
X187142857Y-64978628D02*
X186761905Y-64978628D01*
X187904762Y-64883390D02*
X187809524Y-64835771D01*
X187809524Y-64835771D02*
X187761905Y-64788152D01*
X187761905Y-64788152D02*
X187714286Y-64692914D01*
X187714286Y-64692914D02*
X187714286Y-64645295D01*
X187714286Y-64645295D02*
X187761905Y-64550057D01*
X187761905Y-64550057D02*
X187809524Y-64502438D01*
X187809524Y-64502438D02*
X187904762Y-64454819D01*
X187904762Y-64454819D02*
X188095238Y-64454819D01*
X188095238Y-64454819D02*
X188190476Y-64502438D01*
X188190476Y-64502438D02*
X188238095Y-64550057D01*
X188238095Y-64550057D02*
X188285714Y-64645295D01*
X188285714Y-64645295D02*
X188285714Y-64692914D01*
X188285714Y-64692914D02*
X188238095Y-64788152D01*
X188238095Y-64788152D02*
X188190476Y-64835771D01*
X188190476Y-64835771D02*
X188095238Y-64883390D01*
X188095238Y-64883390D02*
X187904762Y-64883390D01*
X187904762Y-64883390D02*
X187809524Y-64931009D01*
X187809524Y-64931009D02*
X187761905Y-64978628D01*
X187761905Y-64978628D02*
X187714286Y-65073866D01*
X187714286Y-65073866D02*
X187714286Y-65264342D01*
X187714286Y-65264342D02*
X187761905Y-65359580D01*
X187761905Y-65359580D02*
X187809524Y-65407200D01*
X187809524Y-65407200D02*
X187904762Y-65454819D01*
X187904762Y-65454819D02*
X188095238Y-65454819D01*
X188095238Y-65454819D02*
X188190476Y-65407200D01*
X188190476Y-65407200D02*
X188238095Y-65359580D01*
X188238095Y-65359580D02*
X188285714Y-65264342D01*
X188285714Y-65264342D02*
X188285714Y-65073866D01*
X188285714Y-65073866D02*
X188238095Y-64978628D01*
X188238095Y-64978628D02*
X188190476Y-64931009D01*
X188190476Y-64931009D02*
X188095238Y-64883390D01*
X189954819Y-57833333D02*
X190669104Y-57833333D01*
X190669104Y-57833333D02*
X190811961Y-57880952D01*
X190811961Y-57880952D02*
X190907200Y-57976190D01*
X190907200Y-57976190D02*
X190954819Y-58119047D01*
X190954819Y-58119047D02*
X190954819Y-58214285D01*
X190288152Y-56928571D02*
X190954819Y-56928571D01*
X189907200Y-57166666D02*
X190621485Y-57404761D01*
X190621485Y-57404761D02*
X190621485Y-56785714D01*
X188857142Y-89454819D02*
X188523809Y-88978628D01*
X188285714Y-89454819D02*
X188285714Y-88454819D01*
X188285714Y-88454819D02*
X188666666Y-88454819D01*
X188666666Y-88454819D02*
X188761904Y-88502438D01*
X188761904Y-88502438D02*
X188809523Y-88550057D01*
X188809523Y-88550057D02*
X188857142Y-88645295D01*
X188857142Y-88645295D02*
X188857142Y-88788152D01*
X188857142Y-88788152D02*
X188809523Y-88883390D01*
X188809523Y-88883390D02*
X188761904Y-88931009D01*
X188761904Y-88931009D02*
X188666666Y-88978628D01*
X188666666Y-88978628D02*
X188285714Y-88978628D01*
X189809523Y-89454819D02*
X189238095Y-89454819D01*
X189523809Y-89454819D02*
X189523809Y-88454819D01*
X189523809Y-88454819D02*
X189428571Y-88597676D01*
X189428571Y-88597676D02*
X189333333Y-88692914D01*
X189333333Y-88692914D02*
X189238095Y-88740533D01*
X190761904Y-89454819D02*
X190190476Y-89454819D01*
X190476190Y-89454819D02*
X190476190Y-88454819D01*
X190476190Y-88454819D02*
X190380952Y-88597676D01*
X190380952Y-88597676D02*
X190285714Y-88692914D01*
X190285714Y-88692914D02*
X190190476Y-88740533D01*
X202954819Y-85941666D02*
X202478628Y-86274999D01*
X202954819Y-86513094D02*
X201954819Y-86513094D01*
X201954819Y-86513094D02*
X201954819Y-86132142D01*
X201954819Y-86132142D02*
X202002438Y-86036904D01*
X202002438Y-86036904D02*
X202050057Y-85989285D01*
X202050057Y-85989285D02*
X202145295Y-85941666D01*
X202145295Y-85941666D02*
X202288152Y-85941666D01*
X202288152Y-85941666D02*
X202383390Y-85989285D01*
X202383390Y-85989285D02*
X202431009Y-86036904D01*
X202431009Y-86036904D02*
X202478628Y-86132142D01*
X202478628Y-86132142D02*
X202478628Y-86513094D01*
X202954819Y-84989285D02*
X202954819Y-85560713D01*
X202954819Y-85274999D02*
X201954819Y-85274999D01*
X201954819Y-85274999D02*
X202097676Y-85370237D01*
X202097676Y-85370237D02*
X202192914Y-85465475D01*
X202192914Y-85465475D02*
X202240533Y-85560713D01*
X187357142Y-66859580D02*
X187309523Y-66907200D01*
X187309523Y-66907200D02*
X187166666Y-66954819D01*
X187166666Y-66954819D02*
X187071428Y-66954819D01*
X187071428Y-66954819D02*
X186928571Y-66907200D01*
X186928571Y-66907200D02*
X186833333Y-66811961D01*
X186833333Y-66811961D02*
X186785714Y-66716723D01*
X186785714Y-66716723D02*
X186738095Y-66526247D01*
X186738095Y-66526247D02*
X186738095Y-66383390D01*
X186738095Y-66383390D02*
X186785714Y-66192914D01*
X186785714Y-66192914D02*
X186833333Y-66097676D01*
X186833333Y-66097676D02*
X186928571Y-66002438D01*
X186928571Y-66002438D02*
X187071428Y-65954819D01*
X187071428Y-65954819D02*
X187166666Y-65954819D01*
X187166666Y-65954819D02*
X187309523Y-66002438D01*
X187309523Y-66002438D02*
X187357142Y-66050057D01*
X188309523Y-66954819D02*
X187738095Y-66954819D01*
X188023809Y-66954819D02*
X188023809Y-65954819D01*
X188023809Y-65954819D02*
X187928571Y-66097676D01*
X187928571Y-66097676D02*
X187833333Y-66192914D01*
X187833333Y-66192914D02*
X187738095Y-66240533D01*
X189261904Y-66954819D02*
X188690476Y-66954819D01*
X188976190Y-66954819D02*
X188976190Y-65954819D01*
X188976190Y-65954819D02*
X188880952Y-66097676D01*
X188880952Y-66097676D02*
X188785714Y-66192914D01*
X188785714Y-66192914D02*
X188690476Y-66240533D01*
X91954819Y-131333333D02*
X92669104Y-131333333D01*
X92669104Y-131333333D02*
X92811961Y-131380952D01*
X92811961Y-131380952D02*
X92907200Y-131476190D01*
X92907200Y-131476190D02*
X92954819Y-131619047D01*
X92954819Y-131619047D02*
X92954819Y-131714285D01*
X91954819Y-130428571D02*
X91954819Y-130619047D01*
X91954819Y-130619047D02*
X92002438Y-130714285D01*
X92002438Y-130714285D02*
X92050057Y-130761904D01*
X92050057Y-130761904D02*
X92192914Y-130857142D01*
X92192914Y-130857142D02*
X92383390Y-130904761D01*
X92383390Y-130904761D02*
X92764342Y-130904761D01*
X92764342Y-130904761D02*
X92859580Y-130857142D01*
X92859580Y-130857142D02*
X92907200Y-130809523D01*
X92907200Y-130809523D02*
X92954819Y-130714285D01*
X92954819Y-130714285D02*
X92954819Y-130523809D01*
X92954819Y-130523809D02*
X92907200Y-130428571D01*
X92907200Y-130428571D02*
X92859580Y-130380952D01*
X92859580Y-130380952D02*
X92764342Y-130333333D01*
X92764342Y-130333333D02*
X92526247Y-130333333D01*
X92526247Y-130333333D02*
X92431009Y-130380952D01*
X92431009Y-130380952D02*
X92383390Y-130428571D01*
X92383390Y-130428571D02*
X92335771Y-130523809D01*
X92335771Y-130523809D02*
X92335771Y-130714285D01*
X92335771Y-130714285D02*
X92383390Y-130809523D01*
X92383390Y-130809523D02*
X92431009Y-130857142D01*
X92431009Y-130857142D02*
X92526247Y-130904761D01*
X180357142Y-67859580D02*
X180309523Y-67907200D01*
X180309523Y-67907200D02*
X180166666Y-67954819D01*
X180166666Y-67954819D02*
X180071428Y-67954819D01*
X180071428Y-67954819D02*
X179928571Y-67907200D01*
X179928571Y-67907200D02*
X179833333Y-67811961D01*
X179833333Y-67811961D02*
X179785714Y-67716723D01*
X179785714Y-67716723D02*
X179738095Y-67526247D01*
X179738095Y-67526247D02*
X179738095Y-67383390D01*
X179738095Y-67383390D02*
X179785714Y-67192914D01*
X179785714Y-67192914D02*
X179833333Y-67097676D01*
X179833333Y-67097676D02*
X179928571Y-67002438D01*
X179928571Y-67002438D02*
X180071428Y-66954819D01*
X180071428Y-66954819D02*
X180166666Y-66954819D01*
X180166666Y-66954819D02*
X180309523Y-67002438D01*
X180309523Y-67002438D02*
X180357142Y-67050057D01*
X181309523Y-67954819D02*
X180738095Y-67954819D01*
X181023809Y-67954819D02*
X181023809Y-66954819D01*
X181023809Y-66954819D02*
X180928571Y-67097676D01*
X180928571Y-67097676D02*
X180833333Y-67192914D01*
X180833333Y-67192914D02*
X180738095Y-67240533D01*
X182214285Y-66954819D02*
X181738095Y-66954819D01*
X181738095Y-66954819D02*
X181690476Y-67431009D01*
X181690476Y-67431009D02*
X181738095Y-67383390D01*
X181738095Y-67383390D02*
X181833333Y-67335771D01*
X181833333Y-67335771D02*
X182071428Y-67335771D01*
X182071428Y-67335771D02*
X182166666Y-67383390D01*
X182166666Y-67383390D02*
X182214285Y-67431009D01*
X182214285Y-67431009D02*
X182261904Y-67526247D01*
X182261904Y-67526247D02*
X182261904Y-67764342D01*
X182261904Y-67764342D02*
X182214285Y-67859580D01*
X182214285Y-67859580D02*
X182166666Y-67907200D01*
X182166666Y-67907200D02*
X182071428Y-67954819D01*
X182071428Y-67954819D02*
X181833333Y-67954819D01*
X181833333Y-67954819D02*
X181738095Y-67907200D01*
X181738095Y-67907200D02*
X181690476Y-67859580D01*
X203333333Y-61359580D02*
X203285714Y-61407200D01*
X203285714Y-61407200D02*
X203142857Y-61454819D01*
X203142857Y-61454819D02*
X203047619Y-61454819D01*
X203047619Y-61454819D02*
X202904762Y-61407200D01*
X202904762Y-61407200D02*
X202809524Y-61311961D01*
X202809524Y-61311961D02*
X202761905Y-61216723D01*
X202761905Y-61216723D02*
X202714286Y-61026247D01*
X202714286Y-61026247D02*
X202714286Y-60883390D01*
X202714286Y-60883390D02*
X202761905Y-60692914D01*
X202761905Y-60692914D02*
X202809524Y-60597676D01*
X202809524Y-60597676D02*
X202904762Y-60502438D01*
X202904762Y-60502438D02*
X203047619Y-60454819D01*
X203047619Y-60454819D02*
X203142857Y-60454819D01*
X203142857Y-60454819D02*
X203285714Y-60502438D01*
X203285714Y-60502438D02*
X203333333Y-60550057D01*
X203666667Y-60454819D02*
X204285714Y-60454819D01*
X204285714Y-60454819D02*
X203952381Y-60835771D01*
X203952381Y-60835771D02*
X204095238Y-60835771D01*
X204095238Y-60835771D02*
X204190476Y-60883390D01*
X204190476Y-60883390D02*
X204238095Y-60931009D01*
X204238095Y-60931009D02*
X204285714Y-61026247D01*
X204285714Y-61026247D02*
X204285714Y-61264342D01*
X204285714Y-61264342D02*
X204238095Y-61359580D01*
X204238095Y-61359580D02*
X204190476Y-61407200D01*
X204190476Y-61407200D02*
X204095238Y-61454819D01*
X204095238Y-61454819D02*
X203809524Y-61454819D01*
X203809524Y-61454819D02*
X203714286Y-61407200D01*
X203714286Y-61407200D02*
X203666667Y-61359580D01*
X187332142Y-62194580D02*
X187284523Y-62242200D01*
X187284523Y-62242200D02*
X187141666Y-62289819D01*
X187141666Y-62289819D02*
X187046428Y-62289819D01*
X187046428Y-62289819D02*
X186903571Y-62242200D01*
X186903571Y-62242200D02*
X186808333Y-62146961D01*
X186808333Y-62146961D02*
X186760714Y-62051723D01*
X186760714Y-62051723D02*
X186713095Y-61861247D01*
X186713095Y-61861247D02*
X186713095Y-61718390D01*
X186713095Y-61718390D02*
X186760714Y-61527914D01*
X186760714Y-61527914D02*
X186808333Y-61432676D01*
X186808333Y-61432676D02*
X186903571Y-61337438D01*
X186903571Y-61337438D02*
X187046428Y-61289819D01*
X187046428Y-61289819D02*
X187141666Y-61289819D01*
X187141666Y-61289819D02*
X187284523Y-61337438D01*
X187284523Y-61337438D02*
X187332142Y-61385057D01*
X188284523Y-62289819D02*
X187713095Y-62289819D01*
X187998809Y-62289819D02*
X187998809Y-61289819D01*
X187998809Y-61289819D02*
X187903571Y-61432676D01*
X187903571Y-61432676D02*
X187808333Y-61527914D01*
X187808333Y-61527914D02*
X187713095Y-61575533D01*
X188665476Y-61385057D02*
X188713095Y-61337438D01*
X188713095Y-61337438D02*
X188808333Y-61289819D01*
X188808333Y-61289819D02*
X189046428Y-61289819D01*
X189046428Y-61289819D02*
X189141666Y-61337438D01*
X189141666Y-61337438D02*
X189189285Y-61385057D01*
X189189285Y-61385057D02*
X189236904Y-61480295D01*
X189236904Y-61480295D02*
X189236904Y-61575533D01*
X189236904Y-61575533D02*
X189189285Y-61718390D01*
X189189285Y-61718390D02*
X188617857Y-62289819D01*
X188617857Y-62289819D02*
X189236904Y-62289819D01*
X214833333Y-60359580D02*
X214785714Y-60407200D01*
X214785714Y-60407200D02*
X214642857Y-60454819D01*
X214642857Y-60454819D02*
X214547619Y-60454819D01*
X214547619Y-60454819D02*
X214404762Y-60407200D01*
X214404762Y-60407200D02*
X214309524Y-60311961D01*
X214309524Y-60311961D02*
X214261905Y-60216723D01*
X214261905Y-60216723D02*
X214214286Y-60026247D01*
X214214286Y-60026247D02*
X214214286Y-59883390D01*
X214214286Y-59883390D02*
X214261905Y-59692914D01*
X214261905Y-59692914D02*
X214309524Y-59597676D01*
X214309524Y-59597676D02*
X214404762Y-59502438D01*
X214404762Y-59502438D02*
X214547619Y-59454819D01*
X214547619Y-59454819D02*
X214642857Y-59454819D01*
X214642857Y-59454819D02*
X214785714Y-59502438D01*
X214785714Y-59502438D02*
X214833333Y-59550057D01*
X215690476Y-59788152D02*
X215690476Y-60454819D01*
X215452381Y-59407200D02*
X215214286Y-60121485D01*
X215214286Y-60121485D02*
X215833333Y-60121485D01*
X152357142Y-94454819D02*
X152023809Y-93978628D01*
X151785714Y-94454819D02*
X151785714Y-93454819D01*
X151785714Y-93454819D02*
X152166666Y-93454819D01*
X152166666Y-93454819D02*
X152261904Y-93502438D01*
X152261904Y-93502438D02*
X152309523Y-93550057D01*
X152309523Y-93550057D02*
X152357142Y-93645295D01*
X152357142Y-93645295D02*
X152357142Y-93788152D01*
X152357142Y-93788152D02*
X152309523Y-93883390D01*
X152309523Y-93883390D02*
X152261904Y-93931009D01*
X152261904Y-93931009D02*
X152166666Y-93978628D01*
X152166666Y-93978628D02*
X151785714Y-93978628D01*
X153309523Y-94454819D02*
X152738095Y-94454819D01*
X153023809Y-94454819D02*
X153023809Y-93454819D01*
X153023809Y-93454819D02*
X152928571Y-93597676D01*
X152928571Y-93597676D02*
X152833333Y-93692914D01*
X152833333Y-93692914D02*
X152738095Y-93740533D01*
X153642857Y-93454819D02*
X154261904Y-93454819D01*
X154261904Y-93454819D02*
X153928571Y-93835771D01*
X153928571Y-93835771D02*
X154071428Y-93835771D01*
X154071428Y-93835771D02*
X154166666Y-93883390D01*
X154166666Y-93883390D02*
X154214285Y-93931009D01*
X154214285Y-93931009D02*
X154261904Y-94026247D01*
X154261904Y-94026247D02*
X154261904Y-94264342D01*
X154261904Y-94264342D02*
X154214285Y-94359580D01*
X154214285Y-94359580D02*
X154166666Y-94407200D01*
X154166666Y-94407200D02*
X154071428Y-94454819D01*
X154071428Y-94454819D02*
X153785714Y-94454819D01*
X153785714Y-94454819D02*
X153690476Y-94407200D01*
X153690476Y-94407200D02*
X153642857Y-94359580D01*
X175666666Y-64954819D02*
X175666666Y-65669104D01*
X175666666Y-65669104D02*
X175619047Y-65811961D01*
X175619047Y-65811961D02*
X175523809Y-65907200D01*
X175523809Y-65907200D02*
X175380952Y-65954819D01*
X175380952Y-65954819D02*
X175285714Y-65954819D01*
X176047619Y-64954819D02*
X176666666Y-64954819D01*
X176666666Y-64954819D02*
X176333333Y-65335771D01*
X176333333Y-65335771D02*
X176476190Y-65335771D01*
X176476190Y-65335771D02*
X176571428Y-65383390D01*
X176571428Y-65383390D02*
X176619047Y-65431009D01*
X176619047Y-65431009D02*
X176666666Y-65526247D01*
X176666666Y-65526247D02*
X176666666Y-65764342D01*
X176666666Y-65764342D02*
X176619047Y-65859580D01*
X176619047Y-65859580D02*
X176571428Y-65907200D01*
X176571428Y-65907200D02*
X176476190Y-65954819D01*
X176476190Y-65954819D02*
X176190476Y-65954819D01*
X176190476Y-65954819D02*
X176095238Y-65907200D01*
X176095238Y-65907200D02*
X176047619Y-65859580D01*
X165213095Y-65454819D02*
X165213095Y-66264342D01*
X165213095Y-66264342D02*
X165260714Y-66359580D01*
X165260714Y-66359580D02*
X165308333Y-66407200D01*
X165308333Y-66407200D02*
X165403571Y-66454819D01*
X165403571Y-66454819D02*
X165594047Y-66454819D01*
X165594047Y-66454819D02*
X165689285Y-66407200D01*
X165689285Y-66407200D02*
X165736904Y-66359580D01*
X165736904Y-66359580D02*
X165784523Y-66264342D01*
X165784523Y-66264342D02*
X165784523Y-65454819D01*
X166213095Y-65550057D02*
X166260714Y-65502438D01*
X166260714Y-65502438D02*
X166355952Y-65454819D01*
X166355952Y-65454819D02*
X166594047Y-65454819D01*
X166594047Y-65454819D02*
X166689285Y-65502438D01*
X166689285Y-65502438D02*
X166736904Y-65550057D01*
X166736904Y-65550057D02*
X166784523Y-65645295D01*
X166784523Y-65645295D02*
X166784523Y-65740533D01*
X166784523Y-65740533D02*
X166736904Y-65883390D01*
X166736904Y-65883390D02*
X166165476Y-66454819D01*
X166165476Y-66454819D02*
X166784523Y-66454819D01*
X195000057Y-130785238D02*
X194952438Y-130880476D01*
X194952438Y-130880476D02*
X194857200Y-130975714D01*
X194857200Y-130975714D02*
X194714342Y-131118571D01*
X194714342Y-131118571D02*
X194666723Y-131213809D01*
X194666723Y-131213809D02*
X194666723Y-131309047D01*
X194904819Y-131261428D02*
X194857200Y-131356666D01*
X194857200Y-131356666D02*
X194761961Y-131451904D01*
X194761961Y-131451904D02*
X194571485Y-131499523D01*
X194571485Y-131499523D02*
X194238152Y-131499523D01*
X194238152Y-131499523D02*
X194047676Y-131451904D01*
X194047676Y-131451904D02*
X193952438Y-131356666D01*
X193952438Y-131356666D02*
X193904819Y-131261428D01*
X193904819Y-131261428D02*
X193904819Y-131070952D01*
X193904819Y-131070952D02*
X193952438Y-130975714D01*
X193952438Y-130975714D02*
X194047676Y-130880476D01*
X194047676Y-130880476D02*
X194238152Y-130832857D01*
X194238152Y-130832857D02*
X194571485Y-130832857D01*
X194571485Y-130832857D02*
X194761961Y-130880476D01*
X194761961Y-130880476D02*
X194857200Y-130975714D01*
X194857200Y-130975714D02*
X194904819Y-131070952D01*
X194904819Y-131070952D02*
X194904819Y-131261428D01*
X194904819Y-129880476D02*
X194904819Y-130451904D01*
X194904819Y-130166190D02*
X193904819Y-130166190D01*
X193904819Y-130166190D02*
X194047676Y-130261428D01*
X194047676Y-130261428D02*
X194142914Y-130356666D01*
X194142914Y-130356666D02*
X194190533Y-130451904D01*
X179857142Y-97954819D02*
X179523809Y-97478628D01*
X179285714Y-97954819D02*
X179285714Y-96954819D01*
X179285714Y-96954819D02*
X179666666Y-96954819D01*
X179666666Y-96954819D02*
X179761904Y-97002438D01*
X179761904Y-97002438D02*
X179809523Y-97050057D01*
X179809523Y-97050057D02*
X179857142Y-97145295D01*
X179857142Y-97145295D02*
X179857142Y-97288152D01*
X179857142Y-97288152D02*
X179809523Y-97383390D01*
X179809523Y-97383390D02*
X179761904Y-97431009D01*
X179761904Y-97431009D02*
X179666666Y-97478628D01*
X179666666Y-97478628D02*
X179285714Y-97478628D01*
X180809523Y-97954819D02*
X180238095Y-97954819D01*
X180523809Y-97954819D02*
X180523809Y-96954819D01*
X180523809Y-96954819D02*
X180428571Y-97097676D01*
X180428571Y-97097676D02*
X180333333Y-97192914D01*
X180333333Y-97192914D02*
X180238095Y-97240533D01*
X181714285Y-96954819D02*
X181238095Y-96954819D01*
X181238095Y-96954819D02*
X181190476Y-97431009D01*
X181190476Y-97431009D02*
X181238095Y-97383390D01*
X181238095Y-97383390D02*
X181333333Y-97335771D01*
X181333333Y-97335771D02*
X181571428Y-97335771D01*
X181571428Y-97335771D02*
X181666666Y-97383390D01*
X181666666Y-97383390D02*
X181714285Y-97431009D01*
X181714285Y-97431009D02*
X181761904Y-97526247D01*
X181761904Y-97526247D02*
X181761904Y-97764342D01*
X181761904Y-97764342D02*
X181714285Y-97859580D01*
X181714285Y-97859580D02*
X181666666Y-97907200D01*
X181666666Y-97907200D02*
X181571428Y-97954819D01*
X181571428Y-97954819D02*
X181333333Y-97954819D01*
X181333333Y-97954819D02*
X181238095Y-97907200D01*
X181238095Y-97907200D02*
X181190476Y-97859580D01*
X188857142Y-85954819D02*
X188523809Y-85478628D01*
X188285714Y-85954819D02*
X188285714Y-84954819D01*
X188285714Y-84954819D02*
X188666666Y-84954819D01*
X188666666Y-84954819D02*
X188761904Y-85002438D01*
X188761904Y-85002438D02*
X188809523Y-85050057D01*
X188809523Y-85050057D02*
X188857142Y-85145295D01*
X188857142Y-85145295D02*
X188857142Y-85288152D01*
X188857142Y-85288152D02*
X188809523Y-85383390D01*
X188809523Y-85383390D02*
X188761904Y-85431009D01*
X188761904Y-85431009D02*
X188666666Y-85478628D01*
X188666666Y-85478628D02*
X188285714Y-85478628D01*
X189809523Y-85954819D02*
X189238095Y-85954819D01*
X189523809Y-85954819D02*
X189523809Y-84954819D01*
X189523809Y-84954819D02*
X189428571Y-85097676D01*
X189428571Y-85097676D02*
X189333333Y-85192914D01*
X189333333Y-85192914D02*
X189238095Y-85240533D01*
X190428571Y-84954819D02*
X190523809Y-84954819D01*
X190523809Y-84954819D02*
X190619047Y-85002438D01*
X190619047Y-85002438D02*
X190666666Y-85050057D01*
X190666666Y-85050057D02*
X190714285Y-85145295D01*
X190714285Y-85145295D02*
X190761904Y-85335771D01*
X190761904Y-85335771D02*
X190761904Y-85573866D01*
X190761904Y-85573866D02*
X190714285Y-85764342D01*
X190714285Y-85764342D02*
X190666666Y-85859580D01*
X190666666Y-85859580D02*
X190619047Y-85907200D01*
X190619047Y-85907200D02*
X190523809Y-85954819D01*
X190523809Y-85954819D02*
X190428571Y-85954819D01*
X190428571Y-85954819D02*
X190333333Y-85907200D01*
X190333333Y-85907200D02*
X190285714Y-85859580D01*
X190285714Y-85859580D02*
X190238095Y-85764342D01*
X190238095Y-85764342D02*
X190190476Y-85573866D01*
X190190476Y-85573866D02*
X190190476Y-85335771D01*
X190190476Y-85335771D02*
X190238095Y-85145295D01*
X190238095Y-85145295D02*
X190285714Y-85050057D01*
X190285714Y-85050057D02*
X190333333Y-85002438D01*
X190333333Y-85002438D02*
X190428571Y-84954819D01*
X213454819Y-85941666D02*
X212978628Y-86274999D01*
X213454819Y-86513094D02*
X212454819Y-86513094D01*
X212454819Y-86513094D02*
X212454819Y-86132142D01*
X212454819Y-86132142D02*
X212502438Y-86036904D01*
X212502438Y-86036904D02*
X212550057Y-85989285D01*
X212550057Y-85989285D02*
X212645295Y-85941666D01*
X212645295Y-85941666D02*
X212788152Y-85941666D01*
X212788152Y-85941666D02*
X212883390Y-85989285D01*
X212883390Y-85989285D02*
X212931009Y-86036904D01*
X212931009Y-86036904D02*
X212978628Y-86132142D01*
X212978628Y-86132142D02*
X212978628Y-86513094D01*
X212454819Y-85084523D02*
X212454819Y-85274999D01*
X212454819Y-85274999D02*
X212502438Y-85370237D01*
X212502438Y-85370237D02*
X212550057Y-85417856D01*
X212550057Y-85417856D02*
X212692914Y-85513094D01*
X212692914Y-85513094D02*
X212883390Y-85560713D01*
X212883390Y-85560713D02*
X213264342Y-85560713D01*
X213264342Y-85560713D02*
X213359580Y-85513094D01*
X213359580Y-85513094D02*
X213407200Y-85465475D01*
X213407200Y-85465475D02*
X213454819Y-85370237D01*
X213454819Y-85370237D02*
X213454819Y-85179761D01*
X213454819Y-85179761D02*
X213407200Y-85084523D01*
X213407200Y-85084523D02*
X213359580Y-85036904D01*
X213359580Y-85036904D02*
X213264342Y-84989285D01*
X213264342Y-84989285D02*
X213026247Y-84989285D01*
X213026247Y-84989285D02*
X212931009Y-85036904D01*
X212931009Y-85036904D02*
X212883390Y-85084523D01*
X212883390Y-85084523D02*
X212835771Y-85179761D01*
X212835771Y-85179761D02*
X212835771Y-85370237D01*
X212835771Y-85370237D02*
X212883390Y-85465475D01*
X212883390Y-85465475D02*
X212931009Y-85513094D01*
X212931009Y-85513094D02*
X213026247Y-85560713D01*
X187333333Y-121454819D02*
X187000000Y-120978628D01*
X186761905Y-121454819D02*
X186761905Y-120454819D01*
X186761905Y-120454819D02*
X187142857Y-120454819D01*
X187142857Y-120454819D02*
X187238095Y-120502438D01*
X187238095Y-120502438D02*
X187285714Y-120550057D01*
X187285714Y-120550057D02*
X187333333Y-120645295D01*
X187333333Y-120645295D02*
X187333333Y-120788152D01*
X187333333Y-120788152D02*
X187285714Y-120883390D01*
X187285714Y-120883390D02*
X187238095Y-120931009D01*
X187238095Y-120931009D02*
X187142857Y-120978628D01*
X187142857Y-120978628D02*
X186761905Y-120978628D01*
X187714286Y-120550057D02*
X187761905Y-120502438D01*
X187761905Y-120502438D02*
X187857143Y-120454819D01*
X187857143Y-120454819D02*
X188095238Y-120454819D01*
X188095238Y-120454819D02*
X188190476Y-120502438D01*
X188190476Y-120502438D02*
X188238095Y-120550057D01*
X188238095Y-120550057D02*
X188285714Y-120645295D01*
X188285714Y-120645295D02*
X188285714Y-120740533D01*
X188285714Y-120740533D02*
X188238095Y-120883390D01*
X188238095Y-120883390D02*
X187666667Y-121454819D01*
X187666667Y-121454819D02*
X188285714Y-121454819D01*
X172857142Y-67859580D02*
X172809523Y-67907200D01*
X172809523Y-67907200D02*
X172666666Y-67954819D01*
X172666666Y-67954819D02*
X172571428Y-67954819D01*
X172571428Y-67954819D02*
X172428571Y-67907200D01*
X172428571Y-67907200D02*
X172333333Y-67811961D01*
X172333333Y-67811961D02*
X172285714Y-67716723D01*
X172285714Y-67716723D02*
X172238095Y-67526247D01*
X172238095Y-67526247D02*
X172238095Y-67383390D01*
X172238095Y-67383390D02*
X172285714Y-67192914D01*
X172285714Y-67192914D02*
X172333333Y-67097676D01*
X172333333Y-67097676D02*
X172428571Y-67002438D01*
X172428571Y-67002438D02*
X172571428Y-66954819D01*
X172571428Y-66954819D02*
X172666666Y-66954819D01*
X172666666Y-66954819D02*
X172809523Y-67002438D01*
X172809523Y-67002438D02*
X172857142Y-67050057D01*
X173809523Y-67954819D02*
X173238095Y-67954819D01*
X173523809Y-67954819D02*
X173523809Y-66954819D01*
X173523809Y-66954819D02*
X173428571Y-67097676D01*
X173428571Y-67097676D02*
X173333333Y-67192914D01*
X173333333Y-67192914D02*
X173238095Y-67240533D01*
X174666666Y-67288152D02*
X174666666Y-67954819D01*
X174428571Y-66907200D02*
X174190476Y-67621485D01*
X174190476Y-67621485D02*
X174809523Y-67621485D01*
X187333333Y-68454819D02*
X187000000Y-67978628D01*
X186761905Y-68454819D02*
X186761905Y-67454819D01*
X186761905Y-67454819D02*
X187142857Y-67454819D01*
X187142857Y-67454819D02*
X187238095Y-67502438D01*
X187238095Y-67502438D02*
X187285714Y-67550057D01*
X187285714Y-67550057D02*
X187333333Y-67645295D01*
X187333333Y-67645295D02*
X187333333Y-67788152D01*
X187333333Y-67788152D02*
X187285714Y-67883390D01*
X187285714Y-67883390D02*
X187238095Y-67931009D01*
X187238095Y-67931009D02*
X187142857Y-67978628D01*
X187142857Y-67978628D02*
X186761905Y-67978628D01*
X187666667Y-67454819D02*
X188333333Y-67454819D01*
X188333333Y-67454819D02*
X187904762Y-68454819D01*
X217308333Y-129894819D02*
X216975000Y-129418628D01*
X216736905Y-129894819D02*
X216736905Y-128894819D01*
X216736905Y-128894819D02*
X217117857Y-128894819D01*
X217117857Y-128894819D02*
X217213095Y-128942438D01*
X217213095Y-128942438D02*
X217260714Y-128990057D01*
X217260714Y-128990057D02*
X217308333Y-129085295D01*
X217308333Y-129085295D02*
X217308333Y-129228152D01*
X217308333Y-129228152D02*
X217260714Y-129323390D01*
X217260714Y-129323390D02*
X217213095Y-129371009D01*
X217213095Y-129371009D02*
X217117857Y-129418628D01*
X217117857Y-129418628D02*
X216736905Y-129418628D01*
X217784524Y-129894819D02*
X217975000Y-129894819D01*
X217975000Y-129894819D02*
X218070238Y-129847200D01*
X218070238Y-129847200D02*
X218117857Y-129799580D01*
X218117857Y-129799580D02*
X218213095Y-129656723D01*
X218213095Y-129656723D02*
X218260714Y-129466247D01*
X218260714Y-129466247D02*
X218260714Y-129085295D01*
X218260714Y-129085295D02*
X218213095Y-128990057D01*
X218213095Y-128990057D02*
X218165476Y-128942438D01*
X218165476Y-128942438D02*
X218070238Y-128894819D01*
X218070238Y-128894819D02*
X217879762Y-128894819D01*
X217879762Y-128894819D02*
X217784524Y-128942438D01*
X217784524Y-128942438D02*
X217736905Y-128990057D01*
X217736905Y-128990057D02*
X217689286Y-129085295D01*
X217689286Y-129085295D02*
X217689286Y-129323390D01*
X217689286Y-129323390D02*
X217736905Y-129418628D01*
X217736905Y-129418628D02*
X217784524Y-129466247D01*
X217784524Y-129466247D02*
X217879762Y-129513866D01*
X217879762Y-129513866D02*
X218070238Y-129513866D01*
X218070238Y-129513866D02*
X218165476Y-129466247D01*
X218165476Y-129466247D02*
X218213095Y-129418628D01*
X218213095Y-129418628D02*
X218260714Y-129323390D01*
X208833333Y-126954819D02*
X208500000Y-126478628D01*
X208261905Y-126954819D02*
X208261905Y-125954819D01*
X208261905Y-125954819D02*
X208642857Y-125954819D01*
X208642857Y-125954819D02*
X208738095Y-126002438D01*
X208738095Y-126002438D02*
X208785714Y-126050057D01*
X208785714Y-126050057D02*
X208833333Y-126145295D01*
X208833333Y-126145295D02*
X208833333Y-126288152D01*
X208833333Y-126288152D02*
X208785714Y-126383390D01*
X208785714Y-126383390D02*
X208738095Y-126431009D01*
X208738095Y-126431009D02*
X208642857Y-126478628D01*
X208642857Y-126478628D02*
X208261905Y-126478628D01*
X209690476Y-126288152D02*
X209690476Y-126954819D01*
X209452381Y-125907200D02*
X209214286Y-126621485D01*
X209214286Y-126621485D02*
X209833333Y-126621485D01*
X178468878Y-77856467D02*
X178468878Y-77069065D01*
X178468878Y-77069065D02*
X178731346Y-77631495D01*
X178731346Y-77631495D02*
X178993813Y-77069065D01*
X178993813Y-77069065D02*
X178993813Y-77856467D01*
X179368766Y-77856467D02*
X179368766Y-77069065D01*
X179368766Y-77069065D02*
X179556243Y-77069065D01*
X179556243Y-77069065D02*
X179668729Y-77106560D01*
X179668729Y-77106560D02*
X179743720Y-77181551D01*
X179743720Y-77181551D02*
X179781215Y-77256542D01*
X179781215Y-77256542D02*
X179818710Y-77406523D01*
X179818710Y-77406523D02*
X179818710Y-77519009D01*
X179818710Y-77519009D02*
X179781215Y-77668990D01*
X179781215Y-77668990D02*
X179743720Y-77743981D01*
X179743720Y-77743981D02*
X179668729Y-77818972D01*
X179668729Y-77818972D02*
X179556243Y-77856467D01*
X179556243Y-77856467D02*
X179368766Y-77856467D01*
X180568617Y-77856467D02*
X180118673Y-77856467D01*
X180343645Y-77856467D02*
X180343645Y-77069065D01*
X180343645Y-77069065D02*
X180268654Y-77181551D01*
X180268654Y-77181551D02*
X180193664Y-77256542D01*
X180193664Y-77256542D02*
X180118673Y-77294037D01*
X171264580Y-56441666D02*
X171312200Y-56489285D01*
X171312200Y-56489285D02*
X171359819Y-56632142D01*
X171359819Y-56632142D02*
X171359819Y-56727380D01*
X171359819Y-56727380D02*
X171312200Y-56870237D01*
X171312200Y-56870237D02*
X171216961Y-56965475D01*
X171216961Y-56965475D02*
X171121723Y-57013094D01*
X171121723Y-57013094D02*
X170931247Y-57060713D01*
X170931247Y-57060713D02*
X170788390Y-57060713D01*
X170788390Y-57060713D02*
X170597914Y-57013094D01*
X170597914Y-57013094D02*
X170502676Y-56965475D01*
X170502676Y-56965475D02*
X170407438Y-56870237D01*
X170407438Y-56870237D02*
X170359819Y-56727380D01*
X170359819Y-56727380D02*
X170359819Y-56632142D01*
X170359819Y-56632142D02*
X170407438Y-56489285D01*
X170407438Y-56489285D02*
X170455057Y-56441666D01*
X170455057Y-56060713D02*
X170407438Y-56013094D01*
X170407438Y-56013094D02*
X170359819Y-55917856D01*
X170359819Y-55917856D02*
X170359819Y-55679761D01*
X170359819Y-55679761D02*
X170407438Y-55584523D01*
X170407438Y-55584523D02*
X170455057Y-55536904D01*
X170455057Y-55536904D02*
X170550295Y-55489285D01*
X170550295Y-55489285D02*
X170645533Y-55489285D01*
X170645533Y-55489285D02*
X170788390Y-55536904D01*
X170788390Y-55536904D02*
X171359819Y-56108332D01*
X171359819Y-56108332D02*
X171359819Y-55489285D01*
X207173095Y-57634819D02*
X207173095Y-58444342D01*
X207173095Y-58444342D02*
X207220714Y-58539580D01*
X207220714Y-58539580D02*
X207268333Y-58587200D01*
X207268333Y-58587200D02*
X207363571Y-58634819D01*
X207363571Y-58634819D02*
X207554047Y-58634819D01*
X207554047Y-58634819D02*
X207649285Y-58587200D01*
X207649285Y-58587200D02*
X207696904Y-58539580D01*
X207696904Y-58539580D02*
X207744523Y-58444342D01*
X207744523Y-58444342D02*
X207744523Y-57634819D01*
X208649285Y-57634819D02*
X208458809Y-57634819D01*
X208458809Y-57634819D02*
X208363571Y-57682438D01*
X208363571Y-57682438D02*
X208315952Y-57730057D01*
X208315952Y-57730057D02*
X208220714Y-57872914D01*
X208220714Y-57872914D02*
X208173095Y-58063390D01*
X208173095Y-58063390D02*
X208173095Y-58444342D01*
X208173095Y-58444342D02*
X208220714Y-58539580D01*
X208220714Y-58539580D02*
X208268333Y-58587200D01*
X208268333Y-58587200D02*
X208363571Y-58634819D01*
X208363571Y-58634819D02*
X208554047Y-58634819D01*
X208554047Y-58634819D02*
X208649285Y-58587200D01*
X208649285Y-58587200D02*
X208696904Y-58539580D01*
X208696904Y-58539580D02*
X208744523Y-58444342D01*
X208744523Y-58444342D02*
X208744523Y-58206247D01*
X208744523Y-58206247D02*
X208696904Y-58111009D01*
X208696904Y-58111009D02*
X208649285Y-58063390D01*
X208649285Y-58063390D02*
X208554047Y-58015771D01*
X208554047Y-58015771D02*
X208363571Y-58015771D01*
X208363571Y-58015771D02*
X208268333Y-58063390D01*
X208268333Y-58063390D02*
X208220714Y-58111009D01*
X208220714Y-58111009D02*
X208173095Y-58206247D01*
X200357142Y-121859580D02*
X200309523Y-121907200D01*
X200309523Y-121907200D02*
X200166666Y-121954819D01*
X200166666Y-121954819D02*
X200071428Y-121954819D01*
X200071428Y-121954819D02*
X199928571Y-121907200D01*
X199928571Y-121907200D02*
X199833333Y-121811961D01*
X199833333Y-121811961D02*
X199785714Y-121716723D01*
X199785714Y-121716723D02*
X199738095Y-121526247D01*
X199738095Y-121526247D02*
X199738095Y-121383390D01*
X199738095Y-121383390D02*
X199785714Y-121192914D01*
X199785714Y-121192914D02*
X199833333Y-121097676D01*
X199833333Y-121097676D02*
X199928571Y-121002438D01*
X199928571Y-121002438D02*
X200071428Y-120954819D01*
X200071428Y-120954819D02*
X200166666Y-120954819D01*
X200166666Y-120954819D02*
X200309523Y-121002438D01*
X200309523Y-121002438D02*
X200357142Y-121050057D01*
X201309523Y-121954819D02*
X200738095Y-121954819D01*
X201023809Y-121954819D02*
X201023809Y-120954819D01*
X201023809Y-120954819D02*
X200928571Y-121097676D01*
X200928571Y-121097676D02*
X200833333Y-121192914D01*
X200833333Y-121192914D02*
X200738095Y-121240533D01*
X201928571Y-120954819D02*
X202023809Y-120954819D01*
X202023809Y-120954819D02*
X202119047Y-121002438D01*
X202119047Y-121002438D02*
X202166666Y-121050057D01*
X202166666Y-121050057D02*
X202214285Y-121145295D01*
X202214285Y-121145295D02*
X202261904Y-121335771D01*
X202261904Y-121335771D02*
X202261904Y-121573866D01*
X202261904Y-121573866D02*
X202214285Y-121764342D01*
X202214285Y-121764342D02*
X202166666Y-121859580D01*
X202166666Y-121859580D02*
X202119047Y-121907200D01*
X202119047Y-121907200D02*
X202023809Y-121954819D01*
X202023809Y-121954819D02*
X201928571Y-121954819D01*
X201928571Y-121954819D02*
X201833333Y-121907200D01*
X201833333Y-121907200D02*
X201785714Y-121859580D01*
X201785714Y-121859580D02*
X201738095Y-121764342D01*
X201738095Y-121764342D02*
X201690476Y-121573866D01*
X201690476Y-121573866D02*
X201690476Y-121335771D01*
X201690476Y-121335771D02*
X201738095Y-121145295D01*
X201738095Y-121145295D02*
X201785714Y-121050057D01*
X201785714Y-121050057D02*
X201833333Y-121002438D01*
X201833333Y-121002438D02*
X201928571Y-120954819D01*
X209833333Y-130359580D02*
X209785714Y-130407200D01*
X209785714Y-130407200D02*
X209642857Y-130454819D01*
X209642857Y-130454819D02*
X209547619Y-130454819D01*
X209547619Y-130454819D02*
X209404762Y-130407200D01*
X209404762Y-130407200D02*
X209309524Y-130311961D01*
X209309524Y-130311961D02*
X209261905Y-130216723D01*
X209261905Y-130216723D02*
X209214286Y-130026247D01*
X209214286Y-130026247D02*
X209214286Y-129883390D01*
X209214286Y-129883390D02*
X209261905Y-129692914D01*
X209261905Y-129692914D02*
X209309524Y-129597676D01*
X209309524Y-129597676D02*
X209404762Y-129502438D01*
X209404762Y-129502438D02*
X209547619Y-129454819D01*
X209547619Y-129454819D02*
X209642857Y-129454819D01*
X209642857Y-129454819D02*
X209785714Y-129502438D01*
X209785714Y-129502438D02*
X209833333Y-129550057D01*
X210785714Y-130454819D02*
X210214286Y-130454819D01*
X210500000Y-130454819D02*
X210500000Y-129454819D01*
X210500000Y-129454819D02*
X210404762Y-129597676D01*
X210404762Y-129597676D02*
X210309524Y-129692914D01*
X210309524Y-129692914D02*
X210214286Y-129740533D01*
X199713095Y-65829819D02*
X199713095Y-66639342D01*
X199713095Y-66639342D02*
X199760714Y-66734580D01*
X199760714Y-66734580D02*
X199808333Y-66782200D01*
X199808333Y-66782200D02*
X199903571Y-66829819D01*
X199903571Y-66829819D02*
X200094047Y-66829819D01*
X200094047Y-66829819D02*
X200189285Y-66782200D01*
X200189285Y-66782200D02*
X200236904Y-66734580D01*
X200236904Y-66734580D02*
X200284523Y-66639342D01*
X200284523Y-66639342D02*
X200284523Y-65829819D01*
X201189285Y-66163152D02*
X201189285Y-66829819D01*
X200951190Y-65782200D02*
X200713095Y-66496485D01*
X200713095Y-66496485D02*
X201332142Y-66496485D01*
X165869819Y-90018094D02*
X164869819Y-90018094D01*
X164869819Y-90018094D02*
X164869819Y-89779999D01*
X164869819Y-89779999D02*
X164917438Y-89637142D01*
X164917438Y-89637142D02*
X165012676Y-89541904D01*
X165012676Y-89541904D02*
X165107914Y-89494285D01*
X165107914Y-89494285D02*
X165298390Y-89446666D01*
X165298390Y-89446666D02*
X165441247Y-89446666D01*
X165441247Y-89446666D02*
X165631723Y-89494285D01*
X165631723Y-89494285D02*
X165726961Y-89541904D01*
X165726961Y-89541904D02*
X165822200Y-89637142D01*
X165822200Y-89637142D02*
X165869819Y-89779999D01*
X165869819Y-89779999D02*
X165869819Y-90018094D01*
X165869819Y-88494285D02*
X165869819Y-89065713D01*
X165869819Y-88779999D02*
X164869819Y-88779999D01*
X164869819Y-88779999D02*
X165012676Y-88875237D01*
X165012676Y-88875237D02*
X165107914Y-88970475D01*
X165107914Y-88970475D02*
X165155533Y-89065713D01*
X149359580Y-108166666D02*
X149407200Y-108214285D01*
X149407200Y-108214285D02*
X149454819Y-108357142D01*
X149454819Y-108357142D02*
X149454819Y-108452380D01*
X149454819Y-108452380D02*
X149407200Y-108595237D01*
X149407200Y-108595237D02*
X149311961Y-108690475D01*
X149311961Y-108690475D02*
X149216723Y-108738094D01*
X149216723Y-108738094D02*
X149026247Y-108785713D01*
X149026247Y-108785713D02*
X148883390Y-108785713D01*
X148883390Y-108785713D02*
X148692914Y-108738094D01*
X148692914Y-108738094D02*
X148597676Y-108690475D01*
X148597676Y-108690475D02*
X148502438Y-108595237D01*
X148502438Y-108595237D02*
X148454819Y-108452380D01*
X148454819Y-108452380D02*
X148454819Y-108357142D01*
X148454819Y-108357142D02*
X148502438Y-108214285D01*
X148502438Y-108214285D02*
X148550057Y-108166666D01*
X149454819Y-107690475D02*
X149454819Y-107499999D01*
X149454819Y-107499999D02*
X149407200Y-107404761D01*
X149407200Y-107404761D02*
X149359580Y-107357142D01*
X149359580Y-107357142D02*
X149216723Y-107261904D01*
X149216723Y-107261904D02*
X149026247Y-107214285D01*
X149026247Y-107214285D02*
X148645295Y-107214285D01*
X148645295Y-107214285D02*
X148550057Y-107261904D01*
X148550057Y-107261904D02*
X148502438Y-107309523D01*
X148502438Y-107309523D02*
X148454819Y-107404761D01*
X148454819Y-107404761D02*
X148454819Y-107595237D01*
X148454819Y-107595237D02*
X148502438Y-107690475D01*
X148502438Y-107690475D02*
X148550057Y-107738094D01*
X148550057Y-107738094D02*
X148645295Y-107785713D01*
X148645295Y-107785713D02*
X148883390Y-107785713D01*
X148883390Y-107785713D02*
X148978628Y-107738094D01*
X148978628Y-107738094D02*
X149026247Y-107690475D01*
X149026247Y-107690475D02*
X149073866Y-107595237D01*
X149073866Y-107595237D02*
X149073866Y-107404761D01*
X149073866Y-107404761D02*
X149026247Y-107309523D01*
X149026247Y-107309523D02*
X148978628Y-107261904D01*
X148978628Y-107261904D02*
X148883390Y-107214285D01*
X220641666Y-132334819D02*
X220641666Y-133049104D01*
X220641666Y-133049104D02*
X220594047Y-133191961D01*
X220594047Y-133191961D02*
X220498809Y-133287200D01*
X220498809Y-133287200D02*
X220355952Y-133334819D01*
X220355952Y-133334819D02*
X220260714Y-133334819D01*
X221022619Y-132334819D02*
X221689285Y-132334819D01*
X221689285Y-132334819D02*
X221260714Y-133334819D01*
X187357142Y-63859580D02*
X187309523Y-63907200D01*
X187309523Y-63907200D02*
X187166666Y-63954819D01*
X187166666Y-63954819D02*
X187071428Y-63954819D01*
X187071428Y-63954819D02*
X186928571Y-63907200D01*
X186928571Y-63907200D02*
X186833333Y-63811961D01*
X186833333Y-63811961D02*
X186785714Y-63716723D01*
X186785714Y-63716723D02*
X186738095Y-63526247D01*
X186738095Y-63526247D02*
X186738095Y-63383390D01*
X186738095Y-63383390D02*
X186785714Y-63192914D01*
X186785714Y-63192914D02*
X186833333Y-63097676D01*
X186833333Y-63097676D02*
X186928571Y-63002438D01*
X186928571Y-63002438D02*
X187071428Y-62954819D01*
X187071428Y-62954819D02*
X187166666Y-62954819D01*
X187166666Y-62954819D02*
X187309523Y-63002438D01*
X187309523Y-63002438D02*
X187357142Y-63050057D01*
X188309523Y-63954819D02*
X187738095Y-63954819D01*
X188023809Y-63954819D02*
X188023809Y-62954819D01*
X188023809Y-62954819D02*
X187928571Y-63097676D01*
X187928571Y-63097676D02*
X187833333Y-63192914D01*
X187833333Y-63192914D02*
X187738095Y-63240533D01*
X188642857Y-62954819D02*
X189261904Y-62954819D01*
X189261904Y-62954819D02*
X188928571Y-63335771D01*
X188928571Y-63335771D02*
X189071428Y-63335771D01*
X189071428Y-63335771D02*
X189166666Y-63383390D01*
X189166666Y-63383390D02*
X189214285Y-63431009D01*
X189214285Y-63431009D02*
X189261904Y-63526247D01*
X189261904Y-63526247D02*
X189261904Y-63764342D01*
X189261904Y-63764342D02*
X189214285Y-63859580D01*
X189214285Y-63859580D02*
X189166666Y-63907200D01*
X189166666Y-63907200D02*
X189071428Y-63954819D01*
X189071428Y-63954819D02*
X188785714Y-63954819D01*
X188785714Y-63954819D02*
X188690476Y-63907200D01*
X188690476Y-63907200D02*
X188642857Y-63859580D01*
X151329819Y-117084523D02*
X150329819Y-117084523D01*
X150329819Y-117084523D02*
X151044104Y-116751190D01*
X151044104Y-116751190D02*
X150329819Y-116417857D01*
X150329819Y-116417857D02*
X151329819Y-116417857D01*
X151329819Y-115417857D02*
X151329819Y-115989285D01*
X151329819Y-115703571D02*
X150329819Y-115703571D01*
X150329819Y-115703571D02*
X150472676Y-115798809D01*
X150472676Y-115798809D02*
X150567914Y-115894047D01*
X150567914Y-115894047D02*
X150615533Y-115989285D01*
X174191905Y-92374819D02*
X174191905Y-93184342D01*
X174191905Y-93184342D02*
X174239524Y-93279580D01*
X174239524Y-93279580D02*
X174287143Y-93327200D01*
X174287143Y-93327200D02*
X174382381Y-93374819D01*
X174382381Y-93374819D02*
X174572857Y-93374819D01*
X174572857Y-93374819D02*
X174668095Y-93327200D01*
X174668095Y-93327200D02*
X174715714Y-93279580D01*
X174715714Y-93279580D02*
X174763333Y-93184342D01*
X174763333Y-93184342D02*
X174763333Y-92374819D01*
X175763333Y-93374819D02*
X175191905Y-93374819D01*
X175477619Y-93374819D02*
X175477619Y-92374819D01*
X175477619Y-92374819D02*
X175382381Y-92517676D01*
X175382381Y-92517676D02*
X175287143Y-92612914D01*
X175287143Y-92612914D02*
X175191905Y-92660533D01*
X176144286Y-92470057D02*
X176191905Y-92422438D01*
X176191905Y-92422438D02*
X176287143Y-92374819D01*
X176287143Y-92374819D02*
X176525238Y-92374819D01*
X176525238Y-92374819D02*
X176620476Y-92422438D01*
X176620476Y-92422438D02*
X176668095Y-92470057D01*
X176668095Y-92470057D02*
X176715714Y-92565295D01*
X176715714Y-92565295D02*
X176715714Y-92660533D01*
X176715714Y-92660533D02*
X176668095Y-92803390D01*
X176668095Y-92803390D02*
X176096667Y-93374819D01*
X176096667Y-93374819D02*
X176715714Y-93374819D01*
D14*
%TO.C,R14*%
X184220276Y-99252500D02*
X184729724Y-99252500D01*
X184220276Y-100297500D02*
X184729724Y-100297500D01*
%TO.C,SW1*%
X208325000Y-121415000D02*
X218545000Y-121415000D01*
X218545000Y-124135000D01*
X208325000Y-124135000D01*
X208325000Y-121415000D01*
%TO.C,R12*%
X158729724Y-84752500D02*
X158220276Y-84752500D01*
X158729724Y-85797500D02*
X158220276Y-85797500D01*
%TO.C,U7*%
X156182500Y-87005000D02*
X157512500Y-87005000D01*
X156182500Y-88335000D02*
X156182500Y-87005000D01*
X156182500Y-89605000D02*
X156182500Y-92205000D01*
X156182500Y-89605000D02*
X158782500Y-89605000D01*
X156182500Y-92205000D02*
X161382500Y-92205000D01*
X158782500Y-87005000D02*
X161382500Y-87005000D01*
X158782500Y-89605000D02*
X158782500Y-87005000D01*
X161382500Y-87005000D02*
X161382500Y-92205000D01*
%TO.C,D3*%
X172764000Y-90840000D02*
X172920000Y-90840000D01*
X175080000Y-90840000D02*
X175236000Y-90840000D01*
X172764484Y-90840000D02*
G75*
G02*
X172921392Y-87607665I1235516J1560000D01*
G01*
X172920000Y-90320961D02*
G75*
G02*
X172920163Y-88238870I1080000J1040961D01*
G01*
X175078608Y-87607665D02*
G75*
G02*
X175235516Y-90840000I-1078608J-1672335D01*
G01*
X175079837Y-88238870D02*
G75*
G02*
X175080000Y-90320961I-1079837J-1041130D01*
G01*
%TO.C,C5*%
X198278733Y-73745000D02*
X198571267Y-73745000D01*
X198278733Y-74765000D02*
X198571267Y-74765000D01*
%TO.C,R3*%
X191729724Y-122252500D02*
X191220276Y-122252500D01*
X191729724Y-123297500D02*
X191220276Y-123297500D01*
%TO.C,D2*%
X178264000Y-90840000D02*
X178420000Y-90840000D01*
X180580000Y-90840000D02*
X180736000Y-90840000D01*
X178264484Y-90840000D02*
G75*
G02*
X178421392Y-87607665I1235516J1560000D01*
G01*
X178420000Y-90320961D02*
G75*
G02*
X178420163Y-88238870I1080000J1040961D01*
G01*
X180578608Y-87607665D02*
G75*
G02*
X180735516Y-90840000I-1078608J-1672335D01*
G01*
X180579837Y-88238870D02*
G75*
G02*
X180580000Y-90320961I-1079837J-1041130D01*
G01*
%TO.C,U10*%
X177165000Y-123415000D02*
X178585000Y-123415000D01*
X177165000Y-135135000D02*
X177165000Y-123415000D01*
X178585000Y-123415000D02*
X178585000Y-127915000D01*
X178585000Y-127915000D02*
X180975000Y-127915000D01*
X179425000Y-123725000D02*
X180025000Y-123725000D01*
X179475000Y-129025000D02*
X179475000Y-134525000D01*
X179475000Y-134525000D02*
X179975000Y-134525000D01*
X179725000Y-124325000D02*
X179425000Y-123725000D01*
X179975000Y-129025000D02*
X179475000Y-129025000D01*
X179975000Y-134525000D02*
X179975000Y-129025000D01*
X180025000Y-123725000D02*
X179725000Y-124325000D01*
X180975000Y-135135000D02*
X177165000Y-135135000D01*
X180975000Y-135135000D02*
X184785000Y-135135000D01*
X181975000Y-129025000D02*
X181975000Y-134525000D01*
X181975000Y-134525000D02*
X182475000Y-134525000D01*
X182475000Y-129025000D02*
X181975000Y-129025000D01*
X182475000Y-134525000D02*
X182475000Y-129025000D01*
X183365000Y-123415000D02*
X183365000Y-127915000D01*
X183365000Y-127915000D02*
X180975000Y-127915000D01*
X184785000Y-123415000D02*
X183365000Y-123415000D01*
X184785000Y-135135000D02*
X184785000Y-123415000D01*
%TO.C,SW2*%
X199000000Y-126750000D02*
X199000000Y-128250000D01*
X200250000Y-130750000D02*
X204750000Y-130750000D01*
X204750000Y-124250000D02*
X200250000Y-124250000D01*
X206000000Y-128250000D02*
X206000000Y-126750000D01*
%TO.C,R8*%
X182270276Y-59252500D02*
X182779724Y-59252500D01*
X182270276Y-60297500D02*
X182779724Y-60297500D01*
%TO.C,J4*%
X184365000Y-59385000D02*
X184365000Y-60635000D01*
X184365000Y-60635000D02*
X185615000Y-60635000D01*
X184465000Y-58575000D02*
X184465000Y-58875000D01*
X184465000Y-58875000D02*
X184665000Y-58875000D01*
X184565000Y-58575000D02*
X184565000Y-58875000D01*
X184665000Y-54215000D02*
X184665000Y-60335000D01*
X184665000Y-57775000D02*
X185275000Y-57775000D01*
X184665000Y-58575000D02*
X184465000Y-58575000D01*
X184665000Y-60335000D02*
X189385000Y-60335000D01*
X185275000Y-54825000D02*
X185275000Y-56775000D01*
X185275000Y-56775000D02*
X184665000Y-56775000D01*
X185275000Y-57775000D02*
X185275000Y-59725000D01*
X185275000Y-59725000D02*
X188775000Y-59725000D01*
X185975000Y-54215000D02*
X185975000Y-54825000D01*
X185975000Y-60335000D02*
X185975000Y-59725000D01*
X187275000Y-54215000D02*
X187275000Y-54825000D01*
X187275000Y-60335000D02*
X187275000Y-59725000D01*
X188275000Y-57175000D02*
X188775000Y-57175000D01*
X188275000Y-57375000D02*
X188275000Y-57175000D01*
X188775000Y-54825000D02*
X185275000Y-54825000D01*
X188775000Y-57275000D02*
X188275000Y-57275000D01*
X188775000Y-57375000D02*
X188275000Y-57375000D01*
X188775000Y-59725000D02*
X188775000Y-54825000D01*
X189385000Y-54215000D02*
X184665000Y-54215000D01*
X189385000Y-60335000D02*
X189385000Y-54215000D01*
%TO.C,R11*%
X185720276Y-88252500D02*
X186229724Y-88252500D01*
X185720276Y-89297500D02*
X186229724Y-89297500D01*
%TO.C,R1*%
X200452500Y-85520276D02*
X200452500Y-86029724D01*
X201497500Y-85520276D02*
X201497500Y-86029724D01*
%TO.C,C11*%
X182671267Y-61265000D02*
X182378733Y-61265000D01*
X182671267Y-62285000D02*
X182378733Y-62285000D01*
%TO.C,J6*%
X86325000Y-129340000D02*
X86325000Y-132000000D01*
X86325000Y-132000000D02*
X96605000Y-132000000D01*
X87275000Y-128942929D02*
X87275000Y-129340000D01*
X87275000Y-138000000D02*
X87275000Y-132000000D01*
X88035000Y-128942929D02*
X88035000Y-129340000D01*
X88035000Y-132000000D02*
X88035000Y-138000000D01*
X88035000Y-138000000D02*
X87275000Y-138000000D01*
X88925000Y-129340000D02*
X88925000Y-132000000D01*
X89815000Y-128942929D02*
X89815000Y-129340000D01*
X89815000Y-138000000D02*
X89815000Y-132000000D01*
X90575000Y-128942929D02*
X90575000Y-129340000D01*
X90575000Y-132000000D02*
X90575000Y-138000000D01*
X90575000Y-138000000D02*
X89815000Y-138000000D01*
X91465000Y-129340000D02*
X91465000Y-132000000D01*
X92355000Y-128942929D02*
X92355000Y-129340000D01*
X92355000Y-138000000D02*
X92355000Y-132000000D01*
X93115000Y-128942929D02*
X93115000Y-129340000D01*
X93115000Y-132000000D02*
X93115000Y-138000000D01*
X93115000Y-138000000D02*
X92355000Y-138000000D01*
X94005000Y-129340000D02*
X94005000Y-132000000D01*
X94895000Y-129010000D02*
X94895000Y-129340000D01*
X94895000Y-138000000D02*
X94895000Y-132000000D01*
X94995000Y-132000000D02*
X94995000Y-138000000D01*
X95115000Y-132000000D02*
X95115000Y-138000000D01*
X95235000Y-132000000D02*
X95235000Y-138000000D01*
X95275000Y-126630000D02*
X96545000Y-126630000D01*
X95355000Y-132000000D02*
X95355000Y-138000000D01*
X95475000Y-132000000D02*
X95475000Y-138000000D01*
X95595000Y-132000000D02*
X95595000Y-138000000D01*
X95655000Y-129010000D02*
X95655000Y-129340000D01*
X95655000Y-132000000D02*
X95655000Y-138000000D01*
X95655000Y-138000000D02*
X94895000Y-138000000D01*
X96545000Y-126630000D02*
X96545000Y-127900000D01*
X96605000Y-129340000D02*
X86325000Y-129340000D01*
X96605000Y-132000000D02*
X96605000Y-129340000D01*
%TO.C,C15*%
X184208767Y-66810250D02*
X183916233Y-66810250D01*
X184208767Y-67830250D02*
X183916233Y-67830250D01*
%TO.C,C3*%
X200621267Y-60265000D02*
X200328733Y-60265000D01*
X200621267Y-61285000D02*
X200328733Y-61285000D01*
%TO.C,U11*%
X191140000Y-62070000D02*
X191140000Y-70190000D01*
X191140000Y-70190000D02*
X192940000Y-70190000D01*
X191140000Y-74670000D02*
X191140000Y-82790000D01*
X191140000Y-82790000D02*
X192940000Y-82790000D01*
X192240000Y-102020000D02*
X192240000Y-113440000D01*
X192240000Y-113440000D02*
X192940000Y-113440000D01*
X192940000Y-58130000D02*
X192940000Y-62070000D01*
X192940000Y-62070000D02*
X191140000Y-62070000D01*
X192940000Y-70190000D02*
X192940000Y-74670000D01*
X192940000Y-74670000D02*
X191140000Y-74670000D01*
X192940000Y-82790000D02*
X192940000Y-102020000D01*
X192940000Y-102020000D02*
X192240000Y-102020000D01*
X192940000Y-113440000D02*
X192940000Y-117130000D01*
X199440000Y-53870000D02*
X199440000Y-55070000D01*
X199440000Y-55070000D02*
X196000000Y-55070000D01*
X216560000Y-53870000D02*
X199440000Y-53870000D01*
X216560000Y-55070000D02*
X216560000Y-53870000D01*
X216560000Y-55070000D02*
X220000000Y-55070000D01*
X216900000Y-110490000D02*
X216900000Y-62170000D01*
X216900000Y-113090000D02*
X216900000Y-111760000D01*
X218230000Y-113090000D02*
X216900000Y-113090000D01*
X219500000Y-110490000D02*
X216900000Y-110490000D01*
X219500000Y-113090000D02*
X219500000Y-110490000D01*
X220000000Y-120190000D02*
X196000000Y-120190000D01*
X222100000Y-62170000D02*
X216900000Y-62170000D01*
X222100000Y-113090000D02*
X219500000Y-113090000D01*
X222100000Y-113090000D02*
X222100000Y-62170000D01*
X223060000Y-58130000D02*
X223060000Y-117130000D01*
X192940000Y-58130000D02*
G75*
G02*
X196000000Y-55070000I3060000J0D01*
G01*
X196000000Y-120190000D02*
G75*
G02*
X192940000Y-117130000I0J3060000D01*
G01*
X220000000Y-55070000D02*
G75*
G02*
X223060000Y-58130000I1J-3059999D01*
G01*
X223060000Y-117130000D02*
G75*
G02*
X220000000Y-120190000I-3059999J-1D01*
G01*
%TO.C,C12*%
X182671267Y-54765000D02*
X182378733Y-54765000D01*
X182671267Y-55785000D02*
X182378733Y-55785000D01*
%TO.C,C4*%
X212483767Y-59265000D02*
X212191233Y-59265000D01*
X212483767Y-60285000D02*
X212191233Y-60285000D01*
D15*
%TO.C,G\u002A\u002A\u002A*%
G36*
X137391510Y-124893826D02*
G01*
X137377508Y-124907828D01*
X137363506Y-124893826D01*
X137377508Y-124879824D01*
X137391510Y-124893826D01*
G37*
G36*
X137559537Y-124529769D02*
G01*
X137545534Y-124543771D01*
X137531532Y-124529769D01*
X137545534Y-124515767D01*
X137559537Y-124529769D01*
G37*
G36*
X137587541Y-124473760D02*
G01*
X137573539Y-124487762D01*
X137559537Y-124473760D01*
X137573539Y-124459758D01*
X137587541Y-124473760D01*
G37*
G36*
X137839581Y-126798126D02*
G01*
X137825579Y-126812128D01*
X137811576Y-126798126D01*
X137825579Y-126784124D01*
X137839581Y-126798126D01*
G37*
G36*
X138735722Y-128198347D02*
G01*
X138721720Y-128212349D01*
X138707718Y-128198347D01*
X138721720Y-128184344D01*
X138735722Y-128198347D01*
G37*
G36*
X138791731Y-128226351D02*
G01*
X138777729Y-128240353D01*
X138763726Y-128226351D01*
X138777729Y-128212349D01*
X138791731Y-128226351D01*
G37*
G36*
X138875744Y-128954466D02*
G01*
X138861742Y-128968468D01*
X138847740Y-128954466D01*
X138861742Y-128940463D01*
X138875744Y-128954466D01*
G37*
G36*
X138903748Y-123157553D02*
G01*
X138889746Y-123171555D01*
X138875744Y-123157553D01*
X138889746Y-123143551D01*
X138903748Y-123157553D01*
G37*
G36*
X138931753Y-128982470D02*
G01*
X138917751Y-128996472D01*
X138903748Y-128982470D01*
X138917751Y-128968468D01*
X138931753Y-128982470D01*
G37*
G36*
X139099779Y-129066483D02*
G01*
X139085777Y-129080485D01*
X139071775Y-129066483D01*
X139085777Y-129052481D01*
X139099779Y-129066483D01*
G37*
G36*
X139155788Y-129094488D02*
G01*
X139141786Y-129108490D01*
X139127784Y-129094488D01*
X139141786Y-129080485D01*
X139155788Y-129094488D01*
G37*
G36*
X139659867Y-122849504D02*
G01*
X139645865Y-122863506D01*
X139631863Y-122849504D01*
X139645865Y-122835502D01*
X139659867Y-122849504D01*
G37*
G36*
X139743881Y-128702426D02*
G01*
X139729878Y-128716428D01*
X139715876Y-128702426D01*
X139729878Y-128688424D01*
X139743881Y-128702426D01*
G37*
G36*
X139911907Y-123353584D02*
G01*
X139897905Y-123367586D01*
X139883903Y-123353584D01*
X139897905Y-123339581D01*
X139911907Y-123353584D01*
G37*
G36*
X140051929Y-123325579D02*
G01*
X140037927Y-123339581D01*
X140023925Y-123325579D01*
X140037927Y-123311577D01*
X140051929Y-123325579D01*
G37*
G36*
X141284123Y-128730430D02*
G01*
X141270121Y-128744433D01*
X141256119Y-128730430D01*
X141270121Y-128716428D01*
X141284123Y-128730430D01*
G37*
G36*
X141368136Y-122849504D02*
G01*
X141354134Y-122863506D01*
X141340132Y-122849504D01*
X141354134Y-122835502D01*
X141368136Y-122849504D01*
G37*
G36*
X141872216Y-129094488D02*
G01*
X141858214Y-129108490D01*
X141844211Y-129094488D01*
X141858214Y-129080485D01*
X141872216Y-129094488D01*
G37*
G36*
X141900220Y-123045535D02*
G01*
X141886218Y-123059537D01*
X141872216Y-123045535D01*
X141886218Y-123031533D01*
X141900220Y-123045535D01*
G37*
G36*
X142068247Y-123129548D02*
G01*
X142054245Y-123143551D01*
X142040242Y-123129548D01*
X142054245Y-123115546D01*
X142068247Y-123129548D01*
G37*
G36*
X142096251Y-128982470D02*
G01*
X142082249Y-128996472D01*
X142068247Y-128982470D01*
X142082249Y-128968468D01*
X142096251Y-128982470D01*
G37*
G36*
X142124256Y-123157553D02*
G01*
X142110253Y-123171555D01*
X142096251Y-123157553D01*
X142110253Y-123143551D01*
X142124256Y-123157553D01*
G37*
G36*
X142460308Y-124053694D02*
G01*
X142446306Y-124067696D01*
X142432304Y-124053694D01*
X142446306Y-124039692D01*
X142460308Y-124053694D01*
G37*
G36*
X142852370Y-127582250D02*
G01*
X142838368Y-127596252D01*
X142824366Y-127582250D01*
X142838368Y-127568247D01*
X142852370Y-127582250D01*
G37*
G36*
X143440463Y-124473760D02*
G01*
X143426461Y-124487762D01*
X143412458Y-124473760D01*
X143426461Y-124459758D01*
X143440463Y-124473760D01*
G37*
G36*
X143468467Y-124529769D02*
G01*
X143454465Y-124543771D01*
X143440463Y-124529769D01*
X143454465Y-124515767D01*
X143468467Y-124529769D01*
G37*
G36*
X137214026Y-125488920D02*
G01*
X137217725Y-125546255D01*
X137214026Y-125558931D01*
X137203805Y-125562449D01*
X137199901Y-125523925D01*
X137204302Y-125484169D01*
X137214026Y-125488920D01*
G37*
G36*
X137214026Y-126553087D02*
G01*
X137217725Y-126610422D01*
X137214026Y-126623098D01*
X137203805Y-126626616D01*
X137199901Y-126588093D01*
X137204302Y-126548337D01*
X137214026Y-126553087D01*
G37*
G36*
X137242031Y-126693110D02*
G01*
X137245729Y-126750444D01*
X137242031Y-126763121D01*
X137231809Y-126766639D01*
X137227906Y-126728115D01*
X137232306Y-126688359D01*
X137242031Y-126693110D01*
G37*
G36*
X137270618Y-126834882D02*
G01*
X137273957Y-126878649D01*
X137268408Y-126888557D01*
X137255679Y-126880205D01*
X137253699Y-126851801D01*
X137260538Y-126821920D01*
X137270618Y-126834882D01*
G37*
G36*
X137326627Y-125042600D02*
G01*
X137329966Y-125086367D01*
X137324416Y-125096275D01*
X137311688Y-125087923D01*
X137309708Y-125059519D01*
X137316547Y-125029637D01*
X137326627Y-125042600D01*
G37*
G36*
X137354171Y-124945168D02*
G01*
X137357523Y-124978402D01*
X137354171Y-124982507D01*
X137337522Y-124978663D01*
X137335501Y-124963837D01*
X137345748Y-124940786D01*
X137354171Y-124945168D01*
G37*
G36*
X137354171Y-127129512D02*
G01*
X137357523Y-127162746D01*
X137354171Y-127166851D01*
X137337522Y-127163007D01*
X137335501Y-127148181D01*
X137345748Y-127125130D01*
X137354171Y-127129512D01*
G37*
G36*
X139370489Y-129173834D02*
G01*
X139366644Y-129190482D01*
X139351819Y-129192503D01*
X139328768Y-129182257D01*
X139333149Y-129173834D01*
X139366384Y-129170482D01*
X139370489Y-129173834D01*
G37*
G36*
X139454502Y-129201838D02*
G01*
X139450658Y-129218487D01*
X139435832Y-129220508D01*
X139412781Y-129210261D01*
X139417163Y-129201838D01*
X139450397Y-129198486D01*
X139454502Y-129201838D01*
G37*
G36*
X139482506Y-122900846D02*
G01*
X139478662Y-122917494D01*
X139463837Y-122919515D01*
X139440786Y-122909269D01*
X139445167Y-122900846D01*
X139478402Y-122897494D01*
X139482506Y-122900846D01*
G37*
G36*
X139538515Y-129229842D02*
G01*
X139534671Y-129246491D01*
X139519845Y-129248512D01*
X139496795Y-129238266D01*
X139501176Y-129229842D01*
X139534410Y-129226491D01*
X139538515Y-129229842D01*
G37*
G36*
X139566519Y-122872841D02*
G01*
X139562675Y-122889490D01*
X139547850Y-122891511D01*
X139524799Y-122881264D01*
X139529180Y-122872841D01*
X139562415Y-122869490D01*
X139566519Y-122872841D01*
G37*
G36*
X139652283Y-129259597D02*
G01*
X139643931Y-129272325D01*
X139615527Y-129274305D01*
X139585645Y-129267466D01*
X139598608Y-129257386D01*
X139642375Y-129254048D01*
X139652283Y-129259597D01*
G37*
G36*
X139764301Y-129287601D02*
G01*
X139755949Y-129300330D01*
X139727545Y-129302310D01*
X139697663Y-129295471D01*
X139710625Y-129285391D01*
X139754393Y-129282052D01*
X139764301Y-129287601D01*
G37*
G36*
X139876318Y-129315606D02*
G01*
X139867966Y-129328334D01*
X139839562Y-129330314D01*
X139809681Y-129323475D01*
X139822643Y-129313395D01*
X139866411Y-129310056D01*
X139876318Y-129315606D01*
G37*
G36*
X140058930Y-129341983D02*
G01*
X140062448Y-129352204D01*
X140023925Y-129356108D01*
X139984169Y-129351707D01*
X139988919Y-129341983D01*
X140046254Y-129338284D01*
X140058930Y-129341983D01*
G37*
G36*
X141011080Y-129341983D02*
G01*
X141014598Y-129352204D01*
X140976075Y-129356108D01*
X140936319Y-129351707D01*
X140941069Y-129341983D01*
X140998404Y-129338284D01*
X141011080Y-129341983D01*
G37*
G36*
X141192525Y-129315606D02*
G01*
X141184174Y-129328334D01*
X141155770Y-129330314D01*
X141125888Y-129323475D01*
X141138850Y-129313395D01*
X141182618Y-129310056D01*
X141192525Y-129315606D01*
G37*
G36*
X141248534Y-122818583D02*
G01*
X141240182Y-122831311D01*
X141211779Y-122833291D01*
X141181897Y-122826452D01*
X141194859Y-122816372D01*
X141238627Y-122813033D01*
X141248534Y-122818583D01*
G37*
G36*
X141304543Y-129287601D02*
G01*
X141296191Y-129300330D01*
X141267787Y-129302310D01*
X141237906Y-129295471D01*
X141250868Y-129285391D01*
X141294636Y-129282052D01*
X141304543Y-129287601D01*
G37*
G36*
X141416561Y-129259597D02*
G01*
X141408209Y-129272325D01*
X141379805Y-129274305D01*
X141349923Y-129267466D01*
X141362886Y-129257386D01*
X141406653Y-129254048D01*
X141416561Y-129259597D01*
G37*
G36*
X141470819Y-122872841D02*
G01*
X141466975Y-122889490D01*
X141452150Y-122891511D01*
X141429099Y-122881264D01*
X141433480Y-122872841D01*
X141466715Y-122869490D01*
X141470819Y-122872841D01*
G37*
G36*
X141498824Y-129229842D02*
G01*
X141494980Y-129246491D01*
X141480154Y-129248512D01*
X141457103Y-129238266D01*
X141461485Y-129229842D01*
X141494719Y-129226491D01*
X141498824Y-129229842D01*
G37*
G36*
X141554833Y-122900846D02*
G01*
X141550988Y-122917494D01*
X141536163Y-122919515D01*
X141513112Y-122909269D01*
X141517493Y-122900846D01*
X141550728Y-122897494D01*
X141554833Y-122900846D01*
G37*
G36*
X141582837Y-129201838D02*
G01*
X141578993Y-129218487D01*
X141564167Y-129220508D01*
X141541117Y-129210261D01*
X141545498Y-129201838D01*
X141578732Y-129198486D01*
X141582837Y-129201838D01*
G37*
G36*
X141666850Y-129173834D02*
G01*
X141663006Y-129190482D01*
X141648181Y-129192503D01*
X141625130Y-129182257D01*
X141629511Y-129173834D01*
X141662746Y-129170482D01*
X141666850Y-129173834D01*
G37*
G36*
X143627159Y-124889159D02*
G01*
X143630510Y-124922393D01*
X143627159Y-124926498D01*
X143610510Y-124922654D01*
X143608489Y-124907828D01*
X143618736Y-124884778D01*
X143627159Y-124889159D01*
G37*
G36*
X143655163Y-124973172D02*
G01*
X143658515Y-125006407D01*
X143655163Y-125010511D01*
X143638515Y-125006667D01*
X143636494Y-124991842D01*
X143646740Y-124968791D01*
X143655163Y-124973172D01*
G37*
G36*
X143655163Y-127129512D02*
G01*
X143658515Y-127162746D01*
X143655163Y-127166851D01*
X143638515Y-127163007D01*
X143636494Y-127148181D01*
X143646740Y-127125130D01*
X143655163Y-127129512D01*
G37*
G36*
X143767058Y-125376902D02*
G01*
X143770757Y-125434237D01*
X143767058Y-125446913D01*
X143756837Y-125450431D01*
X143752933Y-125411908D01*
X143757334Y-125372152D01*
X143767058Y-125376902D01*
G37*
G36*
X143767058Y-126693110D02*
G01*
X143770757Y-126750444D01*
X143767058Y-126763121D01*
X143756837Y-126766639D01*
X143752933Y-126728115D01*
X143757334Y-126688359D01*
X143767058Y-126693110D01*
G37*
G36*
X143795063Y-125516924D02*
G01*
X143798761Y-125574259D01*
X143795063Y-125586935D01*
X143784841Y-125590453D01*
X143780938Y-125551930D01*
X143785338Y-125512174D01*
X143795063Y-125516924D01*
G37*
G36*
X137394929Y-127241296D02*
G01*
X137413482Y-127287700D01*
X137411539Y-127305514D01*
X137392437Y-127295530D01*
X137380968Y-127273118D01*
X137365101Y-127219943D01*
X137371616Y-127209334D01*
X137394929Y-127241296D01*
G37*
G36*
X138787404Y-128895783D02*
G01*
X138817232Y-128921815D01*
X138819735Y-128928114D01*
X138806445Y-128939624D01*
X138778775Y-128913833D01*
X138775054Y-128908132D01*
X138771754Y-128888969D01*
X138787404Y-128895783D01*
G37*
G36*
X141992241Y-123079915D02*
G01*
X141998236Y-123087542D01*
X142008093Y-123112729D01*
X141981597Y-123103243D01*
X141956229Y-123087542D01*
X141934700Y-123065060D01*
X141947575Y-123059966D01*
X141992241Y-123079915D01*
G37*
G36*
X137186779Y-125698953D02*
G01*
X137191134Y-125769979D01*
X137186779Y-125796968D01*
X137178662Y-125805684D01*
X137174243Y-125766961D01*
X137173972Y-125747961D01*
X137176892Y-125697012D01*
X137184161Y-125691007D01*
X137186779Y-125698953D01*
G37*
G36*
X137187239Y-126273043D02*
G01*
X137191872Y-126354648D01*
X137187239Y-126399063D01*
X137180313Y-126412334D01*
X137175919Y-126377150D01*
X137175102Y-126336053D01*
X137177287Y-126275484D01*
X137182872Y-126258857D01*
X137187239Y-126273043D01*
G37*
G36*
X137303169Y-126947854D02*
G01*
X137319499Y-126996157D01*
X137329371Y-127054768D01*
X137326225Y-127082779D01*
X137311825Y-127068464D01*
X137295495Y-127020161D01*
X137285623Y-126961551D01*
X137288769Y-126933539D01*
X137303169Y-126947854D01*
G37*
G36*
X137566055Y-127617719D02*
G01*
X137587541Y-127652261D01*
X137605568Y-127695559D01*
X137603514Y-127708269D01*
X137581022Y-127686802D01*
X137559537Y-127652261D01*
X137541510Y-127608962D01*
X137543564Y-127596252D01*
X137566055Y-127617719D01*
G37*
G36*
X137703156Y-124277729D02*
G01*
X137662759Y-124345152D01*
X137630055Y-124389747D01*
X137584451Y-124445756D01*
X137611949Y-124389747D01*
X137652345Y-124322324D01*
X137685049Y-124277729D01*
X137730653Y-124221720D01*
X137703156Y-124277729D01*
G37*
G36*
X138414384Y-128641203D02*
G01*
X138434675Y-128656847D01*
X138473460Y-128691393D01*
X138483682Y-128705855D01*
X138470060Y-128714237D01*
X138432832Y-128678263D01*
X138424101Y-128667420D01*
X138399882Y-128634249D01*
X138414384Y-128641203D01*
G37*
G36*
X138526401Y-128725217D02*
G01*
X138546692Y-128740860D01*
X138585477Y-128775407D01*
X138595700Y-128789868D01*
X138582078Y-128798251D01*
X138544849Y-128762276D01*
X138536119Y-128751434D01*
X138511899Y-128718263D01*
X138526401Y-128725217D01*
G37*
G36*
X138638094Y-128811492D02*
G01*
X138672712Y-128827886D01*
X138720448Y-128855563D01*
X138735722Y-128871438D01*
X138726923Y-128883126D01*
X138693303Y-128863601D01*
X138664062Y-128840903D01*
X138627982Y-128810756D01*
X138638094Y-128811492D01*
G37*
G36*
X138847740Y-123183587D02*
G01*
X138826272Y-123206078D01*
X138791731Y-123227564D01*
X138748432Y-123245591D01*
X138735722Y-123243537D01*
X138757189Y-123221045D01*
X138791731Y-123199559D01*
X138835029Y-123181532D01*
X138847740Y-123183587D01*
G37*
G36*
X139024045Y-129016909D02*
G01*
X139029768Y-129024477D01*
X139028488Y-129050323D01*
X139019072Y-129052481D01*
X138979482Y-129032045D01*
X138973759Y-129024477D01*
X138975040Y-128998630D01*
X138984456Y-128996472D01*
X139024045Y-129016909D01*
G37*
G36*
X139243817Y-129123291D02*
G01*
X139267806Y-129136494D01*
X139290221Y-129158684D01*
X139281808Y-129163641D01*
X139235786Y-129149697D01*
X139211797Y-129136494D01*
X139189382Y-129114304D01*
X139197795Y-129109348D01*
X139243817Y-129123291D01*
G37*
G36*
X139789914Y-122813264D02*
G01*
X139813863Y-122823512D01*
X139785806Y-122835318D01*
X139762761Y-122840417D01*
X139711419Y-122845469D01*
X139710038Y-122830152D01*
X139710778Y-122829398D01*
X139758554Y-122811549D01*
X139789914Y-122813264D01*
G37*
G36*
X141619362Y-124537077D02*
G01*
X141620176Y-124543771D01*
X141598866Y-124570962D01*
X141592172Y-124571775D01*
X141564981Y-124550465D01*
X141564167Y-124543771D01*
X141585478Y-124516580D01*
X141592172Y-124515767D01*
X141619362Y-124537077D01*
G37*
G36*
X141807214Y-129120903D02*
G01*
X141788203Y-129136494D01*
X141737150Y-129160191D01*
X141718192Y-129163641D01*
X141713182Y-129152085D01*
X141732194Y-129136494D01*
X141783246Y-129112797D01*
X141802205Y-129109348D01*
X141807214Y-129120903D01*
G37*
G36*
X142039896Y-129001943D02*
G01*
X142014380Y-129020973D01*
X141956229Y-129050233D01*
X141909732Y-129071312D01*
X141909905Y-129065335D01*
X141940578Y-129040024D01*
X141992650Y-129006351D01*
X142022258Y-128996472D01*
X142039896Y-129001943D01*
G37*
G36*
X142166650Y-123182606D02*
G01*
X142201268Y-123199000D01*
X142249003Y-123226676D01*
X142264278Y-123242551D01*
X142255479Y-123254239D01*
X142221859Y-123234715D01*
X142192618Y-123212017D01*
X142156538Y-123181870D01*
X142166650Y-123182606D01*
G37*
G36*
X142236273Y-128896486D02*
G01*
X142214806Y-128918978D01*
X142180264Y-128940463D01*
X142136966Y-128958491D01*
X142124256Y-128956436D01*
X142145723Y-128933945D01*
X142180264Y-128912459D01*
X142223563Y-128894432D01*
X142236273Y-128896486D01*
G37*
G36*
X142339730Y-123281844D02*
G01*
X142394524Y-123316049D01*
X142418395Y-123339732D01*
X142428864Y-123364231D01*
X142406735Y-123354480D01*
X142348291Y-123309075D01*
X142306265Y-123273126D01*
X142307277Y-123267141D01*
X142339730Y-123281844D01*
G37*
G36*
X142591542Y-128647130D02*
G01*
X142575898Y-128667420D01*
X142535023Y-128710958D01*
X142516777Y-128710769D01*
X142516317Y-128705855D01*
X142535455Y-128682479D01*
X142565325Y-128656847D01*
X142598496Y-128632628D01*
X142591542Y-128647130D01*
G37*
G36*
X143151630Y-128087041D02*
G01*
X143135986Y-128107332D01*
X143095111Y-128150870D01*
X143076865Y-128150681D01*
X143076406Y-128145767D01*
X143095543Y-128122390D01*
X143125413Y-128096759D01*
X143158584Y-128072539D01*
X143151630Y-128087041D01*
G37*
G36*
X143459681Y-127614341D02*
G01*
X143454465Y-127624256D01*
X143428079Y-127651000D01*
X143423155Y-127652261D01*
X143421244Y-127634171D01*
X143426461Y-127624256D01*
X143452847Y-127597512D01*
X143457771Y-127596252D01*
X143459681Y-127614341D01*
G37*
G36*
X143794537Y-126534803D02*
G01*
X143795923Y-126539618D01*
X143800022Y-126600621D01*
X143794885Y-126623631D01*
X143785691Y-126624562D01*
X143781937Y-126580723D01*
X143781975Y-126574091D01*
X143786013Y-126530657D01*
X143794537Y-126534803D01*
G37*
G36*
X143824284Y-126273043D02*
G01*
X143828917Y-126354648D01*
X143824284Y-126399063D01*
X143817358Y-126412334D01*
X143812964Y-126377150D01*
X143812148Y-126336053D01*
X143814332Y-126275484D01*
X143819918Y-126258857D01*
X143824284Y-126273043D01*
G37*
G36*
X143824327Y-125741286D02*
G01*
X143828835Y-125814255D01*
X143823761Y-125853304D01*
X143816192Y-125859850D01*
X143811944Y-125819634D01*
X143811582Y-125789967D01*
X143814340Y-125735734D01*
X143820665Y-125727506D01*
X143824327Y-125741286D01*
G37*
G36*
X142859371Y-123702131D02*
G01*
X142919061Y-123758503D01*
X142957106Y-123797351D01*
X142964388Y-123807148D01*
X142956703Y-123814153D01*
X142928947Y-123792349D01*
X142874067Y-123735738D01*
X142850863Y-123710640D01*
X142754355Y-123605623D01*
X142859371Y-123702131D01*
G37*
G36*
X139345396Y-122955305D02*
G01*
X139309812Y-122973510D01*
X139235694Y-123006325D01*
X139183488Y-123024583D01*
X139161567Y-123026712D01*
X139178302Y-123011143D01*
X139211797Y-122991895D01*
X139292385Y-122956303D01*
X139351819Y-122937070D01*
X139371605Y-122936822D01*
X139345396Y-122955305D01*
G37*
G36*
X142297979Y-126683280D02*
G01*
X142308771Y-126734222D01*
X142303196Y-126797971D01*
X142285619Y-126850428D01*
X142264506Y-126868137D01*
X142244168Y-126844086D01*
X142228018Y-126791125D01*
X142226201Y-126724297D01*
X142242930Y-126676089D01*
X142270042Y-126659083D01*
X142297979Y-126683280D01*
G37*
G36*
X137434709Y-127362794D02*
G01*
X137469207Y-127419992D01*
X137478786Y-127437869D01*
X137511007Y-127505544D01*
X137525421Y-127549483D01*
X137524574Y-127556536D01*
X137507053Y-127541281D01*
X137476847Y-127489753D01*
X137466540Y-127468930D01*
X137432122Y-127390442D01*
X137421929Y-127354003D01*
X137434709Y-127362794D01*
G37*
G36*
X138140628Y-128393626D02*
G01*
X138225795Y-128476261D01*
X138293379Y-128543204D01*
X138334806Y-128585882D01*
X138343660Y-128596658D01*
X138338885Y-128602286D01*
X138320322Y-128589949D01*
X138281615Y-128553758D01*
X138216407Y-128487825D01*
X138132876Y-128401379D01*
X137937596Y-128198347D01*
X138140628Y-128393626D01*
G37*
G36*
X139116032Y-123038451D02*
G01*
X139100846Y-123056016D01*
X139049423Y-123086176D01*
X139029417Y-123096072D01*
X138967637Y-123122620D01*
X138933884Y-123131462D01*
X138931753Y-123129814D01*
X138953815Y-123108890D01*
X139005202Y-123079185D01*
X139063715Y-123051706D01*
X139107152Y-123037459D01*
X139116032Y-123038451D01*
G37*
G36*
X140572645Y-122730673D02*
G01*
X140576387Y-122731051D01*
X140602886Y-122736244D01*
X140578894Y-122740183D01*
X140509923Y-122742183D01*
X140485998Y-122742299D01*
X140404247Y-122741066D01*
X140363806Y-122737592D01*
X140371269Y-122732568D01*
X140380356Y-122731277D01*
X140472964Y-122726576D01*
X140572645Y-122730673D01*
G37*
G36*
X141648181Y-122937070D02*
G01*
X141705887Y-122955881D01*
X141766803Y-122981833D01*
X141815812Y-123007350D01*
X141837800Y-123024853D01*
X141830209Y-123028335D01*
X141789494Y-123016411D01*
X141720331Y-122987573D01*
X141690187Y-122973510D01*
X141638867Y-122945906D01*
X141630534Y-122934425D01*
X141648181Y-122937070D01*
G37*
G36*
X142469463Y-128746672D02*
G01*
X142432588Y-128779904D01*
X142376874Y-128819672D01*
X142319196Y-128855359D01*
X142276430Y-128876349D01*
X142264278Y-128875757D01*
X142285546Y-128854983D01*
X142339962Y-128814797D01*
X142383296Y-128785399D01*
X142443161Y-128748903D01*
X142472415Y-128737311D01*
X142469463Y-128746672D01*
G37*
G36*
X143507990Y-124631318D02*
G01*
X143541711Y-124693533D01*
X143578848Y-124770091D01*
X143599934Y-124823969D01*
X143601698Y-124839942D01*
X143584711Y-124823488D01*
X143552872Y-124769753D01*
X143529758Y-124724436D01*
X143488504Y-124634327D01*
X143471750Y-124587156D01*
X143478558Y-124585345D01*
X143507990Y-124631318D01*
G37*
G36*
X137304020Y-125145866D02*
G01*
X137298351Y-125187171D01*
X137281228Y-125261960D01*
X137267454Y-125313892D01*
X137246249Y-125380866D01*
X137231952Y-125408381D01*
X137228140Y-125397906D01*
X137234034Y-125351633D01*
X137248951Y-125286940D01*
X137268141Y-125219599D01*
X137286858Y-125165380D01*
X137300352Y-125140056D01*
X137304020Y-125145866D01*
G37*
G36*
X137529001Y-124585778D02*
G01*
X137516641Y-124624966D01*
X137485097Y-124693999D01*
X137461521Y-124739802D01*
X137423964Y-124805170D01*
X137399465Y-124838658D01*
X137394041Y-124837817D01*
X137406401Y-124798629D01*
X137437945Y-124729596D01*
X137461521Y-124683793D01*
X137499078Y-124618425D01*
X137523577Y-124584937D01*
X137529001Y-124585778D01*
G37*
G36*
X137789484Y-127980798D02*
G01*
X137830194Y-128031375D01*
X137839581Y-128044322D01*
X137874769Y-128098381D01*
X137886941Y-128126980D01*
X137885401Y-128128336D01*
X137861674Y-128107847D01*
X137820963Y-128057269D01*
X137811576Y-128044322D01*
X137776388Y-127990263D01*
X137764217Y-127961664D01*
X137765756Y-127960309D01*
X137789484Y-127980798D01*
G37*
G36*
X143686082Y-125075621D02*
G01*
X143707984Y-125131062D01*
X143717961Y-125162414D01*
X143736637Y-125235236D01*
X143742725Y-125281905D01*
X143740937Y-125288795D01*
X143726927Y-125272120D01*
X143705025Y-125216679D01*
X143695048Y-125185327D01*
X143676372Y-125112504D01*
X143670284Y-125065835D01*
X143672072Y-125058946D01*
X143686082Y-125075621D01*
G37*
G36*
X143736278Y-126864583D02*
G01*
X143731014Y-126896141D01*
X143711729Y-126980113D01*
X143689560Y-127048241D01*
X143688731Y-127050166D01*
X143675452Y-127071276D01*
X143676732Y-127039717D01*
X143681995Y-127008159D01*
X143701281Y-126924188D01*
X143723450Y-126856059D01*
X143724278Y-126854135D01*
X143737557Y-126833025D01*
X143736278Y-126864583D01*
G37*
G36*
X140237075Y-122754391D02*
G01*
X140245626Y-122762043D01*
X140213935Y-122769347D01*
X140141631Y-122778583D01*
X140043976Y-122787819D01*
X140037927Y-122788308D01*
X139945082Y-122794890D01*
X139905026Y-122795160D01*
X139914861Y-122788810D01*
X139953914Y-122779368D01*
X140031522Y-122765889D01*
X140115096Y-122756609D01*
X140188869Y-122752464D01*
X140237075Y-122754391D01*
G37*
G36*
X140603611Y-129364977D02*
G01*
X140675027Y-129367800D01*
X140714472Y-129371386D01*
X140702435Y-129374398D01*
X140643445Y-129376577D01*
X140542028Y-129377666D01*
X140500000Y-129377742D01*
X140385569Y-129377069D01*
X140312070Y-129375222D01*
X140284031Y-129372457D01*
X140305978Y-129369032D01*
X140324972Y-129367800D01*
X140458132Y-129363898D01*
X140603611Y-129364977D01*
G37*
G36*
X141556994Y-126981406D02*
G01*
X141578465Y-127040887D01*
X141575168Y-127075895D01*
X141547496Y-127113056D01*
X141518399Y-127117011D01*
X141508159Y-127092172D01*
X141485387Y-127067540D01*
X141464845Y-127064168D01*
X141439138Y-127057856D01*
X141448383Y-127030319D01*
X141471679Y-126997684D01*
X141509010Y-126953796D01*
X141533294Y-126952523D01*
X141556994Y-126981406D01*
G37*
G36*
X140929015Y-122761890D02*
G01*
X141038221Y-122776319D01*
X141046086Y-122777887D01*
X141108591Y-122792005D01*
X141118561Y-122798660D01*
X141078650Y-122799935D01*
X141074090Y-122799878D01*
X140994894Y-122795254D01*
X140893016Y-122784963D01*
X140850055Y-122779493D01*
X140770846Y-122768207D01*
X140744431Y-122762138D01*
X140768081Y-122759145D01*
X140822050Y-122757502D01*
X140929015Y-122761890D01*
G37*
G36*
X142504581Y-123405701D02*
G01*
X142554986Y-123442676D01*
X142561018Y-123447209D01*
X142633693Y-123505353D01*
X142694372Y-123559914D01*
X142732854Y-123600948D01*
X142738939Y-123618513D01*
X142736780Y-123618550D01*
X142712485Y-123600550D01*
X142658749Y-123554365D01*
X142587150Y-123489950D01*
X142586328Y-123489198D01*
X142518987Y-123426862D01*
X142492160Y-123399730D01*
X142504581Y-123405701D01*
G37*
G36*
X143408328Y-127686377D02*
G01*
X143389752Y-127725041D01*
X143355136Y-127785577D01*
X143311915Y-127855564D01*
X143267522Y-127922585D01*
X143229389Y-127974219D01*
X143226301Y-127977945D01*
X143208058Y-127994666D01*
X143217782Y-127969855D01*
X143252967Y-127908976D01*
X143272167Y-127878034D01*
X143328854Y-127789520D01*
X143374856Y-127720524D01*
X143401489Y-127684016D01*
X143403432Y-127682003D01*
X143408328Y-127686377D01*
G37*
G36*
X143621433Y-127242012D02*
G01*
X143596828Y-127307443D01*
X143558381Y-127395952D01*
X143555102Y-127403101D01*
X143514617Y-127488006D01*
X143484555Y-127545325D01*
X143470808Y-127563912D01*
X143470542Y-127563092D01*
X143479300Y-127528302D01*
X143504094Y-127463425D01*
X143537972Y-127384000D01*
X143573982Y-127305567D01*
X143605173Y-127243664D01*
X143624592Y-127213831D01*
X143627003Y-127213369D01*
X143621433Y-127242012D01*
G37*
G36*
X137478819Y-125264791D02*
G01*
X137503311Y-125278249D01*
X137541872Y-125319133D01*
X137545866Y-125351131D01*
X137532347Y-125408231D01*
X137531532Y-125421199D01*
X137507598Y-125445779D01*
X137461521Y-125453914D01*
X137404889Y-125439162D01*
X137391510Y-125404907D01*
X137375858Y-125363391D01*
X137358225Y-125355899D01*
X137352101Y-125340252D01*
X137382529Y-125302290D01*
X137385681Y-125299310D01*
X137436099Y-125262113D01*
X137478819Y-125264791D01*
G37*
G36*
X143034769Y-128230621D02*
G01*
X142990935Y-128279646D01*
X142923224Y-128350731D01*
X142880375Y-128394377D01*
X142799785Y-128474248D01*
X142734468Y-128536287D01*
X142693947Y-128571578D01*
X142685962Y-128576406D01*
X142697976Y-128558133D01*
X142741810Y-128509109D01*
X142809521Y-128438024D01*
X142852370Y-128394377D01*
X142932960Y-128314506D01*
X142998277Y-128252468D01*
X143038798Y-128217177D01*
X143046783Y-128212349D01*
X143034769Y-128230621D01*
G37*
G36*
X143062632Y-123941676D02*
G01*
X143122207Y-124011079D01*
X143190128Y-124097857D01*
X143259215Y-124191707D01*
X143322288Y-124282324D01*
X143372169Y-124359403D01*
X143401679Y-124412640D01*
X143404074Y-124431753D01*
X143384049Y-124410209D01*
X143342556Y-124353616D01*
X143288423Y-124274036D01*
X143286240Y-124270728D01*
X143209728Y-124159233D01*
X143124090Y-124041117D01*
X143069530Y-123969681D01*
X142958964Y-123829659D01*
X143062632Y-123941676D01*
G37*
G36*
X139013170Y-128565224D02*
G01*
X139055446Y-128581296D01*
X139061615Y-128590408D01*
X139052813Y-128629489D01*
X139018512Y-128682323D01*
X138971968Y-128734483D01*
X138926439Y-128771541D01*
X138895179Y-128779068D01*
X138891604Y-128775442D01*
X138890435Y-128729375D01*
X138908339Y-128696645D01*
X138930874Y-128658129D01*
X138910749Y-128639529D01*
X138878156Y-128607172D01*
X138875744Y-128594126D01*
X138899090Y-128572124D01*
X138952975Y-128562328D01*
X139013170Y-128565224D01*
G37*
G36*
X140498225Y-128232819D02*
G01*
X140520567Y-128287989D01*
X140577012Y-128315098D01*
X140654024Y-128334901D01*
X140584072Y-128351886D01*
X140523357Y-128388608D01*
X140497667Y-128451635D01*
X140481215Y-128534399D01*
X140469604Y-128451494D01*
X140444233Y-128382893D01*
X140387982Y-128351897D01*
X140339481Y-128338776D01*
X140343533Y-128329180D01*
X140380906Y-128318425D01*
X140440011Y-128280522D01*
X140470146Y-128235993D01*
X140496450Y-128170342D01*
X140498225Y-128232819D01*
G37*
G36*
X140540418Y-122906501D02*
G01*
X140553321Y-122958400D01*
X140556009Y-123031533D01*
X140550971Y-123111408D01*
X140538092Y-123162106D01*
X140528004Y-123171555D01*
X140506953Y-123147589D01*
X140500000Y-123101544D01*
X140486565Y-123046320D01*
X140445644Y-123031533D01*
X140390452Y-123019272D01*
X140375397Y-122992184D01*
X140406732Y-122964807D01*
X140415580Y-122961651D01*
X140461053Y-122936513D01*
X140471995Y-122917628D01*
X140494706Y-122894448D01*
X140514002Y-122891511D01*
X140540418Y-122906501D01*
G37*
G36*
X141434076Y-123106771D02*
G01*
X141507257Y-123126814D01*
X141556858Y-123150664D01*
X141581641Y-123186561D01*
X141559816Y-123209474D01*
X141500438Y-123212593D01*
X141479068Y-123209144D01*
X141419070Y-123203957D01*
X141397263Y-123224982D01*
X141396141Y-123238065D01*
X141375205Y-123277392D01*
X141354134Y-123283573D01*
X141317156Y-123264804D01*
X141312510Y-123248567D01*
X141319746Y-123194305D01*
X141329442Y-123151838D01*
X141350073Y-123110098D01*
X141392472Y-123100783D01*
X141434076Y-123106771D01*
G37*
G36*
X139032230Y-123268509D02*
G01*
X139036645Y-123290574D01*
X139044909Y-123336790D01*
X139059488Y-123353584D01*
X139095036Y-123401905D01*
X139112841Y-123444598D01*
X139112449Y-123493926D01*
X139083340Y-123508986D01*
X139042344Y-123488100D01*
X139017118Y-123454125D01*
X138970582Y-123413779D01*
X138925118Y-123414197D01*
X138882769Y-123420186D01*
X138889042Y-123404827D01*
X138904768Y-123390668D01*
X138936084Y-123337828D01*
X138937720Y-123304576D01*
X138946558Y-123265043D01*
X138988042Y-123255568D01*
X139032230Y-123268509D01*
G37*
G36*
X139565872Y-128849046D02*
G01*
X139588023Y-128855753D01*
X139647411Y-128889527D01*
X139658074Y-128918826D01*
X139622034Y-128931913D01*
X139575854Y-128926461D01*
X139512271Y-128921134D01*
X139491841Y-128938238D01*
X139515863Y-128960687D01*
X139564186Y-128968468D01*
X139617060Y-128979489D01*
X139624875Y-129003473D01*
X139588288Y-129041242D01*
X139525774Y-129038134D01*
X139470838Y-129009524D01*
X139423963Y-128963467D01*
X139407828Y-128925859D01*
X139431765Y-128876413D01*
X139490824Y-128848328D01*
X139565872Y-128849046D01*
G37*
G36*
X141389746Y-127816320D02*
G01*
X141396141Y-127864135D01*
X141407163Y-127941706D01*
X141424221Y-127988455D01*
X141437067Y-128041712D01*
X141424221Y-128058278D01*
X141405230Y-128095551D01*
X141396250Y-128163434D01*
X141396141Y-128171995D01*
X141389439Y-128244419D01*
X141373507Y-128266398D01*
X141354605Y-128241312D01*
X141338994Y-128172541D01*
X141335504Y-128139260D01*
X141330902Y-128022496D01*
X141335004Y-127917496D01*
X141346458Y-127837441D01*
X141363914Y-127795512D01*
X141371078Y-127792283D01*
X141389746Y-127816320D01*
G37*
G36*
X140752633Y-122997837D02*
G01*
X140782745Y-123036580D01*
X140809901Y-123077892D01*
X140832826Y-123071910D01*
X140849827Y-123050582D01*
X140899323Y-123011518D01*
X140931348Y-123003528D01*
X140954382Y-123011277D01*
X140944984Y-123040837D01*
X140900256Y-123101543D01*
X140849278Y-123160656D01*
X140811813Y-123195554D01*
X140803331Y-123199559D01*
X140778147Y-123178021D01*
X140738557Y-123124407D01*
X140726319Y-123105240D01*
X140683274Y-123030838D01*
X140671231Y-122991579D01*
X140688787Y-122976922D01*
X140709048Y-122975524D01*
X140752633Y-122997837D01*
G37*
G36*
X142062218Y-123279846D02*
G01*
X142077666Y-123307354D01*
X142064720Y-123361782D01*
X142039622Y-123418267D01*
X141994749Y-123499529D01*
X141959156Y-123532769D01*
X141926071Y-123523624D01*
X141919875Y-123517928D01*
X141917510Y-123482601D01*
X141932393Y-123443810D01*
X141947234Y-123394252D01*
X141918537Y-123362733D01*
X141916817Y-123361758D01*
X141886199Y-123328752D01*
X141887564Y-123309399D01*
X141921681Y-123295520D01*
X141931386Y-123299529D01*
X141973854Y-123299137D01*
X141993401Y-123287585D01*
X142042236Y-123273360D01*
X142062218Y-123279846D01*
G37*
G36*
X138658117Y-123300944D02*
G01*
X138637965Y-123317032D01*
X138436953Y-123475437D01*
X138275675Y-123610809D01*
X138146501Y-123730011D01*
X138041800Y-123839901D01*
X137994656Y-123895443D01*
X137886307Y-124027643D01*
X137811786Y-124116633D01*
X137770329Y-124163252D01*
X137761172Y-124168340D01*
X137783551Y-124132735D01*
X137799470Y-124109703D01*
X138031217Y-123821143D01*
X138303955Y-123555980D01*
X138382129Y-123490884D01*
X138483122Y-123411234D01*
X138573108Y-123343206D01*
X138639987Y-123295794D01*
X138665711Y-123280105D01*
X138682370Y-123276749D01*
X138658117Y-123300944D01*
G37*
G36*
X139251930Y-128743814D02*
G01*
X139322547Y-128776767D01*
X139350019Y-128820292D01*
X139351819Y-128841191D01*
X139338626Y-128898204D01*
X139308150Y-128941678D01*
X139274039Y-128956885D01*
X139256206Y-128944350D01*
X139250571Y-128897329D01*
X139256618Y-128873216D01*
X139253164Y-128829617D01*
X139218057Y-128807523D01*
X139173876Y-128814428D01*
X139150930Y-128838122D01*
X139116778Y-128877147D01*
X139098388Y-128884455D01*
X139074555Y-128864637D01*
X139082164Y-128815915D01*
X139112798Y-128762646D01*
X139146118Y-128730382D01*
X139189030Y-128726418D01*
X139251930Y-128743814D01*
G37*
G36*
X137777466Y-125200958D02*
G01*
X137794551Y-125222878D01*
X137840264Y-125262572D01*
X137869272Y-125271886D01*
X137891472Y-125281046D01*
X137875375Y-125303303D01*
X137856506Y-125353968D01*
X137860633Y-125378175D01*
X137861718Y-125408841D01*
X137833853Y-125404956D01*
X137779535Y-125406307D01*
X137760021Y-125418656D01*
X137731637Y-125425629D01*
X137704253Y-125381920D01*
X137700599Y-125372638D01*
X137677446Y-125307373D01*
X137676798Y-125278933D01*
X137700621Y-125272038D01*
X137713561Y-125271886D01*
X137749526Y-125248909D01*
X137756458Y-125222878D01*
X137760088Y-125189194D01*
X137777466Y-125200958D01*
G37*
G36*
X140011237Y-122999347D02*
G01*
X140031644Y-123056475D01*
X140032188Y-123125396D01*
X140014271Y-123176607D01*
X139969077Y-123210400D01*
X139901260Y-123226715D01*
X139833782Y-123223954D01*
X139789605Y-123200516D01*
X139785341Y-123192558D01*
X139767470Y-123115375D01*
X139768629Y-123048543D01*
X139788312Y-123012909D01*
X139789705Y-123012344D01*
X139819484Y-123027648D01*
X139849054Y-123080186D01*
X139851160Y-123085987D01*
X139887243Y-123146985D01*
X139925099Y-123158691D01*
X139950201Y-123125401D01*
X139949206Y-123057004D01*
X139944756Y-122996880D01*
X139967340Y-122976013D01*
X139975153Y-122975524D01*
X140011237Y-122999347D01*
G37*
G36*
X140196967Y-122985481D02*
G01*
X140273744Y-122992995D01*
X140313238Y-123015714D01*
X140334004Y-123064432D01*
X140334257Y-123065377D01*
X140338098Y-123139808D01*
X140319663Y-123170151D01*
X140277584Y-123185201D01*
X140253184Y-123148973D01*
X140247960Y-123094543D01*
X140236276Y-123045576D01*
X140210126Y-123040115D01*
X140182862Y-123073054D01*
X140169088Y-123124707D01*
X140151124Y-123186966D01*
X140119136Y-123196234D01*
X140098603Y-123180890D01*
X140085619Y-123142314D01*
X140079943Y-123074764D01*
X140079934Y-123071828D01*
X140083315Y-123014958D01*
X140103970Y-122989701D01*
X140157662Y-122984428D01*
X140196967Y-122985481D01*
G37*
G36*
X139443220Y-123213014D02*
G01*
X139459495Y-123253999D01*
X139446768Y-123319619D01*
X139399188Y-123368545D01*
X139333264Y-123395743D01*
X139265507Y-123396177D01*
X139212428Y-123364813D01*
X139196124Y-123334319D01*
X139195958Y-123315006D01*
X139267806Y-123315006D01*
X139288286Y-123336737D01*
X139330471Y-123335439D01*
X139365479Y-123312121D01*
X139365821Y-123311577D01*
X139373389Y-123266337D01*
X139345848Y-123244065D01*
X139307319Y-123257637D01*
X139273521Y-123297572D01*
X139267806Y-123315006D01*
X139195958Y-123315006D01*
X139195610Y-123274613D01*
X139241068Y-123220906D01*
X139317819Y-123181139D01*
X139390478Y-123179308D01*
X139443220Y-123213014D01*
G37*
G36*
X139893089Y-128938633D02*
G01*
X139893351Y-128938732D01*
X139955835Y-128972946D01*
X139988954Y-129011015D01*
X139983633Y-129040648D01*
X139972700Y-129046219D01*
X139951856Y-129071988D01*
X139955392Y-129082877D01*
X139946037Y-129100803D01*
X139901129Y-129107015D01*
X139839784Y-129101981D01*
X139781118Y-129086164D01*
X139764884Y-129078242D01*
X139722250Y-129033811D01*
X139809224Y-129033811D01*
X139813068Y-129050460D01*
X139827894Y-129052481D01*
X139850945Y-129042235D01*
X139846564Y-129033811D01*
X139813329Y-129030460D01*
X139809224Y-129033811D01*
X139722250Y-129033811D01*
X139721937Y-129033485D01*
X139723328Y-128986237D01*
X139759014Y-128947407D01*
X139818948Y-128927903D01*
X139893089Y-128938633D01*
G37*
G36*
X141564403Y-128793319D02*
G01*
X141618644Y-128867374D01*
X141632818Y-128906023D01*
X141637711Y-128951522D01*
X141609589Y-128983679D01*
X141553131Y-129011040D01*
X141480763Y-129040395D01*
X141440571Y-129048800D01*
X141412670Y-129035952D01*
X141384139Y-129008474D01*
X141346469Y-128941081D01*
X141346288Y-128913192D01*
X141422528Y-128913192D01*
X141443783Y-128950766D01*
X141488348Y-128964957D01*
X141533521Y-128946070D01*
X141550165Y-128912075D01*
X141526327Y-128876147D01*
X141487155Y-128861504D01*
X141436187Y-128873110D01*
X141422528Y-128913192D01*
X141346288Y-128913192D01*
X141345990Y-128867282D01*
X141381591Y-128809734D01*
X141394300Y-128801427D01*
X141489490Y-128771279D01*
X141564403Y-128793319D01*
G37*
G36*
X141720648Y-123195104D02*
G01*
X141733884Y-123200259D01*
X141790839Y-123229427D01*
X141816131Y-123253408D01*
X141816207Y-123254298D01*
X141797621Y-123291731D01*
X141753162Y-123288377D01*
X141734770Y-123276811D01*
X141714330Y-123265488D01*
X141733600Y-123293360D01*
X141741938Y-123303294D01*
X141779702Y-123366309D01*
X141772434Y-123405522D01*
X141727434Y-123417092D01*
X141652002Y-123397173D01*
X141606174Y-123374771D01*
X141555052Y-123342509D01*
X141550806Y-123324981D01*
X141572514Y-123317571D01*
X141634114Y-123320190D01*
X141657847Y-123330268D01*
X141667473Y-123332645D01*
X141642499Y-123307088D01*
X141597191Y-123246032D01*
X141600011Y-123201291D01*
X141643611Y-123181452D01*
X141720648Y-123195104D01*
G37*
G36*
X138560994Y-123614571D02*
G01*
X138556196Y-123661632D01*
X138549993Y-123710085D01*
X138574649Y-123728827D01*
X138626600Y-123731643D01*
X138683945Y-123735415D01*
X138694671Y-123751559D01*
X138679713Y-123773650D01*
X138624909Y-123809575D01*
X138593150Y-123815656D01*
X138555698Y-123830413D01*
X138557568Y-123857663D01*
X138556076Y-123892464D01*
X138523656Y-123899093D01*
X138475857Y-123880634D01*
X138428229Y-123840170D01*
X138420672Y-123830512D01*
X138378707Y-123759216D01*
X138377879Y-123719691D01*
X138417893Y-123715081D01*
X138431180Y-123718754D01*
X138472559Y-123724980D01*
X138470776Y-123705412D01*
X138470566Y-123660924D01*
X138501030Y-123614208D01*
X138544688Y-123591649D01*
X138546156Y-123591621D01*
X138560994Y-123614571D01*
G37*
G36*
X140224621Y-125306699D02*
G01*
X140228434Y-125316577D01*
X140224955Y-125352947D01*
X140218568Y-125435988D01*
X140209936Y-125556472D01*
X140199717Y-125705175D01*
X140188573Y-125872871D01*
X140188057Y-125880758D01*
X140153204Y-126414482D01*
X140053559Y-126430968D01*
X139940582Y-126447926D01*
X139872726Y-126448357D01*
X139839966Y-126425529D01*
X139832277Y-126372711D01*
X139839228Y-126287046D01*
X139847481Y-126198780D01*
X139858232Y-126070430D01*
X139870211Y-125917794D01*
X139882150Y-125756670D01*
X139884647Y-125721626D01*
X139895192Y-125577927D01*
X139904882Y-125455899D01*
X139912862Y-125365567D01*
X139918281Y-125316952D01*
X139919572Y-125311399D01*
X139948580Y-125306582D01*
X140016674Y-125300310D01*
X140079934Y-125295843D01*
X140177661Y-125294760D01*
X140224621Y-125306699D01*
G37*
G36*
X142084739Y-128540826D02*
G01*
X142079401Y-128559728D01*
X142084041Y-128585550D01*
X142132980Y-128584269D01*
X142133350Y-128584198D01*
X142197720Y-128588984D01*
X142228875Y-128624732D01*
X142226579Y-128677131D01*
X142190593Y-128731872D01*
X142136402Y-128768187D01*
X142067945Y-128795130D01*
X142026246Y-128794529D01*
X141989834Y-128766836D01*
X141961025Y-128704176D01*
X142045156Y-128704176D01*
X142055126Y-128714522D01*
X142073595Y-128715538D01*
X142124885Y-128700664D01*
X142139409Y-128686561D01*
X142149977Y-128650606D01*
X142123858Y-128648143D01*
X142080205Y-128673820D01*
X142045156Y-128704176D01*
X141961025Y-128704176D01*
X141958997Y-128699766D01*
X141969197Y-128614461D01*
X142000152Y-128554164D01*
X142041863Y-128514370D01*
X142075279Y-128510290D01*
X142084739Y-128540826D01*
G37*
G36*
X138730367Y-128378097D02*
G01*
X138787339Y-128417463D01*
X138809979Y-128451352D01*
X138816150Y-128501370D01*
X138791625Y-128511544D01*
X138750325Y-128476346D01*
X138719747Y-128446054D01*
X138708608Y-128451786D01*
X138725611Y-128495992D01*
X138739440Y-128512914D01*
X138757795Y-128560081D01*
X138743200Y-128608357D01*
X138704236Y-128630977D01*
X138701595Y-128630946D01*
X138653027Y-128614784D01*
X138602701Y-128585524D01*
X138555459Y-128534684D01*
X138539691Y-128488977D01*
X138552780Y-128443551D01*
X138584425Y-128444648D01*
X138623189Y-128491488D01*
X138624988Y-128494791D01*
X138654518Y-128533520D01*
X138672476Y-128536970D01*
X138668019Y-128507170D01*
X138637263Y-128463898D01*
X138604329Y-128413775D01*
X138615742Y-128377220D01*
X138618005Y-128374872D01*
X138666272Y-128360852D01*
X138730367Y-128378097D01*
G37*
G36*
X141176153Y-123044421D02*
G01*
X141230655Y-123076502D01*
X141249697Y-123117898D01*
X141234717Y-123148150D01*
X141215884Y-123197453D01*
X141219297Y-123216974D01*
X141217247Y-123245853D01*
X141175550Y-123250156D01*
X141090743Y-123231136D01*
X141014552Y-123191968D01*
X140992042Y-123157553D01*
X141088092Y-123157553D01*
X141102095Y-123171555D01*
X141116097Y-123157553D01*
X141102095Y-123143551D01*
X141088092Y-123157553D01*
X140992042Y-123157553D01*
X140979383Y-123138198D01*
X140983470Y-123096877D01*
X141097427Y-123096877D01*
X141101271Y-123113525D01*
X141116097Y-123115546D01*
X141139148Y-123105300D01*
X141134766Y-123096877D01*
X141101532Y-123093525D01*
X141097427Y-123096877D01*
X140983470Y-123096877D01*
X140984733Y-123084110D01*
X141030097Y-123043991D01*
X141097787Y-123031533D01*
X141176153Y-123044421D01*
G37*
G36*
X138873671Y-123481526D02*
G01*
X138887746Y-123495606D01*
X138927736Y-123558429D01*
X138912824Y-123613893D01*
X138849130Y-123660913D01*
X138749934Y-123699021D01*
X138684607Y-123693455D01*
X138664727Y-123674043D01*
X138655516Y-123613811D01*
X138769315Y-123613811D01*
X138777729Y-123618768D01*
X138823750Y-123604824D01*
X138847740Y-123591621D01*
X138870155Y-123569431D01*
X138861742Y-123564474D01*
X138815720Y-123578418D01*
X138791731Y-123591621D01*
X138769315Y-123613811D01*
X138655516Y-123613811D01*
X138655212Y-123611823D01*
X138680833Y-123549614D01*
X138735722Y-123549614D01*
X138749724Y-123563617D01*
X138763726Y-123549614D01*
X138749724Y-123535612D01*
X138735722Y-123549614D01*
X138680833Y-123549614D01*
X138683563Y-123542986D01*
X138739695Y-123489860D01*
X138750370Y-123484405D01*
X138809825Y-123458783D01*
X138842632Y-123457147D01*
X138873671Y-123481526D01*
G37*
G36*
X141846087Y-128670717D02*
G01*
X141912128Y-128721941D01*
X141912635Y-128722659D01*
X141950789Y-128796159D01*
X141940335Y-128848809D01*
X141877952Y-128891608D01*
X141859113Y-128899886D01*
X141791589Y-128927685D01*
X141756561Y-128937372D01*
X141734489Y-128931547D01*
X141715383Y-128919031D01*
X141679812Y-128880091D01*
X141648645Y-128830322D01*
X141628336Y-128776441D01*
X141630895Y-128770828D01*
X141708393Y-128770828D01*
X141727868Y-128809199D01*
X141730422Y-128812309D01*
X141773079Y-128851070D01*
X141815357Y-128845959D01*
X141838159Y-128832779D01*
X141858733Y-128793785D01*
X141847966Y-128745649D01*
X141813900Y-128717543D01*
X141806210Y-128716857D01*
X141755592Y-128731206D01*
X141733995Y-128742727D01*
X141708393Y-128770828D01*
X141630895Y-128770828D01*
X141646109Y-128737454D01*
X141675559Y-128711303D01*
X141762781Y-128666958D01*
X141846087Y-128670717D01*
G37*
G36*
X139396472Y-124516391D02*
G01*
X139411394Y-124586616D01*
X139413219Y-124606781D01*
X139421830Y-124725800D01*
X139561852Y-124739802D01*
X139640573Y-124750838D01*
X139665932Y-124763384D01*
X139650576Y-124774807D01*
X139579654Y-124792212D01*
X139534986Y-124795811D01*
X139463459Y-124814393D01*
X139420544Y-124874229D01*
X139403115Y-124959625D01*
X139391716Y-125016072D01*
X139375695Y-125033865D01*
X139372822Y-125031857D01*
X139358175Y-124991222D01*
X139351826Y-124922578D01*
X139351819Y-124920159D01*
X139342162Y-124853227D01*
X139305979Y-124814890D01*
X139232448Y-124798091D01*
X139160499Y-124795382D01*
X139097970Y-124791581D01*
X139086001Y-124779376D01*
X139099779Y-124767806D01*
X139160034Y-124746337D01*
X139213197Y-124740231D01*
X139295525Y-124721021D01*
X139340539Y-124662194D01*
X139351819Y-124580177D01*
X139359256Y-124509953D01*
X139376617Y-124489764D01*
X139396472Y-124516391D01*
G37*
G36*
X141227911Y-128863415D02*
G01*
X141253820Y-128889839D01*
X141256119Y-128910871D01*
X141234674Y-128966739D01*
X141193109Y-129009521D01*
X141153662Y-129038880D01*
X141157946Y-129046602D01*
X141211215Y-129037581D01*
X141221113Y-129035612D01*
X141290202Y-129030326D01*
X141312128Y-129048981D01*
X141297465Y-129079476D01*
X141291124Y-129081154D01*
X141252348Y-129087433D01*
X141182941Y-129102126D01*
X141164955Y-129106242D01*
X141094357Y-129116614D01*
X141050314Y-129111891D01*
X141045846Y-129108102D01*
X141042956Y-129058046D01*
X141076540Y-129006870D01*
X141118684Y-128981649D01*
X141162555Y-128956465D01*
X141172106Y-128938576D01*
X141153961Y-128914219D01*
X141102607Y-128931136D01*
X141089429Y-128939044D01*
X141040542Y-128954326D01*
X141018031Y-128935306D01*
X141034153Y-128895964D01*
X141083201Y-128868655D01*
X141157226Y-128856490D01*
X141161532Y-128856450D01*
X141227911Y-128863415D01*
G37*
G36*
X140705925Y-128892246D02*
G01*
X140713358Y-128926685D01*
X140706340Y-128961467D01*
X140679652Y-129026205D01*
X140649147Y-129061238D01*
X140628738Y-129085550D01*
X140644270Y-129124739D01*
X140666993Y-129155544D01*
X140701466Y-129211515D01*
X140708773Y-129250291D01*
X140707999Y-129251803D01*
X140664933Y-129275333D01*
X140601720Y-129263079D01*
X140551213Y-129230169D01*
X140508539Y-129199194D01*
X140473757Y-129209028D01*
X140448787Y-129230169D01*
X140391014Y-129265943D01*
X140337291Y-129275056D01*
X140306144Y-129255776D01*
X140303969Y-129243716D01*
X140321292Y-129199050D01*
X140350316Y-129159703D01*
X140381292Y-129117029D01*
X140371457Y-129082247D01*
X140350316Y-129057277D01*
X140308805Y-128988700D01*
X140305947Y-128928326D01*
X140339894Y-128890481D01*
X140372588Y-128884455D01*
X140436266Y-128902642D01*
X140468308Y-128932879D01*
X140491899Y-128965252D01*
X140519106Y-128958282D01*
X140548917Y-128932879D01*
X140614118Y-128894959D01*
X140663764Y-128884455D01*
X140705925Y-128892246D01*
G37*
G36*
X141135622Y-125508066D02*
G01*
X141134045Y-125535330D01*
X141131076Y-125543139D01*
X141113898Y-125587064D01*
X141081016Y-125672085D01*
X141036756Y-125786988D01*
X140985439Y-125920563D01*
X140971081Y-125957994D01*
X140919179Y-126091243D01*
X140873233Y-126205301D01*
X140837406Y-126290115D01*
X140815862Y-126335637D01*
X140812762Y-126340172D01*
X140775474Y-126355651D01*
X140704973Y-126372360D01*
X140678086Y-126377122D01*
X140562126Y-126395952D01*
X140517521Y-126274988D01*
X140457682Y-126111062D01*
X140401539Y-125954236D01*
X140352196Y-125813483D01*
X140312757Y-125697777D01*
X140286325Y-125616089D01*
X140276004Y-125577393D01*
X140275964Y-125576594D01*
X140301372Y-125563443D01*
X140367270Y-125554495D01*
X140439819Y-125551930D01*
X140603673Y-125551930D01*
X140656853Y-125730349D01*
X140687524Y-125821705D01*
X140716278Y-125887955D01*
X140736378Y-125914337D01*
X140757662Y-125892679D01*
X140790485Y-125830252D01*
X140828578Y-125739391D01*
X140837738Y-125714914D01*
X140912753Y-125509923D01*
X141032110Y-125501132D01*
X141105637Y-125498362D01*
X141135622Y-125508066D01*
G37*
G36*
X139483772Y-125670306D02*
G01*
X139599428Y-125737701D01*
X139683309Y-125838343D01*
X139728480Y-125965684D01*
X139728005Y-126113173D01*
X139716972Y-126163956D01*
X139656515Y-126305369D01*
X139556999Y-126412091D01*
X139454886Y-126473630D01*
X139295480Y-126524037D01*
X139140821Y-126519672D01*
X139055397Y-126492278D01*
X138942314Y-126414878D01*
X138866054Y-126303848D01*
X138830567Y-126170907D01*
X138830607Y-126170285D01*
X139162669Y-126170285D01*
X139169657Y-126223427D01*
X139195059Y-126286471D01*
X139241287Y-126307635D01*
X139252600Y-126308049D01*
X139315262Y-126293934D01*
X139344504Y-126273043D01*
X139371393Y-126210849D01*
X139389550Y-126117004D01*
X139395722Y-126015600D01*
X139389205Y-125941893D01*
X139357199Y-125873574D01*
X139305310Y-125840161D01*
X139249594Y-125848295D01*
X139222957Y-125873131D01*
X139187876Y-125951862D01*
X139166455Y-126059624D01*
X139162669Y-126170285D01*
X138830607Y-126170285D01*
X138839806Y-126027772D01*
X138869234Y-125940146D01*
X138948463Y-125805985D01*
X139050228Y-125716420D01*
X139184879Y-125661461D01*
X139343277Y-125642710D01*
X139483772Y-125670306D01*
G37*
G36*
X142267045Y-123470817D02*
G01*
X142283889Y-123488676D01*
X142319943Y-123528220D01*
X142381497Y-123580116D01*
X142399277Y-123593420D01*
X142463405Y-123652082D01*
X142482249Y-123706432D01*
X142480466Y-123722835D01*
X142479077Y-123765681D01*
X142508486Y-123775089D01*
X142545102Y-123769293D01*
X142602256Y-123768964D01*
X142642278Y-123786031D01*
X142649904Y-123811198D01*
X142635793Y-123824522D01*
X142588966Y-123839114D01*
X142512926Y-123851475D01*
X142428161Y-123859689D01*
X142355154Y-123861839D01*
X142314392Y-123856010D01*
X142312697Y-123854741D01*
X142291968Y-123814496D01*
X142317330Y-123796674D01*
X142348291Y-123801654D01*
X142385044Y-123806372D01*
X142400959Y-123780303D01*
X142404300Y-123714861D01*
X142400025Y-123652827D01*
X142389383Y-123627401D01*
X142385569Y-123629021D01*
X142353696Y-123626842D01*
X142313848Y-123599797D01*
X142270763Y-123569201D01*
X142244200Y-123579996D01*
X142237093Y-123590294D01*
X142237227Y-123638068D01*
X142271353Y-123675733D01*
X142305853Y-123717816D01*
X142296823Y-123741336D01*
X142255758Y-123738188D01*
X142214338Y-123715939D01*
X142176407Y-123666338D01*
X142157663Y-123596487D01*
X142158215Y-123525029D01*
X142178167Y-123470607D01*
X142212828Y-123451599D01*
X142267045Y-123470817D01*
G37*
G36*
X142884806Y-124211685D02*
G01*
X142895132Y-124228172D01*
X142881393Y-124248498D01*
X142861200Y-124295989D01*
X142865477Y-124318287D01*
X142868182Y-124364079D01*
X142855943Y-124396371D01*
X142821173Y-124426148D01*
X142748461Y-124451071D01*
X142629700Y-124473705D01*
X142595386Y-124478804D01*
X142479118Y-124496617D01*
X142377889Y-124514217D01*
X142309578Y-124528440D01*
X142299283Y-124531234D01*
X142253481Y-124537267D01*
X142237555Y-124507097D01*
X142236273Y-124475185D01*
X142253353Y-124373609D01*
X142301213Y-124310182D01*
X142363278Y-124291731D01*
X142414749Y-124302571D01*
X142431668Y-124346161D01*
X142432304Y-124366410D01*
X142439339Y-124417582D01*
X142454820Y-124417288D01*
X142470314Y-124367466D01*
X142471910Y-124357307D01*
X142497419Y-124314033D01*
X142644556Y-124314033D01*
X142648225Y-124347740D01*
X142664482Y-124392982D01*
X142673608Y-124403749D01*
X142682346Y-124380182D01*
X142684344Y-124347740D01*
X142673704Y-124302217D01*
X142658961Y-124291731D01*
X142644556Y-124314033D01*
X142497419Y-124314033D01*
X142504702Y-124301678D01*
X142571442Y-124260919D01*
X142650174Y-124246501D01*
X142677343Y-124249994D01*
X142725681Y-124251065D01*
X142740353Y-124236256D01*
X142764761Y-124216527D01*
X142823898Y-124207746D01*
X142827795Y-124207718D01*
X142884806Y-124211685D01*
G37*
G36*
X143546702Y-124987257D02*
G01*
X143552332Y-125043655D01*
X143552480Y-125071205D01*
X143547165Y-125130900D01*
X143526995Y-125190742D01*
X143485637Y-125263072D01*
X143416759Y-125360231D01*
X143377453Y-125412258D01*
X143290940Y-125525634D01*
X143205387Y-125637870D01*
X143134028Y-125731600D01*
X143107934Y-125765929D01*
X143058937Y-125836320D01*
X143031155Y-125888054D01*
X143028990Y-125905911D01*
X143062889Y-125909287D01*
X143132952Y-125901109D01*
X143187869Y-125890718D01*
X143292601Y-125872362D01*
X143392267Y-125861371D01*
X143427303Y-125859978D01*
X143523405Y-125859978D01*
X143505993Y-125992999D01*
X143495263Y-126071397D01*
X143487520Y-126121454D01*
X143485525Y-126130431D01*
X143458237Y-126134028D01*
X143387743Y-126139950D01*
X143286748Y-126147180D01*
X143231859Y-126150771D01*
X143085321Y-126160777D01*
X142928885Y-126172548D01*
X142793196Y-126183762D01*
X142776788Y-126185229D01*
X142572326Y-126203757D01*
X142572326Y-126092015D01*
X142576086Y-126043690D01*
X142590710Y-125993767D01*
X142621214Y-125933496D01*
X142672614Y-125854125D01*
X142749926Y-125746906D01*
X142835409Y-125633081D01*
X142923908Y-125513975D01*
X142996806Y-125411386D01*
X143048881Y-125333034D01*
X143074914Y-125286641D01*
X143075938Y-125277384D01*
X143038486Y-125276540D01*
X142962365Y-125282589D01*
X142867660Y-125293763D01*
X142768221Y-125303377D01*
X142696309Y-125303147D01*
X142666849Y-125294239D01*
X142661380Y-125252900D01*
X142666946Y-125181542D01*
X142669715Y-125163575D01*
X142687667Y-125057319D01*
X143043062Y-125022608D01*
X143185514Y-125008175D01*
X143313944Y-124994215D01*
X143414649Y-124982280D01*
X143473932Y-124973921D01*
X143475468Y-124973642D01*
X143524744Y-124968561D01*
X143546702Y-124987257D01*
G37*
G36*
X141801976Y-125457654D02*
G01*
X141917688Y-125513427D01*
X141998503Y-125611053D01*
X142048987Y-125754353D01*
X142054436Y-125781139D01*
X142061664Y-125828472D01*
X142057069Y-125861923D01*
X142032423Y-125884935D01*
X141979500Y-125900955D01*
X141890071Y-125913425D01*
X141755909Y-125925791D01*
X141697188Y-125930705D01*
X141586970Y-125941501D01*
X141521536Y-125953686D01*
X141489712Y-125970995D01*
X141480324Y-125997168D01*
X141480154Y-126003292D01*
X141504293Y-126053537D01*
X141561661Y-126087505D01*
X141629685Y-126093722D01*
X141648181Y-126088697D01*
X141698348Y-126055103D01*
X141734229Y-126018441D01*
X141771172Y-125985654D01*
X141821796Y-125975258D01*
X141906030Y-125983309D01*
X141909257Y-125983790D01*
X141985686Y-125998948D01*
X142032362Y-126015346D01*
X142039235Y-126022720D01*
X142017158Y-126066713D01*
X141963652Y-126128430D01*
X141893064Y-126193317D01*
X141819739Y-126246821D01*
X141816207Y-126248967D01*
X141703989Y-126292437D01*
X141571730Y-126308830D01*
X141441818Y-126297828D01*
X141336644Y-126259110D01*
X141331589Y-126255885D01*
X141234620Y-126173753D01*
X141179942Y-126076146D01*
X141159677Y-125947420D01*
X141159054Y-125913237D01*
X141181669Y-125756158D01*
X141497943Y-125756158D01*
X141525468Y-125771637D01*
X141594342Y-125775915D01*
X141608796Y-125775965D01*
X141687076Y-125771842D01*
X141723577Y-125755531D01*
X141732194Y-125723385D01*
X141711856Y-125661860D01*
X141689233Y-125635151D01*
X141631878Y-125618994D01*
X141566382Y-125640574D01*
X141514064Y-125689992D01*
X141499137Y-125723426D01*
X141497943Y-125756158D01*
X141181669Y-125756158D01*
X141182878Y-125747762D01*
X141251408Y-125613432D01*
X141360176Y-125514585D01*
X141504712Y-125455558D01*
X141646802Y-125439912D01*
X141801976Y-125457654D01*
G37*
G36*
X138811997Y-125426600D02*
G01*
X138813450Y-125445230D01*
X138801267Y-125482445D01*
X138775407Y-125564260D01*
X138738664Y-125681744D01*
X138693831Y-125825965D01*
X138643700Y-125987990D01*
X138639993Y-126000000D01*
X138589725Y-126162798D01*
X138544747Y-126308299D01*
X138507813Y-126427612D01*
X138481675Y-126511844D01*
X138469087Y-126552103D01*
X138468770Y-126553087D01*
X138434210Y-126576215D01*
X138357293Y-126587502D01*
X138330537Y-126588093D01*
X138249600Y-126589525D01*
X138193718Y-126593137D01*
X138182819Y-126595094D01*
X138170407Y-126572169D01*
X138152640Y-126504650D01*
X138132031Y-126403396D01*
X138113936Y-126297508D01*
X138093283Y-126173250D01*
X138074267Y-126070676D01*
X138059220Y-126001690D01*
X138051401Y-125978450D01*
X138044492Y-125972763D01*
X138037604Y-125976786D01*
X138028032Y-125998686D01*
X138013073Y-126046626D01*
X137990020Y-126128771D01*
X137956169Y-126253287D01*
X137937575Y-126322051D01*
X137904405Y-126440197D01*
X137874841Y-126537294D01*
X137852745Y-126601099D01*
X137843720Y-126619468D01*
X137807263Y-126633033D01*
X137735441Y-126647663D01*
X137692943Y-126653885D01*
X137612026Y-126661678D01*
X137570169Y-126654555D01*
X137551316Y-126627547D01*
X137546266Y-126608508D01*
X137533586Y-126549667D01*
X137511263Y-126443394D01*
X137480842Y-126297135D01*
X137443868Y-126118338D01*
X137401888Y-125914449D01*
X137371911Y-125768396D01*
X137352334Y-125665291D01*
X137340134Y-125585582D01*
X137337344Y-125543137D01*
X137338403Y-125539923D01*
X137370230Y-125532326D01*
X137440456Y-125524260D01*
X137503276Y-125519487D01*
X137657048Y-125509923D01*
X137691539Y-125691952D01*
X137713382Y-125814733D01*
X137733507Y-125940289D01*
X137743927Y-126014003D01*
X137761824Y-126154025D01*
X137871677Y-125810971D01*
X137981531Y-125467917D01*
X138092584Y-125467917D01*
X138168547Y-125466285D01*
X138218701Y-125462233D01*
X138224641Y-125460915D01*
X138237172Y-125484004D01*
X138256028Y-125552073D01*
X138278712Y-125654797D01*
X138302730Y-125781846D01*
X138304150Y-125789967D01*
X138362655Y-126126020D01*
X138397762Y-126000000D01*
X138422846Y-125910749D01*
X138456646Y-125791512D01*
X138492400Y-125666130D01*
X138497033Y-125649945D01*
X138561197Y-125425910D01*
X138694108Y-125417226D01*
X138776170Y-125415693D01*
X138811997Y-125426600D01*
G37*
G36*
X140860075Y-123703639D02*
G01*
X140867665Y-123851564D01*
X140887246Y-123952772D01*
X140926876Y-124016416D01*
X140994612Y-124051648D01*
X141098515Y-124067622D01*
X141184254Y-124071857D01*
X141313257Y-124079493D01*
X141387731Y-124090787D01*
X141407478Y-124103277D01*
X141372302Y-124114500D01*
X141282006Y-124121994D01*
X141188406Y-124123705D01*
X141070672Y-124124979D01*
X140995718Y-124130840D01*
X140950335Y-124144345D01*
X140921315Y-124168550D01*
X140906627Y-124188927D01*
X140874966Y-124267200D01*
X140866162Y-124335950D01*
X140873425Y-124473755D01*
X140886046Y-124588849D01*
X140902403Y-124671003D01*
X140920874Y-124709992D01*
X140925745Y-124711797D01*
X140942958Y-124687122D01*
X140940556Y-124620478D01*
X140939847Y-124615967D01*
X140937162Y-124557773D01*
X140976075Y-124557773D01*
X140990077Y-124571775D01*
X141004079Y-124557773D01*
X140990077Y-124543771D01*
X140976075Y-124557773D01*
X140937162Y-124557773D01*
X140936454Y-124542433D01*
X140959697Y-124507061D01*
X140966478Y-124503949D01*
X141037273Y-124489088D01*
X141111892Y-124490415D01*
X141168140Y-124506012D01*
X141184300Y-124522768D01*
X141202534Y-124577364D01*
X141215760Y-124613782D01*
X141236782Y-124669791D01*
X141249690Y-124613782D01*
X141274838Y-124557684D01*
X141294364Y-124537199D01*
X141302819Y-124520160D01*
X141277122Y-124516195D01*
X141231353Y-124507940D01*
X141231621Y-124489184D01*
X141270807Y-124467071D01*
X141341792Y-124448748D01*
X141344813Y-124448255D01*
X141434226Y-124442785D01*
X141484206Y-124468430D01*
X141505005Y-124534285D01*
X141507730Y-124592779D01*
X141507006Y-124639761D01*
X141496488Y-124667946D01*
X141464483Y-124683151D01*
X141399297Y-124691195D01*
X141297423Y-124697419D01*
X141232573Y-124710490D01*
X141205742Y-124722319D01*
X141157188Y-124738714D01*
X141078826Y-124753184D01*
X141052421Y-124756388D01*
X140947416Y-124769496D01*
X140830752Y-124786901D01*
X140799473Y-124792129D01*
X140664878Y-124815413D01*
X140610443Y-124708712D01*
X140576624Y-124636411D01*
X140568393Y-124613782D01*
X140612017Y-124613782D01*
X140626020Y-124627784D01*
X140640022Y-124613782D01*
X140626020Y-124599780D01*
X140612017Y-124613782D01*
X140568393Y-124613782D01*
X140557560Y-124583999D01*
X140556009Y-124574425D01*
X140581142Y-124556725D01*
X140645077Y-124542681D01*
X140689030Y-124538304D01*
X140822050Y-124529769D01*
X140830685Y-124394325D01*
X140823816Y-124265373D01*
X140795034Y-124191293D01*
X140768198Y-124157441D01*
X140733283Y-124137248D01*
X140676433Y-124127238D01*
X140583793Y-124123932D01*
X140525706Y-124123705D01*
X140402598Y-124120156D01*
X140334595Y-124111159D01*
X140321356Y-124099184D01*
X140362542Y-124086704D01*
X140457811Y-124076190D01*
X140532810Y-124072154D01*
X140668178Y-124060545D01*
X140755076Y-124038626D01*
X140780044Y-124023048D01*
X140806013Y-123969679D01*
X140825542Y-123865358D01*
X140838140Y-123723769D01*
X140854230Y-123465601D01*
X140860075Y-123703639D01*
G37*
G36*
X141714561Y-124231794D02*
G01*
X141720127Y-124238854D01*
X141762738Y-124256622D01*
X141853718Y-124254520D01*
X141877891Y-124251615D01*
X141963100Y-124243315D01*
X142017988Y-124253276D01*
X142067432Y-124290549D01*
X142110867Y-124336361D01*
X142171076Y-124412404D01*
X142193163Y-124473180D01*
X142190649Y-124512851D01*
X142189539Y-124557548D01*
X142210301Y-124604077D01*
X142260448Y-124664243D01*
X142332144Y-124735267D01*
X142406407Y-124808806D01*
X142461524Y-124868457D01*
X142487496Y-124903269D01*
X142488313Y-124906297D01*
X142472534Y-124941613D01*
X142434357Y-124996859D01*
X142432304Y-124999483D01*
X142387547Y-125062599D01*
X142383031Y-125091840D01*
X142419722Y-125093259D01*
X142446306Y-125087355D01*
X142490703Y-125080545D01*
X142510800Y-125098935D01*
X142516155Y-125155778D01*
X142516317Y-125184416D01*
X142502174Y-125274632D01*
X142465384Y-125373845D01*
X142414401Y-125467284D01*
X142357685Y-125540177D01*
X142303691Y-125577752D01*
X142289880Y-125579934D01*
X142246143Y-125570797D01*
X142237266Y-125558931D01*
X142250660Y-125521466D01*
X142278280Y-125467917D01*
X142312405Y-125399514D01*
X142312670Y-125365637D01*
X142278738Y-125355940D01*
X142274616Y-125355899D01*
X142244588Y-125343968D01*
X142239301Y-125299055D01*
X142243973Y-125263290D01*
X142259002Y-125170681D01*
X142128619Y-125172276D01*
X141998236Y-125173870D01*
X141969702Y-125117861D01*
X142264278Y-125117861D01*
X142278280Y-125131864D01*
X142292282Y-125117861D01*
X142278280Y-125103859D01*
X142264278Y-125117861D01*
X141969702Y-125117861D01*
X141888970Y-124959395D01*
X141867822Y-124921854D01*
X142132817Y-124921854D01*
X142152779Y-124967226D01*
X142181380Y-124991720D01*
X142183261Y-124991842D01*
X142205705Y-124969232D01*
X142208269Y-124951488D01*
X142192480Y-124908444D01*
X142191695Y-124907828D01*
X142268699Y-124907828D01*
X142273100Y-124947584D01*
X142282824Y-124942834D01*
X142286523Y-124885499D01*
X142282824Y-124872823D01*
X142272603Y-124869305D01*
X142268699Y-124907828D01*
X142191695Y-124907828D01*
X142159562Y-124882617D01*
X142135735Y-124887014D01*
X142132817Y-124921854D01*
X141867822Y-124921854D01*
X141836258Y-124865822D01*
X141956229Y-124865822D01*
X141970231Y-124879824D01*
X141984234Y-124865822D01*
X141970231Y-124851820D01*
X141956229Y-124865822D01*
X141836258Y-124865822D01*
X141822260Y-124840972D01*
X142329913Y-124840972D01*
X142334289Y-124851820D01*
X142359454Y-124878535D01*
X142363946Y-124879824D01*
X142375974Y-124858157D01*
X142376295Y-124851820D01*
X142354767Y-124824891D01*
X142346638Y-124823815D01*
X142329913Y-124840972D01*
X141822260Y-124840972D01*
X141822070Y-124840635D01*
X141760951Y-124755758D01*
X141727934Y-124727101D01*
X141846508Y-124727101D01*
X141853875Y-124752596D01*
X141886361Y-124792228D01*
X141922845Y-124781274D01*
X141937462Y-124756122D01*
X141929181Y-124714066D01*
X141908446Y-124699454D01*
X141857896Y-124693375D01*
X141846508Y-124727101D01*
X141727934Y-124727101D01*
X141713942Y-124714957D01*
X141662611Y-124671739D01*
X141648181Y-124599198D01*
X141647604Y-124592303D01*
X141773673Y-124592303D01*
X141778076Y-124613782D01*
X141797953Y-124650629D01*
X141805201Y-124655789D01*
X141814991Y-124632921D01*
X141816207Y-124613782D01*
X141844211Y-124613782D01*
X141858214Y-124627784D01*
X141872216Y-124613782D01*
X141858214Y-124599780D01*
X141844211Y-124613782D01*
X141816207Y-124613782D01*
X141801551Y-124576508D01*
X141789082Y-124571775D01*
X141773673Y-124592303D01*
X141647604Y-124592303D01*
X141643209Y-124539807D01*
X141621781Y-124488521D01*
X141574128Y-124425952D01*
X141543164Y-124390775D01*
X141510059Y-124321423D01*
X141530298Y-124254424D01*
X141541764Y-124241323D01*
X141596826Y-124213687D01*
X141663840Y-124210380D01*
X141714561Y-124231794D01*
G37*
G36*
X138059150Y-126628514D02*
G01*
X138135382Y-126662082D01*
X138236849Y-126711274D01*
X138322864Y-126755401D01*
X138440781Y-126816534D01*
X138519649Y-126854044D01*
X138569734Y-126870858D01*
X138601305Y-126869903D01*
X138624626Y-126854108D01*
X138634078Y-126844143D01*
X138646889Y-126826130D01*
X138819735Y-126826130D01*
X138834857Y-126863398D01*
X138847740Y-126868137D01*
X138872585Y-126845455D01*
X138875744Y-126826130D01*
X138860622Y-126788863D01*
X138847740Y-126784124D01*
X138822895Y-126806806D01*
X138819735Y-126826130D01*
X138646889Y-126826130D01*
X138664518Y-126801342D01*
X138667478Y-126781224D01*
X138678092Y-126759009D01*
X138724224Y-126723383D01*
X138790282Y-126683839D01*
X138860676Y-126649874D01*
X138911341Y-126632697D01*
X138975218Y-126629906D01*
X139033087Y-126662098D01*
X139065365Y-126692428D01*
X139102087Y-126727612D01*
X139137162Y-126749542D01*
X139183636Y-126760556D01*
X139254554Y-126762995D01*
X139362963Y-126759197D01*
X139421830Y-126756353D01*
X139561998Y-126751096D01*
X139735911Y-126746994D01*
X139921310Y-126744459D01*
X140093936Y-126743898D01*
X140260516Y-126745689D01*
X140383518Y-126750694D01*
X140475343Y-126760299D01*
X140548394Y-126775889D01*
X140615070Y-126798848D01*
X140626020Y-126803316D01*
X140705684Y-126842580D01*
X140759991Y-126881051D01*
X140773932Y-126900740D01*
X140753691Y-126934025D01*
X140683028Y-126964910D01*
X140567524Y-126992027D01*
X140412755Y-127014005D01*
X140257711Y-127027415D01*
X140144436Y-127037337D01*
X140055840Y-127049821D01*
X140004166Y-127062890D01*
X139995920Y-127069661D01*
X139972055Y-127082060D01*
X139913716Y-127079211D01*
X139904906Y-127077680D01*
X139861650Y-127071751D01*
X139814451Y-127071543D01*
X139755361Y-127078763D01*
X139676433Y-127095115D01*
X139569720Y-127122308D01*
X139427274Y-127162046D01*
X139241148Y-127216037D01*
X139188319Y-127231533D01*
X139023033Y-127281391D01*
X138882778Y-127327611D01*
X138754513Y-127375659D01*
X138625202Y-127430998D01*
X138481806Y-127499095D01*
X138311288Y-127585415D01*
X138175634Y-127656030D01*
X138046468Y-127721326D01*
X137952004Y-127762066D01*
X137879044Y-127782727D01*
X137814394Y-127787784D01*
X137790573Y-127786645D01*
X137717961Y-127783007D01*
X137675825Y-127784209D01*
X137671554Y-127786065D01*
X137685138Y-127812633D01*
X137716782Y-127863279D01*
X137744006Y-127911694D01*
X137746662Y-127932297D01*
X137746439Y-127932305D01*
X137720283Y-127911917D01*
X137710236Y-127897299D01*
X137680847Y-127848162D01*
X137647048Y-127792283D01*
X137623490Y-127748860D01*
X137624568Y-127739327D01*
X137625475Y-127740061D01*
X137653249Y-127729915D01*
X137707420Y-127686802D01*
X137777114Y-127619562D01*
X137789088Y-127607040D01*
X137862275Y-127533665D01*
X137923325Y-127479692D01*
X137960306Y-127455561D01*
X137962662Y-127455162D01*
X137995871Y-127438485D01*
X138050296Y-127396716D01*
X138094374Y-127358214D01*
X138651709Y-127358214D01*
X138665711Y-127372216D01*
X138679713Y-127358214D01*
X138665711Y-127344212D01*
X138651709Y-127358214D01*
X138094374Y-127358214D01*
X138114892Y-127340291D01*
X138178616Y-127279644D01*
X138230424Y-127225211D01*
X138259271Y-127187427D01*
X138257913Y-127176186D01*
X138236939Y-127153486D01*
X138237000Y-127082939D01*
X138239248Y-127064502D01*
X138244411Y-127004701D01*
X138235808Y-126961485D01*
X139333149Y-126961485D01*
X139336994Y-126978134D01*
X139351819Y-126980155D01*
X139355922Y-126978331D01*
X139498707Y-126978331D01*
X139502538Y-126980155D01*
X139528094Y-126960440D01*
X139533848Y-126952150D01*
X139540984Y-126925969D01*
X139537153Y-126924146D01*
X139511597Y-126943860D01*
X139505843Y-126952150D01*
X139498707Y-126978331D01*
X139355922Y-126978331D01*
X139374870Y-126969908D01*
X139370489Y-126961485D01*
X139337254Y-126958134D01*
X139333149Y-126961485D01*
X138235808Y-126961485D01*
X138235292Y-126958892D01*
X138203823Y-126912386D01*
X138141937Y-126850492D01*
X138101042Y-126812815D01*
X138012182Y-126722970D01*
X137971696Y-126660175D01*
X137979686Y-126624677D01*
X138020158Y-126616097D01*
X138059150Y-126628514D01*
G37*
D14*
%TO.C,R13*%
X156145276Y-93477500D02*
X156654724Y-93477500D01*
X156145276Y-94522500D02*
X156654724Y-94522500D01*
%TO.C,J3*%
X173715000Y-53965000D02*
X173715000Y-54245000D01*
X173715000Y-64585000D02*
X173715000Y-64305000D01*
X176025000Y-53965000D02*
X173715000Y-53965000D01*
X176025000Y-53965000D02*
X178335000Y-53965000D01*
X176025000Y-64585000D02*
X173715000Y-64585000D01*
X176025000Y-64585000D02*
X178335000Y-64585000D01*
X178335000Y-53965000D02*
X178335000Y-54245000D01*
X178335000Y-64585000D02*
X178335000Y-64305000D01*
X172925000Y-54245000D02*
X172685000Y-53915000D01*
X173165000Y-53915000D01*
X172925000Y-54245000D01*
G36*
X172925000Y-54245000D02*
G01*
X172685000Y-53915000D01*
X173165000Y-53915000D01*
X172925000Y-54245000D01*
G37*
%TO.C,U2*%
X164645000Y-54365000D02*
X165975000Y-54365000D01*
X164645000Y-55695000D02*
X164645000Y-54365000D01*
X164645000Y-56965000D02*
X164645000Y-64645000D01*
X164645000Y-56965000D02*
X167305000Y-56965000D01*
X164645000Y-64645000D02*
X167305000Y-64645000D01*
X167305000Y-56965000D02*
X167305000Y-64645000D01*
%TO.C,Q1*%
X186500000Y-127380000D02*
X186770000Y-127380000D01*
X186500000Y-133800000D02*
X186500000Y-127380000D01*
X193400000Y-127380000D02*
X193130000Y-127380000D01*
X193400000Y-133800000D02*
X193400000Y-127380000D01*
X193560000Y-125990000D02*
X193090000Y-125650000D01*
X193560000Y-125310000D01*
X193560000Y-125990000D01*
G36*
X193560000Y-125990000D02*
G01*
X193090000Y-125650000D01*
X193560000Y-125310000D01*
X193560000Y-125990000D01*
G37*
%TO.C,R15*%
X184642224Y-96752500D02*
X184132776Y-96752500D01*
X184642224Y-97797500D02*
X184132776Y-97797500D01*
%TO.C,R10*%
X185807776Y-84797750D02*
X186317224Y-84797750D01*
X185807776Y-85842750D02*
X186317224Y-85842750D01*
%TO.C,R6*%
X210952500Y-85520276D02*
X210952500Y-86029724D01*
X211997500Y-85520276D02*
X211997500Y-86029724D01*
%TO.C,R2*%
X187729724Y-122252500D02*
X187220276Y-122252500D01*
X187729724Y-123297500D02*
X187220276Y-123297500D01*
%TO.C,C14*%
X176801248Y-66585250D02*
X177323752Y-66585250D01*
X176801248Y-68055250D02*
X177323752Y-68055250D01*
%TO.C,R7*%
X182270276Y-63752500D02*
X182779724Y-63752500D01*
X182270276Y-64797500D02*
X182779724Y-64797500D01*
%TO.C,R9*%
X217729724Y-127487500D02*
X217220276Y-127487500D01*
X217729724Y-128532500D02*
X217220276Y-128532500D01*
%TO.C,R4*%
X211720276Y-125752500D02*
X212229724Y-125752500D01*
X211720276Y-126797500D02*
X212229724Y-126797500D01*
D13*
%TO.C,MD1*%
X173125000Y-70425000D02*
X185825000Y-70425000D01*
X173125000Y-83125000D02*
X173125000Y-70425000D01*
X173125000Y-83125000D02*
X185825000Y-83125000D01*
X185825000Y-83125000D02*
X185825000Y-70425000D01*
D16*
X172355000Y-76775000D02*
G75*
G02*
X172105000Y-76775000I-125000J0D01*
G01*
X172105000Y-76775000D02*
G75*
G02*
X172355000Y-76775000I125000J0D01*
G01*
D14*
%TO.C,C2*%
X168965000Y-56128733D02*
X168965000Y-56421267D01*
X169985000Y-56128733D02*
X169985000Y-56421267D01*
%TO.C,U6*%
X200315000Y-53735000D02*
X215555000Y-53735000D01*
X215555000Y-58815000D01*
X200315000Y-58815000D01*
X200315000Y-53735000D01*
%TO.C,C10*%
X204468733Y-120970000D02*
X204761267Y-120970000D01*
X204468733Y-121990000D02*
X204761267Y-121990000D01*
%TO.C,C1*%
X212828733Y-129265000D02*
X213121267Y-129265000D01*
X212828733Y-130285000D02*
X213121267Y-130285000D01*
%TO.C,U4*%
X200475000Y-67215000D02*
X198525000Y-67215000D01*
X200475000Y-67215000D02*
X202425000Y-67215000D01*
X200475000Y-72335000D02*
X198525000Y-72335000D01*
X200475000Y-72335000D02*
X202425000Y-72335000D01*
X197775000Y-67310000D02*
X197535000Y-66980000D01*
X198015000Y-66980000D01*
X197775000Y-67310000D01*
G36*
X197775000Y-67310000D02*
G01*
X197535000Y-66980000D01*
X198015000Y-66980000D01*
X197775000Y-67310000D01*
G37*
%TO.C,D1*%
X167139000Y-90840000D02*
X167295000Y-90840000D01*
X169455000Y-90840000D02*
X169611000Y-90840000D01*
X167139484Y-90840000D02*
G75*
G02*
X167296392Y-87607665I1235516J1560000D01*
G01*
X167295000Y-90320961D02*
G75*
G02*
X167295163Y-88238870I1080000J1040961D01*
G01*
X169453608Y-87607665D02*
G75*
G02*
X169610516Y-90840000I-1078608J-1672335D01*
G01*
X169454837Y-88238870D02*
G75*
G02*
X169455000Y-90320961I-1079837J-1041130D01*
G01*
%TO.C,C9*%
X150770000Y-108170000D02*
X157230000Y-108170000D01*
X150770000Y-108210000D02*
X157230000Y-108210000D01*
X150770000Y-108250000D02*
X157230000Y-108250000D01*
X150772000Y-108130000D02*
X157228000Y-108130000D01*
X150773000Y-108090000D02*
X157227000Y-108090000D01*
X150776000Y-108050000D02*
X157224000Y-108050000D01*
X150778000Y-108010000D02*
X152960000Y-108010000D01*
X150782000Y-107970000D02*
X152960000Y-107970000D01*
X150785000Y-107930000D02*
X152960000Y-107930000D01*
X150789000Y-107890000D02*
X152960000Y-107890000D01*
X150794000Y-107850000D02*
X152960000Y-107850000D01*
X150799000Y-107810000D02*
X152960000Y-107810000D01*
X150805000Y-107770000D02*
X152960000Y-107770000D01*
X150811000Y-107730000D02*
X152960000Y-107730000D01*
X150818000Y-107690000D02*
X152960000Y-107690000D01*
X150825000Y-107650000D02*
X152960000Y-107650000D01*
X150833000Y-107610000D02*
X152960000Y-107610000D01*
X150841000Y-107570000D02*
X152960000Y-107570000D01*
X150850000Y-107529000D02*
X152960000Y-107529000D01*
X150859000Y-107489000D02*
X152960000Y-107489000D01*
X150869000Y-107449000D02*
X152960000Y-107449000D01*
X150879000Y-107409000D02*
X152960000Y-107409000D01*
X150890000Y-107369000D02*
X152960000Y-107369000D01*
X150902000Y-107329000D02*
X152960000Y-107329000D01*
X150914000Y-107289000D02*
X152960000Y-107289000D01*
X150926000Y-107249000D02*
X152960000Y-107249000D01*
X150939000Y-107209000D02*
X152960000Y-107209000D01*
X150953000Y-107169000D02*
X152960000Y-107169000D01*
X150967000Y-107129000D02*
X152960000Y-107129000D01*
X150982000Y-107089000D02*
X152960000Y-107089000D01*
X150998000Y-107049000D02*
X152960000Y-107049000D01*
X151014000Y-107009000D02*
X152960000Y-107009000D01*
X151030000Y-106969000D02*
X152960000Y-106969000D01*
X151048000Y-106929000D02*
X152960000Y-106929000D01*
X151066000Y-106889000D02*
X152960000Y-106889000D01*
X151084000Y-106849000D02*
X152960000Y-106849000D01*
X151104000Y-106809000D02*
X152960000Y-106809000D01*
X151124000Y-106769000D02*
X152960000Y-106769000D01*
X151144000Y-106729000D02*
X152960000Y-106729000D01*
X151166000Y-106689000D02*
X152960000Y-106689000D01*
X151188000Y-106649000D02*
X152960000Y-106649000D01*
X151210000Y-106609000D02*
X152960000Y-106609000D01*
X151234000Y-106569000D02*
X152960000Y-106569000D01*
X151258000Y-106529000D02*
X152960000Y-106529000D01*
X151284000Y-106489000D02*
X152960000Y-106489000D01*
X151310000Y-106449000D02*
X152960000Y-106449000D01*
X151336000Y-106409000D02*
X152960000Y-106409000D01*
X151364000Y-106369000D02*
X152960000Y-106369000D01*
X151393000Y-106329000D02*
X152960000Y-106329000D01*
X151422000Y-106289000D02*
X152960000Y-106289000D01*
X151452000Y-106249000D02*
X152960000Y-106249000D01*
X151484000Y-106209000D02*
X152960000Y-106209000D01*
X151516000Y-106169000D02*
X152960000Y-106169000D01*
X151550000Y-106129000D02*
X152960000Y-106129000D01*
X151584000Y-106089000D02*
X152960000Y-106089000D01*
X151620000Y-106049000D02*
X152960000Y-106049000D01*
X151657000Y-106009000D02*
X152960000Y-106009000D01*
X151695000Y-105969000D02*
X152960000Y-105969000D01*
X151735000Y-105929000D02*
X156265000Y-105929000D01*
X151776000Y-105889000D02*
X156224000Y-105889000D01*
X151818000Y-105849000D02*
X156182000Y-105849000D01*
X151846000Y-111435241D02*
X152476000Y-111435241D01*
X151863000Y-105809000D02*
X156137000Y-105809000D01*
X151908000Y-105769000D02*
X156092000Y-105769000D01*
X151956000Y-105729000D02*
X156044000Y-105729000D01*
X152005000Y-105689000D02*
X155995000Y-105689000D01*
X152056000Y-105649000D02*
X155944000Y-105649000D01*
X152110000Y-105609000D02*
X155890000Y-105609000D01*
X152161000Y-111750241D02*
X152161000Y-111120241D01*
X152166000Y-105569000D02*
X155834000Y-105569000D01*
X152224000Y-105529000D02*
X155776000Y-105529000D01*
X152286000Y-105489000D02*
X155714000Y-105489000D01*
X152350000Y-105449000D02*
X155650000Y-105449000D01*
X152419000Y-105409000D02*
X155581000Y-105409000D01*
X152491000Y-105369000D02*
X155509000Y-105369000D01*
X152568000Y-105329000D02*
X155432000Y-105329000D01*
X152650000Y-105289000D02*
X155350000Y-105289000D01*
X152738000Y-105249000D02*
X155262000Y-105249000D01*
X152835000Y-105209000D02*
X155165000Y-105209000D01*
X152941000Y-105169000D02*
X155059000Y-105169000D01*
X153060000Y-105129000D02*
X154940000Y-105129000D01*
X153198000Y-105089000D02*
X154802000Y-105089000D01*
X153367000Y-105049000D02*
X154633000Y-105049000D01*
X153598000Y-105009000D02*
X154402000Y-105009000D01*
X155040000Y-105969000D02*
X156305000Y-105969000D01*
X155040000Y-106009000D02*
X156343000Y-106009000D01*
X155040000Y-106049000D02*
X156380000Y-106049000D01*
X155040000Y-106089000D02*
X156416000Y-106089000D01*
X155040000Y-106129000D02*
X156450000Y-106129000D01*
X155040000Y-106169000D02*
X156484000Y-106169000D01*
X155040000Y-106209000D02*
X156516000Y-106209000D01*
X155040000Y-106249000D02*
X156548000Y-106249000D01*
X155040000Y-106289000D02*
X156578000Y-106289000D01*
X155040000Y-106329000D02*
X156607000Y-106329000D01*
X155040000Y-106369000D02*
X156636000Y-106369000D01*
X155040000Y-106409000D02*
X156664000Y-106409000D01*
X155040000Y-106449000D02*
X156690000Y-106449000D01*
X155040000Y-106489000D02*
X156716000Y-106489000D01*
X155040000Y-106529000D02*
X156742000Y-106529000D01*
X155040000Y-106569000D02*
X156766000Y-106569000D01*
X155040000Y-106609000D02*
X156790000Y-106609000D01*
X155040000Y-106649000D02*
X156812000Y-106649000D01*
X155040000Y-106689000D02*
X156834000Y-106689000D01*
X155040000Y-106729000D02*
X156856000Y-106729000D01*
X155040000Y-106769000D02*
X156876000Y-106769000D01*
X155040000Y-106809000D02*
X156896000Y-106809000D01*
X155040000Y-106849000D02*
X156916000Y-106849000D01*
X155040000Y-106889000D02*
X156934000Y-106889000D01*
X155040000Y-106929000D02*
X156952000Y-106929000D01*
X155040000Y-106969000D02*
X156970000Y-106969000D01*
X155040000Y-107009000D02*
X156986000Y-107009000D01*
X155040000Y-107049000D02*
X157002000Y-107049000D01*
X155040000Y-107089000D02*
X157018000Y-107089000D01*
X155040000Y-107129000D02*
X157033000Y-107129000D01*
X155040000Y-107169000D02*
X157047000Y-107169000D01*
X155040000Y-107209000D02*
X157061000Y-107209000D01*
X155040000Y-107249000D02*
X157074000Y-107249000D01*
X155040000Y-107289000D02*
X157086000Y-107289000D01*
X155040000Y-107329000D02*
X157098000Y-107329000D01*
X155040000Y-107369000D02*
X157110000Y-107369000D01*
X155040000Y-107409000D02*
X157121000Y-107409000D01*
X155040000Y-107449000D02*
X157131000Y-107449000D01*
X155040000Y-107489000D02*
X157141000Y-107489000D01*
X155040000Y-107529000D02*
X157150000Y-107529000D01*
X155040000Y-107570000D02*
X157159000Y-107570000D01*
X155040000Y-107610000D02*
X157167000Y-107610000D01*
X155040000Y-107650000D02*
X157175000Y-107650000D01*
X155040000Y-107690000D02*
X157182000Y-107690000D01*
X155040000Y-107730000D02*
X157189000Y-107730000D01*
X155040000Y-107770000D02*
X157195000Y-107770000D01*
X155040000Y-107810000D02*
X157201000Y-107810000D01*
X155040000Y-107850000D02*
X157206000Y-107850000D01*
X155040000Y-107890000D02*
X157211000Y-107890000D01*
X155040000Y-107930000D02*
X157215000Y-107930000D01*
X155040000Y-107970000D02*
X157218000Y-107970000D01*
X155040000Y-108010000D02*
X157222000Y-108010000D01*
X157270000Y-108250000D02*
G75*
G02*
X150730000Y-108250000I-3270000J0D01*
G01*
X150730000Y-108250000D02*
G75*
G02*
X157270000Y-108250000I3270000J0D01*
G01*
%TO.C,J7*%
X219645000Y-129280000D02*
X219645000Y-126680000D01*
X222305000Y-126680000D02*
X219645000Y-126680000D01*
X222305000Y-129280000D02*
X219645000Y-129280000D01*
X222305000Y-129280000D02*
X222305000Y-126680000D01*
X222305000Y-130550000D02*
X222305000Y-131880000D01*
X222305000Y-131880000D02*
X220975000Y-131880000D01*
%TO.C,C13*%
X182671267Y-56765000D02*
X182378733Y-56765000D01*
X182671267Y-57785000D02*
X182378733Y-57785000D01*
%TO.C,M1*%
X143815000Y-111215000D02*
X143815000Y-121335000D01*
X143815000Y-121335000D02*
X149785000Y-121335000D01*
X144575000Y-111975000D02*
X144575000Y-116275000D01*
X144575000Y-120575000D02*
X144575000Y-116275000D01*
X147525000Y-111225000D02*
X147525000Y-111975000D01*
X147525000Y-111975000D02*
X144575000Y-111975000D01*
X147525000Y-120575000D02*
X144575000Y-120575000D01*
X147525000Y-121325000D02*
X147525000Y-120575000D01*
X149025000Y-111225000D02*
X149025000Y-113025000D01*
X149025000Y-113025000D02*
X149775000Y-113025000D01*
X149025000Y-114525000D02*
X149025000Y-118025000D01*
X149025000Y-118025000D02*
X149775000Y-118025000D01*
X149025000Y-119525000D02*
X149025000Y-121325000D01*
X149025000Y-121325000D02*
X149775000Y-121325000D01*
X149775000Y-111225000D02*
X149025000Y-111225000D01*
X149775000Y-113025000D02*
X149775000Y-111225000D01*
X149775000Y-114525000D02*
X149025000Y-114525000D01*
X149775000Y-118025000D02*
X149775000Y-114525000D01*
X149775000Y-119525000D02*
X149025000Y-119525000D01*
X149775000Y-121325000D02*
X149775000Y-119525000D01*
X149785000Y-111215000D02*
X143815000Y-111215000D01*
X149785000Y-121335000D02*
X149785000Y-111215000D01*
X150075000Y-110925000D02*
X148825000Y-110925000D01*
X150075000Y-112175000D02*
X150075000Y-110925000D01*
%TO.C,U12*%
X160160000Y-93920000D02*
X160160000Y-119379999D01*
X160160000Y-119379999D02*
X190700000Y-119380000D01*
X170340001Y-93920000D02*
X160160000Y-93920000D01*
X170340001Y-94280000D02*
X170340001Y-93920000D01*
X180520000Y-93920000D02*
X180520000Y-94280000D01*
X180520000Y-94280000D02*
X170340001Y-94280000D01*
X190700000Y-93920001D02*
X180520000Y-93920000D01*
X190700000Y-119380000D02*
X190700000Y-93920001D01*
%TD*%
D17*
%TO.C,U6*%
X213015000Y-56275000D03*
X210475000Y-56275000D03*
X207935000Y-56275000D03*
X205395000Y-56275000D03*
X202855000Y-56275000D03*
%TD*%
%TO.C,U1*%
X214025000Y-133505000D03*
X211485000Y-133505000D03*
X208945000Y-133505000D03*
X206405000Y-133505000D03*
X203865000Y-133505000D03*
X201325000Y-133505000D03*
X211485000Y-116045000D03*
X208945000Y-116045000D03*
X206405000Y-116045000D03*
X203865000Y-116045000D03*
%TD*%
%LPC*%
D18*
%TO.C,R14*%
X183562500Y-99775000D03*
X185387500Y-99775000D03*
%TD*%
D19*
%TO.C,SW1*%
X213435000Y-122775000D03*
D20*
X210895000Y-122775000D03*
X215975000Y-122775000D03*
%TD*%
D21*
%TO.C,R12*%
X159387500Y-85275000D03*
X157562500Y-85275000D03*
%TD*%
D22*
%TO.C,U7*%
X157512500Y-88335000D03*
D23*
X160052500Y-88335000D03*
X157512500Y-90875000D03*
X160052500Y-90875000D03*
%TD*%
D24*
%TO.C,D3*%
X174000000Y-90550000D03*
D25*
X174000000Y-88010000D03*
%TD*%
D26*
%TO.C,C5*%
X197562500Y-74255000D03*
X199287500Y-74255000D03*
%TD*%
D21*
%TO.C,R3*%
X192387500Y-122775000D03*
X190562500Y-122775000D03*
%TD*%
D24*
%TO.C,D2*%
X179500000Y-90550000D03*
D25*
X179500000Y-88010000D03*
%TD*%
D27*
%TO.C,U10*%
X179725000Y-125825000D03*
D28*
X182225000Y-125825000D03*
%TD*%
D29*
%TO.C,SW2*%
X205750000Y-129750000D03*
X199250000Y-129750000D03*
X205750000Y-125250000D03*
X199250000Y-125250000D03*
%TD*%
D18*
%TO.C,R8*%
X181612500Y-59775000D03*
X183437500Y-59775000D03*
%TD*%
D30*
%TO.C,J4*%
X186475000Y-58275000D03*
D31*
X186475000Y-56275000D03*
%TD*%
D18*
%TO.C,R11*%
X185062500Y-88775000D03*
X186887500Y-88775000D03*
%TD*%
D32*
%TO.C,R1*%
X200975000Y-84862500D03*
X200975000Y-86687500D03*
%TD*%
D33*
%TO.C,C11*%
X183387500Y-61775000D03*
X181662500Y-61775000D03*
%TD*%
D22*
%TO.C,J6*%
X95275000Y-127900000D03*
D23*
X92735000Y-127900000D03*
X90195000Y-127900000D03*
X87655000Y-127900000D03*
%TD*%
D33*
%TO.C,C15*%
X184925000Y-67320250D03*
X183200000Y-67320250D03*
%TD*%
%TO.C,C3*%
X201337500Y-60775000D03*
X199612500Y-60775000D03*
%TD*%
D34*
%TO.C,U11*%
X219500000Y-116630000D03*
X219500000Y-58630000D03*
X196500000Y-116630000D03*
X196500000Y-58630000D03*
D22*
X218230000Y-111760000D03*
D23*
X220770000Y-111760000D03*
X218230000Y-109220000D03*
X220770000Y-109220000D03*
X218230000Y-106680000D03*
X220770000Y-106680000D03*
X218230000Y-104140000D03*
X220770000Y-104140000D03*
X218230000Y-101600000D03*
X220770000Y-101600000D03*
X218230000Y-99060000D03*
X220770000Y-99060000D03*
X218230000Y-96520000D03*
X220770000Y-96520000D03*
X218230000Y-93980000D03*
X220770000Y-93980000D03*
X218230000Y-91440000D03*
X220770000Y-91440000D03*
X218230000Y-88900000D03*
X220770000Y-88900000D03*
X218230000Y-86360000D03*
X220770000Y-86360000D03*
X218230000Y-83820000D03*
X220770000Y-83820000D03*
X218230000Y-81280000D03*
X220770000Y-81280000D03*
X218230000Y-78740000D03*
X220770000Y-78740000D03*
X218230000Y-76200000D03*
X220770000Y-76200000D03*
X218230000Y-73660000D03*
X220770000Y-73660000D03*
X218230000Y-71120000D03*
X220770000Y-71120000D03*
X218230000Y-68580000D03*
X220770000Y-68580000D03*
X218230000Y-66040000D03*
X220770000Y-66040000D03*
X218230000Y-63500000D03*
X220770000Y-63500000D03*
%TD*%
D33*
%TO.C,C12*%
X183387500Y-55275000D03*
X181662500Y-55275000D03*
%TD*%
%TO.C,C4*%
X213200000Y-59775000D03*
X211475000Y-59775000D03*
%TD*%
D18*
%TO.C,R13*%
X155487500Y-94000000D03*
X157312500Y-94000000D03*
%TD*%
D35*
%TO.C,J3*%
X172937500Y-54830000D03*
X172937500Y-56100000D03*
X172937500Y-57370000D03*
X172937500Y-58640000D03*
X172937500Y-59910000D03*
X172937500Y-61180000D03*
X172937500Y-62450000D03*
X172937500Y-63720000D03*
X179112500Y-63720000D03*
X179112500Y-62450000D03*
X179112500Y-61180000D03*
X179112500Y-59910000D03*
X179112500Y-58640000D03*
X179112500Y-57370000D03*
X179112500Y-56100000D03*
X179112500Y-54830000D03*
%TD*%
D22*
%TO.C,U2*%
X165975000Y-55695000D03*
D23*
X165975000Y-58235000D03*
X165975000Y-60775000D03*
X165975000Y-63315000D03*
%TD*%
D36*
%TO.C,Q1*%
X192230000Y-125650000D03*
X189950000Y-125650000D03*
D37*
X189950000Y-131950000D03*
D36*
X187670000Y-125650000D03*
%TD*%
D21*
%TO.C,R15*%
X185300000Y-97275000D03*
X183475000Y-97275000D03*
%TD*%
D18*
%TO.C,R10*%
X185150000Y-85320250D03*
X186975000Y-85320250D03*
%TD*%
D32*
%TO.C,R6*%
X211475000Y-84862500D03*
X211475000Y-86687500D03*
%TD*%
D21*
%TO.C,R2*%
X188387500Y-122775000D03*
X186562500Y-122775000D03*
%TD*%
D38*
%TO.C,C14*%
X176025000Y-67320250D03*
X178100000Y-67320250D03*
%TD*%
D18*
%TO.C,R7*%
X181612500Y-64275000D03*
X183437500Y-64275000D03*
%TD*%
D21*
%TO.C,R9*%
X218387500Y-128010000D03*
X216562500Y-128010000D03*
%TD*%
D18*
%TO.C,R4*%
X211062500Y-126275000D03*
X212887500Y-126275000D03*
%TD*%
D39*
%TO.C,MD1*%
X173724750Y-76775000D03*
D40*
X175975000Y-72275000D03*
D41*
X176046000Y-72203000D03*
D42*
X176582125Y-71275000D03*
D43*
X179475000Y-71275000D03*
D40*
X180475000Y-72275000D03*
D41*
X180618000Y-72203000D03*
D44*
X181760750Y-71275000D03*
D45*
X184047000Y-73346000D03*
D40*
X184225000Y-73525000D03*
D46*
X185100125Y-72275000D03*
D39*
X185225250Y-76775000D03*
X185225250Y-81347000D03*
D47*
X179475000Y-82525250D03*
X177189000Y-82525250D03*
D39*
X173724750Y-81347000D03*
X173724750Y-79061000D03*
X185225250Y-79061000D03*
D47*
X181761000Y-82525250D03*
%TD*%
D48*
%TO.C,C2*%
X169475000Y-55412500D03*
X169475000Y-57137500D03*
%TD*%
D17*
%TO.C,U6*%
X213015000Y-56275000D03*
X210475000Y-56275000D03*
X207935000Y-56275000D03*
X205395000Y-56275000D03*
X202855000Y-56275000D03*
%TD*%
D26*
%TO.C,C10*%
X203752500Y-121480000D03*
X205477500Y-121480000D03*
%TD*%
%TO.C,C1*%
X212112500Y-129775000D03*
X213837500Y-129775000D03*
%TD*%
D49*
%TO.C,U4*%
X197850000Y-67870000D03*
X197850000Y-69140000D03*
X197850000Y-70410000D03*
X197850000Y-71680000D03*
X203100000Y-71680000D03*
X203100000Y-70410000D03*
X203100000Y-69140000D03*
X203100000Y-67870000D03*
%TD*%
D24*
%TO.C,D1*%
X168375000Y-90550000D03*
D25*
X168375000Y-88010000D03*
%TD*%
D50*
%TO.C,C9*%
X154000000Y-109500000D03*
D20*
X154000000Y-107000000D03*
%TD*%
D22*
%TO.C,J7*%
X220975000Y-130550000D03*
D23*
X220975000Y-128010000D03*
%TD*%
D33*
%TO.C,C13*%
X183387500Y-57275000D03*
X181662500Y-57275000D03*
%TD*%
D51*
%TO.C,M1*%
X147325000Y-113775000D03*
D52*
X147325000Y-116275000D03*
X147325000Y-118775000D03*
%TD*%
D20*
%TO.C,U12*%
X161460000Y-95220000D03*
X161460000Y-97760000D03*
X161460000Y-100300000D03*
X161460000Y-102840000D03*
X161460000Y-105380000D03*
X161460000Y-107920000D03*
X161460000Y-110460000D03*
X161460000Y-113000000D03*
X161460000Y-115540000D03*
X161460000Y-118080000D03*
X189400000Y-118080000D03*
X189400000Y-115540000D03*
X189400000Y-113000000D03*
X189400000Y-110460000D03*
X189400000Y-107920000D03*
X189400000Y-105380000D03*
X189400000Y-102840000D03*
X189400000Y-100300000D03*
X189400000Y-97760000D03*
X189400000Y-95220000D03*
%TD*%
D53*
%TO.C,J1*%
X161000000Y-131500000D03*
D54*
X163500000Y-131500000D03*
X166000000Y-131500000D03*
X168500000Y-131500000D03*
X171000000Y-131500000D03*
X173500000Y-131500000D03*
%TD*%
D53*
%TO.C,J2*%
X142000000Y-131500000D03*
D54*
X144500000Y-131500000D03*
X147000000Y-131500000D03*
X149500000Y-131500000D03*
X152000000Y-131500000D03*
X154500000Y-131500000D03*
%TD*%
D17*
%TO.C,U1*%
X214025000Y-133505000D03*
X211485000Y-133505000D03*
X208945000Y-133505000D03*
X206405000Y-133505000D03*
X203865000Y-133505000D03*
X201325000Y-133505000D03*
X211485000Y-116045000D03*
X208945000Y-116045000D03*
X206405000Y-116045000D03*
X203865000Y-116045000D03*
%TD*%
D55*
%TO.C,U3*%
X198630000Y-63120000D03*
X199900000Y-63120000D03*
X201170000Y-63120000D03*
X202440000Y-63120000D03*
X203710000Y-63120000D03*
X204980000Y-63120000D03*
X206250000Y-63120000D03*
X207520000Y-63120000D03*
X208790000Y-63120000D03*
X210060000Y-63120000D03*
X211330000Y-63120000D03*
X212600000Y-63120000D03*
X213870000Y-63120000D03*
X213870000Y-82620000D03*
X212600000Y-82620000D03*
X211330000Y-82620000D03*
X210060000Y-82620000D03*
X208790000Y-82620000D03*
X207520000Y-82620000D03*
X206250000Y-82620000D03*
X204980000Y-82620000D03*
X203710000Y-82620000D03*
X202440000Y-82620000D03*
X201170000Y-82620000D03*
X199900000Y-82620000D03*
X198630000Y-82620000D03*
%TD*%
D56*
%TO.C,J5*%
X169000000Y-82000000D03*
D57*
X169000000Y-77000000D03*
%TD*%
%LPD*%
M02*
