ISO-10303-21;
HEADER;
FILE_DESCRIPTION(('AMASS_XT30U-M_1x02_P5.0mm_Vertical'),'2;1');
FILE_NAME('AMASS_XT30U-M_1x02_P5.0mm_Vertical','2026-05-18T00:00:00',('Codex'),(''),'','', '');
FILE_SCHEMA(('AUTOMOTIVE_DESIGN_CC2 { 1 2 10303 214 3 1 1 }'));
ENDSEC;
DATA;
#1=APPLICATION_CONTEXT('automotive_design');
#2=APPLICATION_PROTOCOL_DEFINITION('international standard','automotive_design',2000,#1);
#3=PRODUCT_CONTEXT('',#1,'mechanical');
#4=PRODUCT('AMASS_XT30U-M_1x02_P5.0mm_Vertical','AMASS_XT30U-M_1x02_P5.0mm_Vertical','', (#3));
#5=PRODUCT_DEFINITION_FORMATION_WITH_SPECIFIED_SOURCE('','',#4,.NOT_KNOWN.);
#6=PRODUCT_DEFINITION_CONTEXT('part definition',#1,'design');
#7=PRODUCT_DEFINITION('design','',#5,#6);
#8=PRODUCT_DEFINITION_SHAPE('','',#7);
#9=(LENGTH_UNIT()NAMED_UNIT(*)SI_UNIT(.MILLI.,.METRE.));
#10=(NAMED_UNIT(*)PLANE_ANGLE_UNIT()SI_UNIT($,.RADIAN.));
#11=(NAMED_UNIT(*)SI_UNIT($,.STERADIAN.)SOLID_ANGLE_UNIT());
#12=UNCERTAINTY_MEASURE_WITH_UNIT(LENGTH_MEASURE(1.E-05),#9,'distance_accuracy_value','confusion accuracy');
#13=(GEOMETRIC_REPRESENTATION_CONTEXT(3) GLOBAL_UNCERTAINTY_ASSIGNED_CONTEXT((#12)) GLOBAL_UNIT_ASSIGNED_CONTEXT((#9,#10,#11)) REPRESENTATION_CONTEXT('','3D'));
#14=CARTESIAN_POINT('',(-2.250000,-8.450000,0.000000));
#15=CARTESIAN_POINT('',(-2.250000,-8.450000,8.400000));
#16=CARTESIAN_POINT('',(-2.250000,2.050000,0.000000));
#17=CARTESIAN_POINT('',(-2.250000,2.050000,8.400000));
#18=CARTESIAN_POINT('',(7.250000,-8.450000,0.000000));
#19=CARTESIAN_POINT('',(7.250000,-8.450000,8.400000));
#20=CARTESIAN_POINT('',(7.250000,2.050000,0.000000));
#21=CARTESIAN_POINT('',(7.250000,2.050000,8.400000));
#22=POLY_LOOP('',(#15,#19,#21,#17));
#23=FACE_OUTER_BOUND('',#22,.T.);
#24=CARTESIAN_POINT('',(2.500000,-3.200000,8.400000));
#25=DIRECTION('',(0.000000,0.000000,1.000000));
#26=DIRECTION('',(1.000000,0.000000,0.000000));
#27=AXIS2_PLACEMENT_3D('',#24,#25,#26);
#28=PLANE('',#27);
#29=ADVANCED_FACE('',(#23),#28,.T.);
#30=POLY_LOOP('',(#14,#16,#20,#18));
#31=FACE_OUTER_BOUND('',#30,.T.);
#32=CARTESIAN_POINT('',(2.500000,-3.200000,0.000000));
#33=DIRECTION('',(0.000000,0.000000,-1.000000));
#34=DIRECTION('',(1.000000,0.000000,0.000000));
#35=AXIS2_PLACEMENT_3D('',#32,#33,#34);
#36=PLANE('',#35);
#37=ADVANCED_FACE('',(#31),#36,.T.);
#38=POLY_LOOP('',(#16,#17,#21,#20));
#39=FACE_OUTER_BOUND('',#38,.T.);
#40=CARTESIAN_POINT('',(2.500000,2.050000,4.200000));
#41=DIRECTION('',(0.000000,1.000000,0.000000));
#42=DIRECTION('',(1.000000,0.000000,0.000000));
#43=AXIS2_PLACEMENT_3D('',#40,#41,#42);
#44=PLANE('',#43);
#45=ADVANCED_FACE('',(#39),#44,.T.);
#46=POLY_LOOP('',(#14,#18,#19,#15));
#47=FACE_OUTER_BOUND('',#46,.T.);
#48=CARTESIAN_POINT('',(2.500000,-8.450000,4.200000));
#49=DIRECTION('',(0.000000,-1.000000,0.000000));
#50=DIRECTION('',(1.000000,0.000000,0.000000));
#51=AXIS2_PLACEMENT_3D('',#48,#49,#50);
#52=PLANE('',#51);
#53=ADVANCED_FACE('',(#47),#52,.T.);
#54=POLY_LOOP('',(#18,#20,#21,#19));
#55=FACE_OUTER_BOUND('',#54,.T.);
#56=CARTESIAN_POINT('',(7.250000,-3.200000,4.200000));
#57=DIRECTION('',(1.000000,0.000000,0.000000));
#58=DIRECTION('',(0.000000,1.000000,0.000000));
#59=AXIS2_PLACEMENT_3D('',#56,#57,#58);
#60=PLANE('',#59);
#61=ADVANCED_FACE('',(#55),#60,.T.);
#62=POLY_LOOP('',(#14,#15,#17,#16));
#63=FACE_OUTER_BOUND('',#62,.T.);
#64=CARTESIAN_POINT('',(-2.250000,-3.200000,4.200000));
#65=DIRECTION('',(-1.000000,0.000000,0.000000));
#66=DIRECTION('',(0.000000,1.000000,0.000000));
#67=AXIS2_PLACEMENT_3D('',#64,#65,#66);
#68=PLANE('',#67);
#69=ADVANCED_FACE('',(#63),#68,.T.);
#70=CLOSED_SHELL('',(#29,#37,#45,#53,#61,#69));
#71=MANIFOLD_SOLID_BREP('xt30_body',#70);
#72=CARTESIAN_POINT('',(-0.800000,-0.800000,-0.900000));
#73=CARTESIAN_POINT('',(-0.800000,-0.800000,4.300000));
#74=CARTESIAN_POINT('',(-0.800000,0.800000,-0.900000));
#75=CARTESIAN_POINT('',(-0.800000,0.800000,4.300000));
#76=CARTESIAN_POINT('',(0.800000,-0.800000,-0.900000));
#77=CARTESIAN_POINT('',(0.800000,-0.800000,4.300000));
#78=CARTESIAN_POINT('',(0.800000,0.800000,-0.900000));
#79=CARTESIAN_POINT('',(0.800000,0.800000,4.300000));
#80=POLY_LOOP('',(#73,#77,#79,#75));
#81=FACE_OUTER_BOUND('',#80,.T.);
#82=CARTESIAN_POINT('',(0.000000,0.000000,4.300000));
#83=DIRECTION('',(0.000000,0.000000,1.000000));
#84=DIRECTION('',(1.000000,0.000000,0.000000));
#85=AXIS2_PLACEMENT_3D('',#82,#83,#84);
#86=PLANE('',#85);
#87=ADVANCED_FACE('',(#81),#86,.T.);
#88=POLY_LOOP('',(#72,#74,#78,#76));
#89=FACE_OUTER_BOUND('',#88,.T.);
#90=CARTESIAN_POINT('',(0.000000,0.000000,-0.900000));
#91=DIRECTION('',(0.000000,0.000000,-1.000000));
#92=DIRECTION('',(1.000000,0.000000,0.000000));
#93=AXIS2_PLACEMENT_3D('',#90,#91,#92);
#94=PLANE('',#93);
#95=ADVANCED_FACE('',(#89),#94,.T.);
#96=POLY_LOOP('',(#74,#75,#79,#78));
#97=FACE_OUTER_BOUND('',#96,.T.);
#98=CARTESIAN_POINT('',(0.000000,0.800000,1.700000));
#99=DIRECTION('',(0.000000,1.000000,0.000000));
#100=DIRECTION('',(1.000000,0.000000,0.000000));
#101=AXIS2_PLACEMENT_3D('',#98,#99,#100);
#102=PLANE('',#101);
#103=ADVANCED_FACE('',(#97),#102,.T.);
#104=POLY_LOOP('',(#72,#76,#77,#73));
#105=FACE_OUTER_BOUND('',#104,.T.);
#106=CARTESIAN_POINT('',(0.000000,-0.800000,1.700000));
#107=DIRECTION('',(0.000000,-1.000000,0.000000));
#108=DIRECTION('',(1.000000,0.000000,0.000000));
#109=AXIS2_PLACEMENT_3D('',#106,#107,#108);
#110=PLANE('',#109);
#111=ADVANCED_FACE('',(#105),#110,.T.);
#112=POLY_LOOP('',(#76,#78,#79,#77));
#113=FACE_OUTER_BOUND('',#112,.T.);
#114=CARTESIAN_POINT('',(0.800000,0.000000,1.700000));
#115=DIRECTION('',(1.000000,0.000000,0.000000));
#116=DIRECTION('',(0.000000,1.000000,0.000000));
#117=AXIS2_PLACEMENT_3D('',#114,#115,#116);
#118=PLANE('',#117);
#119=ADVANCED_FACE('',(#113),#118,.T.);
#120=POLY_LOOP('',(#72,#73,#75,#74));
#121=FACE_OUTER_BOUND('',#120,.T.);
#122=CARTESIAN_POINT('',(-0.800000,0.000000,1.700000));
#123=DIRECTION('',(-1.000000,0.000000,0.000000));
#124=DIRECTION('',(0.000000,1.000000,0.000000));
#125=AXIS2_PLACEMENT_3D('',#122,#123,#124);
#126=PLANE('',#125);
#127=ADVANCED_FACE('',(#121),#126,.T.);
#128=CLOSED_SHELL('',(#87,#95,#103,#111,#119,#127));
#129=MANIFOLD_SOLID_BREP('pin_1',#128);
#130=CARTESIAN_POINT('',(4.200000,-0.800000,-0.900000));
#131=CARTESIAN_POINT('',(4.200000,-0.800000,4.300000));
#132=CARTESIAN_POINT('',(4.200000,0.800000,-0.900000));
#133=CARTESIAN_POINT('',(4.200000,0.800000,4.300000));
#134=CARTESIAN_POINT('',(5.800000,-0.800000,-0.900000));
#135=CARTESIAN_POINT('',(5.800000,-0.800000,4.300000));
#136=CARTESIAN_POINT('',(5.800000,0.800000,-0.900000));
#137=CARTESIAN_POINT('',(5.800000,0.800000,4.300000));
#138=POLY_LOOP('',(#131,#135,#137,#133));
#139=FACE_OUTER_BOUND('',#138,.T.);
#140=CARTESIAN_POINT('',(5.000000,0.000000,4.300000));
#141=DIRECTION('',(0.000000,0.000000,1.000000));
#142=DIRECTION('',(1.000000,0.000000,0.000000));
#143=AXIS2_PLACEMENT_3D('',#140,#141,#142);
#144=PLANE('',#143);
#145=ADVANCED_FACE('',(#139),#144,.T.);
#146=POLY_LOOP('',(#130,#132,#136,#134));
#147=FACE_OUTER_BOUND('',#146,.T.);
#148=CARTESIAN_POINT('',(5.000000,0.000000,-0.900000));
#149=DIRECTION('',(0.000000,0.000000,-1.000000));
#150=DIRECTION('',(1.000000,0.000000,0.000000));
#151=AXIS2_PLACEMENT_3D('',#148,#149,#150);
#152=PLANE('',#151);
#153=ADVANCED_FACE('',(#147),#152,.T.);
#154=POLY_LOOP('',(#132,#133,#137,#136));
#155=FACE_OUTER_BOUND('',#154,.T.);
#156=CARTESIAN_POINT('',(5.000000,0.800000,1.700000));
#157=DIRECTION('',(0.000000,1.000000,0.000000));
#158=DIRECTION('',(1.000000,0.000000,0.000000));
#159=AXIS2_PLACEMENT_3D('',#156,#157,#158);
#160=PLANE('',#159);
#161=ADVANCED_FACE('',(#155),#160,.T.);
#162=POLY_LOOP('',(#130,#134,#135,#131));
#163=FACE_OUTER_BOUND('',#162,.T.);
#164=CARTESIAN_POINT('',(5.000000,-0.800000,1.700000));
#165=DIRECTION('',(0.000000,-1.000000,0.000000));
#166=DIRECTION('',(1.000000,0.000000,0.000000));
#167=AXIS2_PLACEMENT_3D('',#164,#165,#166);
#168=PLANE('',#167);
#169=ADVANCED_FACE('',(#163),#168,.T.);
#170=POLY_LOOP('',(#134,#136,#137,#135));
#171=FACE_OUTER_BOUND('',#170,.T.);
#172=CARTESIAN_POINT('',(5.800000,0.000000,1.700000));
#173=DIRECTION('',(1.000000,0.000000,0.000000));
#174=DIRECTION('',(0.000000,1.000000,0.000000));
#175=AXIS2_PLACEMENT_3D('',#172,#173,#174);
#176=PLANE('',#175);
#177=ADVANCED_FACE('',(#171),#176,.T.);
#178=POLY_LOOP('',(#130,#131,#133,#132));
#179=FACE_OUTER_BOUND('',#178,.T.);
#180=CARTESIAN_POINT('',(4.200000,0.000000,1.700000));
#181=DIRECTION('',(-1.000000,0.000000,0.000000));
#182=DIRECTION('',(0.000000,1.000000,0.000000));
#183=AXIS2_PLACEMENT_3D('',#180,#181,#182);
#184=PLANE('',#183);
#185=ADVANCED_FACE('',(#179),#184,.T.);
#186=CLOSED_SHELL('',(#145,#153,#161,#169,#177,#185));
#187=MANIFOLD_SOLID_BREP('pin_2',#186);
#188=SHAPE_REPRESENTATION('',(#71,#129,#187),#13);
#189=SHAPE_DEFINITION_REPRESENTATION(#8,#188);
ENDSEC;
END-ISO-10303-21;
