ISO-10303-21;
HEADER;
FILE_DESCRIPTION(('Murata_OKL-T-6-W12N-C'),'2;1');
FILE_NAME('Murata_OKL-T-6-W12N-C','2026-05-18T00:00:00',('Codex'),(''),'','', '');
FILE_SCHEMA(('AUTOMOTIVE_DESIGN_CC2 { 1 2 10303 214 3 1 1 }'));
ENDSEC;
DATA;
#1=APPLICATION_CONTEXT('automotive_design');
#2=APPLICATION_PROTOCOL_DEFINITION('international standard','automotive_design',2000,#1);
#3=PRODUCT_CONTEXT('',#1,'mechanical');
#4=PRODUCT('Murata_OKL-T-6-W12N-C','Murata_OKL-T-6-W12N-C','', (#3));
#5=PRODUCT_DEFINITION_FORMATION_WITH_SPECIFIED_SOURCE('','',#4,.NOT_KNOWN.);
#6=PRODUCT_DEFINITION_CONTEXT('part definition',#1,'design');
#7=PRODUCT_DEFINITION('design','',#5,#6);
#8=PRODUCT_DEFINITION_SHAPE('','',#7);
#9=(LENGTH_UNIT()NAMED_UNIT(*)SI_UNIT(.MILLI.,.METRE.));
#10=(NAMED_UNIT(*)PLANE_ANGLE_UNIT()SI_UNIT($,.RADIAN.));
#11=(NAMED_UNIT(*)SI_UNIT($,.STERADIAN.)SOLID_ANGLE_UNIT());
#12=UNCERTAINTY_MEASURE_WITH_UNIT(LENGTH_MEASURE(1.E-05),#9,'distance_accuracy_value','confusion accuracy');
#13=(GEOMETRIC_REPRESENTATION_CONTEXT(3) GLOBAL_UNCERTAINTY_ASSIGNED_CONTEXT((#12)) GLOBAL_UNIT_ASSIGNED_CONTEXT((#9,#10,#11)) REPRESENTATION_CONTEXT('','3D'));
#14=CARTESIAN_POINT('',(-1.760000,-1.520000,0.250000));
#15=CARTESIAN_POINT('',(-1.760000,-1.520000,1.850000));
#16=CARTESIAN_POINT('',(-1.760000,11.680000,0.250000));
#17=CARTESIAN_POINT('',(-1.760000,11.680000,1.850000));
#18=CARTESIAN_POINT('',(8.740000,-1.520000,0.250000));
#19=CARTESIAN_POINT('',(8.740000,-1.520000,1.850000));
#20=CARTESIAN_POINT('',(8.740000,11.680000,0.250000));
#21=CARTESIAN_POINT('',(8.740000,11.680000,1.850000));
#22=POLY_LOOP('',(#15,#19,#21,#17));
#23=FACE_OUTER_BOUND('',#22,.T.);
#24=CARTESIAN_POINT('',(3.490000,5.080000,1.850000));
#25=DIRECTION('',(0.000000,0.000000,1.000000));
#26=DIRECTION('',(1.000000,0.000000,0.000000));
#27=AXIS2_PLACEMENT_3D('',#24,#25,#26);
#28=PLANE('',#27);
#29=ADVANCED_FACE('',(#23),#28,.T.);
#30=POLY_LOOP('',(#14,#16,#20,#18));
#31=FACE_OUTER_BOUND('',#30,.T.);
#32=CARTESIAN_POINT('',(3.490000,5.080000,0.250000));
#33=DIRECTION('',(0.000000,0.000000,-1.000000));
#34=DIRECTION('',(1.000000,0.000000,0.000000));
#35=AXIS2_PLACEMENT_3D('',#32,#33,#34);
#36=PLANE('',#35);
#37=ADVANCED_FACE('',(#31),#36,.T.);
#38=POLY_LOOP('',(#16,#17,#21,#20));
#39=FACE_OUTER_BOUND('',#38,.T.);
#40=CARTESIAN_POINT('',(3.490000,11.680000,1.050000));
#41=DIRECTION('',(0.000000,1.000000,0.000000));
#42=DIRECTION('',(1.000000,0.000000,0.000000));
#43=AXIS2_PLACEMENT_3D('',#40,#41,#42);
#44=PLANE('',#43);
#45=ADVANCED_FACE('',(#39),#44,.T.);
#46=POLY_LOOP('',(#14,#18,#19,#15));
#47=FACE_OUTER_BOUND('',#46,.T.);
#48=CARTESIAN_POINT('',(3.490000,-1.520000,1.050000));
#49=DIRECTION('',(0.000000,-1.000000,0.000000));
#50=DIRECTION('',(1.000000,0.000000,0.000000));
#51=AXIS2_PLACEMENT_3D('',#48,#49,#50);
#52=PLANE('',#51);
#53=ADVANCED_FACE('',(#47),#52,.T.);
#54=POLY_LOOP('',(#18,#20,#21,#19));
#55=FACE_OUTER_BOUND('',#54,.T.);
#56=CARTESIAN_POINT('',(8.740000,5.080000,1.050000));
#57=DIRECTION('',(1.000000,0.000000,0.000000));
#58=DIRECTION('',(0.000000,1.000000,0.000000));
#59=AXIS2_PLACEMENT_3D('',#56,#57,#58);
#60=PLANE('',#59);
#61=ADVANCED_FACE('',(#55),#60,.T.);
#62=POLY_LOOP('',(#14,#15,#17,#16));
#63=FACE_OUTER_BOUND('',#62,.T.);
#64=CARTESIAN_POINT('',(-1.760000,5.080000,1.050000));
#65=DIRECTION('',(-1.000000,0.000000,0.000000));
#66=DIRECTION('',(0.000000,1.000000,0.000000));
#67=AXIS2_PLACEMENT_3D('',#64,#65,#66);
#68=PLANE('',#67);
#69=ADVANCED_FACE('',(#63),#68,.T.);
#70=CLOSED_SHELL('',(#29,#37,#45,#53,#61,#69));
#71=MANIFOLD_SOLID_BREP('converter_pcb',#70);
#72=CARTESIAN_POINT('',(0.590000,2.200000,1.850000));
#73=CARTESIAN_POINT('',(0.590000,2.200000,6.350000));
#74=CARTESIAN_POINT('',(0.590000,8.000000,1.850000));
#75=CARTESIAN_POINT('',(0.590000,8.000000,6.350000));
#76=CARTESIAN_POINT('',(6.390000,2.200000,1.850000));
#77=CARTESIAN_POINT('',(6.390000,2.200000,6.350000));
#78=CARTESIAN_POINT('',(6.390000,8.000000,1.850000));
#79=CARTESIAN_POINT('',(6.390000,8.000000,6.350000));
#80=POLY_LOOP('',(#73,#77,#79,#75));
#81=FACE_OUTER_BOUND('',#80,.T.);
#82=CARTESIAN_POINT('',(3.490000,5.100000,6.350000));
#83=DIRECTION('',(0.000000,0.000000,1.000000));
#84=DIRECTION('',(1.000000,0.000000,0.000000));
#85=AXIS2_PLACEMENT_3D('',#82,#83,#84);
#86=PLANE('',#85);
#87=ADVANCED_FACE('',(#81),#86,.T.);
#88=POLY_LOOP('',(#72,#74,#78,#76));
#89=FACE_OUTER_BOUND('',#88,.T.);
#90=CARTESIAN_POINT('',(3.490000,5.100000,1.850000));
#91=DIRECTION('',(0.000000,0.000000,-1.000000));
#92=DIRECTION('',(1.000000,0.000000,0.000000));
#93=AXIS2_PLACEMENT_3D('',#90,#91,#92);
#94=PLANE('',#93);
#95=ADVANCED_FACE('',(#89),#94,.T.);
#96=POLY_LOOP('',(#74,#75,#79,#78));
#97=FACE_OUTER_BOUND('',#96,.T.);
#98=CARTESIAN_POINT('',(3.490000,8.000000,4.100000));
#99=DIRECTION('',(0.000000,1.000000,0.000000));
#100=DIRECTION('',(1.000000,0.000000,0.000000));
#101=AXIS2_PLACEMENT_3D('',#98,#99,#100);
#102=PLANE('',#101);
#103=ADVANCED_FACE('',(#97),#102,.T.);
#104=POLY_LOOP('',(#72,#76,#77,#73));
#105=FACE_OUTER_BOUND('',#104,.T.);
#106=CARTESIAN_POINT('',(3.490000,2.200000,4.100000));
#107=DIRECTION('',(0.000000,-1.000000,0.000000));
#108=DIRECTION('',(1.000000,0.000000,0.000000));
#109=AXIS2_PLACEMENT_3D('',#106,#107,#108);
#110=PLANE('',#109);
#111=ADVANCED_FACE('',(#105),#110,.T.);
#112=POLY_LOOP('',(#76,#78,#79,#77));
#113=FACE_OUTER_BOUND('',#112,.T.);
#114=CARTESIAN_POINT('',(6.390000,5.100000,4.100000));
#115=DIRECTION('',(1.000000,0.000000,0.000000));
#116=DIRECTION('',(0.000000,1.000000,0.000000));
#117=AXIS2_PLACEMENT_3D('',#114,#115,#116);
#118=PLANE('',#117);
#119=ADVANCED_FACE('',(#113),#118,.T.);
#120=POLY_LOOP('',(#72,#73,#75,#74));
#121=FACE_OUTER_BOUND('',#120,.T.);
#122=CARTESIAN_POINT('',(0.590000,5.100000,4.100000));
#123=DIRECTION('',(-1.000000,0.000000,0.000000));
#124=DIRECTION('',(0.000000,1.000000,0.000000));
#125=AXIS2_PLACEMENT_3D('',#122,#123,#124);
#126=PLANE('',#125);
#127=ADVANCED_FACE('',(#121),#126,.T.);
#128=CLOSED_SHELL('',(#87,#95,#103,#111,#119,#127));
#129=MANIFOLD_SOLID_BREP('inductor',#128);
#130=CARTESIAN_POINT('',(5.700000,0.900000,1.900000));
#131=CARTESIAN_POINT('',(5.700000,0.900000,2.900000));
#132=CARTESIAN_POINT('',(5.700000,3.500000,1.900000));
#133=CARTESIAN_POINT('',(5.700000,3.500000,2.900000));
#134=CARTESIAN_POINT('',(8.300000,0.900000,1.900000));
#135=CARTESIAN_POINT('',(8.300000,0.900000,2.900000));
#136=CARTESIAN_POINT('',(8.300000,3.500000,1.900000));
#137=CARTESIAN_POINT('',(8.300000,3.500000,2.900000));
#138=POLY_LOOP('',(#131,#135,#137,#133));
#139=FACE_OUTER_BOUND('',#138,.T.);
#140=CARTESIAN_POINT('',(7.000000,2.200000,2.900000));
#141=DIRECTION('',(0.000000,0.000000,1.000000));
#142=DIRECTION('',(1.000000,0.000000,0.000000));
#143=AXIS2_PLACEMENT_3D('',#140,#141,#142);
#144=PLANE('',#143);
#145=ADVANCED_FACE('',(#139),#144,.T.);
#146=POLY_LOOP('',(#130,#132,#136,#134));
#147=FACE_OUTER_BOUND('',#146,.T.);
#148=CARTESIAN_POINT('',(7.000000,2.200000,1.900000));
#149=DIRECTION('',(0.000000,0.000000,-1.000000));
#150=DIRECTION('',(1.000000,0.000000,0.000000));
#151=AXIS2_PLACEMENT_3D('',#148,#149,#150);
#152=PLANE('',#151);
#153=ADVANCED_FACE('',(#147),#152,.T.);
#154=POLY_LOOP('',(#132,#133,#137,#136));
#155=FACE_OUTER_BOUND('',#154,.T.);
#156=CARTESIAN_POINT('',(7.000000,3.500000,2.400000));
#157=DIRECTION('',(0.000000,1.000000,0.000000));
#158=DIRECTION('',(1.000000,0.000000,0.000000));
#159=AXIS2_PLACEMENT_3D('',#156,#157,#158);
#160=PLANE('',#159);
#161=ADVANCED_FACE('',(#155),#160,.T.);
#162=POLY_LOOP('',(#130,#134,#135,#131));
#163=FACE_OUTER_BOUND('',#162,.T.);
#164=CARTESIAN_POINT('',(7.000000,0.900000,2.400000));
#165=DIRECTION('',(0.000000,-1.000000,0.000000));
#166=DIRECTION('',(1.000000,0.000000,0.000000));
#167=AXIS2_PLACEMENT_3D('',#164,#165,#166);
#168=PLANE('',#167);
#169=ADVANCED_FACE('',(#163),#168,.T.);
#170=POLY_LOOP('',(#134,#136,#137,#135));
#171=FACE_OUTER_BOUND('',#170,.T.);
#172=CARTESIAN_POINT('',(8.300000,2.200000,2.400000));
#173=DIRECTION('',(1.000000,0.000000,0.000000));
#174=DIRECTION('',(0.000000,1.000000,0.000000));
#175=AXIS2_PLACEMENT_3D('',#172,#173,#174);
#176=PLANE('',#175);
#177=ADVANCED_FACE('',(#171),#176,.T.);
#178=POLY_LOOP('',(#130,#131,#133,#132));
#179=FACE_OUTER_BOUND('',#178,.T.);
#180=CARTESIAN_POINT('',(5.700000,2.200000,2.400000));
#181=DIRECTION('',(-1.000000,0.000000,0.000000));
#182=DIRECTION('',(0.000000,1.000000,0.000000));
#183=AXIS2_PLACEMENT_3D('',#180,#181,#182);
#184=PLANE('',#183);
#185=ADVANCED_FACE('',(#179),#184,.T.);
#186=CLOSED_SHELL('',(#145,#153,#161,#169,#177,#185));
#187=MANIFOLD_SOLID_BREP('controller',#186);
#188=CARTESIAN_POINT('',(-1.900000,6.100000,1.600000));
#189=CARTESIAN_POINT('',(-1.900000,6.100000,3.600000));
#190=CARTESIAN_POINT('',(-1.900000,9.300000,1.600000));
#191=CARTESIAN_POINT('',(-1.900000,9.300000,3.600000));
#192=CARTESIAN_POINT('',(0.300000,6.100000,1.600000));
#193=CARTESIAN_POINT('',(0.300000,6.100000,3.600000));
#194=CARTESIAN_POINT('',(0.300000,9.300000,1.600000));
#195=CARTESIAN_POINT('',(0.300000,9.300000,3.600000));
#196=POLY_LOOP('',(#189,#193,#195,#191));
#197=FACE_OUTER_BOUND('',#196,.T.);
#198=CARTESIAN_POINT('',(-0.800000,7.700000,3.600000));
#199=DIRECTION('',(0.000000,0.000000,1.000000));
#200=DIRECTION('',(1.000000,0.000000,0.000000));
#201=AXIS2_PLACEMENT_3D('',#198,#199,#200);
#202=PLANE('',#201);
#203=ADVANCED_FACE('',(#197),#202,.T.);
#204=POLY_LOOP('',(#188,#190,#194,#192));
#205=FACE_OUTER_BOUND('',#204,.T.);
#206=CARTESIAN_POINT('',(-0.800000,7.700000,1.600000));
#207=DIRECTION('',(0.000000,0.000000,-1.000000));
#208=DIRECTION('',(1.000000,0.000000,0.000000));
#209=AXIS2_PLACEMENT_3D('',#206,#207,#208);
#210=PLANE('',#209);
#211=ADVANCED_FACE('',(#205),#210,.T.);
#212=POLY_LOOP('',(#190,#191,#195,#194));
#213=FACE_OUTER_BOUND('',#212,.T.);
#214=CARTESIAN_POINT('',(-0.800000,9.300000,2.600000));
#215=DIRECTION('',(0.000000,1.000000,0.000000));
#216=DIRECTION('',(1.000000,0.000000,0.000000));
#217=AXIS2_PLACEMENT_3D('',#214,#215,#216);
#218=PLANE('',#217);
#219=ADVANCED_FACE('',(#213),#218,.T.);
#220=POLY_LOOP('',(#188,#192,#193,#189));
#221=FACE_OUTER_BOUND('',#220,.T.);
#222=CARTESIAN_POINT('',(-0.800000,6.100000,2.600000));
#223=DIRECTION('',(0.000000,-1.000000,0.000000));
#224=DIRECTION('',(1.000000,0.000000,0.000000));
#225=AXIS2_PLACEMENT_3D('',#222,#223,#224);
#226=PLANE('',#225);
#227=ADVANCED_FACE('',(#221),#226,.T.);
#228=POLY_LOOP('',(#192,#194,#195,#193));
#229=FACE_OUTER_BOUND('',#228,.T.);
#230=CARTESIAN_POINT('',(0.300000,7.700000,2.600000));
#231=DIRECTION('',(1.000000,0.000000,0.000000));
#232=DIRECTION('',(0.000000,1.000000,0.000000));
#233=AXIS2_PLACEMENT_3D('',#230,#231,#232);
#234=PLANE('',#233);
#235=ADVANCED_FACE('',(#229),#234,.T.);
#236=POLY_LOOP('',(#188,#189,#191,#190));
#237=FACE_OUTER_BOUND('',#236,.T.);
#238=CARTESIAN_POINT('',(-1.900000,7.700000,2.600000));
#239=DIRECTION('',(-1.000000,0.000000,0.000000));
#240=DIRECTION('',(0.000000,1.000000,0.000000));
#241=AXIS2_PLACEMENT_3D('',#238,#239,#240);
#242=PLANE('',#241);
#243=ADVANCED_FACE('',(#237),#242,.T.);
#244=CLOSED_SHELL('',(#203,#211,#219,#227,#235,#243));
#245=MANIFOLD_SOLID_BREP('output_cap',#244);
#246=CARTESIAN_POINT('',(-0.360000,-0.360000,-1.900000));
#247=CARTESIAN_POINT('',(-0.360000,-0.360000,2.300000));
#248=CARTESIAN_POINT('',(-0.360000,0.360000,-1.900000));
#249=CARTESIAN_POINT('',(-0.360000,0.360000,2.300000));
#250=CARTESIAN_POINT('',(0.360000,-0.360000,-1.900000));
#251=CARTESIAN_POINT('',(0.360000,-0.360000,2.300000));
#252=CARTESIAN_POINT('',(0.360000,0.360000,-1.900000));
#253=CARTESIAN_POINT('',(0.360000,0.360000,2.300000));
#254=POLY_LOOP('',(#247,#251,#253,#249));
#255=FACE_OUTER_BOUND('',#254,.T.);
#256=CARTESIAN_POINT('',(0.000000,0.000000,2.300000));
#257=DIRECTION('',(0.000000,0.000000,1.000000));
#258=DIRECTION('',(1.000000,0.000000,0.000000));
#259=AXIS2_PLACEMENT_3D('',#256,#257,#258);
#260=PLANE('',#259);
#261=ADVANCED_FACE('',(#255),#260,.T.);
#262=POLY_LOOP('',(#246,#248,#252,#250));
#263=FACE_OUTER_BOUND('',#262,.T.);
#264=CARTESIAN_POINT('',(0.000000,0.000000,-1.900000));
#265=DIRECTION('',(0.000000,0.000000,-1.000000));
#266=DIRECTION('',(1.000000,0.000000,0.000000));
#267=AXIS2_PLACEMENT_3D('',#264,#265,#266);
#268=PLANE('',#267);
#269=ADVANCED_FACE('',(#263),#268,.T.);
#270=POLY_LOOP('',(#248,#249,#253,#252));
#271=FACE_OUTER_BOUND('',#270,.T.);
#272=CARTESIAN_POINT('',(0.000000,0.360000,0.200000));
#273=DIRECTION('',(0.000000,1.000000,0.000000));
#274=DIRECTION('',(1.000000,0.000000,0.000000));
#275=AXIS2_PLACEMENT_3D('',#272,#273,#274);
#276=PLANE('',#275);
#277=ADVANCED_FACE('',(#271),#276,.T.);
#278=POLY_LOOP('',(#246,#250,#251,#247));
#279=FACE_OUTER_BOUND('',#278,.T.);
#280=CARTESIAN_POINT('',(0.000000,-0.360000,0.200000));
#281=DIRECTION('',(0.000000,-1.000000,0.000000));
#282=DIRECTION('',(1.000000,0.000000,0.000000));
#283=AXIS2_PLACEMENT_3D('',#280,#281,#282);
#284=PLANE('',#283);
#285=ADVANCED_FACE('',(#279),#284,.T.);
#286=POLY_LOOP('',(#250,#252,#253,#251));
#287=FACE_OUTER_BOUND('',#286,.T.);
#288=CARTESIAN_POINT('',(0.360000,0.000000,0.200000));
#289=DIRECTION('',(1.000000,0.000000,0.000000));
#290=DIRECTION('',(0.000000,1.000000,0.000000));
#291=AXIS2_PLACEMENT_3D('',#288,#289,#290);
#292=PLANE('',#291);
#293=ADVANCED_FACE('',(#287),#292,.T.);
#294=POLY_LOOP('',(#246,#247,#249,#248));
#295=FACE_OUTER_BOUND('',#294,.T.);
#296=CARTESIAN_POINT('',(-0.360000,0.000000,0.200000));
#297=DIRECTION('',(-1.000000,0.000000,0.000000));
#298=DIRECTION('',(0.000000,1.000000,0.000000));
#299=AXIS2_PLACEMENT_3D('',#296,#297,#298);
#300=PLANE('',#299);
#301=ADVANCED_FACE('',(#295),#300,.T.);
#302=CLOSED_SHELL('',(#261,#269,#277,#285,#293,#301));
#303=MANIFOLD_SOLID_BREP('pin_1',#302);
#304=CARTESIAN_POINT('',(4.080000,-0.360000,-1.900000));
#305=CARTESIAN_POINT('',(4.080000,-0.360000,2.300000));
#306=CARTESIAN_POINT('',(4.080000,0.360000,-1.900000));
#307=CARTESIAN_POINT('',(4.080000,0.360000,2.300000));
#308=CARTESIAN_POINT('',(4.800000,-0.360000,-1.900000));
#309=CARTESIAN_POINT('',(4.800000,-0.360000,2.300000));
#310=CARTESIAN_POINT('',(4.800000,0.360000,-1.900000));
#311=CARTESIAN_POINT('',(4.800000,0.360000,2.300000));
#312=POLY_LOOP('',(#305,#309,#311,#307));
#313=FACE_OUTER_BOUND('',#312,.T.);
#314=CARTESIAN_POINT('',(4.440000,0.000000,2.300000));
#315=DIRECTION('',(0.000000,0.000000,1.000000));
#316=DIRECTION('',(1.000000,0.000000,0.000000));
#317=AXIS2_PLACEMENT_3D('',#314,#315,#316);
#318=PLANE('',#317);
#319=ADVANCED_FACE('',(#313),#318,.T.);
#320=POLY_LOOP('',(#304,#306,#310,#308));
#321=FACE_OUTER_BOUND('',#320,.T.);
#322=CARTESIAN_POINT('',(4.440000,0.000000,-1.900000));
#323=DIRECTION('',(0.000000,0.000000,-1.000000));
#324=DIRECTION('',(1.000000,0.000000,0.000000));
#325=AXIS2_PLACEMENT_3D('',#322,#323,#324);
#326=PLANE('',#325);
#327=ADVANCED_FACE('',(#321),#326,.T.);
#328=POLY_LOOP('',(#306,#307,#311,#310));
#329=FACE_OUTER_BOUND('',#328,.T.);
#330=CARTESIAN_POINT('',(4.440000,0.360000,0.200000));
#331=DIRECTION('',(0.000000,1.000000,0.000000));
#332=DIRECTION('',(1.000000,0.000000,0.000000));
#333=AXIS2_PLACEMENT_3D('',#330,#331,#332);
#334=PLANE('',#333);
#335=ADVANCED_FACE('',(#329),#334,.T.);
#336=POLY_LOOP('',(#304,#308,#309,#305));
#337=FACE_OUTER_BOUND('',#336,.T.);
#338=CARTESIAN_POINT('',(4.440000,-0.360000,0.200000));
#339=DIRECTION('',(0.000000,-1.000000,0.000000));
#340=DIRECTION('',(1.000000,0.000000,0.000000));
#341=AXIS2_PLACEMENT_3D('',#338,#339,#340);
#342=PLANE('',#341);
#343=ADVANCED_FACE('',(#337),#342,.T.);
#344=POLY_LOOP('',(#308,#310,#311,#309));
#345=FACE_OUTER_BOUND('',#344,.T.);
#346=CARTESIAN_POINT('',(4.800000,0.000000,0.200000));
#347=DIRECTION('',(1.000000,0.000000,0.000000));
#348=DIRECTION('',(0.000000,1.000000,0.000000));
#349=AXIS2_PLACEMENT_3D('',#346,#347,#348);
#350=PLANE('',#349);
#351=ADVANCED_FACE('',(#345),#350,.T.);
#352=POLY_LOOP('',(#304,#305,#307,#306));
#353=FACE_OUTER_BOUND('',#352,.T.);
#354=CARTESIAN_POINT('',(4.080000,0.000000,0.200000));
#355=DIRECTION('',(-1.000000,0.000000,0.000000));
#356=DIRECTION('',(0.000000,1.000000,0.000000));
#357=AXIS2_PLACEMENT_3D('',#354,#355,#356);
#358=PLANE('',#357);
#359=ADVANCED_FACE('',(#353),#358,.T.);
#360=CLOSED_SHELL('',(#319,#327,#335,#343,#351,#359));
#361=MANIFOLD_SOLID_BREP('pin_2',#360);
#362=CARTESIAN_POINT('',(-0.360000,4.720000,-1.900000));
#363=CARTESIAN_POINT('',(-0.360000,4.720000,2.300000));
#364=CARTESIAN_POINT('',(-0.360000,5.440000,-1.900000));
#365=CARTESIAN_POINT('',(-0.360000,5.440000,2.300000));
#366=CARTESIAN_POINT('',(0.360000,4.720000,-1.900000));
#367=CARTESIAN_POINT('',(0.360000,4.720000,2.300000));
#368=CARTESIAN_POINT('',(0.360000,5.440000,-1.900000));
#369=CARTESIAN_POINT('',(0.360000,5.440000,2.300000));
#370=POLY_LOOP('',(#363,#367,#369,#365));
#371=FACE_OUTER_BOUND('',#370,.T.);
#372=CARTESIAN_POINT('',(0.000000,5.080000,2.300000));
#373=DIRECTION('',(0.000000,0.000000,1.000000));
#374=DIRECTION('',(1.000000,0.000000,0.000000));
#375=AXIS2_PLACEMENT_3D('',#372,#373,#374);
#376=PLANE('',#375);
#377=ADVANCED_FACE('',(#371),#376,.T.);
#378=POLY_LOOP('',(#362,#364,#368,#366));
#379=FACE_OUTER_BOUND('',#378,.T.);
#380=CARTESIAN_POINT('',(0.000000,5.080000,-1.900000));
#381=DIRECTION('',(0.000000,0.000000,-1.000000));
#382=DIRECTION('',(1.000000,0.000000,0.000000));
#383=AXIS2_PLACEMENT_3D('',#380,#381,#382);
#384=PLANE('',#383);
#385=ADVANCED_FACE('',(#379),#384,.T.);
#386=POLY_LOOP('',(#364,#365,#369,#368));
#387=FACE_OUTER_BOUND('',#386,.T.);
#388=CARTESIAN_POINT('',(0.000000,5.440000,0.200000));
#389=DIRECTION('',(0.000000,1.000000,0.000000));
#390=DIRECTION('',(1.000000,0.000000,0.000000));
#391=AXIS2_PLACEMENT_3D('',#388,#389,#390);
#392=PLANE('',#391);
#393=ADVANCED_FACE('',(#387),#392,.T.);
#394=POLY_LOOP('',(#362,#366,#367,#363));
#395=FACE_OUTER_BOUND('',#394,.T.);
#396=CARTESIAN_POINT('',(0.000000,4.720000,0.200000));
#397=DIRECTION('',(0.000000,-1.000000,0.000000));
#398=DIRECTION('',(1.000000,0.000000,0.000000));
#399=AXIS2_PLACEMENT_3D('',#396,#397,#398);
#400=PLANE('',#399);
#401=ADVANCED_FACE('',(#395),#400,.T.);
#402=POLY_LOOP('',(#366,#368,#369,#367));
#403=FACE_OUTER_BOUND('',#402,.T.);
#404=CARTESIAN_POINT('',(0.360000,5.080000,0.200000));
#405=DIRECTION('',(1.000000,0.000000,0.000000));
#406=DIRECTION('',(0.000000,1.000000,0.000000));
#407=AXIS2_PLACEMENT_3D('',#404,#405,#406);
#408=PLANE('',#407);
#409=ADVANCED_FACE('',(#403),#408,.T.);
#410=POLY_LOOP('',(#362,#363,#365,#364));
#411=FACE_OUTER_BOUND('',#410,.T.);
#412=CARTESIAN_POINT('',(-0.360000,5.080000,0.200000));
#413=DIRECTION('',(-1.000000,0.000000,0.000000));
#414=DIRECTION('',(0.000000,1.000000,0.000000));
#415=AXIS2_PLACEMENT_3D('',#412,#413,#414);
#416=PLANE('',#415);
#417=ADVANCED_FACE('',(#411),#416,.T.);
#418=CLOSED_SHELL('',(#377,#385,#393,#401,#409,#417));
#419=MANIFOLD_SOLID_BREP('pin_3',#418);
#420=CARTESIAN_POINT('',(4.080000,4.720000,-1.900000));
#421=CARTESIAN_POINT('',(4.080000,4.720000,2.300000));
#422=CARTESIAN_POINT('',(4.080000,5.440000,-1.900000));
#423=CARTESIAN_POINT('',(4.080000,5.440000,2.300000));
#424=CARTESIAN_POINT('',(4.800000,4.720000,-1.900000));
#425=CARTESIAN_POINT('',(4.800000,4.720000,2.300000));
#426=CARTESIAN_POINT('',(4.800000,5.440000,-1.900000));
#427=CARTESIAN_POINT('',(4.800000,5.440000,2.300000));
#428=POLY_LOOP('',(#421,#425,#427,#423));
#429=FACE_OUTER_BOUND('',#428,.T.);
#430=CARTESIAN_POINT('',(4.440000,5.080000,2.300000));
#431=DIRECTION('',(0.000000,0.000000,1.000000));
#432=DIRECTION('',(1.000000,0.000000,0.000000));
#433=AXIS2_PLACEMENT_3D('',#430,#431,#432);
#434=PLANE('',#433);
#435=ADVANCED_FACE('',(#429),#434,.T.);
#436=POLY_LOOP('',(#420,#422,#426,#424));
#437=FACE_OUTER_BOUND('',#436,.T.);
#438=CARTESIAN_POINT('',(4.440000,5.080000,-1.900000));
#439=DIRECTION('',(0.000000,0.000000,-1.000000));
#440=DIRECTION('',(1.000000,0.000000,0.000000));
#441=AXIS2_PLACEMENT_3D('',#438,#439,#440);
#442=PLANE('',#441);
#443=ADVANCED_FACE('',(#437),#442,.T.);
#444=POLY_LOOP('',(#422,#423,#427,#426));
#445=FACE_OUTER_BOUND('',#444,.T.);
#446=CARTESIAN_POINT('',(4.440000,5.440000,0.200000));
#447=DIRECTION('',(0.000000,1.000000,0.000000));
#448=DIRECTION('',(1.000000,0.000000,0.000000));
#449=AXIS2_PLACEMENT_3D('',#446,#447,#448);
#450=PLANE('',#449);
#451=ADVANCED_FACE('',(#445),#450,.T.);
#452=POLY_LOOP('',(#420,#424,#425,#421));
#453=FACE_OUTER_BOUND('',#452,.T.);
#454=CARTESIAN_POINT('',(4.440000,4.720000,0.200000));
#455=DIRECTION('',(0.000000,-1.000000,0.000000));
#456=DIRECTION('',(1.000000,0.000000,0.000000));
#457=AXIS2_PLACEMENT_3D('',#454,#455,#456);
#458=PLANE('',#457);
#459=ADVANCED_FACE('',(#453),#458,.T.);
#460=POLY_LOOP('',(#424,#426,#427,#425));
#461=FACE_OUTER_BOUND('',#460,.T.);
#462=CARTESIAN_POINT('',(4.800000,5.080000,0.200000));
#463=DIRECTION('',(1.000000,0.000000,0.000000));
#464=DIRECTION('',(0.000000,1.000000,0.000000));
#465=AXIS2_PLACEMENT_3D('',#462,#463,#464);
#466=PLANE('',#465);
#467=ADVANCED_FACE('',(#461),#466,.T.);
#468=POLY_LOOP('',(#420,#421,#423,#422));
#469=FACE_OUTER_BOUND('',#468,.T.);
#470=CARTESIAN_POINT('',(4.080000,5.080000,0.200000));
#471=DIRECTION('',(-1.000000,0.000000,0.000000));
#472=DIRECTION('',(0.000000,1.000000,0.000000));
#473=AXIS2_PLACEMENT_3D('',#470,#471,#472);
#474=PLANE('',#473);
#475=ADVANCED_FACE('',(#469),#474,.T.);
#476=CLOSED_SHELL('',(#435,#443,#451,#459,#467,#475));
#477=MANIFOLD_SOLID_BREP('pin_4',#476);
#478=CARTESIAN_POINT('',(6.620000,7.260000,-1.900000));
#479=CARTESIAN_POINT('',(6.620000,7.260000,2.300000));
#480=CARTESIAN_POINT('',(6.620000,7.980000,-1.900000));
#481=CARTESIAN_POINT('',(6.620000,7.980000,2.300000));
#482=CARTESIAN_POINT('',(7.340000,7.260000,-1.900000));
#483=CARTESIAN_POINT('',(7.340000,7.260000,2.300000));
#484=CARTESIAN_POINT('',(7.340000,7.980000,-1.900000));
#485=CARTESIAN_POINT('',(7.340000,7.980000,2.300000));
#486=POLY_LOOP('',(#479,#483,#485,#481));
#487=FACE_OUTER_BOUND('',#486,.T.);
#488=CARTESIAN_POINT('',(6.980000,7.620000,2.300000));
#489=DIRECTION('',(0.000000,0.000000,1.000000));
#490=DIRECTION('',(1.000000,0.000000,0.000000));
#491=AXIS2_PLACEMENT_3D('',#488,#489,#490);
#492=PLANE('',#491);
#493=ADVANCED_FACE('',(#487),#492,.T.);
#494=POLY_LOOP('',(#478,#480,#484,#482));
#495=FACE_OUTER_BOUND('',#494,.T.);
#496=CARTESIAN_POINT('',(6.980000,7.620000,-1.900000));
#497=DIRECTION('',(0.000000,0.000000,-1.000000));
#498=DIRECTION('',(1.000000,0.000000,0.000000));
#499=AXIS2_PLACEMENT_3D('',#496,#497,#498);
#500=PLANE('',#499);
#501=ADVANCED_FACE('',(#495),#500,.T.);
#502=POLY_LOOP('',(#480,#481,#485,#484));
#503=FACE_OUTER_BOUND('',#502,.T.);
#504=CARTESIAN_POINT('',(6.980000,7.980000,0.200000));
#505=DIRECTION('',(0.000000,1.000000,0.000000));
#506=DIRECTION('',(1.000000,0.000000,0.000000));
#507=AXIS2_PLACEMENT_3D('',#504,#505,#506);
#508=PLANE('',#507);
#509=ADVANCED_FACE('',(#503),#508,.T.);
#510=POLY_LOOP('',(#478,#482,#483,#479));
#511=FACE_OUTER_BOUND('',#510,.T.);
#512=CARTESIAN_POINT('',(6.980000,7.260000,0.200000));
#513=DIRECTION('',(0.000000,-1.000000,0.000000));
#514=DIRECTION('',(1.000000,0.000000,0.000000));
#515=AXIS2_PLACEMENT_3D('',#512,#513,#514);
#516=PLANE('',#515);
#517=ADVANCED_FACE('',(#511),#516,.T.);
#518=POLY_LOOP('',(#482,#484,#485,#483));
#519=FACE_OUTER_BOUND('',#518,.T.);
#520=CARTESIAN_POINT('',(7.340000,7.620000,0.200000));
#521=DIRECTION('',(1.000000,0.000000,0.000000));
#522=DIRECTION('',(0.000000,1.000000,0.000000));
#523=AXIS2_PLACEMENT_3D('',#520,#521,#522);
#524=PLANE('',#523);
#525=ADVANCED_FACE('',(#519),#524,.T.);
#526=POLY_LOOP('',(#478,#479,#481,#480));
#527=FACE_OUTER_BOUND('',#526,.T.);
#528=CARTESIAN_POINT('',(6.620000,7.620000,0.200000));
#529=DIRECTION('',(-1.000000,0.000000,0.000000));
#530=DIRECTION('',(0.000000,1.000000,0.000000));
#531=AXIS2_PLACEMENT_3D('',#528,#529,#530);
#532=PLANE('',#531);
#533=ADVANCED_FACE('',(#527),#532,.T.);
#534=CLOSED_SHELL('',(#493,#501,#509,#517,#525,#533));
#535=MANIFOLD_SOLID_BREP('pin_5',#534);
#536=CARTESIAN_POINT('',(4.080000,9.800000,-1.900000));
#537=CARTESIAN_POINT('',(4.080000,9.800000,2.300000));
#538=CARTESIAN_POINT('',(4.080000,10.520000,-1.900000));
#539=CARTESIAN_POINT('',(4.080000,10.520000,2.300000));
#540=CARTESIAN_POINT('',(4.800000,9.800000,-1.900000));
#541=CARTESIAN_POINT('',(4.800000,9.800000,2.300000));
#542=CARTESIAN_POINT('',(4.800000,10.520000,-1.900000));
#543=CARTESIAN_POINT('',(4.800000,10.520000,2.300000));
#544=POLY_LOOP('',(#537,#541,#543,#539));
#545=FACE_OUTER_BOUND('',#544,.T.);
#546=CARTESIAN_POINT('',(4.440000,10.160000,2.300000));
#547=DIRECTION('',(0.000000,0.000000,1.000000));
#548=DIRECTION('',(1.000000,0.000000,0.000000));
#549=AXIS2_PLACEMENT_3D('',#546,#547,#548);
#550=PLANE('',#549);
#551=ADVANCED_FACE('',(#545),#550,.T.);
#552=POLY_LOOP('',(#536,#538,#542,#540));
#553=FACE_OUTER_BOUND('',#552,.T.);
#554=CARTESIAN_POINT('',(4.440000,10.160000,-1.900000));
#555=DIRECTION('',(0.000000,0.000000,-1.000000));
#556=DIRECTION('',(1.000000,0.000000,0.000000));
#557=AXIS2_PLACEMENT_3D('',#554,#555,#556);
#558=PLANE('',#557);
#559=ADVANCED_FACE('',(#553),#558,.T.);
#560=POLY_LOOP('',(#538,#539,#543,#542));
#561=FACE_OUTER_BOUND('',#560,.T.);
#562=CARTESIAN_POINT('',(4.440000,10.520000,0.200000));
#563=DIRECTION('',(0.000000,1.000000,0.000000));
#564=DIRECTION('',(1.000000,0.000000,0.000000));
#565=AXIS2_PLACEMENT_3D('',#562,#563,#564);
#566=PLANE('',#565);
#567=ADVANCED_FACE('',(#561),#566,.T.);
#568=POLY_LOOP('',(#536,#540,#541,#537));
#569=FACE_OUTER_BOUND('',#568,.T.);
#570=CARTESIAN_POINT('',(4.440000,9.800000,0.200000));
#571=DIRECTION('',(0.000000,-1.000000,0.000000));
#572=DIRECTION('',(1.000000,0.000000,0.000000));
#573=AXIS2_PLACEMENT_3D('',#570,#571,#572);
#574=PLANE('',#573);
#575=ADVANCED_FACE('',(#569),#574,.T.);
#576=POLY_LOOP('',(#540,#542,#543,#541));
#577=FACE_OUTER_BOUND('',#576,.T.);
#578=CARTESIAN_POINT('',(4.800000,10.160000,0.200000));
#579=DIRECTION('',(1.000000,0.000000,0.000000));
#580=DIRECTION('',(0.000000,1.000000,0.000000));
#581=AXIS2_PLACEMENT_3D('',#578,#579,#580);
#582=PLANE('',#581);
#583=ADVANCED_FACE('',(#577),#582,.T.);
#584=POLY_LOOP('',(#536,#537,#539,#538));
#585=FACE_OUTER_BOUND('',#584,.T.);
#586=CARTESIAN_POINT('',(4.080000,10.160000,0.200000));
#587=DIRECTION('',(-1.000000,0.000000,0.000000));
#588=DIRECTION('',(0.000000,1.000000,0.000000));
#589=AXIS2_PLACEMENT_3D('',#586,#587,#588);
#590=PLANE('',#589);
#591=ADVANCED_FACE('',(#585),#590,.T.);
#592=CLOSED_SHELL('',(#551,#559,#567,#575,#583,#591));
#593=MANIFOLD_SOLID_BREP('pin_6',#592);
#594=CARTESIAN_POINT('',(-0.360000,9.800000,-1.900000));
#595=CARTESIAN_POINT('',(-0.360000,9.800000,2.300000));
#596=CARTESIAN_POINT('',(-0.360000,10.520000,-1.900000));
#597=CARTESIAN_POINT('',(-0.360000,10.520000,2.300000));
#598=CARTESIAN_POINT('',(0.360000,9.800000,-1.900000));
#599=CARTESIAN_POINT('',(0.360000,9.800000,2.300000));
#600=CARTESIAN_POINT('',(0.360000,10.520000,-1.900000));
#601=CARTESIAN_POINT('',(0.360000,10.520000,2.300000));
#602=POLY_LOOP('',(#595,#599,#601,#597));
#603=FACE_OUTER_BOUND('',#602,.T.);
#604=CARTESIAN_POINT('',(0.000000,10.160000,2.300000));
#605=DIRECTION('',(0.000000,0.000000,1.000000));
#606=DIRECTION('',(1.000000,0.000000,0.000000));
#607=AXIS2_PLACEMENT_3D('',#604,#605,#606);
#608=PLANE('',#607);
#609=ADVANCED_FACE('',(#603),#608,.T.);
#610=POLY_LOOP('',(#594,#596,#600,#598));
#611=FACE_OUTER_BOUND('',#610,.T.);
#612=CARTESIAN_POINT('',(0.000000,10.160000,-1.900000));
#613=DIRECTION('',(0.000000,0.000000,-1.000000));
#614=DIRECTION('',(1.000000,0.000000,0.000000));
#615=AXIS2_PLACEMENT_3D('',#612,#613,#614);
#616=PLANE('',#615);
#617=ADVANCED_FACE('',(#611),#616,.T.);
#618=POLY_LOOP('',(#596,#597,#601,#600));
#619=FACE_OUTER_BOUND('',#618,.T.);
#620=CARTESIAN_POINT('',(0.000000,10.520000,0.200000));
#621=DIRECTION('',(0.000000,1.000000,0.000000));
#622=DIRECTION('',(1.000000,0.000000,0.000000));
#623=AXIS2_PLACEMENT_3D('',#620,#621,#622);
#624=PLANE('',#623);
#625=ADVANCED_FACE('',(#619),#624,.T.);
#626=POLY_LOOP('',(#594,#598,#599,#595));
#627=FACE_OUTER_BOUND('',#626,.T.);
#628=CARTESIAN_POINT('',(0.000000,9.800000,0.200000));
#629=DIRECTION('',(0.000000,-1.000000,0.000000));
#630=DIRECTION('',(1.000000,0.000000,0.000000));
#631=AXIS2_PLACEMENT_3D('',#628,#629,#630);
#632=PLANE('',#631);
#633=ADVANCED_FACE('',(#627),#632,.T.);
#634=POLY_LOOP('',(#598,#600,#601,#599));
#635=FACE_OUTER_BOUND('',#634,.T.);
#636=CARTESIAN_POINT('',(0.360000,10.160000,0.200000));
#637=DIRECTION('',(1.000000,0.000000,0.000000));
#638=DIRECTION('',(0.000000,1.000000,0.000000));
#639=AXIS2_PLACEMENT_3D('',#636,#637,#638);
#640=PLANE('',#639);
#641=ADVANCED_FACE('',(#635),#640,.T.);
#642=POLY_LOOP('',(#594,#595,#597,#596));
#643=FACE_OUTER_BOUND('',#642,.T.);
#644=CARTESIAN_POINT('',(-0.360000,10.160000,0.200000));
#645=DIRECTION('',(-1.000000,0.000000,0.000000));
#646=DIRECTION('',(0.000000,1.000000,0.000000));
#647=AXIS2_PLACEMENT_3D('',#644,#645,#646);
#648=PLANE('',#647);
#649=ADVANCED_FACE('',(#643),#648,.T.);
#650=CLOSED_SHELL('',(#609,#617,#625,#633,#641,#649));
#651=MANIFOLD_SOLID_BREP('pin_7',#650);
#652=SHAPE_REPRESENTATION('',(#71,#129,#187,#245,#303,#361,#419,#477,#535,#593,#651),#13);
#653=SHAPE_DEFINITION_REPRESENTATION(#8,#652);
ENDSEC;
END-ISO-10303-21;
