ISO-10303-21;
HEADER;
FILE_DESCRIPTION(('SparkFun_TB6612FNG_Carrier_2x08_17.78mm'),'2;1');
FILE_NAME('SparkFun_TB6612FNG_Carrier_2x08_17.78mm','2026-05-18T00:00:00',('Codex'),(''),'','', '');
FILE_SCHEMA(('AUTOMOTIVE_DESIGN_CC2 { 1 2 10303 214 3 1 1 }'));
ENDSEC;
DATA;
#1=APPLICATION_CONTEXT('automotive_design');
#2=APPLICATION_PROTOCOL_DEFINITION('international standard','automotive_design',2000,#1);
#3=PRODUCT_CONTEXT('',#1,'mechanical');
#4=PRODUCT('SparkFun_TB6612FNG_Carrier_2x08_17.78mm','SparkFun_TB6612FNG_Carrier_2x08_17.78mm','', (#3));
#5=PRODUCT_DEFINITION_FORMATION_WITH_SPECIFIED_SOURCE('','',#4,.NOT_KNOWN.);
#6=PRODUCT_DEFINITION_CONTEXT('part definition',#1,'design');
#7=PRODUCT_DEFINITION('design','',#5,#6);
#8=PRODUCT_DEFINITION_SHAPE('','',#7);
#9=(LENGTH_UNIT()NAMED_UNIT(*)SI_UNIT(.MILLI.,.METRE.));
#10=(NAMED_UNIT(*)PLANE_ANGLE_UNIT()SI_UNIT($,.RADIAN.));
#11=(NAMED_UNIT(*)SI_UNIT($,.STERADIAN.)SOLID_ANGLE_UNIT());
#12=UNCERTAINTY_MEASURE_WITH_UNIT(LENGTH_MEASURE(1.E-05),#9,'distance_accuracy_value','confusion accuracy');
#13=(GEOMETRIC_REPRESENTATION_CONTEXT(3) GLOBAL_UNCERTAINTY_ASSIGNED_CONTEXT((#12)) GLOBAL_UNIT_ASSIGNED_CONTEXT((#9,#10,#11)) REPRESENTATION_CONTEXT('','3D'));
#14=CARTESIAN_POINT('',(-2.540000,-2.540000,0.250000));
#15=CARTESIAN_POINT('',(-2.540000,-2.540000,1.850000));
#16=CARTESIAN_POINT('',(-2.540000,20.320000,0.250000));
#17=CARTESIAN_POINT('',(-2.540000,20.320000,1.850000));
#18=CARTESIAN_POINT('',(20.320000,-2.540000,0.250000));
#19=CARTESIAN_POINT('',(20.320000,-2.540000,1.850000));
#20=CARTESIAN_POINT('',(20.320000,20.320000,0.250000));
#21=CARTESIAN_POINT('',(20.320000,20.320000,1.850000));
#22=POLY_LOOP('',(#15,#19,#21,#17));
#23=FACE_OUTER_BOUND('',#22,.T.);
#24=CARTESIAN_POINT('',(8.890000,8.890000,1.850000));
#25=DIRECTION('',(0.000000,0.000000,1.000000));
#26=DIRECTION('',(1.000000,0.000000,0.000000));
#27=AXIS2_PLACEMENT_3D('',#24,#25,#26);
#28=PLANE('',#27);
#29=ADVANCED_FACE('',(#23),#28,.T.);
#30=POLY_LOOP('',(#14,#16,#20,#18));
#31=FACE_OUTER_BOUND('',#30,.T.);
#32=CARTESIAN_POINT('',(8.890000,8.890000,0.250000));
#33=DIRECTION('',(0.000000,0.000000,-1.000000));
#34=DIRECTION('',(1.000000,0.000000,0.000000));
#35=AXIS2_PLACEMENT_3D('',#32,#33,#34);
#36=PLANE('',#35);
#37=ADVANCED_FACE('',(#31),#36,.T.);
#38=POLY_LOOP('',(#16,#17,#21,#20));
#39=FACE_OUTER_BOUND('',#38,.T.);
#40=CARTESIAN_POINT('',(8.890000,20.320000,1.050000));
#41=DIRECTION('',(0.000000,1.000000,0.000000));
#42=DIRECTION('',(1.000000,0.000000,0.000000));
#43=AXIS2_PLACEMENT_3D('',#40,#41,#42);
#44=PLANE('',#43);
#45=ADVANCED_FACE('',(#39),#44,.T.);
#46=POLY_LOOP('',(#14,#18,#19,#15));
#47=FACE_OUTER_BOUND('',#46,.T.);
#48=CARTESIAN_POINT('',(8.890000,-2.540000,1.050000));
#49=DIRECTION('',(0.000000,-1.000000,0.000000));
#50=DIRECTION('',(1.000000,0.000000,0.000000));
#51=AXIS2_PLACEMENT_3D('',#48,#49,#50);
#52=PLANE('',#51);
#53=ADVANCED_FACE('',(#47),#52,.T.);
#54=POLY_LOOP('',(#18,#20,#21,#19));
#55=FACE_OUTER_BOUND('',#54,.T.);
#56=CARTESIAN_POINT('',(20.320000,8.890000,1.050000));
#57=DIRECTION('',(1.000000,0.000000,0.000000));
#58=DIRECTION('',(0.000000,1.000000,0.000000));
#59=AXIS2_PLACEMENT_3D('',#56,#57,#58);
#60=PLANE('',#59);
#61=ADVANCED_FACE('',(#55),#60,.T.);
#62=POLY_LOOP('',(#14,#15,#17,#16));
#63=FACE_OUTER_BOUND('',#62,.T.);
#64=CARTESIAN_POINT('',(-2.540000,8.890000,1.050000));
#65=DIRECTION('',(-1.000000,0.000000,0.000000));
#66=DIRECTION('',(0.000000,1.000000,0.000000));
#67=AXIS2_PLACEMENT_3D('',#64,#65,#66);
#68=PLANE('',#67);
#69=ADVANCED_FACE('',(#63),#68,.T.);
#70=CLOSED_SHELL('',(#29,#37,#45,#53,#61,#69));
#71=MANIFOLD_SOLID_BREP('carrier_pcb',#70);
#72=CARTESIAN_POINT('',(5.590000,5.590000,1.850000));
#73=CARTESIAN_POINT('',(5.590000,5.590000,2.850000));
#74=CARTESIAN_POINT('',(5.590000,12.190000,1.850000));
#75=CARTESIAN_POINT('',(5.590000,12.190000,2.850000));
#76=CARTESIAN_POINT('',(12.190000,5.590000,1.850000));
#77=CARTESIAN_POINT('',(12.190000,5.590000,2.850000));
#78=CARTESIAN_POINT('',(12.190000,12.190000,1.850000));
#79=CARTESIAN_POINT('',(12.190000,12.190000,2.850000));
#80=POLY_LOOP('',(#73,#77,#79,#75));
#81=FACE_OUTER_BOUND('',#80,.T.);
#82=CARTESIAN_POINT('',(8.890000,8.890000,2.850000));
#83=DIRECTION('',(0.000000,0.000000,1.000000));
#84=DIRECTION('',(1.000000,0.000000,0.000000));
#85=AXIS2_PLACEMENT_3D('',#82,#83,#84);
#86=PLANE('',#85);
#87=ADVANCED_FACE('',(#81),#86,.T.);
#88=POLY_LOOP('',(#72,#74,#78,#76));
#89=FACE_OUTER_BOUND('',#88,.T.);
#90=CARTESIAN_POINT('',(8.890000,8.890000,1.850000));
#91=DIRECTION('',(0.000000,0.000000,-1.000000));
#92=DIRECTION('',(1.000000,0.000000,0.000000));
#93=AXIS2_PLACEMENT_3D('',#90,#91,#92);
#94=PLANE('',#93);
#95=ADVANCED_FACE('',(#89),#94,.T.);
#96=POLY_LOOP('',(#74,#75,#79,#78));
#97=FACE_OUTER_BOUND('',#96,.T.);
#98=CARTESIAN_POINT('',(8.890000,12.190000,2.350000));
#99=DIRECTION('',(0.000000,1.000000,0.000000));
#100=DIRECTION('',(1.000000,0.000000,0.000000));
#101=AXIS2_PLACEMENT_3D('',#98,#99,#100);
#102=PLANE('',#101);
#103=ADVANCED_FACE('',(#97),#102,.T.);
#104=POLY_LOOP('',(#72,#76,#77,#73));
#105=FACE_OUTER_BOUND('',#104,.T.);
#106=CARTESIAN_POINT('',(8.890000,5.590000,2.350000));
#107=DIRECTION('',(0.000000,-1.000000,0.000000));
#108=DIRECTION('',(1.000000,0.000000,0.000000));
#109=AXIS2_PLACEMENT_3D('',#106,#107,#108);
#110=PLANE('',#109);
#111=ADVANCED_FACE('',(#105),#110,.T.);
#112=POLY_LOOP('',(#76,#78,#79,#77));
#113=FACE_OUTER_BOUND('',#112,.T.);
#114=CARTESIAN_POINT('',(12.190000,8.890000,2.350000));
#115=DIRECTION('',(1.000000,0.000000,0.000000));
#116=DIRECTION('',(0.000000,1.000000,0.000000));
#117=AXIS2_PLACEMENT_3D('',#114,#115,#116);
#118=PLANE('',#117);
#119=ADVANCED_FACE('',(#113),#118,.T.);
#120=POLY_LOOP('',(#72,#73,#75,#74));
#121=FACE_OUTER_BOUND('',#120,.T.);
#122=CARTESIAN_POINT('',(5.590000,8.890000,2.350000));
#123=DIRECTION('',(-1.000000,0.000000,0.000000));
#124=DIRECTION('',(0.000000,1.000000,0.000000));
#125=AXIS2_PLACEMENT_3D('',#122,#123,#124);
#126=PLANE('',#125);
#127=ADVANCED_FACE('',(#121),#126,.T.);
#128=CLOSED_SHELL('',(#87,#95,#103,#111,#119,#127));
#129=MANIFOLD_SOLID_BREP('tb6612_ic',#128);
#130=CARTESIAN_POINT('',(3.640000,1.100000,1.910000));
#131=CARTESIAN_POINT('',(3.640000,1.100000,1.990000));
#132=CARTESIAN_POINT('',(3.640000,2.100000,1.910000));
#133=CARTESIAN_POINT('',(3.640000,2.100000,1.990000));
#134=CARTESIAN_POINT('',(14.140000,1.100000,1.910000));
#135=CARTESIAN_POINT('',(14.140000,1.100000,1.990000));
#136=CARTESIAN_POINT('',(14.140000,2.100000,1.910000));
#137=CARTESIAN_POINT('',(14.140000,2.100000,1.990000));
#138=POLY_LOOP('',(#131,#135,#137,#133));
#139=FACE_OUTER_BOUND('',#138,.T.);
#140=CARTESIAN_POINT('',(8.890000,1.600000,1.990000));
#141=DIRECTION('',(0.000000,0.000000,1.000000));
#142=DIRECTION('',(1.000000,0.000000,0.000000));
#143=AXIS2_PLACEMENT_3D('',#140,#141,#142);
#144=PLANE('',#143);
#145=ADVANCED_FACE('',(#139),#144,.T.);
#146=POLY_LOOP('',(#130,#132,#136,#134));
#147=FACE_OUTER_BOUND('',#146,.T.);
#148=CARTESIAN_POINT('',(8.890000,1.600000,1.910000));
#149=DIRECTION('',(0.000000,0.000000,-1.000000));
#150=DIRECTION('',(1.000000,0.000000,0.000000));
#151=AXIS2_PLACEMENT_3D('',#148,#149,#150);
#152=PLANE('',#151);
#153=ADVANCED_FACE('',(#147),#152,.T.);
#154=POLY_LOOP('',(#132,#133,#137,#136));
#155=FACE_OUTER_BOUND('',#154,.T.);
#156=CARTESIAN_POINT('',(8.890000,2.100000,1.950000));
#157=DIRECTION('',(0.000000,1.000000,0.000000));
#158=DIRECTION('',(1.000000,0.000000,0.000000));
#159=AXIS2_PLACEMENT_3D('',#156,#157,#158);
#160=PLANE('',#159);
#161=ADVANCED_FACE('',(#155),#160,.T.);
#162=POLY_LOOP('',(#130,#134,#135,#131));
#163=FACE_OUTER_BOUND('',#162,.T.);
#164=CARTESIAN_POINT('',(8.890000,1.100000,1.950000));
#165=DIRECTION('',(0.000000,-1.000000,0.000000));
#166=DIRECTION('',(1.000000,0.000000,0.000000));
#167=AXIS2_PLACEMENT_3D('',#164,#165,#166);
#168=PLANE('',#167);
#169=ADVANCED_FACE('',(#163),#168,.T.);
#170=POLY_LOOP('',(#134,#136,#137,#135));
#171=FACE_OUTER_BOUND('',#170,.T.);
#172=CARTESIAN_POINT('',(14.140000,1.600000,1.950000));
#173=DIRECTION('',(1.000000,0.000000,0.000000));
#174=DIRECTION('',(0.000000,1.000000,0.000000));
#175=AXIS2_PLACEMENT_3D('',#172,#173,#174);
#176=PLANE('',#175);
#177=ADVANCED_FACE('',(#171),#176,.T.);
#178=POLY_LOOP('',(#130,#131,#133,#132));
#179=FACE_OUTER_BOUND('',#178,.T.);
#180=CARTESIAN_POINT('',(3.640000,1.600000,1.950000));
#181=DIRECTION('',(-1.000000,0.000000,0.000000));
#182=DIRECTION('',(0.000000,1.000000,0.000000));
#183=AXIS2_PLACEMENT_3D('',#180,#181,#182);
#184=PLANE('',#183);
#185=ADVANCED_FACE('',(#179),#184,.T.);
#186=CLOSED_SHELL('',(#145,#153,#161,#169,#177,#185));
#187=MANIFOLD_SOLID_BREP('silk_label',#186);
#188=CARTESIAN_POINT('',(-0.850000,-1.010000,1.525000));
#189=CARTESIAN_POINT('',(-0.850000,-1.010000,2.875000));
#190=CARTESIAN_POINT('',(-0.850000,18.790000,1.525000));
#191=CARTESIAN_POINT('',(-0.850000,18.790000,2.875000));
#192=CARTESIAN_POINT('',(0.850000,-1.010000,1.525000));
#193=CARTESIAN_POINT('',(0.850000,-1.010000,2.875000));
#194=CARTESIAN_POINT('',(0.850000,18.790000,1.525000));
#195=CARTESIAN_POINT('',(0.850000,18.790000,2.875000));
#196=POLY_LOOP('',(#189,#193,#195,#191));
#197=FACE_OUTER_BOUND('',#196,.T.);
#198=CARTESIAN_POINT('',(0.000000,8.890000,2.875000));
#199=DIRECTION('',(0.000000,0.000000,1.000000));
#200=DIRECTION('',(1.000000,0.000000,0.000000));
#201=AXIS2_PLACEMENT_3D('',#198,#199,#200);
#202=PLANE('',#201);
#203=ADVANCED_FACE('',(#197),#202,.T.);
#204=POLY_LOOP('',(#188,#190,#194,#192));
#205=FACE_OUTER_BOUND('',#204,.T.);
#206=CARTESIAN_POINT('',(0.000000,8.890000,1.525000));
#207=DIRECTION('',(0.000000,0.000000,-1.000000));
#208=DIRECTION('',(1.000000,0.000000,0.000000));
#209=AXIS2_PLACEMENT_3D('',#206,#207,#208);
#210=PLANE('',#209);
#211=ADVANCED_FACE('',(#205),#210,.T.);
#212=POLY_LOOP('',(#190,#191,#195,#194));
#213=FACE_OUTER_BOUND('',#212,.T.);
#214=CARTESIAN_POINT('',(0.000000,18.790000,2.200000));
#215=DIRECTION('',(0.000000,1.000000,0.000000));
#216=DIRECTION('',(1.000000,0.000000,0.000000));
#217=AXIS2_PLACEMENT_3D('',#214,#215,#216);
#218=PLANE('',#217);
#219=ADVANCED_FACE('',(#213),#218,.T.);
#220=POLY_LOOP('',(#188,#192,#193,#189));
#221=FACE_OUTER_BOUND('',#220,.T.);
#222=CARTESIAN_POINT('',(0.000000,-1.010000,2.200000));
#223=DIRECTION('',(0.000000,-1.000000,0.000000));
#224=DIRECTION('',(1.000000,0.000000,0.000000));
#225=AXIS2_PLACEMENT_3D('',#222,#223,#224);
#226=PLANE('',#225);
#227=ADVANCED_FACE('',(#221),#226,.T.);
#228=POLY_LOOP('',(#192,#194,#195,#193));
#229=FACE_OUTER_BOUND('',#228,.T.);
#230=CARTESIAN_POINT('',(0.850000,8.890000,2.200000));
#231=DIRECTION('',(1.000000,0.000000,0.000000));
#232=DIRECTION('',(0.000000,1.000000,0.000000));
#233=AXIS2_PLACEMENT_3D('',#230,#231,#232);
#234=PLANE('',#233);
#235=ADVANCED_FACE('',(#229),#234,.T.);
#236=POLY_LOOP('',(#188,#189,#191,#190));
#237=FACE_OUTER_BOUND('',#236,.T.);
#238=CARTESIAN_POINT('',(-0.850000,8.890000,2.200000));
#239=DIRECTION('',(-1.000000,0.000000,0.000000));
#240=DIRECTION('',(0.000000,1.000000,0.000000));
#241=AXIS2_PLACEMENT_3D('',#238,#239,#240);
#242=PLANE('',#241);
#243=ADVANCED_FACE('',(#237),#242,.T.);
#244=CLOSED_SHELL('',(#203,#211,#219,#227,#235,#243));
#245=MANIFOLD_SOLID_BREP('header_body_l',#244);
#246=CARTESIAN_POINT('',(16.930000,-1.010000,1.525000));
#247=CARTESIAN_POINT('',(16.930000,-1.010000,2.875000));
#248=CARTESIAN_POINT('',(16.930000,18.790000,1.525000));
#249=CARTESIAN_POINT('',(16.930000,18.790000,2.875000));
#250=CARTESIAN_POINT('',(18.630000,-1.010000,1.525000));
#251=CARTESIAN_POINT('',(18.630000,-1.010000,2.875000));
#252=CARTESIAN_POINT('',(18.630000,18.790000,1.525000));
#253=CARTESIAN_POINT('',(18.630000,18.790000,2.875000));
#254=POLY_LOOP('',(#247,#251,#253,#249));
#255=FACE_OUTER_BOUND('',#254,.T.);
#256=CARTESIAN_POINT('',(17.780000,8.890000,2.875000));
#257=DIRECTION('',(0.000000,0.000000,1.000000));
#258=DIRECTION('',(1.000000,0.000000,0.000000));
#259=AXIS2_PLACEMENT_3D('',#256,#257,#258);
#260=PLANE('',#259);
#261=ADVANCED_FACE('',(#255),#260,.T.);
#262=POLY_LOOP('',(#246,#248,#252,#250));
#263=FACE_OUTER_BOUND('',#262,.T.);
#264=CARTESIAN_POINT('',(17.780000,8.890000,1.525000));
#265=DIRECTION('',(0.000000,0.000000,-1.000000));
#266=DIRECTION('',(1.000000,0.000000,0.000000));
#267=AXIS2_PLACEMENT_3D('',#264,#265,#266);
#268=PLANE('',#267);
#269=ADVANCED_FACE('',(#263),#268,.T.);
#270=POLY_LOOP('',(#248,#249,#253,#252));
#271=FACE_OUTER_BOUND('',#270,.T.);
#272=CARTESIAN_POINT('',(17.780000,18.790000,2.200000));
#273=DIRECTION('',(0.000000,1.000000,0.000000));
#274=DIRECTION('',(1.000000,0.000000,0.000000));
#275=AXIS2_PLACEMENT_3D('',#272,#273,#274);
#276=PLANE('',#275);
#277=ADVANCED_FACE('',(#271),#276,.T.);
#278=POLY_LOOP('',(#246,#250,#251,#247));
#279=FACE_OUTER_BOUND('',#278,.T.);
#280=CARTESIAN_POINT('',(17.780000,-1.010000,2.200000));
#281=DIRECTION('',(0.000000,-1.000000,0.000000));
#282=DIRECTION('',(1.000000,0.000000,0.000000));
#283=AXIS2_PLACEMENT_3D('',#280,#281,#282);
#284=PLANE('',#283);
#285=ADVANCED_FACE('',(#279),#284,.T.);
#286=POLY_LOOP('',(#250,#252,#253,#251));
#287=FACE_OUTER_BOUND('',#286,.T.);
#288=CARTESIAN_POINT('',(18.630000,8.890000,2.200000));
#289=DIRECTION('',(1.000000,0.000000,0.000000));
#290=DIRECTION('',(0.000000,1.000000,0.000000));
#291=AXIS2_PLACEMENT_3D('',#288,#289,#290);
#292=PLANE('',#291);
#293=ADVANCED_FACE('',(#287),#292,.T.);
#294=POLY_LOOP('',(#246,#247,#249,#248));
#295=FACE_OUTER_BOUND('',#294,.T.);
#296=CARTESIAN_POINT('',(16.930000,8.890000,2.200000));
#297=DIRECTION('',(-1.000000,0.000000,0.000000));
#298=DIRECTION('',(0.000000,1.000000,0.000000));
#299=AXIS2_PLACEMENT_3D('',#296,#297,#298);
#300=PLANE('',#299);
#301=ADVANCED_FACE('',(#295),#300,.T.);
#302=CLOSED_SHELL('',(#261,#269,#277,#285,#293,#301));
#303=MANIFOLD_SOLID_BREP('header_body_r',#302);
#304=CARTESIAN_POINT('',(-0.320000,-0.320000,-2.000000));
#305=CARTESIAN_POINT('',(-0.320000,-0.320000,2.500000));
#306=CARTESIAN_POINT('',(-0.320000,0.320000,-2.000000));
#307=CARTESIAN_POINT('',(-0.320000,0.320000,2.500000));
#308=CARTESIAN_POINT('',(0.320000,-0.320000,-2.000000));
#309=CARTESIAN_POINT('',(0.320000,-0.320000,2.500000));
#310=CARTESIAN_POINT('',(0.320000,0.320000,-2.000000));
#311=CARTESIAN_POINT('',(0.320000,0.320000,2.500000));
#312=POLY_LOOP('',(#305,#309,#311,#307));
#313=FACE_OUTER_BOUND('',#312,.T.);
#314=CARTESIAN_POINT('',(0.000000,0.000000,2.500000));
#315=DIRECTION('',(0.000000,0.000000,1.000000));
#316=DIRECTION('',(1.000000,0.000000,0.000000));
#317=AXIS2_PLACEMENT_3D('',#314,#315,#316);
#318=PLANE('',#317);
#319=ADVANCED_FACE('',(#313),#318,.T.);
#320=POLY_LOOP('',(#304,#306,#310,#308));
#321=FACE_OUTER_BOUND('',#320,.T.);
#322=CARTESIAN_POINT('',(0.000000,0.000000,-2.000000));
#323=DIRECTION('',(0.000000,0.000000,-1.000000));
#324=DIRECTION('',(1.000000,0.000000,0.000000));
#325=AXIS2_PLACEMENT_3D('',#322,#323,#324);
#326=PLANE('',#325);
#327=ADVANCED_FACE('',(#321),#326,.T.);
#328=POLY_LOOP('',(#306,#307,#311,#310));
#329=FACE_OUTER_BOUND('',#328,.T.);
#330=CARTESIAN_POINT('',(0.000000,0.320000,0.250000));
#331=DIRECTION('',(0.000000,1.000000,0.000000));
#332=DIRECTION('',(1.000000,0.000000,0.000000));
#333=AXIS2_PLACEMENT_3D('',#330,#331,#332);
#334=PLANE('',#333);
#335=ADVANCED_FACE('',(#329),#334,.T.);
#336=POLY_LOOP('',(#304,#308,#309,#305));
#337=FACE_OUTER_BOUND('',#336,.T.);
#338=CARTESIAN_POINT('',(0.000000,-0.320000,0.250000));
#339=DIRECTION('',(0.000000,-1.000000,0.000000));
#340=DIRECTION('',(1.000000,0.000000,0.000000));
#341=AXIS2_PLACEMENT_3D('',#338,#339,#340);
#342=PLANE('',#341);
#343=ADVANCED_FACE('',(#337),#342,.T.);
#344=POLY_LOOP('',(#308,#310,#311,#309));
#345=FACE_OUTER_BOUND('',#344,.T.);
#346=CARTESIAN_POINT('',(0.320000,0.000000,0.250000));
#347=DIRECTION('',(1.000000,0.000000,0.000000));
#348=DIRECTION('',(0.000000,1.000000,0.000000));
#349=AXIS2_PLACEMENT_3D('',#346,#347,#348);
#350=PLANE('',#349);
#351=ADVANCED_FACE('',(#345),#350,.T.);
#352=POLY_LOOP('',(#304,#305,#307,#306));
#353=FACE_OUTER_BOUND('',#352,.T.);
#354=CARTESIAN_POINT('',(-0.320000,0.000000,0.250000));
#355=DIRECTION('',(-1.000000,0.000000,0.000000));
#356=DIRECTION('',(0.000000,1.000000,0.000000));
#357=AXIS2_PLACEMENT_3D('',#354,#355,#356);
#358=PLANE('',#357);
#359=ADVANCED_FACE('',(#353),#358,.T.);
#360=CLOSED_SHELL('',(#319,#327,#335,#343,#351,#359));
#361=MANIFOLD_SOLID_BREP('pin_l_0',#360);
#362=CARTESIAN_POINT('',(-0.320000,2.220000,-2.000000));
#363=CARTESIAN_POINT('',(-0.320000,2.220000,2.500000));
#364=CARTESIAN_POINT('',(-0.320000,2.860000,-2.000000));
#365=CARTESIAN_POINT('',(-0.320000,2.860000,2.500000));
#366=CARTESIAN_POINT('',(0.320000,2.220000,-2.000000));
#367=CARTESIAN_POINT('',(0.320000,2.220000,2.500000));
#368=CARTESIAN_POINT('',(0.320000,2.860000,-2.000000));
#369=CARTESIAN_POINT('',(0.320000,2.860000,2.500000));
#370=POLY_LOOP('',(#363,#367,#369,#365));
#371=FACE_OUTER_BOUND('',#370,.T.);
#372=CARTESIAN_POINT('',(0.000000,2.540000,2.500000));
#373=DIRECTION('',(0.000000,0.000000,1.000000));
#374=DIRECTION('',(1.000000,0.000000,0.000000));
#375=AXIS2_PLACEMENT_3D('',#372,#373,#374);
#376=PLANE('',#375);
#377=ADVANCED_FACE('',(#371),#376,.T.);
#378=POLY_LOOP('',(#362,#364,#368,#366));
#379=FACE_OUTER_BOUND('',#378,.T.);
#380=CARTESIAN_POINT('',(0.000000,2.540000,-2.000000));
#381=DIRECTION('',(0.000000,0.000000,-1.000000));
#382=DIRECTION('',(1.000000,0.000000,0.000000));
#383=AXIS2_PLACEMENT_3D('',#380,#381,#382);
#384=PLANE('',#383);
#385=ADVANCED_FACE('',(#379),#384,.T.);
#386=POLY_LOOP('',(#364,#365,#369,#368));
#387=FACE_OUTER_BOUND('',#386,.T.);
#388=CARTESIAN_POINT('',(0.000000,2.860000,0.250000));
#389=DIRECTION('',(0.000000,1.000000,0.000000));
#390=DIRECTION('',(1.000000,0.000000,0.000000));
#391=AXIS2_PLACEMENT_3D('',#388,#389,#390);
#392=PLANE('',#391);
#393=ADVANCED_FACE('',(#387),#392,.T.);
#394=POLY_LOOP('',(#362,#366,#367,#363));
#395=FACE_OUTER_BOUND('',#394,.T.);
#396=CARTESIAN_POINT('',(0.000000,2.220000,0.250000));
#397=DIRECTION('',(0.000000,-1.000000,0.000000));
#398=DIRECTION('',(1.000000,0.000000,0.000000));
#399=AXIS2_PLACEMENT_3D('',#396,#397,#398);
#400=PLANE('',#399);
#401=ADVANCED_FACE('',(#395),#400,.T.);
#402=POLY_LOOP('',(#366,#368,#369,#367));
#403=FACE_OUTER_BOUND('',#402,.T.);
#404=CARTESIAN_POINT('',(0.320000,2.540000,0.250000));
#405=DIRECTION('',(1.000000,0.000000,0.000000));
#406=DIRECTION('',(0.000000,1.000000,0.000000));
#407=AXIS2_PLACEMENT_3D('',#404,#405,#406);
#408=PLANE('',#407);
#409=ADVANCED_FACE('',(#403),#408,.T.);
#410=POLY_LOOP('',(#362,#363,#365,#364));
#411=FACE_OUTER_BOUND('',#410,.T.);
#412=CARTESIAN_POINT('',(-0.320000,2.540000,0.250000));
#413=DIRECTION('',(-1.000000,0.000000,0.000000));
#414=DIRECTION('',(0.000000,1.000000,0.000000));
#415=AXIS2_PLACEMENT_3D('',#412,#413,#414);
#416=PLANE('',#415);
#417=ADVANCED_FACE('',(#411),#416,.T.);
#418=CLOSED_SHELL('',(#377,#385,#393,#401,#409,#417));
#419=MANIFOLD_SOLID_BREP('pin_l_1',#418);
#420=CARTESIAN_POINT('',(-0.320000,4.760000,-2.000000));
#421=CARTESIAN_POINT('',(-0.320000,4.760000,2.500000));
#422=CARTESIAN_POINT('',(-0.320000,5.400000,-2.000000));
#423=CARTESIAN_POINT('',(-0.320000,5.400000,2.500000));
#424=CARTESIAN_POINT('',(0.320000,4.760000,-2.000000));
#425=CARTESIAN_POINT('',(0.320000,4.760000,2.500000));
#426=CARTESIAN_POINT('',(0.320000,5.400000,-2.000000));
#427=CARTESIAN_POINT('',(0.320000,5.400000,2.500000));
#428=POLY_LOOP('',(#421,#425,#427,#423));
#429=FACE_OUTER_BOUND('',#428,.T.);
#430=CARTESIAN_POINT('',(0.000000,5.080000,2.500000));
#431=DIRECTION('',(0.000000,0.000000,1.000000));
#432=DIRECTION('',(1.000000,0.000000,0.000000));
#433=AXIS2_PLACEMENT_3D('',#430,#431,#432);
#434=PLANE('',#433);
#435=ADVANCED_FACE('',(#429),#434,.T.);
#436=POLY_LOOP('',(#420,#422,#426,#424));
#437=FACE_OUTER_BOUND('',#436,.T.);
#438=CARTESIAN_POINT('',(0.000000,5.080000,-2.000000));
#439=DIRECTION('',(0.000000,0.000000,-1.000000));
#440=DIRECTION('',(1.000000,0.000000,0.000000));
#441=AXIS2_PLACEMENT_3D('',#438,#439,#440);
#442=PLANE('',#441);
#443=ADVANCED_FACE('',(#437),#442,.T.);
#444=POLY_LOOP('',(#422,#423,#427,#426));
#445=FACE_OUTER_BOUND('',#444,.T.);
#446=CARTESIAN_POINT('',(0.000000,5.400000,0.250000));
#447=DIRECTION('',(0.000000,1.000000,0.000000));
#448=DIRECTION('',(1.000000,0.000000,0.000000));
#449=AXIS2_PLACEMENT_3D('',#446,#447,#448);
#450=PLANE('',#449);
#451=ADVANCED_FACE('',(#445),#450,.T.);
#452=POLY_LOOP('',(#420,#424,#425,#421));
#453=FACE_OUTER_BOUND('',#452,.T.);
#454=CARTESIAN_POINT('',(0.000000,4.760000,0.250000));
#455=DIRECTION('',(0.000000,-1.000000,0.000000));
#456=DIRECTION('',(1.000000,0.000000,0.000000));
#457=AXIS2_PLACEMENT_3D('',#454,#455,#456);
#458=PLANE('',#457);
#459=ADVANCED_FACE('',(#453),#458,.T.);
#460=POLY_LOOP('',(#424,#426,#427,#425));
#461=FACE_OUTER_BOUND('',#460,.T.);
#462=CARTESIAN_POINT('',(0.320000,5.080000,0.250000));
#463=DIRECTION('',(1.000000,0.000000,0.000000));
#464=DIRECTION('',(0.000000,1.000000,0.000000));
#465=AXIS2_PLACEMENT_3D('',#462,#463,#464);
#466=PLANE('',#465);
#467=ADVANCED_FACE('',(#461),#466,.T.);
#468=POLY_LOOP('',(#420,#421,#423,#422));
#469=FACE_OUTER_BOUND('',#468,.T.);
#470=CARTESIAN_POINT('',(-0.320000,5.080000,0.250000));
#471=DIRECTION('',(-1.000000,0.000000,0.000000));
#472=DIRECTION('',(0.000000,1.000000,0.000000));
#473=AXIS2_PLACEMENT_3D('',#470,#471,#472);
#474=PLANE('',#473);
#475=ADVANCED_FACE('',(#469),#474,.T.);
#476=CLOSED_SHELL('',(#435,#443,#451,#459,#467,#475));
#477=MANIFOLD_SOLID_BREP('pin_l_2',#476);
#478=CARTESIAN_POINT('',(-0.320000,7.300000,-2.000000));
#479=CARTESIAN_POINT('',(-0.320000,7.300000,2.500000));
#480=CARTESIAN_POINT('',(-0.320000,7.940000,-2.000000));
#481=CARTESIAN_POINT('',(-0.320000,7.940000,2.500000));
#482=CARTESIAN_POINT('',(0.320000,7.300000,-2.000000));
#483=CARTESIAN_POINT('',(0.320000,7.300000,2.500000));
#484=CARTESIAN_POINT('',(0.320000,7.940000,-2.000000));
#485=CARTESIAN_POINT('',(0.320000,7.940000,2.500000));
#486=POLY_LOOP('',(#479,#483,#485,#481));
#487=FACE_OUTER_BOUND('',#486,.T.);
#488=CARTESIAN_POINT('',(0.000000,7.620000,2.500000));
#489=DIRECTION('',(0.000000,0.000000,1.000000));
#490=DIRECTION('',(1.000000,0.000000,0.000000));
#491=AXIS2_PLACEMENT_3D('',#488,#489,#490);
#492=PLANE('',#491);
#493=ADVANCED_FACE('',(#487),#492,.T.);
#494=POLY_LOOP('',(#478,#480,#484,#482));
#495=FACE_OUTER_BOUND('',#494,.T.);
#496=CARTESIAN_POINT('',(0.000000,7.620000,-2.000000));
#497=DIRECTION('',(0.000000,0.000000,-1.000000));
#498=DIRECTION('',(1.000000,0.000000,0.000000));
#499=AXIS2_PLACEMENT_3D('',#496,#497,#498);
#500=PLANE('',#499);
#501=ADVANCED_FACE('',(#495),#500,.T.);
#502=POLY_LOOP('',(#480,#481,#485,#484));
#503=FACE_OUTER_BOUND('',#502,.T.);
#504=CARTESIAN_POINT('',(0.000000,7.940000,0.250000));
#505=DIRECTION('',(0.000000,1.000000,0.000000));
#506=DIRECTION('',(1.000000,0.000000,0.000000));
#507=AXIS2_PLACEMENT_3D('',#504,#505,#506);
#508=PLANE('',#507);
#509=ADVANCED_FACE('',(#503),#508,.T.);
#510=POLY_LOOP('',(#478,#482,#483,#479));
#511=FACE_OUTER_BOUND('',#510,.T.);
#512=CARTESIAN_POINT('',(0.000000,7.300000,0.250000));
#513=DIRECTION('',(0.000000,-1.000000,0.000000));
#514=DIRECTION('',(1.000000,0.000000,0.000000));
#515=AXIS2_PLACEMENT_3D('',#512,#513,#514);
#516=PLANE('',#515);
#517=ADVANCED_FACE('',(#511),#516,.T.);
#518=POLY_LOOP('',(#482,#484,#485,#483));
#519=FACE_OUTER_BOUND('',#518,.T.);
#520=CARTESIAN_POINT('',(0.320000,7.620000,0.250000));
#521=DIRECTION('',(1.000000,0.000000,0.000000));
#522=DIRECTION('',(0.000000,1.000000,0.000000));
#523=AXIS2_PLACEMENT_3D('',#520,#521,#522);
#524=PLANE('',#523);
#525=ADVANCED_FACE('',(#519),#524,.T.);
#526=POLY_LOOP('',(#478,#479,#481,#480));
#527=FACE_OUTER_BOUND('',#526,.T.);
#528=CARTESIAN_POINT('',(-0.320000,7.620000,0.250000));
#529=DIRECTION('',(-1.000000,0.000000,0.000000));
#530=DIRECTION('',(0.000000,1.000000,0.000000));
#531=AXIS2_PLACEMENT_3D('',#528,#529,#530);
#532=PLANE('',#531);
#533=ADVANCED_FACE('',(#527),#532,.T.);
#534=CLOSED_SHELL('',(#493,#501,#509,#517,#525,#533));
#535=MANIFOLD_SOLID_BREP('pin_l_3',#534);
#536=CARTESIAN_POINT('',(-0.320000,9.840000,-2.000000));
#537=CARTESIAN_POINT('',(-0.320000,9.840000,2.500000));
#538=CARTESIAN_POINT('',(-0.320000,10.480000,-2.000000));
#539=CARTESIAN_POINT('',(-0.320000,10.480000,2.500000));
#540=CARTESIAN_POINT('',(0.320000,9.840000,-2.000000));
#541=CARTESIAN_POINT('',(0.320000,9.840000,2.500000));
#542=CARTESIAN_POINT('',(0.320000,10.480000,-2.000000));
#543=CARTESIAN_POINT('',(0.320000,10.480000,2.500000));
#544=POLY_LOOP('',(#537,#541,#543,#539));
#545=FACE_OUTER_BOUND('',#544,.T.);
#546=CARTESIAN_POINT('',(0.000000,10.160000,2.500000));
#547=DIRECTION('',(0.000000,0.000000,1.000000));
#548=DIRECTION('',(1.000000,0.000000,0.000000));
#549=AXIS2_PLACEMENT_3D('',#546,#547,#548);
#550=PLANE('',#549);
#551=ADVANCED_FACE('',(#545),#550,.T.);
#552=POLY_LOOP('',(#536,#538,#542,#540));
#553=FACE_OUTER_BOUND('',#552,.T.);
#554=CARTESIAN_POINT('',(0.000000,10.160000,-2.000000));
#555=DIRECTION('',(0.000000,0.000000,-1.000000));
#556=DIRECTION('',(1.000000,0.000000,0.000000));
#557=AXIS2_PLACEMENT_3D('',#554,#555,#556);
#558=PLANE('',#557);
#559=ADVANCED_FACE('',(#553),#558,.T.);
#560=POLY_LOOP('',(#538,#539,#543,#542));
#561=FACE_OUTER_BOUND('',#560,.T.);
#562=CARTESIAN_POINT('',(0.000000,10.480000,0.250000));
#563=DIRECTION('',(0.000000,1.000000,0.000000));
#564=DIRECTION('',(1.000000,0.000000,0.000000));
#565=AXIS2_PLACEMENT_3D('',#562,#563,#564);
#566=PLANE('',#565);
#567=ADVANCED_FACE('',(#561),#566,.T.);
#568=POLY_LOOP('',(#536,#540,#541,#537));
#569=FACE_OUTER_BOUND('',#568,.T.);
#570=CARTESIAN_POINT('',(0.000000,9.840000,0.250000));
#571=DIRECTION('',(0.000000,-1.000000,0.000000));
#572=DIRECTION('',(1.000000,0.000000,0.000000));
#573=AXIS2_PLACEMENT_3D('',#570,#571,#572);
#574=PLANE('',#573);
#575=ADVANCED_FACE('',(#569),#574,.T.);
#576=POLY_LOOP('',(#540,#542,#543,#541));
#577=FACE_OUTER_BOUND('',#576,.T.);
#578=CARTESIAN_POINT('',(0.320000,10.160000,0.250000));
#579=DIRECTION('',(1.000000,0.000000,0.000000));
#580=DIRECTION('',(0.000000,1.000000,0.000000));
#581=AXIS2_PLACEMENT_3D('',#578,#579,#580);
#582=PLANE('',#581);
#583=ADVANCED_FACE('',(#577),#582,.T.);
#584=POLY_LOOP('',(#536,#537,#539,#538));
#585=FACE_OUTER_BOUND('',#584,.T.);
#586=CARTESIAN_POINT('',(-0.320000,10.160000,0.250000));
#587=DIRECTION('',(-1.000000,0.000000,0.000000));
#588=DIRECTION('',(0.000000,1.000000,0.000000));
#589=AXIS2_PLACEMENT_3D('',#586,#587,#588);
#590=PLANE('',#589);
#591=ADVANCED_FACE('',(#585),#590,.T.);
#592=CLOSED_SHELL('',(#551,#559,#567,#575,#583,#591));
#593=MANIFOLD_SOLID_BREP('pin_l_4',#592);
#594=CARTESIAN_POINT('',(-0.320000,12.380000,-2.000000));
#595=CARTESIAN_POINT('',(-0.320000,12.380000,2.500000));
#596=CARTESIAN_POINT('',(-0.320000,13.020000,-2.000000));
#597=CARTESIAN_POINT('',(-0.320000,13.020000,2.500000));
#598=CARTESIAN_POINT('',(0.320000,12.380000,-2.000000));
#599=CARTESIAN_POINT('',(0.320000,12.380000,2.500000));
#600=CARTESIAN_POINT('',(0.320000,13.020000,-2.000000));
#601=CARTESIAN_POINT('',(0.320000,13.020000,2.500000));
#602=POLY_LOOP('',(#595,#599,#601,#597));
#603=FACE_OUTER_BOUND('',#602,.T.);
#604=CARTESIAN_POINT('',(0.000000,12.700000,2.500000));
#605=DIRECTION('',(0.000000,0.000000,1.000000));
#606=DIRECTION('',(1.000000,0.000000,0.000000));
#607=AXIS2_PLACEMENT_3D('',#604,#605,#606);
#608=PLANE('',#607);
#609=ADVANCED_FACE('',(#603),#608,.T.);
#610=POLY_LOOP('',(#594,#596,#600,#598));
#611=FACE_OUTER_BOUND('',#610,.T.);
#612=CARTESIAN_POINT('',(0.000000,12.700000,-2.000000));
#613=DIRECTION('',(0.000000,0.000000,-1.000000));
#614=DIRECTION('',(1.000000,0.000000,0.000000));
#615=AXIS2_PLACEMENT_3D('',#612,#613,#614);
#616=PLANE('',#615);
#617=ADVANCED_FACE('',(#611),#616,.T.);
#618=POLY_LOOP('',(#596,#597,#601,#600));
#619=FACE_OUTER_BOUND('',#618,.T.);
#620=CARTESIAN_POINT('',(0.000000,13.020000,0.250000));
#621=DIRECTION('',(0.000000,1.000000,0.000000));
#622=DIRECTION('',(1.000000,0.000000,0.000000));
#623=AXIS2_PLACEMENT_3D('',#620,#621,#622);
#624=PLANE('',#623);
#625=ADVANCED_FACE('',(#619),#624,.T.);
#626=POLY_LOOP('',(#594,#598,#599,#595));
#627=FACE_OUTER_BOUND('',#626,.T.);
#628=CARTESIAN_POINT('',(0.000000,12.380000,0.250000));
#629=DIRECTION('',(0.000000,-1.000000,0.000000));
#630=DIRECTION('',(1.000000,0.000000,0.000000));
#631=AXIS2_PLACEMENT_3D('',#628,#629,#630);
#632=PLANE('',#631);
#633=ADVANCED_FACE('',(#627),#632,.T.);
#634=POLY_LOOP('',(#598,#600,#601,#599));
#635=FACE_OUTER_BOUND('',#634,.T.);
#636=CARTESIAN_POINT('',(0.320000,12.700000,0.250000));
#637=DIRECTION('',(1.000000,0.000000,0.000000));
#638=DIRECTION('',(0.000000,1.000000,0.000000));
#639=AXIS2_PLACEMENT_3D('',#636,#637,#638);
#640=PLANE('',#639);
#641=ADVANCED_FACE('',(#635),#640,.T.);
#642=POLY_LOOP('',(#594,#595,#597,#596));
#643=FACE_OUTER_BOUND('',#642,.T.);
#644=CARTESIAN_POINT('',(-0.320000,12.700000,0.250000));
#645=DIRECTION('',(-1.000000,0.000000,0.000000));
#646=DIRECTION('',(0.000000,1.000000,0.000000));
#647=AXIS2_PLACEMENT_3D('',#644,#645,#646);
#648=PLANE('',#647);
#649=ADVANCED_FACE('',(#643),#648,.T.);
#650=CLOSED_SHELL('',(#609,#617,#625,#633,#641,#649));
#651=MANIFOLD_SOLID_BREP('pin_l_5',#650);
#652=CARTESIAN_POINT('',(-0.320000,14.920000,-2.000000));
#653=CARTESIAN_POINT('',(-0.320000,14.920000,2.500000));
#654=CARTESIAN_POINT('',(-0.320000,15.560000,-2.000000));
#655=CARTESIAN_POINT('',(-0.320000,15.560000,2.500000));
#656=CARTESIAN_POINT('',(0.320000,14.920000,-2.000000));
#657=CARTESIAN_POINT('',(0.320000,14.920000,2.500000));
#658=CARTESIAN_POINT('',(0.320000,15.560000,-2.000000));
#659=CARTESIAN_POINT('',(0.320000,15.560000,2.500000));
#660=POLY_LOOP('',(#653,#657,#659,#655));
#661=FACE_OUTER_BOUND('',#660,.T.);
#662=CARTESIAN_POINT('',(0.000000,15.240000,2.500000));
#663=DIRECTION('',(0.000000,0.000000,1.000000));
#664=DIRECTION('',(1.000000,0.000000,0.000000));
#665=AXIS2_PLACEMENT_3D('',#662,#663,#664);
#666=PLANE('',#665);
#667=ADVANCED_FACE('',(#661),#666,.T.);
#668=POLY_LOOP('',(#652,#654,#658,#656));
#669=FACE_OUTER_BOUND('',#668,.T.);
#670=CARTESIAN_POINT('',(0.000000,15.240000,-2.000000));
#671=DIRECTION('',(0.000000,0.000000,-1.000000));
#672=DIRECTION('',(1.000000,0.000000,0.000000));
#673=AXIS2_PLACEMENT_3D('',#670,#671,#672);
#674=PLANE('',#673);
#675=ADVANCED_FACE('',(#669),#674,.T.);
#676=POLY_LOOP('',(#654,#655,#659,#658));
#677=FACE_OUTER_BOUND('',#676,.T.);
#678=CARTESIAN_POINT('',(0.000000,15.560000,0.250000));
#679=DIRECTION('',(0.000000,1.000000,0.000000));
#680=DIRECTION('',(1.000000,0.000000,0.000000));
#681=AXIS2_PLACEMENT_3D('',#678,#679,#680);
#682=PLANE('',#681);
#683=ADVANCED_FACE('',(#677),#682,.T.);
#684=POLY_LOOP('',(#652,#656,#657,#653));
#685=FACE_OUTER_BOUND('',#684,.T.);
#686=CARTESIAN_POINT('',(0.000000,14.920000,0.250000));
#687=DIRECTION('',(0.000000,-1.000000,0.000000));
#688=DIRECTION('',(1.000000,0.000000,0.000000));
#689=AXIS2_PLACEMENT_3D('',#686,#687,#688);
#690=PLANE('',#689);
#691=ADVANCED_FACE('',(#685),#690,.T.);
#692=POLY_LOOP('',(#656,#658,#659,#657));
#693=FACE_OUTER_BOUND('',#692,.T.);
#694=CARTESIAN_POINT('',(0.320000,15.240000,0.250000));
#695=DIRECTION('',(1.000000,0.000000,0.000000));
#696=DIRECTION('',(0.000000,1.000000,0.000000));
#697=AXIS2_PLACEMENT_3D('',#694,#695,#696);
#698=PLANE('',#697);
#699=ADVANCED_FACE('',(#693),#698,.T.);
#700=POLY_LOOP('',(#652,#653,#655,#654));
#701=FACE_OUTER_BOUND('',#700,.T.);
#702=CARTESIAN_POINT('',(-0.320000,15.240000,0.250000));
#703=DIRECTION('',(-1.000000,0.000000,0.000000));
#704=DIRECTION('',(0.000000,1.000000,0.000000));
#705=AXIS2_PLACEMENT_3D('',#702,#703,#704);
#706=PLANE('',#705);
#707=ADVANCED_FACE('',(#701),#706,.T.);
#708=CLOSED_SHELL('',(#667,#675,#683,#691,#699,#707));
#709=MANIFOLD_SOLID_BREP('pin_l_6',#708);
#710=CARTESIAN_POINT('',(-0.320000,17.460000,-2.000000));
#711=CARTESIAN_POINT('',(-0.320000,17.460000,2.500000));
#712=CARTESIAN_POINT('',(-0.320000,18.100000,-2.000000));
#713=CARTESIAN_POINT('',(-0.320000,18.100000,2.500000));
#714=CARTESIAN_POINT('',(0.320000,17.460000,-2.000000));
#715=CARTESIAN_POINT('',(0.320000,17.460000,2.500000));
#716=CARTESIAN_POINT('',(0.320000,18.100000,-2.000000));
#717=CARTESIAN_POINT('',(0.320000,18.100000,2.500000));
#718=POLY_LOOP('',(#711,#715,#717,#713));
#719=FACE_OUTER_BOUND('',#718,.T.);
#720=CARTESIAN_POINT('',(0.000000,17.780000,2.500000));
#721=DIRECTION('',(0.000000,0.000000,1.000000));
#722=DIRECTION('',(1.000000,0.000000,0.000000));
#723=AXIS2_PLACEMENT_3D('',#720,#721,#722);
#724=PLANE('',#723);
#725=ADVANCED_FACE('',(#719),#724,.T.);
#726=POLY_LOOP('',(#710,#712,#716,#714));
#727=FACE_OUTER_BOUND('',#726,.T.);
#728=CARTESIAN_POINT('',(0.000000,17.780000,-2.000000));
#729=DIRECTION('',(0.000000,0.000000,-1.000000));
#730=DIRECTION('',(1.000000,0.000000,0.000000));
#731=AXIS2_PLACEMENT_3D('',#728,#729,#730);
#732=PLANE('',#731);
#733=ADVANCED_FACE('',(#727),#732,.T.);
#734=POLY_LOOP('',(#712,#713,#717,#716));
#735=FACE_OUTER_BOUND('',#734,.T.);
#736=CARTESIAN_POINT('',(0.000000,18.100000,0.250000));
#737=DIRECTION('',(0.000000,1.000000,0.000000));
#738=DIRECTION('',(1.000000,0.000000,0.000000));
#739=AXIS2_PLACEMENT_3D('',#736,#737,#738);
#740=PLANE('',#739);
#741=ADVANCED_FACE('',(#735),#740,.T.);
#742=POLY_LOOP('',(#710,#714,#715,#711));
#743=FACE_OUTER_BOUND('',#742,.T.);
#744=CARTESIAN_POINT('',(0.000000,17.460000,0.250000));
#745=DIRECTION('',(0.000000,-1.000000,0.000000));
#746=DIRECTION('',(1.000000,0.000000,0.000000));
#747=AXIS2_PLACEMENT_3D('',#744,#745,#746);
#748=PLANE('',#747);
#749=ADVANCED_FACE('',(#743),#748,.T.);
#750=POLY_LOOP('',(#714,#716,#717,#715));
#751=FACE_OUTER_BOUND('',#750,.T.);
#752=CARTESIAN_POINT('',(0.320000,17.780000,0.250000));
#753=DIRECTION('',(1.000000,0.000000,0.000000));
#754=DIRECTION('',(0.000000,1.000000,0.000000));
#755=AXIS2_PLACEMENT_3D('',#752,#753,#754);
#756=PLANE('',#755);
#757=ADVANCED_FACE('',(#751),#756,.T.);
#758=POLY_LOOP('',(#710,#711,#713,#712));
#759=FACE_OUTER_BOUND('',#758,.T.);
#760=CARTESIAN_POINT('',(-0.320000,17.780000,0.250000));
#761=DIRECTION('',(-1.000000,0.000000,0.000000));
#762=DIRECTION('',(0.000000,1.000000,0.000000));
#763=AXIS2_PLACEMENT_3D('',#760,#761,#762);
#764=PLANE('',#763);
#765=ADVANCED_FACE('',(#759),#764,.T.);
#766=CLOSED_SHELL('',(#725,#733,#741,#749,#757,#765));
#767=MANIFOLD_SOLID_BREP('pin_l_7',#766);
#768=CARTESIAN_POINT('',(17.460000,-0.320000,-2.000000));
#769=CARTESIAN_POINT('',(17.460000,-0.320000,2.500000));
#770=CARTESIAN_POINT('',(17.460000,0.320000,-2.000000));
#771=CARTESIAN_POINT('',(17.460000,0.320000,2.500000));
#772=CARTESIAN_POINT('',(18.100000,-0.320000,-2.000000));
#773=CARTESIAN_POINT('',(18.100000,-0.320000,2.500000));
#774=CARTESIAN_POINT('',(18.100000,0.320000,-2.000000));
#775=CARTESIAN_POINT('',(18.100000,0.320000,2.500000));
#776=POLY_LOOP('',(#769,#773,#775,#771));
#777=FACE_OUTER_BOUND('',#776,.T.);
#778=CARTESIAN_POINT('',(17.780000,0.000000,2.500000));
#779=DIRECTION('',(0.000000,0.000000,1.000000));
#780=DIRECTION('',(1.000000,0.000000,0.000000));
#781=AXIS2_PLACEMENT_3D('',#778,#779,#780);
#782=PLANE('',#781);
#783=ADVANCED_FACE('',(#777),#782,.T.);
#784=POLY_LOOP('',(#768,#770,#774,#772));
#785=FACE_OUTER_BOUND('',#784,.T.);
#786=CARTESIAN_POINT('',(17.780000,0.000000,-2.000000));
#787=DIRECTION('',(0.000000,0.000000,-1.000000));
#788=DIRECTION('',(1.000000,0.000000,0.000000));
#789=AXIS2_PLACEMENT_3D('',#786,#787,#788);
#790=PLANE('',#789);
#791=ADVANCED_FACE('',(#785),#790,.T.);
#792=POLY_LOOP('',(#770,#771,#775,#774));
#793=FACE_OUTER_BOUND('',#792,.T.);
#794=CARTESIAN_POINT('',(17.780000,0.320000,0.250000));
#795=DIRECTION('',(0.000000,1.000000,0.000000));
#796=DIRECTION('',(1.000000,0.000000,0.000000));
#797=AXIS2_PLACEMENT_3D('',#794,#795,#796);
#798=PLANE('',#797);
#799=ADVANCED_FACE('',(#793),#798,.T.);
#800=POLY_LOOP('',(#768,#772,#773,#769));
#801=FACE_OUTER_BOUND('',#800,.T.);
#802=CARTESIAN_POINT('',(17.780000,-0.320000,0.250000));
#803=DIRECTION('',(0.000000,-1.000000,0.000000));
#804=DIRECTION('',(1.000000,0.000000,0.000000));
#805=AXIS2_PLACEMENT_3D('',#802,#803,#804);
#806=PLANE('',#805);
#807=ADVANCED_FACE('',(#801),#806,.T.);
#808=POLY_LOOP('',(#772,#774,#775,#773));
#809=FACE_OUTER_BOUND('',#808,.T.);
#810=CARTESIAN_POINT('',(18.100000,0.000000,0.250000));
#811=DIRECTION('',(1.000000,0.000000,0.000000));
#812=DIRECTION('',(0.000000,1.000000,0.000000));
#813=AXIS2_PLACEMENT_3D('',#810,#811,#812);
#814=PLANE('',#813);
#815=ADVANCED_FACE('',(#809),#814,.T.);
#816=POLY_LOOP('',(#768,#769,#771,#770));
#817=FACE_OUTER_BOUND('',#816,.T.);
#818=CARTESIAN_POINT('',(17.460000,0.000000,0.250000));
#819=DIRECTION('',(-1.000000,0.000000,0.000000));
#820=DIRECTION('',(0.000000,1.000000,0.000000));
#821=AXIS2_PLACEMENT_3D('',#818,#819,#820);
#822=PLANE('',#821);
#823=ADVANCED_FACE('',(#817),#822,.T.);
#824=CLOSED_SHELL('',(#783,#791,#799,#807,#815,#823));
#825=MANIFOLD_SOLID_BREP('pin_r_0',#824);
#826=CARTESIAN_POINT('',(17.460000,2.220000,-2.000000));
#827=CARTESIAN_POINT('',(17.460000,2.220000,2.500000));
#828=CARTESIAN_POINT('',(17.460000,2.860000,-2.000000));
#829=CARTESIAN_POINT('',(17.460000,2.860000,2.500000));
#830=CARTESIAN_POINT('',(18.100000,2.220000,-2.000000));
#831=CARTESIAN_POINT('',(18.100000,2.220000,2.500000));
#832=CARTESIAN_POINT('',(18.100000,2.860000,-2.000000));
#833=CARTESIAN_POINT('',(18.100000,2.860000,2.500000));
#834=POLY_LOOP('',(#827,#831,#833,#829));
#835=FACE_OUTER_BOUND('',#834,.T.);
#836=CARTESIAN_POINT('',(17.780000,2.540000,2.500000));
#837=DIRECTION('',(0.000000,0.000000,1.000000));
#838=DIRECTION('',(1.000000,0.000000,0.000000));
#839=AXIS2_PLACEMENT_3D('',#836,#837,#838);
#840=PLANE('',#839);
#841=ADVANCED_FACE('',(#835),#840,.T.);
#842=POLY_LOOP('',(#826,#828,#832,#830));
#843=FACE_OUTER_BOUND('',#842,.T.);
#844=CARTESIAN_POINT('',(17.780000,2.540000,-2.000000));
#845=DIRECTION('',(0.000000,0.000000,-1.000000));
#846=DIRECTION('',(1.000000,0.000000,0.000000));
#847=AXIS2_PLACEMENT_3D('',#844,#845,#846);
#848=PLANE('',#847);
#849=ADVANCED_FACE('',(#843),#848,.T.);
#850=POLY_LOOP('',(#828,#829,#833,#832));
#851=FACE_OUTER_BOUND('',#850,.T.);
#852=CARTESIAN_POINT('',(17.780000,2.860000,0.250000));
#853=DIRECTION('',(0.000000,1.000000,0.000000));
#854=DIRECTION('',(1.000000,0.000000,0.000000));
#855=AXIS2_PLACEMENT_3D('',#852,#853,#854);
#856=PLANE('',#855);
#857=ADVANCED_FACE('',(#851),#856,.T.);
#858=POLY_LOOP('',(#826,#830,#831,#827));
#859=FACE_OUTER_BOUND('',#858,.T.);
#860=CARTESIAN_POINT('',(17.780000,2.220000,0.250000));
#861=DIRECTION('',(0.000000,-1.000000,0.000000));
#862=DIRECTION('',(1.000000,0.000000,0.000000));
#863=AXIS2_PLACEMENT_3D('',#860,#861,#862);
#864=PLANE('',#863);
#865=ADVANCED_FACE('',(#859),#864,.T.);
#866=POLY_LOOP('',(#830,#832,#833,#831));
#867=FACE_OUTER_BOUND('',#866,.T.);
#868=CARTESIAN_POINT('',(18.100000,2.540000,0.250000));
#869=DIRECTION('',(1.000000,0.000000,0.000000));
#870=DIRECTION('',(0.000000,1.000000,0.000000));
#871=AXIS2_PLACEMENT_3D('',#868,#869,#870);
#872=PLANE('',#871);
#873=ADVANCED_FACE('',(#867),#872,.T.);
#874=POLY_LOOP('',(#826,#827,#829,#828));
#875=FACE_OUTER_BOUND('',#874,.T.);
#876=CARTESIAN_POINT('',(17.460000,2.540000,0.250000));
#877=DIRECTION('',(-1.000000,0.000000,0.000000));
#878=DIRECTION('',(0.000000,1.000000,0.000000));
#879=AXIS2_PLACEMENT_3D('',#876,#877,#878);
#880=PLANE('',#879);
#881=ADVANCED_FACE('',(#875),#880,.T.);
#882=CLOSED_SHELL('',(#841,#849,#857,#865,#873,#881));
#883=MANIFOLD_SOLID_BREP('pin_r_1',#882);
#884=CARTESIAN_POINT('',(17.460000,4.760000,-2.000000));
#885=CARTESIAN_POINT('',(17.460000,4.760000,2.500000));
#886=CARTESIAN_POINT('',(17.460000,5.400000,-2.000000));
#887=CARTESIAN_POINT('',(17.460000,5.400000,2.500000));
#888=CARTESIAN_POINT('',(18.100000,4.760000,-2.000000));
#889=CARTESIAN_POINT('',(18.100000,4.760000,2.500000));
#890=CARTESIAN_POINT('',(18.100000,5.400000,-2.000000));
#891=CARTESIAN_POINT('',(18.100000,5.400000,2.500000));
#892=POLY_LOOP('',(#885,#889,#891,#887));
#893=FACE_OUTER_BOUND('',#892,.T.);
#894=CARTESIAN_POINT('',(17.780000,5.080000,2.500000));
#895=DIRECTION('',(0.000000,0.000000,1.000000));
#896=DIRECTION('',(1.000000,0.000000,0.000000));
#897=AXIS2_PLACEMENT_3D('',#894,#895,#896);
#898=PLANE('',#897);
#899=ADVANCED_FACE('',(#893),#898,.T.);
#900=POLY_LOOP('',(#884,#886,#890,#888));
#901=FACE_OUTER_BOUND('',#900,.T.);
#902=CARTESIAN_POINT('',(17.780000,5.080000,-2.000000));
#903=DIRECTION('',(0.000000,0.000000,-1.000000));
#904=DIRECTION('',(1.000000,0.000000,0.000000));
#905=AXIS2_PLACEMENT_3D('',#902,#903,#904);
#906=PLANE('',#905);
#907=ADVANCED_FACE('',(#901),#906,.T.);
#908=POLY_LOOP('',(#886,#887,#891,#890));
#909=FACE_OUTER_BOUND('',#908,.T.);
#910=CARTESIAN_POINT('',(17.780000,5.400000,0.250000));
#911=DIRECTION('',(0.000000,1.000000,0.000000));
#912=DIRECTION('',(1.000000,0.000000,0.000000));
#913=AXIS2_PLACEMENT_3D('',#910,#911,#912);
#914=PLANE('',#913);
#915=ADVANCED_FACE('',(#909),#914,.T.);
#916=POLY_LOOP('',(#884,#888,#889,#885));
#917=FACE_OUTER_BOUND('',#916,.T.);
#918=CARTESIAN_POINT('',(17.780000,4.760000,0.250000));
#919=DIRECTION('',(0.000000,-1.000000,0.000000));
#920=DIRECTION('',(1.000000,0.000000,0.000000));
#921=AXIS2_PLACEMENT_3D('',#918,#919,#920);
#922=PLANE('',#921);
#923=ADVANCED_FACE('',(#917),#922,.T.);
#924=POLY_LOOP('',(#888,#890,#891,#889));
#925=FACE_OUTER_BOUND('',#924,.T.);
#926=CARTESIAN_POINT('',(18.100000,5.080000,0.250000));
#927=DIRECTION('',(1.000000,0.000000,0.000000));
#928=DIRECTION('',(0.000000,1.000000,0.000000));
#929=AXIS2_PLACEMENT_3D('',#926,#927,#928);
#930=PLANE('',#929);
#931=ADVANCED_FACE('',(#925),#930,.T.);
#932=POLY_LOOP('',(#884,#885,#887,#886));
#933=FACE_OUTER_BOUND('',#932,.T.);
#934=CARTESIAN_POINT('',(17.460000,5.080000,0.250000));
#935=DIRECTION('',(-1.000000,0.000000,0.000000));
#936=DIRECTION('',(0.000000,1.000000,0.000000));
#937=AXIS2_PLACEMENT_3D('',#934,#935,#936);
#938=PLANE('',#937);
#939=ADVANCED_FACE('',(#933),#938,.T.);
#940=CLOSED_SHELL('',(#899,#907,#915,#923,#931,#939));
#941=MANIFOLD_SOLID_BREP('pin_r_2',#940);
#942=CARTESIAN_POINT('',(17.460000,7.300000,-2.000000));
#943=CARTESIAN_POINT('',(17.460000,7.300000,2.500000));
#944=CARTESIAN_POINT('',(17.460000,7.940000,-2.000000));
#945=CARTESIAN_POINT('',(17.460000,7.940000,2.500000));
#946=CARTESIAN_POINT('',(18.100000,7.300000,-2.000000));
#947=CARTESIAN_POINT('',(18.100000,7.300000,2.500000));
#948=CARTESIAN_POINT('',(18.100000,7.940000,-2.000000));
#949=CARTESIAN_POINT('',(18.100000,7.940000,2.500000));
#950=POLY_LOOP('',(#943,#947,#949,#945));
#951=FACE_OUTER_BOUND('',#950,.T.);
#952=CARTESIAN_POINT('',(17.780000,7.620000,2.500000));
#953=DIRECTION('',(0.000000,0.000000,1.000000));
#954=DIRECTION('',(1.000000,0.000000,0.000000));
#955=AXIS2_PLACEMENT_3D('',#952,#953,#954);
#956=PLANE('',#955);
#957=ADVANCED_FACE('',(#951),#956,.T.);
#958=POLY_LOOP('',(#942,#944,#948,#946));
#959=FACE_OUTER_BOUND('',#958,.T.);
#960=CARTESIAN_POINT('',(17.780000,7.620000,-2.000000));
#961=DIRECTION('',(0.000000,0.000000,-1.000000));
#962=DIRECTION('',(1.000000,0.000000,0.000000));
#963=AXIS2_PLACEMENT_3D('',#960,#961,#962);
#964=PLANE('',#963);
#965=ADVANCED_FACE('',(#959),#964,.T.);
#966=POLY_LOOP('',(#944,#945,#949,#948));
#967=FACE_OUTER_BOUND('',#966,.T.);
#968=CARTESIAN_POINT('',(17.780000,7.940000,0.250000));
#969=DIRECTION('',(0.000000,1.000000,0.000000));
#970=DIRECTION('',(1.000000,0.000000,0.000000));
#971=AXIS2_PLACEMENT_3D('',#968,#969,#970);
#972=PLANE('',#971);
#973=ADVANCED_FACE('',(#967),#972,.T.);
#974=POLY_LOOP('',(#942,#946,#947,#943));
#975=FACE_OUTER_BOUND('',#974,.T.);
#976=CARTESIAN_POINT('',(17.780000,7.300000,0.250000));
#977=DIRECTION('',(0.000000,-1.000000,0.000000));
#978=DIRECTION('',(1.000000,0.000000,0.000000));
#979=AXIS2_PLACEMENT_3D('',#976,#977,#978);
#980=PLANE('',#979);
#981=ADVANCED_FACE('',(#975),#980,.T.);
#982=POLY_LOOP('',(#946,#948,#949,#947));
#983=FACE_OUTER_BOUND('',#982,.T.);
#984=CARTESIAN_POINT('',(18.100000,7.620000,0.250000));
#985=DIRECTION('',(1.000000,0.000000,0.000000));
#986=DIRECTION('',(0.000000,1.000000,0.000000));
#987=AXIS2_PLACEMENT_3D('',#984,#985,#986);
#988=PLANE('',#987);
#989=ADVANCED_FACE('',(#983),#988,.T.);
#990=POLY_LOOP('',(#942,#943,#945,#944));
#991=FACE_OUTER_BOUND('',#990,.T.);
#992=CARTESIAN_POINT('',(17.460000,7.620000,0.250000));
#993=DIRECTION('',(-1.000000,0.000000,0.000000));
#994=DIRECTION('',(0.000000,1.000000,0.000000));
#995=AXIS2_PLACEMENT_3D('',#992,#993,#994);
#996=PLANE('',#995);
#997=ADVANCED_FACE('',(#991),#996,.T.);
#998=CLOSED_SHELL('',(#957,#965,#973,#981,#989,#997));
#999=MANIFOLD_SOLID_BREP('pin_r_3',#998);
#1000=CARTESIAN_POINT('',(17.460000,9.840000,-2.000000));
#1001=CARTESIAN_POINT('',(17.460000,9.840000,2.500000));
#1002=CARTESIAN_POINT('',(17.460000,10.480000,-2.000000));
#1003=CARTESIAN_POINT('',(17.460000,10.480000,2.500000));
#1004=CARTESIAN_POINT('',(18.100000,9.840000,-2.000000));
#1005=CARTESIAN_POINT('',(18.100000,9.840000,2.500000));
#1006=CARTESIAN_POINT('',(18.100000,10.480000,-2.000000));
#1007=CARTESIAN_POINT('',(18.100000,10.480000,2.500000));
#1008=POLY_LOOP('',(#1001,#1005,#1007,#1003));
#1009=FACE_OUTER_BOUND('',#1008,.T.);
#1010=CARTESIAN_POINT('',(17.780000,10.160000,2.500000));
#1011=DIRECTION('',(0.000000,0.000000,1.000000));
#1012=DIRECTION('',(1.000000,0.000000,0.000000));
#1013=AXIS2_PLACEMENT_3D('',#1010,#1011,#1012);
#1014=PLANE('',#1013);
#1015=ADVANCED_FACE('',(#1009),#1014,.T.);
#1016=POLY_LOOP('',(#1000,#1002,#1006,#1004));
#1017=FACE_OUTER_BOUND('',#1016,.T.);
#1018=CARTESIAN_POINT('',(17.780000,10.160000,-2.000000));
#1019=DIRECTION('',(0.000000,0.000000,-1.000000));
#1020=DIRECTION('',(1.000000,0.000000,0.000000));
#1021=AXIS2_PLACEMENT_3D('',#1018,#1019,#1020);
#1022=PLANE('',#1021);
#1023=ADVANCED_FACE('',(#1017),#1022,.T.);
#1024=POLY_LOOP('',(#1002,#1003,#1007,#1006));
#1025=FACE_OUTER_BOUND('',#1024,.T.);
#1026=CARTESIAN_POINT('',(17.780000,10.480000,0.250000));
#1027=DIRECTION('',(0.000000,1.000000,0.000000));
#1028=DIRECTION('',(1.000000,0.000000,0.000000));
#1029=AXIS2_PLACEMENT_3D('',#1026,#1027,#1028);
#1030=PLANE('',#1029);
#1031=ADVANCED_FACE('',(#1025),#1030,.T.);
#1032=POLY_LOOP('',(#1000,#1004,#1005,#1001));
#1033=FACE_OUTER_BOUND('',#1032,.T.);
#1034=CARTESIAN_POINT('',(17.780000,9.840000,0.250000));
#1035=DIRECTION('',(0.000000,-1.000000,0.000000));
#1036=DIRECTION('',(1.000000,0.000000,0.000000));
#1037=AXIS2_PLACEMENT_3D('',#1034,#1035,#1036);
#1038=PLANE('',#1037);
#1039=ADVANCED_FACE('',(#1033),#1038,.T.);
#1040=POLY_LOOP('',(#1004,#1006,#1007,#1005));
#1041=FACE_OUTER_BOUND('',#1040,.T.);
#1042=CARTESIAN_POINT('',(18.100000,10.160000,0.250000));
#1043=DIRECTION('',(1.000000,0.000000,0.000000));
#1044=DIRECTION('',(0.000000,1.000000,0.000000));
#1045=AXIS2_PLACEMENT_3D('',#1042,#1043,#1044);
#1046=PLANE('',#1045);
#1047=ADVANCED_FACE('',(#1041),#1046,.T.);
#1048=POLY_LOOP('',(#1000,#1001,#1003,#1002));
#1049=FACE_OUTER_BOUND('',#1048,.T.);
#1050=CARTESIAN_POINT('',(17.460000,10.160000,0.250000));
#1051=DIRECTION('',(-1.000000,0.000000,0.000000));
#1052=DIRECTION('',(0.000000,1.000000,0.000000));
#1053=AXIS2_PLACEMENT_3D('',#1050,#1051,#1052);
#1054=PLANE('',#1053);
#1055=ADVANCED_FACE('',(#1049),#1054,.T.);
#1056=CLOSED_SHELL('',(#1015,#1023,#1031,#1039,#1047,#1055));
#1057=MANIFOLD_SOLID_BREP('pin_r_4',#1056);
#1058=CARTESIAN_POINT('',(17.460000,12.380000,-2.000000));
#1059=CARTESIAN_POINT('',(17.460000,12.380000,2.500000));
#1060=CARTESIAN_POINT('',(17.460000,13.020000,-2.000000));
#1061=CARTESIAN_POINT('',(17.460000,13.020000,2.500000));
#1062=CARTESIAN_POINT('',(18.100000,12.380000,-2.000000));
#1063=CARTESIAN_POINT('',(18.100000,12.380000,2.500000));
#1064=CARTESIAN_POINT('',(18.100000,13.020000,-2.000000));
#1065=CARTESIAN_POINT('',(18.100000,13.020000,2.500000));
#1066=POLY_LOOP('',(#1059,#1063,#1065,#1061));
#1067=FACE_OUTER_BOUND('',#1066,.T.);
#1068=CARTESIAN_POINT('',(17.780000,12.700000,2.500000));
#1069=DIRECTION('',(0.000000,0.000000,1.000000));
#1070=DIRECTION('',(1.000000,0.000000,0.000000));
#1071=AXIS2_PLACEMENT_3D('',#1068,#1069,#1070);
#1072=PLANE('',#1071);
#1073=ADVANCED_FACE('',(#1067),#1072,.T.);
#1074=POLY_LOOP('',(#1058,#1060,#1064,#1062));
#1075=FACE_OUTER_BOUND('',#1074,.T.);
#1076=CARTESIAN_POINT('',(17.780000,12.700000,-2.000000));
#1077=DIRECTION('',(0.000000,0.000000,-1.000000));
#1078=DIRECTION('',(1.000000,0.000000,0.000000));
#1079=AXIS2_PLACEMENT_3D('',#1076,#1077,#1078);
#1080=PLANE('',#1079);
#1081=ADVANCED_FACE('',(#1075),#1080,.T.);
#1082=POLY_LOOP('',(#1060,#1061,#1065,#1064));
#1083=FACE_OUTER_BOUND('',#1082,.T.);
#1084=CARTESIAN_POINT('',(17.780000,13.020000,0.250000));
#1085=DIRECTION('',(0.000000,1.000000,0.000000));
#1086=DIRECTION('',(1.000000,0.000000,0.000000));
#1087=AXIS2_PLACEMENT_3D('',#1084,#1085,#1086);
#1088=PLANE('',#1087);
#1089=ADVANCED_FACE('',(#1083),#1088,.T.);
#1090=POLY_LOOP('',(#1058,#1062,#1063,#1059));
#1091=FACE_OUTER_BOUND('',#1090,.T.);
#1092=CARTESIAN_POINT('',(17.780000,12.380000,0.250000));
#1093=DIRECTION('',(0.000000,-1.000000,0.000000));
#1094=DIRECTION('',(1.000000,0.000000,0.000000));
#1095=AXIS2_PLACEMENT_3D('',#1092,#1093,#1094);
#1096=PLANE('',#1095);
#1097=ADVANCED_FACE('',(#1091),#1096,.T.);
#1098=POLY_LOOP('',(#1062,#1064,#1065,#1063));
#1099=FACE_OUTER_BOUND('',#1098,.T.);
#1100=CARTESIAN_POINT('',(18.100000,12.700000,0.250000));
#1101=DIRECTION('',(1.000000,0.000000,0.000000));
#1102=DIRECTION('',(0.000000,1.000000,0.000000));
#1103=AXIS2_PLACEMENT_3D('',#1100,#1101,#1102);
#1104=PLANE('',#1103);
#1105=ADVANCED_FACE('',(#1099),#1104,.T.);
#1106=POLY_LOOP('',(#1058,#1059,#1061,#1060));
#1107=FACE_OUTER_BOUND('',#1106,.T.);
#1108=CARTESIAN_POINT('',(17.460000,12.700000,0.250000));
#1109=DIRECTION('',(-1.000000,0.000000,0.000000));
#1110=DIRECTION('',(0.000000,1.000000,0.000000));
#1111=AXIS2_PLACEMENT_3D('',#1108,#1109,#1110);
#1112=PLANE('',#1111);
#1113=ADVANCED_FACE('',(#1107),#1112,.T.);
#1114=CLOSED_SHELL('',(#1073,#1081,#1089,#1097,#1105,#1113));
#1115=MANIFOLD_SOLID_BREP('pin_r_5',#1114);
#1116=CARTESIAN_POINT('',(17.460000,14.920000,-2.000000));
#1117=CARTESIAN_POINT('',(17.460000,14.920000,2.500000));
#1118=CARTESIAN_POINT('',(17.460000,15.560000,-2.000000));
#1119=CARTESIAN_POINT('',(17.460000,15.560000,2.500000));
#1120=CARTESIAN_POINT('',(18.100000,14.920000,-2.000000));
#1121=CARTESIAN_POINT('',(18.100000,14.920000,2.500000));
#1122=CARTESIAN_POINT('',(18.100000,15.560000,-2.000000));
#1123=CARTESIAN_POINT('',(18.100000,15.560000,2.500000));
#1124=POLY_LOOP('',(#1117,#1121,#1123,#1119));
#1125=FACE_OUTER_BOUND('',#1124,.T.);
#1126=CARTESIAN_POINT('',(17.780000,15.240000,2.500000));
#1127=DIRECTION('',(0.000000,0.000000,1.000000));
#1128=DIRECTION('',(1.000000,0.000000,0.000000));
#1129=AXIS2_PLACEMENT_3D('',#1126,#1127,#1128);
#1130=PLANE('',#1129);
#1131=ADVANCED_FACE('',(#1125),#1130,.T.);
#1132=POLY_LOOP('',(#1116,#1118,#1122,#1120));
#1133=FACE_OUTER_BOUND('',#1132,.T.);
#1134=CARTESIAN_POINT('',(17.780000,15.240000,-2.000000));
#1135=DIRECTION('',(0.000000,0.000000,-1.000000));
#1136=DIRECTION('',(1.000000,0.000000,0.000000));
#1137=AXIS2_PLACEMENT_3D('',#1134,#1135,#1136);
#1138=PLANE('',#1137);
#1139=ADVANCED_FACE('',(#1133),#1138,.T.);
#1140=POLY_LOOP('',(#1118,#1119,#1123,#1122));
#1141=FACE_OUTER_BOUND('',#1140,.T.);
#1142=CARTESIAN_POINT('',(17.780000,15.560000,0.250000));
#1143=DIRECTION('',(0.000000,1.000000,0.000000));
#1144=DIRECTION('',(1.000000,0.000000,0.000000));
#1145=AXIS2_PLACEMENT_3D('',#1142,#1143,#1144);
#1146=PLANE('',#1145);
#1147=ADVANCED_FACE('',(#1141),#1146,.T.);
#1148=POLY_LOOP('',(#1116,#1120,#1121,#1117));
#1149=FACE_OUTER_BOUND('',#1148,.T.);
#1150=CARTESIAN_POINT('',(17.780000,14.920000,0.250000));
#1151=DIRECTION('',(0.000000,-1.000000,0.000000));
#1152=DIRECTION('',(1.000000,0.000000,0.000000));
#1153=AXIS2_PLACEMENT_3D('',#1150,#1151,#1152);
#1154=PLANE('',#1153);
#1155=ADVANCED_FACE('',(#1149),#1154,.T.);
#1156=POLY_LOOP('',(#1120,#1122,#1123,#1121));
#1157=FACE_OUTER_BOUND('',#1156,.T.);
#1158=CARTESIAN_POINT('',(18.100000,15.240000,0.250000));
#1159=DIRECTION('',(1.000000,0.000000,0.000000));
#1160=DIRECTION('',(0.000000,1.000000,0.000000));
#1161=AXIS2_PLACEMENT_3D('',#1158,#1159,#1160);
#1162=PLANE('',#1161);
#1163=ADVANCED_FACE('',(#1157),#1162,.T.);
#1164=POLY_LOOP('',(#1116,#1117,#1119,#1118));
#1165=FACE_OUTER_BOUND('',#1164,.T.);
#1166=CARTESIAN_POINT('',(17.460000,15.240000,0.250000));
#1167=DIRECTION('',(-1.000000,0.000000,0.000000));
#1168=DIRECTION('',(0.000000,1.000000,0.000000));
#1169=AXIS2_PLACEMENT_3D('',#1166,#1167,#1168);
#1170=PLANE('',#1169);
#1171=ADVANCED_FACE('',(#1165),#1170,.T.);
#1172=CLOSED_SHELL('',(#1131,#1139,#1147,#1155,#1163,#1171));
#1173=MANIFOLD_SOLID_BREP('pin_r_6',#1172);
#1174=CARTESIAN_POINT('',(17.460000,17.460000,-2.000000));
#1175=CARTESIAN_POINT('',(17.460000,17.460000,2.500000));
#1176=CARTESIAN_POINT('',(17.460000,18.100000,-2.000000));
#1177=CARTESIAN_POINT('',(17.460000,18.100000,2.500000));
#1178=CARTESIAN_POINT('',(18.100000,17.460000,-2.000000));
#1179=CARTESIAN_POINT('',(18.100000,17.460000,2.500000));
#1180=CARTESIAN_POINT('',(18.100000,18.100000,-2.000000));
#1181=CARTESIAN_POINT('',(18.100000,18.100000,2.500000));
#1182=POLY_LOOP('',(#1175,#1179,#1181,#1177));
#1183=FACE_OUTER_BOUND('',#1182,.T.);
#1184=CARTESIAN_POINT('',(17.780000,17.780000,2.500000));
#1185=DIRECTION('',(0.000000,0.000000,1.000000));
#1186=DIRECTION('',(1.000000,0.000000,0.000000));
#1187=AXIS2_PLACEMENT_3D('',#1184,#1185,#1186);
#1188=PLANE('',#1187);
#1189=ADVANCED_FACE('',(#1183),#1188,.T.);
#1190=POLY_LOOP('',(#1174,#1176,#1180,#1178));
#1191=FACE_OUTER_BOUND('',#1190,.T.);
#1192=CARTESIAN_POINT('',(17.780000,17.780000,-2.000000));
#1193=DIRECTION('',(0.000000,0.000000,-1.000000));
#1194=DIRECTION('',(1.000000,0.000000,0.000000));
#1195=AXIS2_PLACEMENT_3D('',#1192,#1193,#1194);
#1196=PLANE('',#1195);
#1197=ADVANCED_FACE('',(#1191),#1196,.T.);
#1198=POLY_LOOP('',(#1176,#1177,#1181,#1180));
#1199=FACE_OUTER_BOUND('',#1198,.T.);
#1200=CARTESIAN_POINT('',(17.780000,18.100000,0.250000));
#1201=DIRECTION('',(0.000000,1.000000,0.000000));
#1202=DIRECTION('',(1.000000,0.000000,0.000000));
#1203=AXIS2_PLACEMENT_3D('',#1200,#1201,#1202);
#1204=PLANE('',#1203);
#1205=ADVANCED_FACE('',(#1199),#1204,.T.);
#1206=POLY_LOOP('',(#1174,#1178,#1179,#1175));
#1207=FACE_OUTER_BOUND('',#1206,.T.);
#1208=CARTESIAN_POINT('',(17.780000,17.460000,0.250000));
#1209=DIRECTION('',(0.000000,-1.000000,0.000000));
#1210=DIRECTION('',(1.000000,0.000000,0.000000));
#1211=AXIS2_PLACEMENT_3D('',#1208,#1209,#1210);
#1212=PLANE('',#1211);
#1213=ADVANCED_FACE('',(#1207),#1212,.T.);
#1214=POLY_LOOP('',(#1178,#1180,#1181,#1179));
#1215=FACE_OUTER_BOUND('',#1214,.T.);
#1216=CARTESIAN_POINT('',(18.100000,17.780000,0.250000));
#1217=DIRECTION('',(1.000000,0.000000,0.000000));
#1218=DIRECTION('',(0.000000,1.000000,0.000000));
#1219=AXIS2_PLACEMENT_3D('',#1216,#1217,#1218);
#1220=PLANE('',#1219);
#1221=ADVANCED_FACE('',(#1215),#1220,.T.);
#1222=POLY_LOOP('',(#1174,#1175,#1177,#1176));
#1223=FACE_OUTER_BOUND('',#1222,.T.);
#1224=CARTESIAN_POINT('',(17.460000,17.780000,0.250000));
#1225=DIRECTION('',(-1.000000,0.000000,0.000000));
#1226=DIRECTION('',(0.000000,1.000000,0.000000));
#1227=AXIS2_PLACEMENT_3D('',#1224,#1225,#1226);
#1228=PLANE('',#1227);
#1229=ADVANCED_FACE('',(#1223),#1228,.T.);
#1230=CLOSED_SHELL('',(#1189,#1197,#1205,#1213,#1221,#1229));
#1231=MANIFOLD_SOLID_BREP('pin_r_7',#1230);
#1232=SHAPE_REPRESENTATION('',(#71,#129,#187,#245,#303,#361,#419,#477,#535,#593,#651,#709,#767,#825,#883,#941,#999,#1057,#1115,#1173,#1231),#13);
#1233=SHAPE_DEFINITION_REPRESENTATION(#8,#1232);
ENDSEC;
END-ISO-10303-21;
