%TF.GenerationSoftware,KiCad,Pcbnew,8.0.3*%
%TF.CreationDate,2025-06-04T21:14:47+09:00*%
%TF.ProjectId,mainboard,6d61696e-626f-4617-9264-2e6b69636164,rev?*%
%TF.SameCoordinates,Original*%
%TF.FileFunction,Legend,Bot*%
%TF.FilePolarity,Positive*%
%FSLAX46Y46*%
G04 Gerber Fmt 4.6, Leading zero omitted, Abs format (unit mm)*
G04 Created by KiCad (PCBNEW 8.0.3) date 2025-06-04 21:14:47*
%MOMM*%
%LPD*%
G01*
G04 APERTURE LIST*
G04 Aperture macros list*
%AMRoundRect*
0 Rectangle with rounded corners*
0 $1 Rounding radius*
0 $2 $3 $4 $5 $6 $7 $8 $9 X,Y pos of 4 corners*
0 Add a 4 corners polygon primitive as box body*
4,1,4,$2,$3,$4,$5,$6,$7,$8,$9,$2,$3,0*
0 Add four circle primitives for the rounded corners*
1,1,$1+$1,$2,$3*
1,1,$1+$1,$4,$5*
1,1,$1+$1,$6,$7*
1,1,$1+$1,$8,$9*
0 Add four rect primitives between the rounded corners*
20,1,$1+$1,$2,$3,$4,$5,0*
20,1,$1+$1,$4,$5,$6,$7,0*
20,1,$1+$1,$6,$7,$8,$9,0*
20,1,$1+$1,$8,$9,$2,$3,0*%
G04 Aperture macros list end*
%ADD10C,0.150000*%
%ADD11C,0.120000*%
%ADD12R,1.500000X1.500000*%
%ADD13C,1.600000*%
%ADD14R,1.700000X1.700000*%
%ADD15O,1.700000X1.700000*%
%ADD16R,1.800000X1.800000*%
%ADD17C,1.800000*%
%ADD18RoundRect,0.250000X-0.600000X-0.750000X0.600000X-0.750000X0.600000X0.750000X-0.600000X0.750000X0*%
%ADD19O,1.700000X2.000000*%
%ADD20C,2.000000*%
%ADD21RoundRect,0.250000X0.625000X-0.350000X0.625000X0.350000X-0.625000X0.350000X-0.625000X-0.350000X0*%
%ADD22O,1.750000X1.200000*%
%ADD23C,6.000000*%
%ADD24C,2.500000*%
%ADD25C,1.524000*%
%ADD26R,1.600000X1.600000*%
%ADD27RoundRect,0.250000X-0.725000X0.600000X-0.725000X-0.600000X0.725000X-0.600000X0.725000X0.600000X0*%
%ADD28O,1.950000X1.700000*%
%ADD29RoundRect,0.250000X-0.600000X-0.725000X0.600000X-0.725000X0.600000X0.725000X-0.600000X0.725000X0*%
%ADD30O,1.700000X1.950000*%
%ADD31RoundRect,0.150000X0.675000X0.150000X-0.675000X0.150000X-0.675000X-0.150000X0.675000X-0.150000X0*%
%ADD32RoundRect,0.237500X0.300000X0.237500X-0.300000X0.237500X-0.300000X-0.237500X0.300000X-0.237500X0*%
%ADD33C,1.100000*%
%ADD34R,3.800000X3.800000*%
%ADD35C,3.800000*%
G04 APERTURE END LIST*
D10*
X167583333Y-133454819D02*
X167583333Y-134169104D01*
X167583333Y-134169104D02*
X167630952Y-134311961D01*
X167630952Y-134311961D02*
X167726190Y-134407200D01*
X167726190Y-134407200D02*
X167869047Y-134454819D01*
X167869047Y-134454819D02*
X167964285Y-134454819D01*
X166583333Y-134454819D02*
X167154761Y-134454819D01*
X166869047Y-134454819D02*
X166869047Y-133454819D01*
X166869047Y-133454819D02*
X166964285Y-133597676D01*
X166964285Y-133597676D02*
X167059523Y-133692914D01*
X167059523Y-133692914D02*
X167154761Y-133740533D01*
X148333333Y-133454819D02*
X148333333Y-134169104D01*
X148333333Y-134169104D02*
X148380952Y-134311961D01*
X148380952Y-134311961D02*
X148476190Y-134407200D01*
X148476190Y-134407200D02*
X148619047Y-134454819D01*
X148619047Y-134454819D02*
X148714285Y-134454819D01*
X147904761Y-133550057D02*
X147857142Y-133502438D01*
X147857142Y-133502438D02*
X147761904Y-133454819D01*
X147761904Y-133454819D02*
X147523809Y-133454819D01*
X147523809Y-133454819D02*
X147428571Y-133502438D01*
X147428571Y-133502438D02*
X147380952Y-133550057D01*
X147380952Y-133550057D02*
X147333333Y-133645295D01*
X147333333Y-133645295D02*
X147333333Y-133740533D01*
X147333333Y-133740533D02*
X147380952Y-133883390D01*
X147380952Y-133883390D02*
X147952380Y-134454819D01*
X147952380Y-134454819D02*
X147333333Y-134454819D01*
X176611904Y-54924819D02*
X176611904Y-55734342D01*
X176611904Y-55734342D02*
X176564285Y-55829580D01*
X176564285Y-55829580D02*
X176516666Y-55877200D01*
X176516666Y-55877200D02*
X176421428Y-55924819D01*
X176421428Y-55924819D02*
X176230952Y-55924819D01*
X176230952Y-55924819D02*
X176135714Y-55877200D01*
X176135714Y-55877200D02*
X176088095Y-55829580D01*
X176088095Y-55829580D02*
X176040476Y-55734342D01*
X176040476Y-55734342D02*
X176040476Y-54924819D01*
X175088095Y-54924819D02*
X175564285Y-54924819D01*
X175564285Y-54924819D02*
X175611904Y-55401009D01*
X175611904Y-55401009D02*
X175564285Y-55353390D01*
X175564285Y-55353390D02*
X175469047Y-55305771D01*
X175469047Y-55305771D02*
X175230952Y-55305771D01*
X175230952Y-55305771D02*
X175135714Y-55353390D01*
X175135714Y-55353390D02*
X175088095Y-55401009D01*
X175088095Y-55401009D02*
X175040476Y-55496247D01*
X175040476Y-55496247D02*
X175040476Y-55734342D01*
X175040476Y-55734342D02*
X175088095Y-55829580D01*
X175088095Y-55829580D02*
X175135714Y-55877200D01*
X175135714Y-55877200D02*
X175230952Y-55924819D01*
X175230952Y-55924819D02*
X175469047Y-55924819D01*
X175469047Y-55924819D02*
X175564285Y-55877200D01*
X175564285Y-55877200D02*
X175611904Y-55829580D01*
X174666666Y-63859580D02*
X174714285Y-63907200D01*
X174714285Y-63907200D02*
X174857142Y-63954819D01*
X174857142Y-63954819D02*
X174952380Y-63954819D01*
X174952380Y-63954819D02*
X175095237Y-63907200D01*
X175095237Y-63907200D02*
X175190475Y-63811961D01*
X175190475Y-63811961D02*
X175238094Y-63716723D01*
X175238094Y-63716723D02*
X175285713Y-63526247D01*
X175285713Y-63526247D02*
X175285713Y-63383390D01*
X175285713Y-63383390D02*
X175238094Y-63192914D01*
X175238094Y-63192914D02*
X175190475Y-63097676D01*
X175190475Y-63097676D02*
X175095237Y-63002438D01*
X175095237Y-63002438D02*
X174952380Y-62954819D01*
X174952380Y-62954819D02*
X174857142Y-62954819D01*
X174857142Y-62954819D02*
X174714285Y-63002438D01*
X174714285Y-63002438D02*
X174666666Y-63050057D01*
X173809523Y-62954819D02*
X173999999Y-62954819D01*
X173999999Y-62954819D02*
X174095237Y-63002438D01*
X174095237Y-63002438D02*
X174142856Y-63050057D01*
X174142856Y-63050057D02*
X174238094Y-63192914D01*
X174238094Y-63192914D02*
X174285713Y-63383390D01*
X174285713Y-63383390D02*
X174285713Y-63764342D01*
X174285713Y-63764342D02*
X174238094Y-63859580D01*
X174238094Y-63859580D02*
X174190475Y-63907200D01*
X174190475Y-63907200D02*
X174095237Y-63954819D01*
X174095237Y-63954819D02*
X173904761Y-63954819D01*
X173904761Y-63954819D02*
X173809523Y-63907200D01*
X173809523Y-63907200D02*
X173761904Y-63859580D01*
X173761904Y-63859580D02*
X173714285Y-63764342D01*
X173714285Y-63764342D02*
X173714285Y-63526247D01*
X173714285Y-63526247D02*
X173761904Y-63431009D01*
X173761904Y-63431009D02*
X173809523Y-63383390D01*
X173809523Y-63383390D02*
X173904761Y-63335771D01*
X173904761Y-63335771D02*
X174095237Y-63335771D01*
X174095237Y-63335771D02*
X174190475Y-63383390D01*
X174190475Y-63383390D02*
X174238094Y-63431009D01*
X174238094Y-63431009D02*
X174285713Y-63526247D01*
X194954819Y-124023095D02*
X195764342Y-124023095D01*
X195764342Y-124023095D02*
X195859580Y-124070714D01*
X195859580Y-124070714D02*
X195907200Y-124118333D01*
X195907200Y-124118333D02*
X195954819Y-124213571D01*
X195954819Y-124213571D02*
X195954819Y-124404047D01*
X195954819Y-124404047D02*
X195907200Y-124499285D01*
X195907200Y-124499285D02*
X195859580Y-124546904D01*
X195859580Y-124546904D02*
X195764342Y-124594523D01*
X195764342Y-124594523D02*
X194954819Y-124594523D01*
X195954819Y-125594523D02*
X195954819Y-125023095D01*
X195954819Y-125308809D02*
X194954819Y-125308809D01*
X194954819Y-125308809D02*
X195097676Y-125213571D01*
X195097676Y-125213571D02*
X195192914Y-125118333D01*
X195192914Y-125118333D02*
X195240533Y-125023095D01*
X189084819Y-72358095D02*
X189894342Y-72358095D01*
X189894342Y-72358095D02*
X189989580Y-72405714D01*
X189989580Y-72405714D02*
X190037200Y-72453333D01*
X190037200Y-72453333D02*
X190084819Y-72548571D01*
X190084819Y-72548571D02*
X190084819Y-72739047D01*
X190084819Y-72739047D02*
X190037200Y-72834285D01*
X190037200Y-72834285D02*
X189989580Y-72881904D01*
X189989580Y-72881904D02*
X189894342Y-72929523D01*
X189894342Y-72929523D02*
X189084819Y-72929523D01*
X189084819Y-73310476D02*
X189084819Y-73929523D01*
X189084819Y-73929523D02*
X189465771Y-73596190D01*
X189465771Y-73596190D02*
X189465771Y-73739047D01*
X189465771Y-73739047D02*
X189513390Y-73834285D01*
X189513390Y-73834285D02*
X189561009Y-73881904D01*
X189561009Y-73881904D02*
X189656247Y-73929523D01*
X189656247Y-73929523D02*
X189894342Y-73929523D01*
X189894342Y-73929523D02*
X189989580Y-73881904D01*
X189989580Y-73881904D02*
X190037200Y-73834285D01*
X190037200Y-73834285D02*
X190084819Y-73739047D01*
X190084819Y-73739047D02*
X190084819Y-73453333D01*
X190084819Y-73453333D02*
X190037200Y-73358095D01*
X190037200Y-73358095D02*
X189989580Y-73310476D01*
X172454819Y-79166666D02*
X173169104Y-79166666D01*
X173169104Y-79166666D02*
X173311961Y-79119047D01*
X173311961Y-79119047D02*
X173407200Y-79023809D01*
X173407200Y-79023809D02*
X173454819Y-78880952D01*
X173454819Y-78880952D02*
X173454819Y-78785714D01*
X172454819Y-80119047D02*
X172454819Y-79642857D01*
X172454819Y-79642857D02*
X172931009Y-79595238D01*
X172931009Y-79595238D02*
X172883390Y-79642857D01*
X172883390Y-79642857D02*
X172835771Y-79738095D01*
X172835771Y-79738095D02*
X172835771Y-79976190D01*
X172835771Y-79976190D02*
X172883390Y-80071428D01*
X172883390Y-80071428D02*
X172931009Y-80119047D01*
X172931009Y-80119047D02*
X173026247Y-80166666D01*
X173026247Y-80166666D02*
X173264342Y-80166666D01*
X173264342Y-80166666D02*
X173359580Y-80119047D01*
X173359580Y-80119047D02*
X173407200Y-80071428D01*
X173407200Y-80071428D02*
X173454819Y-79976190D01*
X173454819Y-79976190D02*
X173454819Y-79738095D01*
X173454819Y-79738095D02*
X173407200Y-79642857D01*
X173407200Y-79642857D02*
X173359580Y-79595238D01*
X169114700Y-72428571D02*
X169114700Y-73571429D01*
X169686128Y-73000000D02*
X168543271Y-73000000D01*
X169114700Y-85428571D02*
X169114700Y-86571429D01*
D11*
%TO.C,J1*%
X158440000Y-123790000D02*
X167250000Y-123790000D01*
X158440000Y-135510000D02*
X158440000Y-123790000D01*
X159860000Y-131010000D02*
X159860000Y-135510000D01*
X159860000Y-135510000D02*
X158440000Y-135510000D01*
X160700000Y-133600000D02*
X161000000Y-133000000D01*
X160750000Y-124400000D02*
X160750000Y-129900000D01*
X160750000Y-129900000D02*
X161250000Y-129900000D01*
X161000000Y-133000000D02*
X161300000Y-133600000D01*
X161250000Y-124400000D02*
X160750000Y-124400000D01*
X161250000Y-129900000D02*
X161250000Y-124400000D01*
X161300000Y-133600000D02*
X160700000Y-133600000D01*
X163250000Y-124400000D02*
X163250000Y-129900000D01*
X163250000Y-129900000D02*
X163750000Y-129900000D01*
X163750000Y-124400000D02*
X163250000Y-124400000D01*
X163750000Y-129900000D02*
X163750000Y-124400000D01*
X165750000Y-124400000D02*
X165750000Y-129900000D01*
X165750000Y-129900000D02*
X166250000Y-129900000D01*
X166250000Y-124400000D02*
X165750000Y-124400000D01*
X166250000Y-129900000D02*
X166250000Y-124400000D01*
X168250000Y-124400000D02*
X168250000Y-129900000D01*
X168250000Y-129900000D02*
X168750000Y-129900000D01*
X168750000Y-124400000D02*
X168250000Y-124400000D01*
X168750000Y-129900000D02*
X168750000Y-124400000D01*
X170750000Y-124400000D02*
X170750000Y-129900000D01*
X170750000Y-129900000D02*
X171250000Y-129900000D01*
X171250000Y-124400000D02*
X170750000Y-124400000D01*
X171250000Y-129900000D02*
X171250000Y-124400000D01*
X173250000Y-124400000D02*
X173250000Y-129900000D01*
X173250000Y-129900000D02*
X173750000Y-129900000D01*
X173750000Y-124400000D02*
X173250000Y-124400000D01*
X173750000Y-129900000D02*
X173750000Y-124400000D01*
X174640000Y-131010000D02*
X174640000Y-135510000D01*
X174640000Y-135510000D02*
X176060000Y-135510000D01*
X176060000Y-123790000D02*
X167250000Y-123790000D01*
X176060000Y-135510000D02*
X176060000Y-123790000D01*
%TO.C,J2*%
X139440000Y-123790000D02*
X148250000Y-123790000D01*
X139440000Y-135510000D02*
X139440000Y-123790000D01*
X140860000Y-131010000D02*
X140860000Y-135510000D01*
X140860000Y-135510000D02*
X139440000Y-135510000D01*
X141700000Y-133600000D02*
X142000000Y-133000000D01*
X141750000Y-124400000D02*
X141750000Y-129900000D01*
X141750000Y-129900000D02*
X142250000Y-129900000D01*
X142000000Y-133000000D02*
X142300000Y-133600000D01*
X142250000Y-124400000D02*
X141750000Y-124400000D01*
X142250000Y-129900000D02*
X142250000Y-124400000D01*
X142300000Y-133600000D02*
X141700000Y-133600000D01*
X144250000Y-124400000D02*
X144250000Y-129900000D01*
X144250000Y-129900000D02*
X144750000Y-129900000D01*
X144750000Y-124400000D02*
X144250000Y-124400000D01*
X144750000Y-129900000D02*
X144750000Y-124400000D01*
X146750000Y-124400000D02*
X146750000Y-129900000D01*
X146750000Y-129900000D02*
X147250000Y-129900000D01*
X147250000Y-124400000D02*
X146750000Y-124400000D01*
X147250000Y-129900000D02*
X147250000Y-124400000D01*
X149250000Y-124400000D02*
X149250000Y-129900000D01*
X149250000Y-129900000D02*
X149750000Y-129900000D01*
X149750000Y-124400000D02*
X149250000Y-124400000D01*
X149750000Y-129900000D02*
X149750000Y-124400000D01*
X151750000Y-124400000D02*
X151750000Y-129900000D01*
X151750000Y-129900000D02*
X152250000Y-129900000D01*
X152250000Y-124400000D02*
X151750000Y-124400000D01*
X152250000Y-129900000D02*
X152250000Y-124400000D01*
X154250000Y-124400000D02*
X154250000Y-129900000D01*
X154250000Y-129900000D02*
X154750000Y-129900000D01*
X154750000Y-124400000D02*
X154250000Y-124400000D01*
X154750000Y-129900000D02*
X154750000Y-124400000D01*
X155640000Y-131010000D02*
X155640000Y-135510000D01*
X155640000Y-135510000D02*
X157060000Y-135510000D01*
X157060000Y-123790000D02*
X148250000Y-123790000D01*
X157060000Y-135510000D02*
X157060000Y-123790000D01*
%TO.C,U5*%
X173900000Y-56310000D02*
X175850000Y-56310000D01*
X173900000Y-61430000D02*
X175850000Y-61430000D01*
X177800000Y-56310000D02*
X175850000Y-56310000D01*
X177800000Y-61430000D02*
X175850000Y-61430000D01*
X178550000Y-56405000D02*
X178310000Y-56075000D01*
X178790000Y-56075000D01*
X178550000Y-56405000D01*
G36*
X178550000Y-56405000D02*
G01*
X178310000Y-56075000D01*
X178790000Y-56075000D01*
X178550000Y-56405000D01*
G37*
%TO.C,C6*%
X177753733Y-62840000D02*
X178046267Y-62840000D01*
X177753733Y-63860000D02*
X178046267Y-63860000D01*
%TO.C,U1*%
X194115000Y-114785000D02*
X194115000Y-134785000D01*
X194115000Y-114785000D02*
X221115000Y-114785000D01*
X194115000Y-134785000D02*
X221115000Y-134785000D01*
X221115000Y-114785000D02*
X221115000Y-134785000D01*
%TO.C,U3*%
X191880000Y-61870000D02*
X191880000Y-83870000D01*
X191880000Y-83870000D02*
X215880000Y-83870000D01*
X215880000Y-61870000D02*
X191880000Y-61870000D01*
X215880000Y-83870000D02*
X215880000Y-61870000D01*
X193880000Y-79470000D02*
G75*
G02*
X192880000Y-79470000I-500000J0D01*
G01*
X192880000Y-79470000D02*
G75*
G02*
X193880000Y-79470000I500000J0D01*
G01*
X196380000Y-79470000D02*
G75*
G02*
X195380000Y-79470000I-500000J0D01*
G01*
X195380000Y-79470000D02*
G75*
G02*
X196380000Y-79470000I500000J0D01*
G01*
%TO.C,J5*%
X166290000Y-74290000D02*
X166290000Y-83010000D01*
X166290000Y-74290000D02*
X171710000Y-74290000D01*
X166290000Y-83010000D02*
X167590000Y-84710000D01*
X167590000Y-84710000D02*
X170410000Y-84710000D01*
X171710000Y-74290000D02*
X171710000Y-83010000D01*
X171710000Y-83010000D02*
X170410000Y-84710000D01*
%TD*%
%LPC*%
D12*
%TO.C,SW1*%
X213435000Y-122775000D03*
D13*
X210895000Y-122775000D03*
X215975000Y-122775000D03*
%TD*%
D14*
%TO.C,U7*%
X157512500Y-88335000D03*
D15*
X160052500Y-88335000D03*
X157512500Y-90875000D03*
X160052500Y-90875000D03*
%TD*%
D16*
%TO.C,D3*%
X174000000Y-90550000D03*
D17*
X174000000Y-88010000D03*
%TD*%
D16*
%TO.C,D2*%
X179500000Y-90550000D03*
D17*
X179500000Y-88010000D03*
%TD*%
D18*
%TO.C,U10*%
X179725000Y-125825000D03*
D19*
X182225000Y-125825000D03*
%TD*%
D20*
%TO.C,SW2*%
X205750000Y-129750000D03*
X199250000Y-129750000D03*
X205750000Y-125250000D03*
X199250000Y-125250000D03*
%TD*%
D21*
%TO.C,J4*%
X186475000Y-58275000D03*
D22*
X186475000Y-56275000D03*
%TD*%
D14*
%TO.C,J6*%
X95275000Y-127900000D03*
D15*
X92735000Y-127900000D03*
X90195000Y-127900000D03*
X87655000Y-127900000D03*
%TD*%
D23*
%TO.C,U11*%
X219500000Y-116630000D03*
X219500000Y-58630000D03*
X196500000Y-116630000D03*
X196500000Y-58630000D03*
D14*
X218230000Y-111760000D03*
D15*
X220770000Y-111760000D03*
X218230000Y-109220000D03*
X220770000Y-109220000D03*
X218230000Y-106680000D03*
X220770000Y-106680000D03*
X218230000Y-104140000D03*
X220770000Y-104140000D03*
X218230000Y-101600000D03*
X220770000Y-101600000D03*
X218230000Y-99060000D03*
X220770000Y-99060000D03*
X218230000Y-96520000D03*
X220770000Y-96520000D03*
X218230000Y-93980000D03*
X220770000Y-93980000D03*
X218230000Y-91440000D03*
X220770000Y-91440000D03*
X218230000Y-88900000D03*
X220770000Y-88900000D03*
X218230000Y-86360000D03*
X220770000Y-86360000D03*
X218230000Y-83820000D03*
X220770000Y-83820000D03*
X218230000Y-81280000D03*
X220770000Y-81280000D03*
X218230000Y-78740000D03*
X220770000Y-78740000D03*
X218230000Y-76200000D03*
X220770000Y-76200000D03*
X218230000Y-73660000D03*
X220770000Y-73660000D03*
X218230000Y-71120000D03*
X220770000Y-71120000D03*
X218230000Y-68580000D03*
X220770000Y-68580000D03*
X218230000Y-66040000D03*
X220770000Y-66040000D03*
X218230000Y-63500000D03*
X220770000Y-63500000D03*
%TD*%
D14*
%TO.C,U2*%
X165975000Y-55695000D03*
D15*
X165975000Y-58235000D03*
X165975000Y-60775000D03*
X165975000Y-63315000D03*
%TD*%
D24*
%TO.C,MD1*%
X175975000Y-72275000D03*
X180475000Y-72275000D03*
X184225000Y-73525000D03*
%TD*%
D25*
%TO.C,U6*%
X213015000Y-56275000D03*
X210475000Y-56275000D03*
X207935000Y-56275000D03*
X205395000Y-56275000D03*
X202855000Y-56275000D03*
%TD*%
D16*
%TO.C,D1*%
X168375000Y-90550000D03*
D17*
X168375000Y-88010000D03*
%TD*%
D26*
%TO.C,C9*%
X154000000Y-109500000D03*
D13*
X154000000Y-107000000D03*
%TD*%
D14*
%TO.C,J7*%
X220975000Y-130550000D03*
D15*
X220975000Y-128010000D03*
%TD*%
D27*
%TO.C,M1*%
X147325000Y-113775000D03*
D28*
X147325000Y-116275000D03*
X147325000Y-118775000D03*
%TD*%
D13*
%TO.C,U12*%
X161460000Y-95220000D03*
X161460000Y-97760000D03*
X161460000Y-100300000D03*
X161460000Y-102840000D03*
X161460000Y-105380000D03*
X161460000Y-107920000D03*
X161460000Y-110460000D03*
X161460000Y-113000000D03*
X161460000Y-115540000D03*
X161460000Y-118080000D03*
X189400000Y-118080000D03*
X189400000Y-115540000D03*
X189400000Y-113000000D03*
X189400000Y-110460000D03*
X189400000Y-107920000D03*
X189400000Y-105380000D03*
X189400000Y-102840000D03*
X189400000Y-100300000D03*
X189400000Y-97760000D03*
X189400000Y-95220000D03*
%TD*%
D29*
%TO.C,J1*%
X161000000Y-131500000D03*
D30*
X163500000Y-131500000D03*
X166000000Y-131500000D03*
X168500000Y-131500000D03*
X171000000Y-131500000D03*
X173500000Y-131500000D03*
%TD*%
D29*
%TO.C,J2*%
X142000000Y-131500000D03*
D30*
X144500000Y-131500000D03*
X147000000Y-131500000D03*
X149500000Y-131500000D03*
X152000000Y-131500000D03*
X154500000Y-131500000D03*
%TD*%
D31*
%TO.C,U5*%
X178475000Y-56965000D03*
X178475000Y-58235000D03*
X178475000Y-59505000D03*
X178475000Y-60775000D03*
X173225000Y-60775000D03*
X173225000Y-59505000D03*
X173225000Y-58235000D03*
X173225000Y-56965000D03*
%TD*%
D32*
%TO.C,C6*%
X178762500Y-63350000D03*
X177037500Y-63350000D03*
%TD*%
D25*
%TO.C,U1*%
X214025000Y-133505000D03*
X211485000Y-133505000D03*
X208945000Y-133505000D03*
X206405000Y-133505000D03*
X203865000Y-133505000D03*
X201325000Y-133505000D03*
X211485000Y-116045000D03*
X208945000Y-116045000D03*
X206405000Y-116045000D03*
X203865000Y-116045000D03*
%TD*%
D33*
%TO.C,U3*%
X198630000Y-63120000D03*
X199900000Y-63120000D03*
X201170000Y-63120000D03*
X202440000Y-63120000D03*
X203710000Y-63120000D03*
X204980000Y-63120000D03*
X206250000Y-63120000D03*
X207520000Y-63120000D03*
X208790000Y-63120000D03*
X210060000Y-63120000D03*
X211330000Y-63120000D03*
X212600000Y-63120000D03*
X213870000Y-63120000D03*
X213870000Y-82620000D03*
X212600000Y-82620000D03*
X211330000Y-82620000D03*
X210060000Y-82620000D03*
X208790000Y-82620000D03*
X207520000Y-82620000D03*
X206250000Y-82620000D03*
X204980000Y-82620000D03*
X203710000Y-82620000D03*
X202440000Y-82620000D03*
X201170000Y-82620000D03*
X199900000Y-82620000D03*
X198630000Y-82620000D03*
%TD*%
D34*
%TO.C,J5*%
X169000000Y-82000000D03*
D35*
X169000000Y-77000000D03*
%TD*%
%LPD*%
M02*
